<svg width="27" height="27" viewBox="0 0 27 27" fill="none" xmlns="http://www.w3.org/2000/svg">
<g clip-path="url(#clip0_3082_9831)">
<path d="M4.27273 13C3.02273 13 2 12 2 10.7778V5.22222C2 4 3.02273 3 4.27273 3H13.3636C14.6136 3 15.6364 4 15.6364 5.22222V10.7778C15.6364 12 14.6136 13 13.3636 13H11.0909V16.3333L7.68182 13H4.27273ZM24.7273 19.6667C25.9773 19.6667 27 18.6667 27 17.4444V11.8889C27 10.6667 25.9773 9.66667 24.7273 9.66667H17.9091V10.7778C17.9091 13.2222 15.8636 15.2222 13.3636 15.2222V17.4444C13.3636 18.6667 14.3864 19.6667 15.6364 19.6667H17.9091V23L21.3182 19.6667H24.7273Z" fill="white"/>
<path d="M19.7155 3.02214C19.8928 2.50336 20.6096 2.48765 20.8197 2.975L20.8375 3.02243L21.0768 3.72204C21.1316 3.88248 21.2202 4.0293 21.3366 4.1526C21.453 4.27589 21.5944 4.37279 21.7515 4.43676L21.8158 4.46077L22.4756 4.81621C22.9944 4.99348 22.9873 5.49536 22.5002 5.70554L21.7591 6.06097C21.7591 6.06097 21.5084 6.20434 21.3851 6.32073C21.2617 6.43713 21.1648 6.57863 21.1008 6.73568L21.0768 6.79971L20.8378 7.49961C20.6606 8.01839 19.9438 8.0341 19.7339 7.54704L19.7155 7.49961L19.4766 6.80001C19.4218 6.63951 19.3332 6.49263 19.2168 6.36928C19.1004 6.24593 18.9589 6.14899 18.8019 6.08499L18.7378 6.06097L18.0382 5.82204C17.5191 5.64477 17.5034 4.92797 17.9908 4.71809L18.0382 4.69971L18.7378 4.46077C18.8983 4.40595 19.0451 4.31735 19.1684 4.20096C19.2917 4.08457 19.3886 3.94309 19.4525 3.78607L19.4766 3.72204L19.7155 3.02214ZM22.6482 2C22.7037 2 22.758 2.01556 22.8051 2.0449C22.8521 2.07425 22.89 2.11621 22.9144 2.16601L22.9286 2.20069L23.0324 2.50484L23.3368 2.6086C23.3924 2.62748 23.4411 2.66244 23.4768 2.70904C23.5125 2.75564 23.5336 2.81179 23.5373 2.87036C23.5411 2.92894 23.5273 2.98731 23.4979 3.03808C23.4684 3.08885 23.4245 3.12973 23.3718 3.15554L23.3368 3.16976L23.0327 3.27352L22.9289 3.57797C22.91 3.63353 22.875 3.68223 22.8284 3.71789C22.7818 3.75355 22.7256 3.77457 22.6671 3.77828C22.6085 3.78199 22.5501 3.76824 22.4994 3.73875C22.4486 3.70927 22.4078 3.66538 22.382 3.61265L22.3678 3.57797L22.264 3.27382L21.9596 3.17006C21.904 3.15118 21.8553 3.11622 21.8196 3.06962C21.7839 3.02302 21.7628 2.96687 21.7591 2.9083C21.7553 2.84972 21.7691 2.79135 21.7985 2.74058C21.828 2.68981 21.8719 2.64893 21.9246 2.62312L21.9596 2.60889L22.2637 2.50514L22.3675 2.20069C22.3875 2.14212 22.4253 2.09128 22.4756 2.05529C22.526 2.0193 22.5863 1.99996 22.6482 2Z" fill="white"/>
</g>
<defs>
<clipPath id="clip0_3082_9831">
<rect width="26" height="26" fill="white" transform="translate(0.625 0.5)"/>
</clipPath>
</defs>
</svg>
