<svg width="27" height="27" viewBox="0 0 27 27" fill="none" xmlns="http://www.w3.org/2000/svg">
<path d="M21.9602 17.8312C21.7621 17.6202 21.0627 16.9964 19.7771 16.171C18.4819 15.3385 17.5268 14.8193 17.2528 14.6983C17.2287 14.6876 17.2021 14.6836 17.1759 14.6869C17.1496 14.6902 17.1248 14.7006 17.1041 14.7169C16.6627 15.0611 15.9197 15.6933 15.8799 15.7274C15.6226 15.9479 15.6226 15.9479 15.412 15.8792C15.0416 15.7578 13.8911 15.1468 12.8885 14.142C11.8859 13.1371 11.2435 11.9581 11.122 11.5881C11.0526 11.3772 11.0526 11.3772 11.2738 11.1199C11.308 11.08 11.9406 10.337 12.2847 9.89608C12.3011 9.87531 12.3114 9.85049 12.3147 9.82428C12.318 9.79807 12.314 9.77147 12.3033 9.74732C12.1823 9.47296 11.6632 8.51821 10.8306 7.22308C10.0041 5.93781 9.381 5.23844 9.17001 5.04036C9.15065 5.02209 9.12672 5.00938 9.10074 5.00357C9.07476 4.99776 9.0477 4.99906 9.0224 5.00734C8.28489 5.2608 7.5733 5.58419 6.89734 5.9731C6.24481 6.35243 5.62703 6.78862 5.0512 7.27658C5.0311 7.29367 5.01603 7.31591 5.00761 7.34091C4.99918 7.36591 4.99772 7.39274 5.00339 7.41851C5.0827 7.78811 5.46179 9.33104 6.63816 11.4682C7.83844 13.6494 8.67025 14.767 10.4329 16.5235C12.1956 18.2801 13.3484 19.162 15.5319 20.3623C17.6691 21.5386 19.2128 21.9181 19.5817 21.9967C19.6075 22.0023 19.6343 22.0008 19.6594 21.9924C19.6844 21.984 19.7068 21.9689 19.724 21.9488C20.2118 21.373 20.6479 20.7553 21.0271 20.1027C21.4159 19.4267 21.7393 18.7152 21.9928 17.9777C22.0009 17.9526 22.0022 17.9258 21.9965 17.9C21.9907 17.8742 21.9782 17.8505 21.9602 17.8312Z" fill="white"/>
</svg>
