<svg width="71" height="73" viewBox="0 0 71 73" fill="none" xmlns="http://www.w3.org/2000/svg">
<path d="M12.6343 0H65.0846C66.3901 0 67.638 0.518359 68.5595 1.43989C69.481 2.36141 69.9994 3.60932 69.9994 4.91481V67.3099C69.9994 68.6154 69.481 69.8633 68.5595 70.7848C67.638 71.7063 66.3901 72.2247 65.0846 72.2247H5.91481C4.60931 72.2247 3.36141 71.7063 2.43989 70.7848C1.51836 69.8633 1 68.6154 1 67.3099V11.7495L12.6343 0Z" fill="white" fill-opacity="0.3" stroke="#BABABA" stroke-width="0.979123" stroke-linecap="round" stroke-linejoin="round"/>
<path d="M1 11.7495H10.5224C11.0792 11.7495 11.6168 11.5191 12.0199 11.1351C12.4039 10.732 12.6343 10.1944 12.6343 9.63764V0L1 11.7495Z" fill="white" stroke="#BABABA" stroke-width="0.979123" stroke-linecap="round" stroke-linejoin="round"/>
<path d="M35.6928 37.315L27.4498 45.558C27.3032 45.7047 27.123 45.7832 26.9093 45.7937C26.6956 45.8042 26.5049 45.7256 26.3373 45.558C26.1697 45.3904 26.0859 45.205 26.0859 45.0018C26.0859 44.7986 26.1697 44.6132 26.3373 44.4456L34.5803 36.2026L26.3373 27.9596C26.1907 27.8129 26.1121 27.6328 26.1017 27.4191C26.0912 27.2054 26.1697 27.0147 26.3373 26.8471C26.5049 26.6795 26.6904 26.5957 26.8936 26.5957C27.0968 26.5957 27.2822 26.6795 27.4498 26.8471L35.6928 35.0901L43.9358 26.8471C44.0824 26.7005 44.2631 26.6219 44.4779 26.6114C44.6905 26.6009 44.8807 26.6795 45.0483 26.8471C45.2159 27.0147 45.2997 27.2001 45.2997 27.4033C45.2997 27.6066 45.2159 27.792 45.0483 27.9596L36.8053 36.2026L45.0483 44.4456C45.1949 44.5922 45.2735 44.7729 45.284 44.9876C45.2944 45.2003 45.2159 45.3904 45.0483 45.558C44.8807 45.7256 44.6952 45.8094 44.492 45.8094C44.2888 45.8094 44.1034 45.7256 43.9358 45.558L35.6928 37.315Z" fill="#BABABA"/>
</svg>
