<svg width="39" height="42" viewBox="0 0 39 42" fill="none" xmlns="http://www.w3.org/2000/svg">
<path d="M34.0833 0.166504H17.4167C16.3116 0.166504 15.2518 0.605491 14.4704 1.38689C13.689 2.16829 13.25 3.2281 13.25 4.33317V16.8332H4.91667C2.61875 16.8332 0.75 18.7019 0.75 20.9998V39.7498C0.75 40.3024 0.969493 40.8323 1.36019 41.223C1.75089 41.6137 2.2808 41.8332 2.83333 41.8332H36.1667C36.7192 41.8332 37.2491 41.6137 37.6398 41.223C38.0305 40.8323 38.25 40.3024 38.25 39.7498V4.33317C38.25 3.2281 37.811 2.16829 37.0296 1.38689C36.2482 0.605491 35.1884 0.166504 34.0833 0.166504ZM4.91667 37.6665V20.9998H17.4167V37.6665H4.91667ZM23.6667 12.6665H19.5V8.49984H23.6667V12.6665ZM32 29.3332H27.8333V25.1665H32V29.3332ZM32 20.9998H27.8333V16.8332H32V20.9998ZM32 12.6665H27.8333V8.49984H32V12.6665Z" fill="white"/>
</svg>
