<svg width="50" height="50" viewBox="0 0 50 50" fill="none" xmlns="http://www.w3.org/2000/svg">
<path d="M24.9974 45.8337C22.1502 45.8337 19.4592 45.2864 16.9245 44.192C14.3898 43.0975 12.1766 41.6045 10.2849 39.7128C8.39323 37.8212 6.90017 35.608 5.80573 33.0732C4.71128 30.5385 4.16406 27.8475 4.16406 25.0003C4.16406 22.1184 4.72865 19.41 5.85781 16.8753C6.98698 14.3406 8.51476 12.1357 10.4411 10.2607C12.3675 8.38574 14.6155 6.90171 17.1849 5.80866C19.7543 4.7156 22.4974 4.16838 25.4141 4.16699C28.1918 4.16699 30.8134 4.64477 33.2786 5.60033C35.7439 6.55588 37.9057 7.87533 39.7641 9.55866C41.6224 11.242 43.0981 13.2385 44.1911 15.5482C45.2842 17.858 45.8307 20.3489 45.8307 23.0212C45.8307 27.0142 44.6155 30.0788 42.1849 32.2149C39.7543 34.351 36.803 35.4184 33.3307 35.417H29.4766C29.1641 35.417 28.9474 35.5038 28.8266 35.6774C28.7057 35.851 28.6446 36.042 28.6432 36.2503C28.6432 36.667 28.9036 37.2663 29.4245 38.0482C29.9453 38.8302 30.2057 39.7239 30.2057 40.7295C30.2057 42.4656 29.7286 43.7503 28.7745 44.5837C27.8203 45.417 26.5613 45.8337 24.9974 45.8337ZM13.5391 27.0837C14.4418 27.0837 15.1884 26.7885 15.7786 26.1982C16.3689 25.608 16.6641 24.8614 16.6641 23.9587C16.6641 23.0559 16.3689 22.3094 15.7786 21.7191C15.1884 21.1288 14.4418 20.8337 13.5391 20.8337C12.6363 20.8337 11.8898 21.1288 11.2995 21.7191C10.7092 22.3094 10.4141 23.0559 10.4141 23.9587C10.4141 24.8614 10.7092 25.608 11.2995 26.1982C11.8898 26.7885 12.6363 27.0837 13.5391 27.0837ZM19.7891 18.7503C20.6918 18.7503 21.4384 18.4552 22.0286 17.8649C22.6189 17.2746 22.9141 16.5281 22.9141 15.6253C22.9141 14.7225 22.6189 13.976 22.0286 13.3857C21.4384 12.7955 20.6918 12.5003 19.7891 12.5003C18.8863 12.5003 18.1398 12.7955 17.5495 13.3857C16.9592 13.976 16.6641 14.7225 16.6641 15.6253C16.6641 16.5281 16.9592 17.2746 17.5495 17.8649C18.1398 18.4552 18.8863 18.7503 19.7891 18.7503ZM30.2057 18.7503C31.1085 18.7503 31.855 18.4552 32.4453 17.8649C33.0356 17.2746 33.3307 16.5281 33.3307 15.6253C33.3307 14.7225 33.0356 13.976 32.4453 13.3857C31.855 12.7955 31.1085 12.5003 30.2057 12.5003C29.303 12.5003 28.5564 12.7955 27.9661 13.3857C27.3759 13.976 27.0807 14.7225 27.0807 15.6253C27.0807 16.5281 27.3759 17.2746 27.9661 17.8649C28.5564 18.4552 29.303 18.7503 30.2057 18.7503ZM36.4557 27.0837C37.3585 27.0837 38.105 26.7885 38.6953 26.1982C39.2856 25.608 39.5807 24.8614 39.5807 23.9587C39.5807 23.0559 39.2856 22.3094 38.6953 21.7191C38.105 21.1288 37.3585 20.8337 36.4557 20.8337C35.553 20.8337 34.8064 21.1288 34.2161 21.7191C33.6259 22.3094 33.3307 23.0559 33.3307 23.9587C33.3307 24.8614 33.6259 25.608 34.2161 26.1982C34.8064 26.7885 35.553 27.0837 36.4557 27.0837Z" fill="white"/>
</svg>
