<svg width="42" height="38" viewBox="0 0 42 38" fill="none" xmlns="http://www.w3.org/2000/svg">
<path d="M21.2057 37.75C20.6155 37.75 20.121 37.55 19.7224 37.15C19.3238 36.75 19.1238 36.2556 19.1224 35.6667C19.1224 35.4236 19.1745 35.1715 19.2786 34.9104C19.3828 34.6493 19.5391 34.4153 19.7474 34.2083L29.3828 24.5729L27.8724 23.0625L18.2891 32.6979C18.0807 32.9063 17.855 33.0625 17.612 33.1667C17.3689 33.2708 17.1085 33.3229 16.8307 33.3229C16.2405 33.3229 15.746 33.1236 15.3474 32.725C14.9488 32.3264 14.7488 31.8313 14.7474 31.2396C14.7474 30.8924 14.7995 30.6056 14.9036 30.3792C15.0078 30.1528 15.1467 29.9535 15.3203 29.7813L24.9557 20.1458L23.4974 18.6875L13.862 28.2708C13.6536 28.4792 13.428 28.6354 13.1849 28.7396C12.9418 28.8438 12.6641 28.8958 12.3516 28.8958C11.796 28.8958 11.3099 28.6875 10.8932 28.2708C10.4766 27.8542 10.2682 27.3681 10.2682 26.8125C10.2682 26.5347 10.3203 26.2743 10.4245 26.0313C10.5286 25.7882 10.6849 25.5625 10.8932 25.3542L20.5286 15.7188L19.0182 14.2604L9.4349 23.8958C9.26128 24.0695 9.05295 24.2083 8.8099 24.3125C8.56684 24.4167 8.2717 24.4688 7.92448 24.4688C7.3342 24.4688 6.83906 24.2688 6.43906 23.8688C6.03906 23.4688 5.83976 22.9743 5.84115 22.3854C5.84115 22.1076 5.89323 21.8472 5.9974 21.6042C6.10156 21.3611 6.25781 21.1354 6.46615 20.9271L18.0807 9.31251L25.8932 17.1771C26.2752 17.559 26.7266 17.8632 27.2474 18.0896C27.7682 18.316 28.2891 18.4285 28.8099 18.4271C29.921 18.4271 30.8932 18.0368 31.7266 17.2563C32.5599 16.4757 32.9766 15.4771 32.9766 14.2604C32.9766 13.7743 32.8898 13.2708 32.7161 12.75C32.5425 12.2292 32.23 11.7431 31.7786 11.2917L22.4557 1.96876C23.046 1.4132 23.7057 0.988203 24.4349 0.693759C25.1641 0.399314 25.8932 0.251398 26.6224 0.250009C27.5252 0.250009 28.3585 0.397925 29.1224 0.693759C29.8863 0.989592 30.5807 1.44931 31.2057 2.07293L40.0078 10.9271C40.6328 11.5521 41.0932 12.2465 41.3891 13.0104C41.6849 13.7743 41.8321 14.6597 41.8307 15.6667C41.8307 16.3611 41.6745 17.0646 41.362 17.7771C41.0495 18.4896 40.5981 19.1403 40.0078 19.7292L22.6641 37.125C22.3863 37.4028 22.1432 37.5764 21.9349 37.6458C21.7266 37.7153 21.4835 37.75 21.2057 37.75ZM3.34115 21.0833L1.98698 19.7292C1.3967 19.1736 0.945312 18.5139 0.632812 17.75C0.320312 16.9861 0.164063 16.1875 0.164062 15.3542C0.164062 14.4514 0.337674 13.6181 0.684896 12.8542C1.03212 12.0903 1.46615 11.4479 1.98698 10.9271L10.7891 2.07293C11.3446 1.51737 12.0043 1.07431 12.7682 0.743759C13.5321 0.413203 14.2786 0.24862 15.0078 0.250009C15.9453 0.250009 16.7786 0.380564 17.5078 0.641675C18.237 0.902786 18.9488 1.37987 19.6432 2.07293L30.3203 12.75C30.5286 12.9583 30.6849 13.184 30.7891 13.4271C30.8932 13.6701 30.9453 13.9306 30.9453 14.2083C30.9453 14.7639 30.737 15.25 30.3203 15.6667C29.9036 16.0833 29.4175 16.2917 28.862 16.2917C28.5495 16.2917 28.2891 16.2486 28.0807 16.1625C27.8724 16.0764 27.6467 15.9111 27.4036 15.6667L18.0286 6.39584L3.34115 21.0833Z" fill="white"/>
</svg>
