<svg width="807" height="784" viewBox="0 0 807 784" fill="none" xmlns="http://www.w3.org/2000/svg">
<g style="mix-blend-mode:color-dodge" filter="url(#filter0_f_3139_26300)">
<path d="M332.91 517.378C390.841 539.003 455.443 509.611 477.181 451.723C498.919 393.834 469.562 329.369 411.631 307.743C353.7 286.118 289.099 315.51 267.361 373.398C245.622 431.287 274.979 495.752 332.91 517.378Z" fill="url(#paint0_radial_3139_26300)"/>
</g>
<g filter="url(#filter1_f_3139_26300)">
<path d="M467.217 441.777C499.919 403.417 495.077 345.75 456.621 313.16C418.166 280.57 360.302 285.097 327.6 323.457C294.898 361.817 299.74 419.484 338.196 452.074C376.651 484.664 434.515 480.137 467.217 441.777Z" fill="url(#paint1_radial_3139_26300)"/>
</g>
<g style="mix-blend-mode:color-dodge" filter="url(#filter2_f_3139_26300)">
<path d="M452.624 463.501C488.86 477.028 529.269 458.643 542.866 422.433C556.464 386.223 538.101 345.899 501.864 332.373C465.628 318.846 425.219 337.23 411.622 373.44C398.024 409.65 416.387 449.974 452.624 463.501Z" fill="url(#paint2_radial_3139_26300)"/>
</g>
<defs>
<filter id="filter0_f_3139_26300" x="0.750244" y="41.197" width="743.041" height="742.727" filterUnits="userSpaceOnUse" color-interpolation-filters="sRGB">
<feFlood flood-opacity="0" result="BackgroundImageFix"/>
<feBlend mode="normal" in="SourceGraphic" in2="BackgroundImageFix" result="shape"/>
<feGaussianBlur stdDeviation="129.72" result="effect1_foregroundBlur_3139_26300"/>
</filter>
<filter id="filter1_f_3139_26300" x="15.3269" y="0.839081" width="764.163" height="763.556" filterUnits="userSpaceOnUse" color-interpolation-filters="sRGB">
<feFlood flood-opacity="0" result="BackgroundImageFix"/>
<feBlend mode="normal" in="SourceGraphic" in2="BackgroundImageFix" result="shape"/>
<feGaussianBlur stdDeviation="145.287" result="effect1_foregroundBlur_3139_26300"/>
</filter>
<filter id="filter2_f_3139_26300" x="147.697" y="68.4872" width="659.095" height="658.899" filterUnits="userSpaceOnUse" color-interpolation-filters="sRGB">
<feFlood flood-opacity="0" result="BackgroundImageFix"/>
<feBlend mode="normal" in="SourceGraphic" in2="BackgroundImageFix" result="shape"/>
<feGaussianBlur stdDeviation="129.72" result="effect1_foregroundBlur_3139_26300"/>
</filter>
<radialGradient id="paint0_radial_3139_26300" cx="0" cy="0" r="1" gradientUnits="userSpaceOnUse" gradientTransform="translate(412.771 392.968) rotate(16.5589) scale(160.172 160.107)">
<stop stop-color="#FFE600"/>
<stop offset="1" stop-color="#A500DF"/>
</radialGradient>
<radialGradient id="paint1_radial_3139_26300" cx="0" cy="0" r="1" gradientUnits="userSpaceOnUse" gradientTransform="translate(393.127 401.761) rotate(-164.552) scale(95.514 95.4696)">
<stop stop-color="#FFD057"/>
<stop offset="1" stop-color="#FFD84B" stop-opacity="0.08"/>
</radialGradient>
<radialGradient id="paint2_radial_3139_26300" cx="0" cy="0" r="1" gradientUnits="userSpaceOnUse" gradientTransform="translate(458.286 420.487) rotate(-134.766) scale(66.264 66.404)">
<stop stop-color="#FFD18B"/>
<stop offset="0.0001" stop-color="#FFD18B"/>
<stop offset="0.755208" stop-color="#8BFFAB" stop-opacity="0.7"/>
</radialGradient>
</defs>
</svg>
