<svg width="150" height="150" viewBox="0 0 150 150" fill="none" xmlns="http://www.w3.org/2000/svg">
<circle cx="75" cy="75" r="60" fill="#202055" fill-opacity="0.2"/>
<circle cx="75" cy="75" r="75" fill="#202055" fill-opacity="0.5"/>
<path d="M75 29C100.405 29 121 49.5949 121 75C121 100.405 100.405 121 75 121C49.5949 121 29 100.405 29 75C29 49.5949 49.5949 29 75 29ZM75.167 68.333C74.2829 68.333 73.4347 68.6844 72.8096 69.3096C72.1844 69.9347 71.833 70.7829 71.833 71.667V91.667C71.8331 92.5508 72.1846 93.3984 72.8096 94.0234C73.4347 94.6486 74.2829 95 75.167 95C76.0509 94.9999 76.8984 94.6485 77.5234 94.0234C78.1485 93.3984 78.4999 92.5509 78.5 91.667V71.667C78.5 70.7829 78.1486 69.9347 77.5234 69.3096C76.8984 68.6846 76.0509 68.3331 75.167 68.333ZM75.167 55C74.3429 55 73.5368 55.2443 72.8516 55.7021C72.1664 56.16 71.6327 56.811 71.3174 57.5723C71.002 58.3336 70.9193 59.1713 71.0801 59.9795C71.2408 60.7877 71.638 61.5306 72.2207 62.1133C72.8033 62.6957 73.5455 63.0921 74.3535 63.2529C75.1616 63.4137 75.9995 63.3318 76.7607 63.0166C77.5221 62.7012 78.173 62.1666 78.6309 61.4814C79.0886 60.7963 79.3329 59.991 79.333 59.167C79.333 58.0621 78.8945 57.0021 78.1133 56.2207C77.332 55.4394 76.2719 55.0001 75.167 55Z" fill="#202055"/>
</svg>
