<svg width="10" height="40" viewBox="0 0 10 40" fill="none" xmlns="http://www.w3.org/2000/svg">
<path d="M4.99968 13.3333C4.11562 13.3333 3.26778 13.6845 2.64265 14.3096C2.01753 14.9348 1.66634 15.7826 1.66634 16.6667V36.6667C1.66634 37.5507 2.01753 38.3986 2.64265 39.0237C3.26778 39.6488 4.11562 40 4.99968 40C5.88373 40 6.73158 39.6488 7.3567 39.0237C7.98182 38.3986 8.33301 37.5507 8.33301 36.6667V16.6667C8.33301 15.7826 7.98182 14.9348 7.3567 14.3096C6.73158 13.6845 5.88373 13.3333 4.99968 13.3333ZM4.99968 0C4.17559 0 3.37001 0.24437 2.6848 0.702209C1.9996 1.16005 1.46554 1.81079 1.15018 2.57215C0.834814 3.33351 0.752299 4.17129 0.913071 4.97954C1.07384 5.7878 1.47068 6.53023 2.0534 7.11294C2.63612 7.69566 3.37855 8.0925 4.1868 8.25327C4.99505 8.41404 5.83283 8.33153 6.59419 8.01616C7.35555 7.7008 8.00629 7.16675 8.46413 6.48154C8.92197 5.79634 9.16634 4.99076 9.16634 4.16667C9.16634 3.0616 8.72736 2.00179 7.94595 1.22039C7.16455 0.438987 6.10474 0 4.99968 0Z" fill="white"/>
</svg>
