<svg width="305" height="48" viewBox="0 0 305 48" fill="none" xmlns="http://www.w3.org/2000/svg">
<path d="M6.86816 13.6426H12.7461L9.85156 8.18359L6.86816 13.6426ZM0.863281 19L8.45508 5.58105H11.4639L19.1572 19H15.6533L14.041 16.0674H5.53516L3.97363 19H0.863281ZM24.3169 16.9434H27.77C29.6574 16.9434 30.9777 16.6683 31.731 16.1182C32.4842 15.568 32.8609 14.6413 32.8609 13.3379C32.8609 12.2038 32.5477 11.3617 31.9214 10.8115C31.2951 10.2529 30.3345 9.97363 29.0396 9.97363H24.3169V16.9434ZM21.6128 19V8.00586H29.0142C31.1385 8.00586 32.7678 8.47982 33.9019 9.42773C35.0444 10.3672 35.6157 11.7129 35.6157 13.4648C35.6157 15.3099 35.0106 16.6937 33.8003 17.6162C32.5985 18.5387 30.7788 19 28.3413 19H21.6128ZM44.0381 19L37.3858 8.00586H40.4199L45.0791 15.9785L49.4717 8.00586H52.252L45.8789 19H44.0381ZM52.397 19L58.9224 8.00586H61.4995L68.1265 19H65.1177L63.7339 16.5879H56.4595L55.0757 19H52.397ZM57.6021 14.582H62.6421L60.0777 9.99902L57.6021 14.582ZM70.5694 19V8.00586H72.4102L81.7413 15.3057V8.00586H84.1661V19H82.3125L73.0069 11.5859V19H70.5694ZM98.4029 10.0244H91.1793V16.8926H98.4029V14.5566L101.107 15.1025V16.3975C101.107 17.3962 100.908 18.0817 100.51 18.4541C100.113 18.818 99.3508 19 98.2252 19H91.357C90.2483 19 89.495 18.818 89.0972 18.4541C88.6994 18.0902 88.5005 17.4046 88.5005 16.3975V10.5957C88.5005 9.59701 88.6952 8.91569 89.0845 8.55176C89.4823 8.18783 90.2398 8.00586 91.357 8.00586H98.2252C99.3593 8.00586 100.121 8.18783 100.51 8.55176C100.908 8.91569 101.107 9.59701 101.107 10.5957V11.6621L98.4029 12.0557V10.0244ZM105.213 19V8.00586H117.007V9.94824H107.917V12.3477H113.211V14.2393H107.917V16.9434H117.147V19H105.213ZM123.423 16.9434H126.877C128.764 16.9434 130.084 16.6683 130.837 16.1182C131.591 15.568 131.967 14.6413 131.967 13.3379C131.967 12.2038 131.654 11.3617 131.028 10.8115C130.402 10.2529 129.441 9.97363 128.146 9.97363H123.423V16.9434ZM120.719 19V8.00586H128.121C130.245 8.00586 131.874 8.47982 133.008 9.42773C134.151 10.3672 134.722 11.7129 134.722 13.4648C134.722 15.3099 134.117 16.6937 132.907 17.6162C131.705 18.5387 129.885 19 127.448 19H120.719ZM152.646 13.6426H158.524L155.63 8.18359L152.646 13.6426ZM146.641 19L154.233 5.58105H157.242L164.935 19H161.431L159.819 16.0674H151.313L149.752 19H146.641ZM167.975 19V8.00586H169.816L179.147 15.3057V8.00586H181.571V19H179.718L170.412 11.5859V19H167.975ZM192.723 9.97363V19H190.045V9.97363H184.738V8.00586H198.043V9.97363H192.723ZM201.196 19V8.00586H203.862V19H201.196ZM207.245 13.4141V10.7354H213.3V13.4141H207.245ZM220.821 16.4736H224.859C227.008 16.4736 228.532 16.1393 229.429 15.4707C230.326 14.8021 230.775 13.6976 230.775 12.1572C230.775 10.7861 230.402 9.74935 229.657 9.04688C228.913 8.33594 227.812 7.98047 226.357 7.98047H220.821V16.4736ZM217.698 19V5.58105H226.331C228.794 5.58105 230.686 6.15658 232.006 7.30762C233.335 8.45866 233.999 10.0921 233.999 12.208C233.999 13.4606 233.741 14.5905 233.225 15.5977C232.709 16.5964 231.981 17.3835 231.041 17.959C230.457 18.3229 229.729 18.5895 228.858 18.7588C227.994 18.9196 226.886 19 225.531 19H217.698ZM247.208 9.89746H241.089V12.9443H247.208C247.673 12.9443 247.991 12.8766 248.16 12.7412C248.338 12.6058 248.426 12.3773 248.426 12.0557V10.7861C248.426 10.4645 248.338 10.236 248.16 10.1006C247.991 9.96517 247.673 9.89746 247.208 9.89746ZM238.448 19V8.00586H248.35C249.256 8.00586 249.912 8.17513 250.318 8.51367C250.724 8.84375 250.927 9.38542 250.927 10.1387V12.7285C250.927 13.4733 250.724 14.0107 250.318 14.3408C249.912 14.6709 249.256 14.8359 248.35 14.8359H246.84L252.07 19H248.223L243.615 14.8359H241.089V19H238.448ZM257.458 16.8926H266.32V10.0244H257.458V16.8926ZM254.779 10.5957C254.779 9.59701 254.974 8.91569 255.363 8.55176C255.753 8.18783 256.51 8.00586 257.636 8.00586H266.142C267.276 8.00586 268.033 8.18783 268.414 8.55176C268.804 8.91569 268.998 9.59701 268.998 10.5957V16.3975C268.998 17.4046 268.799 18.0902 268.402 18.4541C268.012 18.818 267.259 19 266.142 19H257.636C256.51 19 255.753 18.818 255.363 18.4541C254.974 18.0902 254.779 17.4046 254.779 16.3975V10.5957ZM273.32 19V8.00586H275.161L284.492 15.3057V8.00586H286.917V19H285.063L275.758 11.5859V19H273.32ZM291.518 19V8.00586H303.312V9.94824H294.222V12.3477H299.516V14.2393H294.222V16.9434H303.451V19H291.518Z" fill="url(#paint0_linear_2652_34452)"/>
<path d="M15.0566 31.9297H6.27148V34.8115H14.6377C15.9495 34.8115 16.834 35.0358 17.291 35.4844C17.7565 35.9329 17.9893 36.7666 17.9893 37.9854V39.8262C17.9893 41.0449 17.7565 41.8786 17.291 42.3271C16.834 42.7757 15.9495 43 14.6377 43H6.34766C5.03581 43 4.14714 42.7757 3.68164 42.3271C3.22461 41.8786 2.99609 41.0449 2.99609 39.8262V39.458L5.75098 38.8867V40.4736H15.2344V37.4141H6.86816C5.56478 37.4141 4.68457 37.1898 4.22754 36.7412C3.77051 36.2926 3.54199 35.459 3.54199 34.2402V32.7549C3.54199 31.5361 3.77051 30.7025 4.22754 30.2539C4.68457 29.8053 5.56478 29.5811 6.86816 29.5811H14.4854C15.7464 29.5811 16.6139 29.7969 17.0879 30.2285C17.5703 30.6602 17.8115 31.4261 17.8115 32.5264V32.8057L15.0566 33.4531V31.9297ZM23.187 43V32.0059H34.981V33.9482H25.8911V36.3477H31.1851V38.2393H25.8911V40.9434H35.1206V43H23.187ZM48.3291 34.0244H41.1055V40.8926H48.3291V38.5566L51.0332 39.1025V40.3975C51.0332 41.3962 50.8343 42.0817 50.4365 42.4541C50.0388 42.818 49.277 43 48.1514 43H41.2832C40.1745 43 39.4212 42.818 39.0235 42.4541C38.6257 42.0902 38.4268 41.4046 38.4268 40.3975V34.5957C38.4268 33.597 38.6214 32.9157 39.0108 32.5518C39.4086 32.1878 40.166 32.0059 41.2832 32.0059H48.1514C49.2855 32.0059 50.0472 32.1878 50.4365 32.5518C50.8343 32.9157 51.0332 33.597 51.0332 34.5957V35.6621L48.3291 36.0557V34.0244ZM57.8052 32.0059V40.9434H65.4605V32.0059H68.1646V40.3975C68.1646 41.3962 67.9615 42.0817 67.5552 42.4541C67.1574 42.818 66.3957 43 65.2701 43H57.9956C56.8785 43 56.121 42.818 55.7232 42.4541C55.3339 42.0902 55.1392 41.4046 55.1392 40.3975V32.0059H57.8052ZM81.5127 33.8975H75.3936V36.9443H81.5127C81.9782 36.9443 82.2956 36.8766 82.4649 36.7412C82.6426 36.6058 82.7315 36.3773 82.7315 36.0557V34.7861C82.7315 34.4645 82.6426 34.236 82.4649 34.1006C82.2956 33.9652 81.9782 33.8975 81.5127 33.8975ZM72.753 43V32.0059H82.6553C83.5609 32.0059 84.2168 32.1751 84.6231 32.5137C85.0293 32.8438 85.2325 33.3854 85.2325 34.1387V36.7285C85.2325 37.4733 85.0293 38.0107 84.6231 38.3408C84.2168 38.6709 83.5609 38.8359 82.6553 38.8359H81.1446L86.375 43H82.5284L77.92 38.8359H75.3936V43H72.753ZM89.3511 43V32.0059H92.0172V43H89.3511ZM103.156 33.9736V43H100.478V33.9736H95.171V32.0059H108.476V33.9736H103.156ZM115.781 43V38.0615L109.776 32.0059H113.394L117.317 36.1064L121.291 32.0059H124.439L118.46 38.0107V43H115.781ZM149.104 31.9297H140.319V34.8115H148.685C149.997 34.8115 150.881 35.0358 151.338 35.4844C151.804 35.9329 152.037 36.7666 152.037 37.9854V39.8262C152.037 41.0449 151.804 41.8786 151.338 42.3271C150.881 42.7757 149.997 43 148.685 43H140.395C139.083 43 138.195 42.7757 137.729 42.3271C137.272 41.8786 137.044 41.0449 137.044 39.8262V39.458L139.798 38.8867V40.4736H149.282V37.4141H140.916C139.612 37.4141 138.732 37.1898 138.275 36.7412C137.818 36.2926 137.589 35.459 137.589 34.2402V32.7549C137.589 31.5361 137.818 30.7025 138.275 30.2539C138.732 29.8053 139.612 29.5811 140.916 29.5811H148.533C149.794 29.5811 150.661 29.7969 151.135 30.2285C151.618 30.6602 151.859 31.4261 151.859 32.5264V32.8057L149.104 33.4531V31.9297ZM161.386 43V38.0615L155.381 32.0059H158.999L162.922 36.1064L166.896 32.0059H170.044L164.065 38.0107V43H161.386ZM182.491 33.9736H174.924V36.2969H182.085C183.21 36.2969 183.968 36.4788 184.357 36.8428C184.746 37.1982 184.941 37.8796 184.941 38.8867V40.3975C184.941 41.4046 184.742 42.0902 184.344 42.4541C183.947 42.818 183.193 43 182.085 43H174.95C173.816 43 173.046 42.818 172.639 42.4541C172.241 42.0902 172.043 41.4046 172.043 40.3975V40.0928L174.429 39.6484V40.9434H182.516V38.4297H175.394C174.269 38.4297 173.507 38.2477 173.109 37.8838C172.711 37.5114 172.512 36.8258 172.512 35.8271V34.5957C172.512 33.6055 172.711 32.9284 173.109 32.5645C173.507 32.1921 174.269 32.0059 175.394 32.0059H181.92C183.028 32.0059 183.786 32.1836 184.192 32.5391C184.607 32.8861 184.814 33.5039 184.814 34.3926V34.6592L182.491 35.1543V33.9736ZM195.814 33.9736V43H193.135V33.9736H187.828V32.0059H201.133V33.9736H195.814ZM204.287 43V32.0059H216.081V33.9482H206.991V36.3477H212.285V38.2393H206.991V40.9434H216.22V43H204.287ZM219.793 43V32.0059H221.939L227.321 38.5312L232.679 32.0059H234.837V43H232.349V35.4336L227.436 41.6797H226.915L221.939 35.6113V43H219.793Z" fill="url(#paint1_linear_2652_34452)"/>
<defs>
<linearGradient id="paint0_linear_2652_34452" x1="152.5" y1="0" x2="152.5" y2="32" gradientUnits="userSpaceOnUse">
<stop stop-color="#8DC6D5"/>
<stop offset="1" stop-color="#272E30"/>
</linearGradient>
<linearGradient id="paint1_linear_2652_34452" x1="152.5" y1="24" x2="152.5" y2="51.5" gradientUnits="userSpaceOnUse">
<stop stop-color="#8DC6D5"/>
<stop offset="1" stop-color="#272E30"/>
</linearGradient>
</defs>
</svg>
