<svg width="24" height="24" viewBox="0 0 24 24" fill="none" xmlns="http://www.w3.org/2000/svg">
<path d="M21 16V8C20.9996 7.64927 20.9071 7.30481 20.7315 7.00116C20.556 6.69751 20.3037 6.44536 20 6.27L13 2.55C12.696 2.375 12.3511 2.28223 12 2.28223C11.6489 2.28223 11.304 2.375 11 2.55L4 6.27C3.69626 6.44536 3.44398 6.69751 3.26846 7.00116C3.09294 7.30481 3.00036 7.64927 3 8V16C3.00036 16.3507 3.09294 16.6952 3.26846 16.9988C3.44398 17.3025 3.69626 17.5546 4 17.73L11 21.45C11.304 21.625 11.6489 21.7178 12 21.7178C12.3511 21.7178 12.696 21.625 13 21.45L20 17.73C20.3037 17.5546 20.556 17.3025 20.7315 16.9988C20.9071 16.6952 20.9996 16.3507 21 16Z" stroke="currentColor" stroke-width="2" stroke-linecap="round" stroke-linejoin="round"/>
<path d="M7.5 4.21L12 6.81L16.5 4.21" stroke="currentColor" stroke-width="2" stroke-linecap="round" stroke-linejoin="round"/>
<path d="M7.5 19.79V14.6L3 12" stroke="currentColor" stroke-width="2" stroke-linecap="round" stroke-linejoin="round"/>
<path d="M21 12L16.5 14.6V19.79" stroke="currentColor" stroke-width="2" stroke-linecap="round" stroke-linejoin="round"/>
<path d="M12 22.08V16.8" stroke="currentColor" stroke-width="2" stroke-linecap="round" stroke-linejoin="round"/>
</svg>
