<svg width="438" height="58" viewBox="0 0 438 58" fill="none" xmlns="http://www.w3.org/2000/svg">
<g clip-path="url(#clip0_2575_3576)">
<path d="M6.66406 19.3104C6.66406 16.5609 8.89295 14.332 11.6424 14.332H15.6251C15.955 14.332 16.2225 14.5995 16.2225 14.9294V23.6913C16.2225 24.0213 15.955 24.2887 15.6251 24.2887H11.6424C8.89295 24.2887 6.66406 22.0599 6.66406 19.3104Z" fill="#DD5A33"/>
<path d="M6.66406 29.6659C6.66406 26.9164 8.89295 24.6875 11.6424 24.6875H15.6251C15.955 24.6875 16.2225 24.955 16.2225 25.2849V34.0468C16.2225 34.3767 15.955 34.6442 15.6251 34.6442H11.6424C8.89295 34.6442 6.66406 32.4153 6.66406 29.6659Z" fill="#9760F6"/>
<path d="M6.66406 40.0213C6.66406 37.2719 8.89295 35.043 11.6424 35.043H15.6251C15.955 35.043 16.2225 35.3104 16.2225 35.6404V44.4023C16.2225 44.7322 15.955 44.9997 15.6251 44.9997H11.6424C8.89295 44.9997 6.66406 42.7708 6.66406 40.0213Z" fill="#65CC8A"/>
<path d="M16.625 29.4667C16.625 26.8272 18.7647 24.6875 21.4042 24.6875C24.0437 24.6875 26.1834 26.8272 26.1834 29.4667V29.865C26.1834 32.5045 24.0437 34.6442 21.4042 34.6442C18.7647 34.6442 16.625 32.5045 16.625 29.865V29.4667Z" fill="#5DBAF8"/>
<path d="M26.1797 19.3104C26.1797 16.5609 23.9508 14.332 21.2013 14.332H17.2186C16.8887 14.332 16.6212 14.5995 16.6212 14.9294V23.6913C16.6212 24.0213 16.8887 24.2887 17.2186 24.2887H21.2013C23.9508 24.2887 26.1797 22.0599 26.1797 19.3104Z" fill="#EB7A69"/>
</g>
<path d="M42.2156 42L43.0796 34.832H40.2636V32.368H43.3676L43.9756 27.472H40.9996V24.976H44.2956L45.0956 18.608H47.3676L46.5676 24.976H51.0156L51.8156 18.608H54.0876L53.3196 24.976H56.1996V27.472H53.0316L52.3916 32.368H55.4636V34.832H52.1036L51.2396 42H48.9356L49.7996 34.832H45.3836L44.4876 42H42.2156ZM45.6396 32.368H50.0876L50.6956 27.472H46.2476L45.6396 32.368ZM60.3696 42V18.416H66.4816C68.9136 18.416 70.9723 18.864 72.6576 19.76C74.343 20.6347 75.623 21.936 76.4976 23.664C77.3936 25.392 77.8416 27.5467 77.8416 30.128C77.8416 32.688 77.3936 34.8533 76.4976 36.624C75.623 38.3947 74.3536 39.7387 72.6896 40.656C71.0256 41.552 69.0203 42 66.6736 42H60.3696ZM64.0816 38.96H66.2256C67.911 38.96 69.3296 38.6293 70.4816 37.968C71.655 37.3067 72.5296 36.3253 73.1056 35.024C73.703 33.7013 74.0016 32.0693 74.0016 30.128C74.0016 28.1653 73.703 26.544 73.1056 25.264C72.5296 23.984 71.655 23.0347 70.4816 22.416C69.3296 21.776 67.911 21.456 66.2256 21.456H64.0816V38.96ZM89.7846 42.448C88.1846 42.448 86.734 42.0853 85.4326 41.36C84.1313 40.6133 83.0966 39.5573 82.3286 38.192C81.5606 36.8053 81.1766 35.1413 81.1766 33.2C81.1766 31.7707 81.4006 30.4907 81.8486 29.36C82.2966 28.208 82.9046 27.2373 83.6726 26.448C84.4406 25.6373 85.3046 25.0187 86.2646 24.592C87.2246 24.1653 88.206 23.952 89.2086 23.952C90.766 23.952 92.078 24.304 93.1446 25.008C94.2113 25.6907 95.022 26.6613 95.5766 27.92C96.1313 29.1573 96.4086 30.608 96.4086 32.272C96.4086 32.6347 96.3873 32.9867 96.3446 33.328C96.3233 33.648 96.2806 33.9253 96.2166 34.16H84.7926C84.8993 35.2693 85.1873 36.2293 85.6566 37.04C86.1473 37.8293 86.7766 38.448 87.5446 38.896C88.334 39.3227 89.23 39.536 90.2326 39.536C91.022 39.536 91.758 39.4187 92.4406 39.184C93.1233 38.9493 93.7846 38.6293 94.4246 38.224L95.7046 40.56C94.894 41.0933 93.9873 41.5413 92.9846 41.904C92.0033 42.2667 90.9366 42.448 89.7846 42.448ZM84.7606 31.6H93.2086C93.2086 30.1067 92.8673 28.944 92.1846 28.112C91.5233 27.28 90.5526 26.864 89.2726 26.864C88.5473 26.864 87.8646 27.0453 87.2246 27.408C86.5846 27.7707 86.0406 28.304 85.5926 29.008C85.166 29.712 84.8886 30.576 84.7606 31.6ZM105.318 42.448C104.123 42.448 102.928 42.2133 101.734 41.744C100.56 41.2747 99.547 40.688 98.6936 39.984L100.454 37.584C101.222 38.2027 102 38.704 102.79 39.088C103.6 39.4507 104.475 39.632 105.414 39.632C106.459 39.632 107.227 39.408 107.718 38.96C108.23 38.4907 108.486 37.9253 108.486 37.264C108.486 36.7307 108.294 36.2827 107.91 35.92C107.547 35.5573 107.067 35.248 106.47 34.992C105.872 34.7147 105.254 34.4587 104.614 34.224C103.824 33.9253 103.046 33.5733 102.278 33.168C101.531 32.7413 100.912 32.208 100.422 31.568C99.931 30.9067 99.6856 30.0853 99.6856 29.104C99.6856 28.1013 99.931 27.216 100.422 26.448C100.934 25.68 101.659 25.072 102.598 24.624C103.536 24.176 104.656 23.952 105.958 23.952C107.131 23.952 108.198 24.1547 109.158 24.56C110.139 24.9653 110.971 25.456 111.654 26.032L109.958 28.304C109.339 27.856 108.71 27.4933 108.07 27.216C107.43 26.9173 106.758 26.768 106.054 26.768C105.072 26.768 104.347 26.9813 103.878 27.408C103.408 27.8133 103.174 28.3253 103.174 28.944C103.174 29.4347 103.344 29.84 103.686 30.16C104.027 30.48 104.475 30.7573 105.03 30.992C105.606 31.2267 106.214 31.472 106.854 31.728C107.472 31.9413 108.08 32.1973 108.678 32.496C109.296 32.7733 109.851 33.1147 110.342 33.52C110.832 33.904 111.227 34.384 111.526 34.96C111.846 35.5147 112.006 36.208 112.006 37.04C112.006 38.0213 111.75 38.928 111.238 39.76C110.726 40.592 109.979 41.2533 108.998 41.744C108.016 42.2133 106.79 42.448 105.318 42.448ZM115.925 42V24.368H119.605V42H115.925ZM117.781 21.104C117.077 21.104 116.511 20.9013 116.085 20.496C115.679 20.0907 115.477 19.5467 115.477 18.864C115.477 18.224 115.679 17.7013 116.085 17.296C116.511 16.8907 117.077 16.688 117.781 16.688C118.442 16.688 118.986 16.8907 119.413 17.296C119.839 17.7013 120.053 18.224 120.053 18.864C120.053 19.5467 119.839 20.0907 119.413 20.496C118.986 20.9013 118.442 21.104 117.781 21.104ZM131.191 49.904C129.783 49.904 128.525 49.7227 127.415 49.36C126.306 49.0187 125.431 48.5067 124.791 47.824C124.173 47.1413 123.863 46.288 123.863 45.264C123.863 44.5173 124.087 43.8133 124.535 43.152C124.983 42.4907 125.613 41.9147 126.423 41.424V41.296C125.975 40.9973 125.591 40.6133 125.271 40.144C124.973 39.6533 124.823 39.056 124.823 38.352C124.823 37.648 125.026 37.0187 125.431 36.464C125.858 35.888 126.317 35.4293 126.807 35.088V34.96C126.189 34.4907 125.645 33.8507 125.175 33.04C124.706 32.2293 124.471 31.3013 124.471 30.256C124.471 28.9333 124.781 27.8027 125.399 26.864C126.039 25.904 126.871 25.1787 127.895 24.688C128.941 24.1973 130.071 23.952 131.287 23.952C131.799 23.952 132.269 23.9947 132.695 24.08C133.143 24.144 133.527 24.24 133.847 24.368H140.087V27.152H136.759C137.079 27.5147 137.346 27.9733 137.559 28.528C137.773 29.0827 137.879 29.6907 137.879 30.352C137.879 31.632 137.581 32.7307 136.983 33.648C136.407 34.544 135.618 35.2373 134.615 35.728C133.613 36.1973 132.503 36.432 131.287 36.432C130.903 36.432 130.487 36.3893 130.039 36.304C129.613 36.1973 129.207 36.0693 128.823 35.92C128.546 36.1547 128.311 36.4107 128.119 36.688C127.949 36.9653 127.863 37.3173 127.863 37.744C127.863 38.256 128.066 38.672 128.471 38.992C128.898 39.312 129.677 39.472 130.807 39.472H134.071C136.141 39.472 137.709 39.8133 138.775 40.496C139.842 41.1573 140.375 42.2347 140.375 43.728C140.375 44.8587 140.002 45.8933 139.255 46.832C138.509 47.7707 137.442 48.5173 136.055 49.072C134.69 49.6267 133.069 49.904 131.191 49.904ZM131.287 34.032C131.885 34.032 132.439 33.8827 132.951 33.584C133.463 33.2853 133.869 32.8587 134.167 32.304C134.466 31.728 134.615 31.0453 134.615 30.256C134.615 29.4667 134.466 28.8053 134.167 28.272C133.869 27.7173 133.463 27.2907 132.951 26.992C132.461 26.6933 131.906 26.544 131.287 26.544C130.669 26.544 130.103 26.6933 129.591 26.992C129.101 27.2907 128.706 27.7173 128.407 28.272C128.109 28.8053 127.959 29.4667 127.959 30.256C127.959 31.0453 128.109 31.728 128.407 32.304C128.727 32.8587 129.133 33.2853 129.623 33.584C130.135 33.8827 130.69 34.032 131.287 34.032ZM131.703 47.472C132.749 47.472 133.645 47.3227 134.391 47.024C135.138 46.7253 135.725 46.3307 136.151 45.84C136.578 45.3707 136.791 44.8693 136.791 44.336C136.791 43.5893 136.514 43.0773 135.959 42.8C135.405 42.544 134.594 42.416 133.527 42.416H130.871C130.445 42.416 130.039 42.3947 129.655 42.352C129.271 42.3093 128.887 42.2453 128.503 42.16C127.991 42.544 127.618 42.96 127.383 43.408C127.149 43.856 127.031 44.2933 127.031 44.72C127.031 45.5733 127.447 46.2453 128.279 46.736C129.111 47.2267 130.253 47.472 131.703 47.472ZM143.643 42V24.368H146.651L146.971 26.832H147.035C147.846 26.0427 148.721 25.3707 149.659 24.816C150.598 24.24 151.665 23.952 152.859 23.952C154.737 23.952 156.102 24.56 156.955 25.776C157.83 26.9707 158.267 28.688 158.267 30.928V42H154.587V31.376C154.587 29.8613 154.353 28.784 153.883 28.144C153.414 27.4827 152.657 27.152 151.611 27.152C150.801 27.152 150.075 27.3547 149.435 27.76C148.817 28.144 148.113 28.7307 147.323 29.52V42H143.643ZM177.84 42.448C176.218 42.448 174.682 42.1387 173.232 41.52C171.802 40.9013 170.544 40.048 169.456 38.96L171.632 36.4C172.485 37.232 173.456 37.904 174.544 38.416C175.653 38.928 176.784 39.184 177.936 39.184C179.344 39.184 180.421 38.8747 181.168 38.256C181.936 37.6373 182.32 36.8373 182.32 35.856C182.32 35.1307 182.16 34.5547 181.84 34.128C181.52 33.68 181.072 33.3067 180.496 33.008C179.941 32.7093 179.301 32.4 178.576 32.08L175.312 30.672C174.544 30.352 173.786 29.936 173.04 29.424C172.314 28.8907 171.706 28.2293 171.216 27.44C170.746 26.6293 170.512 25.648 170.512 24.496C170.512 23.2587 170.842 22.1493 171.504 21.168C172.165 20.1867 173.082 19.4187 174.256 18.864C175.429 18.288 176.762 18 178.256 18C179.642 18 180.954 18.2667 182.192 18.8C183.429 19.3333 184.485 20.0587 185.36 20.976L183.472 23.344C182.725 22.6827 181.925 22.1707 181.072 21.808C180.24 21.424 179.301 21.232 178.256 21.232C177.04 21.232 176.08 21.5093 175.376 22.064C174.672 22.5973 174.32 23.3227 174.32 24.24C174.32 24.9227 174.501 25.488 174.864 25.936C175.226 26.3627 175.696 26.7253 176.272 27.024C176.869 27.3013 177.477 27.568 178.096 27.824L181.328 29.2C182.266 29.584 183.098 30.0533 183.824 30.608C184.549 31.1627 185.114 31.8347 185.52 32.624C185.925 33.4133 186.128 34.3947 186.128 35.568C186.128 36.8267 185.797 37.9787 185.136 39.024C184.474 40.048 183.525 40.88 182.288 41.52C181.05 42.1387 179.568 42.448 177.84 42.448ZM195.157 42.448C193.834 42.448 192.778 42.192 191.989 41.68C191.221 41.1467 190.666 40.4213 190.325 39.504C189.984 38.5653 189.813 37.4773 189.813 36.24V27.344H187.253V24.592L190.005 24.368L190.421 19.504H193.493V24.368H198.069V27.344H193.493V36.272C193.493 37.3173 193.696 38.1173 194.101 38.672C194.506 39.2053 195.168 39.472 196.085 39.472C196.384 39.472 196.704 39.4293 197.045 39.344C197.386 39.2587 197.685 39.1627 197.941 39.056L198.613 41.776C198.144 41.9253 197.61 42.0747 197.013 42.224C196.437 42.3733 195.818 42.448 195.157 42.448ZM201.925 42V24.368H204.933L205.253 27.536H205.317C205.957 26.4053 206.714 25.5307 207.589 24.912C208.463 24.272 209.381 23.952 210.341 23.952C210.767 23.952 211.13 23.984 211.429 24.048C211.727 24.112 212.015 24.1973 212.293 24.304L211.653 27.536C211.333 27.4293 211.045 27.3547 210.789 27.312C210.533 27.2693 210.223 27.248 209.861 27.248C209.157 27.248 208.41 27.536 207.621 28.112C206.831 28.6667 206.159 29.648 205.605 31.056V42H201.925ZM218.147 42.448C217.144 42.448 216.248 42.2347 215.459 41.808C214.691 41.3813 214.083 40.784 213.635 40.016C213.187 39.248 212.963 38.352 212.963 37.328C212.963 35.4293 213.795 33.968 215.459 32.944C217.144 31.8987 219.822 31.1733 223.491 30.768C223.47 30.0853 223.363 29.456 223.171 28.88C222.979 28.304 222.638 27.8453 222.147 27.504C221.678 27.1413 221.006 26.96 220.131 26.96C219.214 26.96 218.328 27.1413 217.475 27.504C216.622 27.8667 215.811 28.2827 215.043 28.752L213.667 26.256C214.286 25.872 214.968 25.5093 215.715 25.168C216.462 24.8053 217.262 24.5173 218.115 24.304C218.968 24.0693 219.854 23.952 220.771 23.952C222.243 23.952 223.448 24.2507 224.387 24.848C225.326 25.424 226.019 26.2667 226.467 27.376C226.936 28.4853 227.171 29.8293 227.171 31.408V42H224.163L223.875 39.984H223.747C222.958 40.6667 222.094 41.2533 221.155 41.744C220.216 42.2133 219.214 42.448 218.147 42.448ZM219.267 39.504C220.035 39.504 220.75 39.3333 221.411 38.992C222.072 38.6293 222.766 38.1067 223.491 37.424V33.136C221.763 33.328 220.387 33.616 219.363 34C218.339 34.3627 217.603 34.8 217.155 35.312C216.728 35.8027 216.515 36.3787 216.515 37.04C216.515 37.9147 216.782 38.544 217.315 38.928C217.848 39.312 218.499 39.504 219.267 39.504ZM237.657 42.448C236.334 42.448 235.278 42.192 234.489 41.68C233.721 41.1467 233.166 40.4213 232.825 39.504C232.484 38.5653 232.313 37.4773 232.313 36.24V27.344H229.753V24.592L232.505 24.368L232.921 19.504H235.993V24.368H240.569V27.344H235.993V36.272C235.993 37.3173 236.196 38.1173 236.601 38.672C237.006 39.2053 237.668 39.472 238.585 39.472C238.884 39.472 239.204 39.4293 239.545 39.344C239.886 39.2587 240.185 39.1627 240.441 39.056L241.113 41.776C240.644 41.9253 240.11 42.0747 239.513 42.224C238.937 42.3733 238.318 42.448 237.657 42.448ZM251.128 42.448C249.528 42.448 248.078 42.0853 246.776 41.36C245.475 40.6133 244.44 39.5573 243.672 38.192C242.904 36.8053 242.52 35.1413 242.52 33.2C242.52 31.7707 242.744 30.4907 243.192 29.36C243.64 28.208 244.248 27.2373 245.016 26.448C245.784 25.6373 246.648 25.0187 247.608 24.592C248.568 24.1653 249.55 23.952 250.552 23.952C252.11 23.952 253.422 24.304 254.488 25.008C255.555 25.6907 256.366 26.6613 256.92 27.92C257.475 29.1573 257.752 30.608 257.752 32.272C257.752 32.6347 257.731 32.9867 257.688 33.328C257.667 33.648 257.624 33.9253 257.56 34.16H246.136C246.243 35.2693 246.531 36.2293 247 37.04C247.491 37.8293 248.12 38.448 248.888 38.896C249.678 39.3227 250.574 39.536 251.576 39.536C252.366 39.536 253.102 39.4187 253.784 39.184C254.467 38.9493 255.128 38.6293 255.768 38.224L257.048 40.56C256.238 41.0933 255.331 41.5413 254.328 41.904C253.347 42.2667 252.28 42.448 251.128 42.448ZM246.104 31.6H254.552C254.552 30.1067 254.211 28.944 253.528 28.112C252.867 27.28 251.896 26.864 250.616 26.864C249.891 26.864 249.208 27.0453 248.568 27.408C247.928 27.7707 247.384 28.304 246.936 29.008C246.51 29.712 246.232 30.576 246.104 31.6ZM267.441 49.904C266.033 49.904 264.775 49.7227 263.665 49.36C262.556 49.0187 261.681 48.5067 261.041 47.824C260.423 47.1413 260.113 46.288 260.113 45.264C260.113 44.5173 260.337 43.8133 260.785 43.152C261.233 42.4907 261.863 41.9147 262.673 41.424V41.296C262.225 40.9973 261.841 40.6133 261.521 40.144C261.223 39.6533 261.073 39.056 261.073 38.352C261.073 37.648 261.276 37.0187 261.681 36.464C262.108 35.888 262.567 35.4293 263.057 35.088V34.96C262.439 34.4907 261.895 33.8507 261.425 33.04C260.956 32.2293 260.721 31.3013 260.721 30.256C260.721 28.9333 261.031 27.8027 261.649 26.864C262.289 25.904 263.121 25.1787 264.145 24.688C265.191 24.1973 266.321 23.952 267.537 23.952C268.049 23.952 268.519 23.9947 268.945 24.08C269.393 24.144 269.777 24.24 270.097 24.368H276.337V27.152H273.009C273.329 27.5147 273.596 27.9733 273.809 28.528C274.023 29.0827 274.129 29.6907 274.129 30.352C274.129 31.632 273.831 32.7307 273.233 33.648C272.657 34.544 271.868 35.2373 270.865 35.728C269.863 36.1973 268.753 36.432 267.537 36.432C267.153 36.432 266.737 36.3893 266.289 36.304C265.863 36.1973 265.457 36.0693 265.073 35.92C264.796 36.1547 264.561 36.4107 264.369 36.688C264.199 36.9653 264.113 37.3173 264.113 37.744C264.113 38.256 264.316 38.672 264.721 38.992C265.148 39.312 265.927 39.472 267.057 39.472H270.321C272.391 39.472 273.959 39.8133 275.025 40.496C276.092 41.1573 276.625 42.2347 276.625 43.728C276.625 44.8587 276.252 45.8933 275.505 46.832C274.759 47.7707 273.692 48.5173 272.305 49.072C270.94 49.6267 269.319 49.904 267.441 49.904ZM267.537 34.032C268.135 34.032 268.689 33.8827 269.201 33.584C269.713 33.2853 270.119 32.8587 270.417 32.304C270.716 31.728 270.865 31.0453 270.865 30.256C270.865 29.4667 270.716 28.8053 270.417 28.272C270.119 27.7173 269.713 27.2907 269.201 26.992C268.711 26.6933 268.156 26.544 267.537 26.544C266.919 26.544 266.353 26.6933 265.841 26.992C265.351 27.2907 264.956 27.7173 264.657 28.272C264.359 28.8053 264.209 29.4667 264.209 30.256C264.209 31.0453 264.359 31.728 264.657 32.304C264.977 32.8587 265.383 33.2853 265.873 33.584C266.385 33.8827 266.94 34.032 267.537 34.032ZM267.953 47.472C268.999 47.472 269.895 47.3227 270.641 47.024C271.388 46.7253 271.975 46.3307 272.401 45.84C272.828 45.3707 273.041 44.8693 273.041 44.336C273.041 43.5893 272.764 43.0773 272.209 42.8C271.655 42.544 270.844 42.416 269.777 42.416H267.121C266.695 42.416 266.289 42.3947 265.905 42.352C265.521 42.3093 265.137 42.2453 264.753 42.16C264.241 42.544 263.868 42.96 263.633 43.408C263.399 43.856 263.281 44.2933 263.281 44.72C263.281 45.5733 263.697 46.2453 264.529 46.736C265.361 47.2267 266.503 47.472 267.953 47.472ZM281.038 49.36C280.569 49.36 280.153 49.328 279.79 49.264C279.449 49.2 279.118 49.1147 278.798 49.008L279.502 46.128C279.673 46.1707 279.875 46.224 280.11 46.288C280.345 46.352 280.579 46.384 280.814 46.384C281.774 46.384 282.542 46.064 283.118 45.424C283.694 44.8053 284.142 44.0267 284.462 43.088L284.846 41.872L277.87 24.368H281.614L284.846 33.456C285.123 34.2453 285.39 35.0667 285.646 35.92C285.923 36.752 286.201 37.584 286.478 38.416H286.638C286.851 37.6053 287.075 36.7733 287.31 35.92C287.545 35.0667 287.779 34.2453 288.014 33.456L290.862 24.368H294.414L287.95 43.056C287.502 44.3147 286.969 45.4133 286.35 46.352C285.753 47.312 285.027 48.048 284.174 48.56C283.321 49.0933 282.275 49.36 281.038 49.36ZM305.12 42V18.416H312.256C314.026 18.416 315.584 18.6507 316.928 19.12C318.272 19.568 319.328 20.3147 320.096 21.36C320.885 22.384 321.28 23.792 321.28 25.584C321.28 27.2907 320.896 28.6987 320.128 29.808C319.36 30.896 318.304 31.7173 316.96 32.272C315.637 32.8053 314.112 33.072 312.384 33.072H308.832V42H305.12ZM308.832 30.064H312.064C313.92 30.064 315.306 29.7013 316.224 28.976C317.141 28.2507 317.6 27.12 317.6 25.584C317.6 24.0053 317.12 22.9173 316.16 22.32C315.2 21.7227 313.781 21.424 311.904 21.424H308.832V30.064ZM325.55 42V24.368H328.558L328.878 27.536H328.942C329.582 26.4053 330.339 25.5307 331.214 24.912C332.088 24.272 333.006 23.952 333.966 23.952C334.392 23.952 334.755 23.984 335.054 24.048C335.352 24.112 335.64 24.1973 335.918 24.304L335.278 27.536C334.958 27.4293 334.67 27.3547 334.414 27.312C334.158 27.2693 333.848 27.248 333.486 27.248C332.782 27.248 332.035 27.536 331.246 28.112C330.456 28.6667 329.784 29.648 329.23 31.056V42H325.55ZM345.215 42.448C343.765 42.448 342.399 42.0853 341.119 41.36C339.861 40.6133 338.837 39.5573 338.047 38.192C337.279 36.8053 336.895 35.1413 336.895 33.2C336.895 31.2373 337.279 29.5733 338.047 28.208C338.837 26.8213 339.861 25.7653 341.119 25.04C342.399 24.3147 343.765 23.952 345.215 23.952C346.282 23.952 347.317 24.1653 348.319 24.592C349.322 24.9973 350.207 25.5947 350.975 26.384C351.743 27.1733 352.351 28.144 352.799 29.296C353.247 30.4267 353.471 31.728 353.471 33.2C353.471 35.1413 353.077 36.8053 352.287 38.192C351.519 39.5573 350.506 40.6133 349.247 41.36C348.01 42.0853 346.666 42.448 345.215 42.448ZM345.215 39.376C346.133 39.376 346.922 39.12 347.583 38.608C348.266 38.096 348.789 37.3813 349.151 36.464C349.514 35.5253 349.695 34.4373 349.695 33.2C349.695 31.9627 349.514 30.8853 349.151 29.968C348.789 29.0293 348.266 28.304 347.583 27.792C346.922 27.2587 346.133 26.992 345.215 26.992C344.277 26.992 343.466 27.2587 342.783 27.792C342.122 28.304 341.61 29.0293 341.247 29.968C340.885 30.8853 340.703 31.9627 340.703 33.2C340.703 34.4373 340.885 35.5253 341.247 36.464C341.61 37.3813 342.122 38.096 342.783 38.608C343.466 39.12 344.277 39.376 345.215 39.376ZM357.831 49.136V24.368H360.839L361.159 26.32H361.223C362.012 25.68 362.866 25.1253 363.783 24.656C364.7 24.1867 365.66 23.952 366.663 23.952C368.135 23.952 369.394 24.3253 370.439 25.072C371.484 25.8187 372.274 26.864 372.807 28.208C373.34 29.5307 373.607 31.0987 373.607 32.912C373.607 34.9173 373.244 36.6347 372.519 38.064C371.815 39.4933 370.887 40.5813 369.735 41.328C368.583 42.0747 367.346 42.448 366.023 42.448C365.255 42.448 364.476 42.2773 363.687 41.936C362.898 41.5733 362.14 41.072 361.415 40.432L361.511 43.44V49.136H357.831ZM365.319 39.344C366.172 39.344 366.93 39.0987 367.591 38.608C368.274 38.1173 368.807 37.4027 369.191 36.464C369.596 35.504 369.799 34.3413 369.799 32.976C369.799 31.7387 369.65 30.6827 369.351 29.808C369.074 28.912 368.636 28.2293 368.039 27.76C367.442 27.2693 366.652 27.024 365.671 27.024C364.988 27.024 364.306 27.2053 363.623 27.568C362.962 27.9093 362.258 28.4427 361.511 29.168V37.776C362.194 38.352 362.866 38.7573 363.527 38.992C364.188 39.2267 364.786 39.344 365.319 39.344ZM385.059 42.448C383.608 42.448 382.243 42.0853 380.963 41.36C379.704 40.6133 378.68 39.5573 377.891 38.192C377.123 36.8053 376.739 35.1413 376.739 33.2C376.739 31.2373 377.123 29.5733 377.891 28.208C378.68 26.8213 379.704 25.7653 380.963 25.04C382.243 24.3147 383.608 23.952 385.059 23.952C386.126 23.952 387.16 24.1653 388.163 24.592C389.166 24.9973 390.051 25.5947 390.819 26.384C391.587 27.1733 392.195 28.144 392.643 29.296C393.091 30.4267 393.315 31.728 393.315 33.2C393.315 35.1413 392.92 36.8053 392.131 38.192C391.363 39.5573 390.35 40.6133 389.091 41.36C387.854 42.0853 386.51 42.448 385.059 42.448ZM385.059 39.376C385.976 39.376 386.766 39.12 387.427 38.608C388.11 38.096 388.632 37.3813 388.995 36.464C389.358 35.5253 389.539 34.4373 389.539 33.2C389.539 31.9627 389.358 30.8853 388.995 29.968C388.632 29.0293 388.11 28.304 387.427 27.792C386.766 27.2587 385.976 26.992 385.059 26.992C384.12 26.992 383.31 27.2587 382.627 27.792C381.966 28.304 381.454 29.0293 381.091 29.968C380.728 30.8853 380.547 31.9627 380.547 33.2C380.547 34.4373 380.728 35.5253 381.091 36.464C381.454 37.3813 381.966 38.096 382.627 38.608C383.31 39.12 384.12 39.376 385.059 39.376ZM402.224 42.448C401.029 42.448 399.835 42.2133 398.64 41.744C397.467 41.2747 396.453 40.688 395.6 39.984L397.36 37.584C398.128 38.2027 398.907 38.704 399.696 39.088C400.507 39.4507 401.381 39.632 402.32 39.632C403.365 39.632 404.133 39.408 404.624 38.96C405.136 38.4907 405.392 37.9253 405.392 37.264C405.392 36.7307 405.2 36.2827 404.816 35.92C404.453 35.5573 403.973 35.248 403.376 34.992C402.779 34.7147 402.16 34.4587 401.52 34.224C400.731 33.9253 399.952 33.5733 399.184 33.168C398.437 32.7413 397.819 32.208 397.328 31.568C396.837 30.9067 396.592 30.0853 396.592 29.104C396.592 28.1013 396.837 27.216 397.328 26.448C397.84 25.68 398.565 25.072 399.504 24.624C400.443 24.176 401.563 23.952 402.864 23.952C404.037 23.952 405.104 24.1547 406.064 24.56C407.045 24.9653 407.877 25.456 408.56 26.032L406.864 28.304C406.245 27.856 405.616 27.4933 404.976 27.216C404.336 26.9173 403.664 26.768 402.96 26.768C401.979 26.768 401.253 26.9813 400.784 27.408C400.315 27.8133 400.08 28.3253 400.08 28.944C400.08 29.4347 400.251 29.84 400.592 30.16C400.933 30.48 401.381 30.7573 401.936 30.992C402.512 31.2267 403.12 31.472 403.76 31.728C404.379 31.9413 404.987 32.1973 405.584 32.496C406.203 32.7733 406.757 33.1147 407.248 33.52C407.739 33.904 408.133 34.384 408.432 34.96C408.752 35.5147 408.912 36.208 408.912 37.04C408.912 38.0213 408.656 38.928 408.144 39.76C407.632 40.592 406.885 41.2533 405.904 41.744C404.923 42.2133 403.696 42.448 402.224 42.448ZM416.991 42.448C415.988 42.448 415.092 42.2347 414.303 41.808C413.535 41.3813 412.927 40.784 412.479 40.016C412.031 39.248 411.807 38.352 411.807 37.328C411.807 35.4293 412.639 33.968 414.303 32.944C415.988 31.8987 418.666 31.1733 422.335 30.768C422.314 30.0853 422.207 29.456 422.015 28.88C421.823 28.304 421.482 27.8453 420.991 27.504C420.522 27.1413 419.85 26.96 418.975 26.96C418.058 26.96 417.172 27.1413 416.319 27.504C415.466 27.8667 414.655 28.2827 413.887 28.752L412.511 26.256C413.13 25.872 413.812 25.5093 414.559 25.168C415.306 24.8053 416.106 24.5173 416.959 24.304C417.812 24.0693 418.698 23.952 419.615 23.952C421.087 23.952 422.292 24.2507 423.231 24.848C424.17 25.424 424.863 26.2667 425.311 27.376C425.78 28.4853 426.015 29.8293 426.015 31.408V42H423.007L422.719 39.984H422.591C421.802 40.6667 420.938 41.2533 419.999 41.744C419.06 42.2133 418.058 42.448 416.991 42.448ZM418.111 39.504C418.879 39.504 419.594 39.3333 420.255 38.992C420.916 38.6293 421.61 38.1067 422.335 37.424V33.136C420.607 33.328 419.231 33.616 418.207 34C417.183 34.3627 416.447 34.8 415.999 35.312C415.572 35.8027 415.359 36.3787 415.359 37.04C415.359 37.9147 415.626 38.544 416.159 38.928C416.692 39.312 417.343 39.504 418.111 39.504ZM434.885 42.448C433.989 42.448 433.274 42.2667 432.741 41.904C432.208 41.52 431.824 40.9867 431.589 40.304C431.354 39.6 431.237 38.7787 431.237 37.84V16.496H434.917V38.032C434.917 38.5227 435.002 38.8747 435.173 39.088C435.365 39.28 435.568 39.376 435.781 39.376C435.866 39.376 435.952 39.376 436.037 39.376C436.122 39.3547 436.25 39.3333 436.421 39.312L436.869 42.096C436.656 42.1813 436.389 42.256 436.069 42.32C435.749 42.4053 435.354 42.448 434.885 42.448Z" fill="white"/>
<defs>
<clipPath id="clip0_2575_3576">
<rect width="32" height="32" fill="white" transform="translate(0 13)"/>
</clipPath>
</defs>
</svg>
