<svg width="255" height="58" viewBox="0 0 255 58" fill="none" xmlns="http://www.w3.org/2000/svg">
<path d="M13.325 42L14.189 34.832H11.373V32.368H14.477L15.085 27.472H12.109V24.976H15.405L16.205 18.608H18.477L17.677 24.976H22.125L22.925 18.608H25.197L24.429 24.976H27.309V27.472H24.141L23.501 32.368H26.573V34.832H23.213L22.349 42H20.045L20.909 34.832H16.493L15.597 42H13.325ZM16.749 32.368H21.197L21.805 27.472H17.357L16.749 32.368ZM38.071 16.368C39.543 16.368 40.855 16.6453 42.007 17.2C43.159 17.7547 44.0657 18.5333 44.727 19.536C45.3883 20.5173 45.719 21.6587 45.719 22.96C45.719 24.24 45.3883 25.3707 44.727 26.352C44.0657 27.3333 43.159 28.1013 42.007 28.656C40.855 29.2107 39.543 29.488 38.071 29.488C36.599 29.488 35.287 29.2107 34.135 28.656C32.983 28.1013 32.0657 27.3333 31.383 26.352C30.7217 25.3707 30.391 24.24 30.391 22.96C30.391 21.6587 30.7217 20.5173 31.383 19.536C32.0657 18.5333 32.983 17.7547 34.135 17.2C35.287 16.6453 36.599 16.368 38.071 16.368ZM38.071 19.088C37.2177 19.088 36.4603 19.248 35.799 19.568C35.1377 19.888 34.615 20.336 34.231 20.912C33.847 21.488 33.655 22.16 33.655 22.928C33.655 23.7173 33.847 24.4 34.231 24.976C34.615 25.552 35.1377 26 35.799 26.32C36.4603 26.6187 37.2177 26.768 38.071 26.768C38.9243 26.768 39.6817 26.6187 40.343 26.32C41.0043 26 41.527 25.552 41.911 24.976C42.295 24.4 42.487 23.7173 42.487 22.928C42.487 22.16 42.295 21.488 41.911 20.912C41.527 20.336 40.9937 19.888 40.311 19.568C39.6497 19.248 38.903 19.088 38.071 19.088ZM50.583 15.408H53.943V30.224H50.583V15.408ZM34.775 31.536H53.943V39.056H38.135V43.056H34.839V36.592H50.647V34.16H34.775V31.536ZM34.839 41.648H54.839V44.272H34.839V41.648ZM74.9965 22.736H81.1405V25.488H74.9965V22.736ZM80.1485 15.408H83.5085V32.816H80.1485V15.408ZM73.7805 33.584C75.8285 33.584 77.5778 33.808 79.0285 34.256C80.5005 34.6827 81.6312 35.312 82.4205 36.144C83.2312 36.9547 83.6365 37.9467 83.6365 39.12C83.6365 40.8693 82.7512 42.224 80.9805 43.184C79.2312 44.144 76.8312 44.624 73.7805 44.624C70.7298 44.624 68.3192 44.144 66.5485 43.184C64.7778 42.224 63.8925 40.8693 63.8925 39.12C63.8925 37.9467 64.2872 36.9547 65.0765 36.144C65.8872 35.312 67.0285 34.6827 68.5005 34.256C69.9938 33.808 71.7538 33.584 73.7805 33.584ZM73.7805 36.144C72.3938 36.144 71.2098 36.2613 70.2285 36.496C69.2685 36.7307 68.5325 37.0613 68.0205 37.488C67.5085 37.9147 67.2525 38.4587 67.2525 39.12C67.2525 39.7387 67.5085 40.272 68.0205 40.72C68.5325 41.168 69.2685 41.5093 70.2285 41.744C71.2098 41.9573 72.3938 42.064 73.7805 42.064C75.1672 42.064 76.3405 41.9573 77.3005 41.744C78.2605 41.5093 78.9965 41.168 79.5085 40.72C80.0418 40.272 80.3085 39.7387 80.3085 39.12C80.3085 38.4587 80.0418 37.9147 79.5085 37.488C78.9965 37.0613 78.2605 36.7307 77.3005 36.496C76.3405 36.2613 75.1672 36.144 73.7805 36.144ZM66.4205 18.352H69.1725V20.464C69.1725 22.2987 68.8418 24.0267 68.1805 25.648C67.5405 27.248 66.6125 28.6667 65.3965 29.904C64.1805 31.12 62.7085 32.0373 60.9805 32.656L59.2845 30C60.4152 29.5947 61.4178 29.0613 62.2925 28.4C63.1885 27.7387 63.9458 26.9813 64.5645 26.128C65.1832 25.2747 65.6418 24.368 65.9405 23.408C66.2605 22.448 66.4205 21.4667 66.4205 20.464V18.352ZM67.0925 18.352H69.8125V20.464C69.8125 21.6587 70.0792 22.832 70.6125 23.984C71.1458 25.136 71.9245 26.1707 72.9485 27.088C73.9725 27.984 75.2205 28.6987 76.6925 29.232L75.0285 31.856C73.3432 31.2587 71.9032 30.3947 70.7085 29.264C69.5352 28.112 68.6392 26.7787 68.0205 25.264C67.4018 23.728 67.0925 22.128 67.0925 20.464V18.352ZM60.2445 17.36H75.8925V20.08H60.2445V17.36ZM90.162 17.584H102.93V20.304H90.162V17.584ZM94.226 24.272H97.522V31.568H94.226V24.272ZM101.586 17.584H104.882V19.28C104.882 20.2613 104.85 21.4773 104.786 22.928C104.743 24.3573 104.541 26.0213 104.178 27.92L100.882 27.536C101.245 25.68 101.447 24.0907 101.49 22.768C101.554 21.424 101.586 20.2613 101.586 19.28V17.584ZM108.37 15.376H111.73V37.36H108.37V15.376ZM110.322 24.656H115.602V27.408H110.322V24.656ZM92.786 41.328H112.69V44.048H92.786V41.328ZM92.786 35.376H96.146V42.16H92.786V35.376ZM88.754 33.04L88.402 30.32C90.13 30.32 92.018 30.3093 94.066 30.288C96.1353 30.2453 98.2473 30.16 100.402 30.032C102.557 29.8827 104.615 29.6693 106.578 29.392L106.802 31.824C104.775 32.1653 102.695 32.432 100.562 32.624C98.4287 32.7947 96.3487 32.9013 94.322 32.944C92.3167 32.9867 90.4607 33.0187 88.754 33.04ZM138.928 15.376H142.288V44.688H138.928V15.376ZM119.792 34.96H122.288C123.973 34.96 125.584 34.9387 127.12 34.896C128.677 34.832 130.224 34.7253 131.76 34.576C133.296 34.4267 134.885 34.224 136.528 33.968L136.848 36.688C134.33 37.1147 131.92 37.4027 129.616 37.552C127.312 37.68 124.869 37.744 122.288 37.744H119.792V34.96ZM119.728 18H133.392V28.816H123.184V36.016H119.792V26.16H129.968V20.72H119.728V18ZM160.897 48.368C159.403 45.936 158.241 43.3973 157.409 40.752C156.577 38.0853 156.161 35.1627 156.161 31.984C156.161 28.8267 156.577 25.9147 157.409 23.248C158.241 20.5813 159.403 18.032 160.897 15.6L163.201 16.624C161.835 18.928 160.822 21.4027 160.161 24.048C159.521 26.672 159.201 29.3173 159.201 31.984C159.201 34.672 159.521 37.328 160.161 39.952C160.822 42.576 161.835 45.04 163.201 47.344L160.897 48.368ZM170.223 42L165.455 18.416H169.263L171.471 30.672C171.684 31.9307 171.897 33.1893 172.111 34.448C172.324 35.7067 172.537 36.976 172.751 38.256H172.879C173.135 36.976 173.391 35.7067 173.647 34.448C173.924 33.1893 174.201 31.9307 174.479 30.672L177.487 18.416H180.783L183.823 30.672C184.1 31.9093 184.367 33.168 184.623 34.448C184.879 35.7067 185.145 36.976 185.423 38.256H185.583C185.796 36.976 185.999 35.7067 186.191 34.448C186.383 33.1893 186.575 31.9307 186.767 30.672L189.007 18.416H192.559L187.919 42H183.343L180.175 28.912C179.983 27.9733 179.791 27.0667 179.599 26.192C179.428 25.296 179.257 24.4 179.087 23.504H178.959C178.788 24.4 178.607 25.296 178.415 26.192C178.223 27.0667 178.031 27.9733 177.839 28.912L174.735 42H170.223ZM196.417 42V18.416H203.745C205.345 18.416 206.763 18.608 208.001 18.992C209.259 19.376 210.241 19.9947 210.944 20.848C211.67 21.68 212.033 22.8 212.033 24.208C212.033 24.976 211.894 25.7013 211.617 26.384C211.361 27.0667 210.987 27.6747 210.497 28.208C210.006 28.72 209.398 29.0933 208.673 29.328V29.488C210.017 29.7653 211.126 30.3733 212.001 31.312C212.875 32.2293 213.312 33.488 213.312 35.088C213.312 36.6453 212.918 37.936 212.128 38.96C211.361 39.984 210.294 40.752 208.929 41.264C207.585 41.7547 206.038 42 204.289 42H196.417ZM200.129 28.272H203.297C205.089 28.272 206.379 27.952 207.169 27.312C207.979 26.672 208.385 25.808 208.385 24.72C208.385 23.504 207.969 22.64 207.137 22.128C206.305 21.5947 205.057 21.328 203.393 21.328H200.129V28.272ZM200.129 39.088H203.873C205.707 39.088 207.126 38.7467 208.129 38.064C209.153 37.3813 209.665 36.3253 209.665 34.896C209.665 33.5733 209.163 32.6133 208.161 32.016C207.179 31.3973 205.75 31.088 203.873 31.088H200.129V39.088ZM223.824 42.448C222.203 42.448 220.667 42.1387 219.216 41.52C217.787 40.9013 216.528 40.048 215.44 38.96L217.616 36.4C218.469 37.232 219.44 37.904 220.528 38.416C221.637 38.928 222.768 39.184 223.92 39.184C225.328 39.184 226.405 38.8747 227.152 38.256C227.92 37.6373 228.304 36.8373 228.304 35.856C228.304 35.1307 228.144 34.5547 227.824 34.128C227.504 33.68 227.056 33.3067 226.48 33.008C225.925 32.7093 225.285 32.4 224.56 32.08L221.296 30.672C220.528 30.352 219.771 29.936 219.024 29.424C218.299 28.8907 217.691 28.2293 217.2 27.44C216.731 26.6293 216.496 25.648 216.496 24.496C216.496 23.2587 216.827 22.1493 217.488 21.168C218.149 20.1867 219.067 19.4187 220.24 18.864C221.413 18.288 222.747 18 224.24 18C225.627 18 226.939 18.2667 228.176 18.8C229.413 19.3333 230.469 20.0587 231.344 20.976L229.456 23.344C228.709 22.6827 227.909 22.1707 227.056 21.808C226.224 21.424 225.285 21.232 224.24 21.232C223.024 21.232 222.064 21.5093 221.36 22.064C220.656 22.5973 220.304 23.3227 220.304 24.24C220.304 24.9227 220.485 25.488 220.848 25.936C221.211 26.3627 221.68 26.7253 222.256 27.024C222.853 27.3013 223.461 27.568 224.08 27.824L227.312 29.2C228.251 29.584 229.083 30.0533 229.808 30.608C230.533 31.1627 231.099 31.8347 231.504 32.624C231.909 33.4133 232.112 34.3947 232.112 35.568C232.112 36.8267 231.781 37.9787 231.12 39.024C230.459 40.048 229.509 40.88 228.272 41.52C227.035 42.1387 225.552 42.448 223.824 42.448ZM237.245 48.368L234.941 47.344C236.306 45.04 237.319 42.576 237.981 39.952C238.642 37.328 238.973 34.672 238.973 31.984C238.973 29.3173 238.642 26.672 237.981 24.048C237.319 21.4027 236.306 18.928 234.941 16.624L237.245 15.6C238.759 18.032 239.933 20.5813 240.765 23.248C241.597 25.9147 242.013 28.8267 242.013 31.984C242.013 35.1627 241.597 38.0853 240.765 40.752C239.933 43.3973 238.759 45.936 237.245 48.368Z" fill="white"/>
</svg>
