<svg width="477" height="58" viewBox="0 0 477 58" fill="none" xmlns="http://www.w3.org/2000/svg">
<path d="M13.6375 42L14.5015 34.832H11.6855V32.368H14.7895L15.3975 27.472H12.4215V24.976H15.7175L16.5175 18.608H18.7895L17.9895 24.976H22.4375L23.2375 18.608H25.5095L24.7415 24.976H27.6215V27.472H24.4535L23.8135 32.368H26.8855V34.832H23.5255L22.6615 42H20.3575L21.2215 34.832H16.8055L15.9095 42H13.6375ZM17.0615 32.368H21.5095L22.1175 27.472H17.6695L17.0615 32.368ZM38.5115 42.448C36.8902 42.448 35.3542 42.1387 33.9035 41.52C32.4742 40.9013 31.2155 40.048 30.1275 38.96L32.3035 36.4C33.1568 37.232 34.1275 37.904 35.2155 38.416C36.3248 38.928 37.4555 39.184 38.6075 39.184C40.0155 39.184 41.0928 38.8747 41.8395 38.256C42.6075 37.6373 42.9915 36.8373 42.9915 35.856C42.9915 35.1307 42.8315 34.5547 42.5115 34.128C42.1915 33.68 41.7435 33.3067 41.1675 33.008C40.6128 32.7093 39.9728 32.4 39.2475 32.08L35.9835 30.672C35.2155 30.352 34.4582 29.936 33.7115 29.424C32.9862 28.8907 32.3782 28.2293 31.8875 27.44C31.4182 26.6293 31.1835 25.648 31.1835 24.496C31.1835 23.2587 31.5142 22.1493 32.1755 21.168C32.8368 20.1867 33.7542 19.4187 34.9275 18.864C36.1008 18.288 37.4342 18 38.9275 18C40.3142 18 41.6262 18.2667 42.8635 18.8C44.1008 19.3333 45.1568 20.0587 46.0315 20.976L44.1435 23.344C43.3968 22.6827 42.5968 22.1707 41.7435 21.808C40.9115 21.424 39.9728 21.232 38.9275 21.232C37.7115 21.232 36.7515 21.5093 36.0475 22.064C35.3435 22.5973 34.9915 23.3227 34.9915 24.24C34.9915 24.9227 35.1728 25.488 35.5355 25.936C35.8982 26.3627 36.3675 26.7253 36.9435 27.024C37.5408 27.3013 38.1488 27.568 38.7675 27.824L41.9995 29.2C42.9382 29.584 43.7702 30.0533 44.4955 30.608C45.2208 31.1627 45.7862 31.8347 46.1915 32.624C46.5968 33.4133 46.7995 34.3947 46.7995 35.568C46.7995 36.8267 46.4688 37.9787 45.8075 39.024C45.1462 40.048 44.1968 40.88 42.9595 41.52C41.7222 42.1387 40.2395 42.448 38.5115 42.448ZM58.1083 42.448C56.5083 42.448 55.0789 42.0853 53.8203 41.36C52.5616 40.6133 51.5589 39.5573 50.8123 38.192C50.0656 36.8053 49.6923 35.1413 49.6923 33.2C49.6923 31.2373 50.0976 29.5733 50.9083 28.208C51.7189 26.8213 52.7856 25.7653 54.1083 25.04C55.4309 24.3147 56.8603 23.952 58.3963 23.952C59.5269 23.952 60.5083 24.144 61.3403 24.528C62.1723 24.912 62.9083 25.392 63.5483 25.968L61.7243 28.368C61.2549 27.9413 60.7643 27.6107 60.2523 27.376C59.7403 27.12 59.1856 26.992 58.5883 26.992C57.6069 26.992 56.7323 27.2587 55.9643 27.792C55.1963 28.304 54.5883 29.0293 54.1403 29.968C53.7136 30.8853 53.5003 31.9627 53.5003 33.2C53.5003 34.4373 53.7136 35.5253 54.1403 36.464C54.5669 37.3813 55.1536 38.096 55.9003 38.608C56.6469 39.12 57.5003 39.376 58.4603 39.376C59.2069 39.376 59.9003 39.2267 60.5403 38.928C61.1803 38.608 61.7669 38.224 62.3003 37.776L63.8363 40.24C63.0256 40.9653 62.1189 41.52 61.1163 41.904C60.1136 42.2667 59.1109 42.448 58.1083 42.448ZM67.4715 42V16.496H71.1515V23.248L70.9915 26.736C71.7595 25.968 72.6022 25.3173 73.5195 24.784C74.4368 24.2293 75.4928 23.952 76.6875 23.952C78.5648 23.952 79.9302 24.56 80.7835 25.776C81.6582 26.9707 82.0955 28.688 82.0955 30.928V42H78.4155V31.376C78.4155 29.8613 78.1808 28.784 77.7115 28.144C77.2422 27.4827 76.4848 27.152 75.4395 27.152C74.6288 27.152 73.9035 27.3547 73.2635 27.76C72.6448 28.144 71.9408 28.7307 71.1515 29.52V42H67.4715ZM94.7065 42.448C93.1065 42.448 91.6558 42.0853 90.3545 41.36C89.0532 40.6133 88.0185 39.5573 87.2505 38.192C86.4825 36.8053 86.0985 35.1413 86.0985 33.2C86.0985 31.7707 86.3225 30.4907 86.7705 29.36C87.2185 28.208 87.8265 27.2373 88.5945 26.448C89.3625 25.6373 90.2265 25.0187 91.1865 24.592C92.1465 24.1653 93.1278 23.952 94.1305 23.952C95.6878 23.952 96.9998 24.304 98.0665 25.008C99.1332 25.6907 99.9438 26.6613 100.499 27.92C101.053 29.1573 101.331 30.608 101.331 32.272C101.331 32.6347 101.309 32.9867 101.267 33.328C101.245 33.648 101.203 33.9253 101.139 34.16H89.7145C89.8212 35.2693 90.1092 36.2293 90.5785 37.04C91.0692 37.8293 91.6985 38.448 92.4665 38.896C93.2558 39.3227 94.1518 39.536 95.1545 39.536C95.9438 39.536 96.6798 39.4187 97.3625 39.184C98.0452 38.9493 98.7065 38.6293 99.3465 38.224L100.627 40.56C99.8158 41.0933 98.9092 41.5413 97.9065 41.904C96.9252 42.2667 95.8585 42.448 94.7065 42.448ZM89.6825 31.6H98.1305C98.1305 30.1067 97.7892 28.944 97.1065 28.112C96.4452 27.28 95.4745 26.864 94.1945 26.864C93.4692 26.864 92.7865 27.0453 92.1465 27.408C91.5065 27.7707 90.9625 28.304 90.5145 29.008C90.0878 29.712 89.8105 30.576 89.6825 31.6ZM111.52 42.448C110.069 42.448 108.8 42.0853 107.712 41.36C106.624 40.6347 105.781 39.5787 105.184 38.192C104.586 36.8053 104.288 35.1413 104.288 33.2C104.288 31.3013 104.64 29.6587 105.344 28.272C106.069 26.8853 106.997 25.8187 108.128 25.072C109.28 24.3253 110.506 23.952 111.808 23.952C112.832 23.952 113.696 24.1333 114.4 24.496C115.125 24.8373 115.84 25.3173 116.544 25.936L116.416 23.024V16.496H120.096V42H117.088L116.768 40.016H116.672C116.01 40.6987 115.242 41.2747 114.368 41.744C113.493 42.2133 112.544 42.448 111.52 42.448ZM112.416 39.344C113.162 39.344 113.856 39.1733 114.496 38.832C115.136 38.4907 115.776 37.9467 116.416 37.2V28.624C115.776 28.048 115.136 27.6427 114.496 27.408C113.856 27.152 113.205 27.024 112.544 27.024C111.733 27.024 110.986 27.28 110.304 27.792C109.642 28.2827 109.109 28.9867 108.704 29.904C108.298 30.8 108.096 31.888 108.096 33.168C108.096 34.4907 108.266 35.6213 108.608 36.56C108.949 37.4773 109.44 38.1707 110.08 38.64C110.741 39.1093 111.52 39.344 112.416 39.344ZM130.812 42.448C128.934 42.448 127.558 41.84 126.684 40.624C125.809 39.408 125.372 37.6907 125.372 35.472V24.368H129.084V35.024C129.084 36.5173 129.318 37.5947 129.788 38.256C130.257 38.9173 131.004 39.248 132.028 39.248C132.838 39.248 133.564 39.0453 134.204 38.64C134.844 38.2133 135.526 37.5413 136.252 36.624V24.368H139.964V42H136.924L136.636 39.344H136.54C135.729 40.2613 134.876 41.008 133.98 41.584C133.084 42.16 132.028 42.448 130.812 42.448ZM149.12 42.448C148.224 42.448 147.509 42.2667 146.976 41.904C146.442 41.52 146.058 40.9867 145.824 40.304C145.589 39.6 145.472 38.7787 145.472 37.84V16.496H149.152V38.032C149.152 38.5227 149.237 38.8747 149.408 39.088C149.6 39.28 149.802 39.376 150.016 39.376C150.101 39.376 150.186 39.376 150.272 39.376C150.357 39.3547 150.485 39.3333 150.656 39.312L151.104 42.096C150.89 42.1813 150.624 42.256 150.304 42.32C149.984 42.4053 149.589 42.448 149.12 42.448ZM162.363 42.448C160.763 42.448 159.312 42.0853 158.011 41.36C156.709 40.6133 155.675 39.5573 154.907 38.192C154.139 36.8053 153.755 35.1413 153.755 33.2C153.755 31.7707 153.979 30.4907 154.427 29.36C154.875 28.208 155.483 27.2373 156.251 26.448C157.019 25.6373 157.883 25.0187 158.843 24.592C159.803 24.1653 160.784 23.952 161.787 23.952C163.344 23.952 164.656 24.304 165.723 25.008C166.789 25.6907 167.6 26.6613 168.155 27.92C168.709 29.1573 168.987 30.608 168.987 32.272C168.987 32.6347 168.965 32.9867 168.923 33.328C168.901 33.648 168.859 33.9253 168.795 34.16H157.371C157.477 35.2693 157.765 36.2293 158.235 37.04C158.725 37.8293 159.355 38.448 160.123 38.896C160.912 39.3227 161.808 39.536 162.811 39.536C163.6 39.536 164.336 39.4187 165.019 39.184C165.701 38.9493 166.363 38.6293 167.003 38.224L168.283 40.56C167.472 41.0933 166.565 41.5413 165.563 41.904C164.581 42.2667 163.515 42.448 162.363 42.448ZM157.339 31.6H165.787C165.787 30.1067 165.445 28.944 164.763 28.112C164.101 27.28 163.131 26.864 161.851 26.864C161.125 26.864 160.443 27.0453 159.803 27.408C159.163 27.7707 158.619 28.304 158.171 29.008C157.744 29.712 157.467 30.576 157.339 31.6ZM180.635 42V18.416H184.923L189.211 30.352C189.489 31.12 189.755 31.9093 190.011 32.72C190.267 33.5093 190.523 34.2987 190.779 35.088H190.939C191.217 34.2987 191.473 33.5093 191.707 32.72C191.963 31.9093 192.219 31.12 192.475 30.352L196.699 18.416H201.019V42H197.563V30.352C197.563 29.648 197.585 28.8693 197.627 28.016C197.691 27.1627 197.755 26.2987 197.819 25.424C197.905 24.5493 197.99 23.76 198.075 23.056H197.915L196.027 28.496L191.931 39.728H189.627L185.499 28.496L183.611 23.056H183.483C183.569 23.76 183.643 24.5493 183.707 25.424C183.793 26.2987 183.857 27.1627 183.899 28.016C183.963 28.8693 183.995 29.648 183.995 30.352V42H180.635ZM211.038 42.448C210.035 42.448 209.139 42.2347 208.35 41.808C207.582 41.3813 206.974 40.784 206.526 40.016C206.078 39.248 205.854 38.352 205.854 37.328C205.854 35.4293 206.686 33.968 208.35 32.944C210.035 31.8987 212.712 31.1733 216.382 30.768C216.36 30.0853 216.254 29.456 216.062 28.88C215.87 28.304 215.528 27.8453 215.038 27.504C214.568 27.1413 213.896 26.96 213.022 26.96C212.104 26.96 211.219 27.1413 210.366 27.504C209.512 27.8667 208.702 28.2827 207.934 28.752L206.558 26.256C207.176 25.872 207.859 25.5093 208.606 25.168C209.352 24.8053 210.152 24.5173 211.006 24.304C211.859 24.0693 212.744 23.952 213.662 23.952C215.134 23.952 216.339 24.2507 217.278 24.848C218.216 25.424 218.91 26.2667 219.358 27.376C219.827 28.4853 220.062 29.8293 220.062 31.408V42H217.054L216.766 39.984H216.638C215.848 40.6667 214.984 41.2533 214.046 41.744C213.107 42.2133 212.104 42.448 211.038 42.448ZM212.158 39.504C212.926 39.504 213.64 39.3333 214.302 38.992C214.963 38.6293 215.656 38.1067 216.382 37.424V33.136C214.654 33.328 213.278 33.616 212.254 34C211.23 34.3627 210.494 34.8 210.046 35.312C209.619 35.8027 209.406 36.3787 209.406 37.04C209.406 37.9147 209.672 38.544 210.206 38.928C210.739 39.312 211.39 39.504 212.158 39.504ZM225.284 42V24.368H228.292L228.612 26.832H228.676C229.487 26.0427 230.361 25.3707 231.3 24.816C232.239 24.24 233.305 23.952 234.5 23.952C236.377 23.952 237.743 24.56 238.596 25.776C239.471 26.9707 239.908 28.688 239.908 30.928V42H236.228V31.376C236.228 29.8613 235.993 28.784 235.524 28.144C235.055 27.4827 234.297 27.152 233.252 27.152C232.441 27.152 231.716 27.3547 231.076 27.76C230.457 28.144 229.753 28.7307 228.964 29.52V42H225.284ZM249.413 42.448C248.41 42.448 247.514 42.2347 246.725 41.808C245.957 41.3813 245.349 40.784 244.901 40.016C244.453 39.248 244.229 38.352 244.229 37.328C244.229 35.4293 245.061 33.968 246.725 32.944C248.41 31.8987 251.087 31.1733 254.757 30.768C254.735 30.0853 254.629 29.456 254.437 28.88C254.245 28.304 253.903 27.8453 253.413 27.504C252.943 27.1413 252.271 26.96 251.397 26.96C250.479 26.96 249.594 27.1413 248.741 27.504C247.887 27.8667 247.077 28.2827 246.309 28.752L244.933 26.256C245.551 25.872 246.234 25.5093 246.981 25.168C247.727 24.8053 248.527 24.5173 249.381 24.304C250.234 24.0693 251.119 23.952 252.037 23.952C253.509 23.952 254.714 24.2507 255.653 24.848C256.591 25.424 257.285 26.2667 257.733 27.376C258.202 28.4853 258.437 29.8293 258.437 31.408V42H255.429L255.141 39.984H255.013C254.223 40.6667 253.359 41.2533 252.421 41.744C251.482 42.2133 250.479 42.448 249.413 42.448ZM250.533 39.504C251.301 39.504 252.015 39.3333 252.677 38.992C253.338 38.6293 254.031 38.1067 254.757 37.424V33.136C253.029 33.328 251.653 33.616 250.629 34C249.605 34.3627 248.869 34.8 248.421 35.312C247.994 35.8027 247.781 36.3787 247.781 37.04C247.781 37.9147 248.047 38.544 248.581 38.928C249.114 39.312 249.765 39.504 250.533 39.504ZM269.707 49.904C268.299 49.904 267.04 49.7227 265.931 49.36C264.822 49.0187 263.947 48.5067 263.307 47.824C262.688 47.1413 262.379 46.288 262.379 45.264C262.379 44.5173 262.603 43.8133 263.051 43.152C263.499 42.4907 264.128 41.9147 264.939 41.424V41.296C264.491 40.9973 264.107 40.6133 263.787 40.144C263.488 39.6533 263.339 39.056 263.339 38.352C263.339 37.648 263.542 37.0187 263.947 36.464C264.374 35.888 264.832 35.4293 265.323 35.088V34.96C264.704 34.4907 264.16 33.8507 263.691 33.04C263.222 32.2293 262.987 31.3013 262.987 30.256C262.987 28.9333 263.296 27.8027 263.915 26.864C264.555 25.904 265.387 25.1787 266.411 24.688C267.456 24.1973 268.587 23.952 269.803 23.952C270.315 23.952 270.784 23.9947 271.211 24.08C271.659 24.144 272.043 24.24 272.363 24.368H278.603V27.152H275.275C275.595 27.5147 275.862 27.9733 276.075 28.528C276.288 29.0827 276.395 29.6907 276.395 30.352C276.395 31.632 276.096 32.7307 275.499 33.648C274.923 34.544 274.134 35.2373 273.131 35.728C272.128 36.1973 271.019 36.432 269.803 36.432C269.419 36.432 269.003 36.3893 268.555 36.304C268.128 36.1973 267.723 36.0693 267.339 35.92C267.062 36.1547 266.827 36.4107 266.635 36.688C266.464 36.9653 266.379 37.3173 266.379 37.744C266.379 38.256 266.582 38.672 266.987 38.992C267.414 39.312 268.192 39.472 269.323 39.472H272.587C274.656 39.472 276.224 39.8133 277.291 40.496C278.358 41.1573 278.891 42.2347 278.891 43.728C278.891 44.8587 278.518 45.8933 277.771 46.832C277.024 47.7707 275.958 48.5173 274.571 49.072C273.206 49.6267 271.584 49.904 269.707 49.904ZM269.803 34.032C270.4 34.032 270.955 33.8827 271.467 33.584C271.979 33.2853 272.384 32.8587 272.683 32.304C272.982 31.728 273.131 31.0453 273.131 30.256C273.131 29.4667 272.982 28.8053 272.683 28.272C272.384 27.7173 271.979 27.2907 271.467 26.992C270.976 26.6933 270.422 26.544 269.803 26.544C269.184 26.544 268.619 26.6933 268.107 26.992C267.616 27.2907 267.222 27.7173 266.923 28.272C266.624 28.8053 266.475 29.4667 266.475 30.256C266.475 31.0453 266.624 31.728 266.923 32.304C267.243 32.8587 267.648 33.2853 268.139 33.584C268.651 33.8827 269.206 34.032 269.803 34.032ZM270.219 47.472C271.264 47.472 272.16 47.3227 272.907 47.024C273.654 46.7253 274.24 46.3307 274.667 45.84C275.094 45.3707 275.307 44.8693 275.307 44.336C275.307 43.5893 275.03 43.0773 274.475 42.8C273.92 42.544 273.11 42.416 272.043 42.416H269.387C268.96 42.416 268.555 42.3947 268.171 42.352C267.787 42.3093 267.403 42.2453 267.019 42.16C266.507 42.544 266.134 42.96 265.899 43.408C265.664 43.856 265.547 44.2933 265.547 44.72C265.547 45.5733 265.963 46.2453 266.795 46.736C267.627 47.2267 268.768 47.472 270.219 47.472ZM288.863 42.448C287.263 42.448 285.812 42.0853 284.511 41.36C283.209 40.6133 282.175 39.5573 281.407 38.192C280.639 36.8053 280.255 35.1413 280.255 33.2C280.255 31.7707 280.479 30.4907 280.927 29.36C281.375 28.208 281.983 27.2373 282.751 26.448C283.519 25.6373 284.383 25.0187 285.343 24.592C286.303 24.1653 287.284 23.952 288.287 23.952C289.844 23.952 291.156 24.304 292.223 25.008C293.289 25.6907 294.1 26.6613 294.655 27.92C295.209 29.1573 295.487 30.608 295.487 32.272C295.487 32.6347 295.465 32.9867 295.423 33.328C295.401 33.648 295.359 33.9253 295.295 34.16H283.871C283.977 35.2693 284.265 36.2293 284.735 37.04C285.225 37.8293 285.855 38.448 286.623 38.896C287.412 39.3227 288.308 39.536 289.311 39.536C290.1 39.536 290.836 39.4187 291.519 39.184C292.201 38.9493 292.863 38.6293 293.503 38.224L294.783 40.56C293.972 41.0933 293.065 41.5413 292.063 41.904C291.081 42.2667 290.015 42.448 288.863 42.448ZM283.839 31.6H292.287C292.287 30.1067 291.945 28.944 291.263 28.112C290.601 27.28 289.631 26.864 288.351 26.864C287.625 26.864 286.943 27.0453 286.303 27.408C285.663 27.7707 285.119 28.304 284.671 29.008C284.244 29.712 283.967 30.576 283.839 31.6ZM299.628 42V24.368H302.636L302.956 26.864H303.02C303.788 26.0533 304.609 25.3707 305.484 24.816C306.38 24.24 307.382 23.952 308.492 23.952C309.793 23.952 310.828 24.24 311.596 24.816C312.364 25.3707 312.94 26.16 313.324 27.184C314.198 26.2453 315.094 25.4773 316.012 24.88C316.95 24.2613 317.964 23.952 319.052 23.952C320.886 23.952 322.241 24.56 323.116 25.776C324.012 26.9707 324.46 28.688 324.46 30.928V42H320.748V31.376C320.748 29.8613 320.513 28.784 320.044 28.144C319.574 27.4827 318.838 27.152 317.836 27.152C317.238 27.152 316.609 27.344 315.948 27.728C315.308 28.112 314.614 28.7093 313.868 29.52V42H310.188V31.376C310.188 29.8613 309.953 28.784 309.484 28.144C309.014 27.4827 308.268 27.152 307.244 27.152C306.668 27.152 306.049 27.344 305.388 27.728C304.726 28.112 304.033 28.7093 303.308 29.52V42H299.628ZM337.175 42.448C335.575 42.448 334.125 42.0853 332.823 41.36C331.522 40.6133 330.487 39.5573 329.719 38.192C328.951 36.8053 328.567 35.1413 328.567 33.2C328.567 31.7707 328.791 30.4907 329.239 29.36C329.687 28.208 330.295 27.2373 331.063 26.448C331.831 25.6373 332.695 25.0187 333.655 24.592C334.615 24.1653 335.597 23.952 336.599 23.952C338.157 23.952 339.469 24.304 340.535 25.008C341.602 25.6907 342.413 26.6613 342.967 27.92C343.522 29.1573 343.799 30.608 343.799 32.272C343.799 32.6347 343.778 32.9867 343.735 33.328C343.714 33.648 343.671 33.9253 343.607 34.16H332.183C332.29 35.2693 332.578 36.2293 333.047 37.04C333.538 37.8293 334.167 38.448 334.935 38.896C335.725 39.3227 336.621 39.536 337.623 39.536C338.413 39.536 339.149 39.4187 339.831 39.184C340.514 38.9493 341.175 38.6293 341.815 38.224L343.095 40.56C342.285 41.0933 341.378 41.5413 340.375 41.904C339.394 42.2667 338.327 42.448 337.175 42.448ZM332.151 31.6H340.599C340.599 30.1067 340.258 28.944 339.575 28.112C338.914 27.28 337.943 26.864 336.663 26.864C335.938 26.864 335.255 27.0453 334.615 27.408C333.975 27.7707 333.431 28.304 332.983 29.008C332.557 29.712 332.279 30.576 332.151 31.6ZM347.94 42V24.368H350.948L351.268 26.832H351.332C352.143 26.0427 353.018 25.3707 353.956 24.816C354.895 24.24 355.962 23.952 357.156 23.952C359.034 23.952 360.399 24.56 361.252 25.776C362.127 26.9707 362.564 28.688 362.564 30.928V42H358.884V31.376C358.884 29.8613 358.65 28.784 358.18 28.144C357.711 27.4827 356.954 27.152 355.908 27.152C355.098 27.152 354.372 27.3547 353.732 27.76C353.114 28.144 352.41 28.7307 351.62 29.52V42H347.94ZM373.829 42.448C372.506 42.448 371.45 42.192 370.661 41.68C369.893 41.1467 369.338 40.4213 368.997 39.504C368.656 38.5653 368.485 37.4773 368.485 36.24V27.344H365.925V24.592L368.677 24.368L369.093 19.504H372.165V24.368H376.741V27.344H372.165V36.272C372.165 37.3173 372.368 38.1173 372.773 38.672C373.178 39.2053 373.84 39.472 374.757 39.472C375.056 39.472 375.376 39.4293 375.717 39.344C376.058 39.2587 376.357 39.1627 376.613 39.056L377.285 41.776C376.816 41.9253 376.282 42.0747 375.685 42.224C375.109 42.3733 374.49 42.448 373.829 42.448ZM392.584 48.368C391.091 45.936 389.928 43.3973 389.096 40.752C388.264 38.0853 387.848 35.1627 387.848 31.984C387.848 28.8267 388.264 25.9147 389.096 23.248C389.928 20.5813 391.091 18.032 392.584 15.6L394.888 16.624C393.523 18.928 392.509 21.4027 391.848 24.048C391.208 26.672 390.888 29.3173 390.888 31.984C390.888 34.672 391.208 37.328 391.848 39.952C392.509 42.576 393.523 45.04 394.888 47.344L392.584 48.368ZM401.91 42L397.142 18.416H400.95L403.158 30.672C403.372 31.9307 403.585 33.1893 403.798 34.448C404.012 35.7067 404.225 36.976 404.438 38.256H404.566C404.822 36.976 405.078 35.7067 405.334 34.448C405.612 33.1893 405.889 31.9307 406.166 30.672L409.174 18.416H412.47L415.51 30.672C415.788 31.9093 416.054 33.168 416.31 34.448C416.566 35.7067 416.833 36.976 417.11 38.256H417.27C417.484 36.976 417.686 35.7067 417.878 34.448C418.07 33.1893 418.262 31.9307 418.454 30.672L420.694 18.416H424.246L419.606 42H415.03L411.862 28.912C411.67 27.9733 411.478 27.0667 411.286 26.192C411.116 25.296 410.945 24.4 410.774 23.504H410.646C410.476 24.4 410.294 25.296 410.102 26.192C409.91 27.0667 409.718 27.9733 409.526 28.912L406.422 42H401.91ZM428.104 42V18.416H435.432C437.032 18.416 438.451 18.608 439.688 18.992C440.947 19.376 441.928 19.9947 442.632 20.848C443.357 21.68 443.72 22.8 443.72 24.208C443.72 24.976 443.581 25.7013 443.304 26.384C443.048 27.0667 442.675 27.6747 442.184 28.208C441.693 28.72 441.085 29.0933 440.36 29.328V29.488C441.704 29.7653 442.813 30.3733 443.688 31.312C444.563 32.2293 445 33.488 445 35.088C445 36.6453 444.605 37.936 443.816 38.96C443.048 39.984 441.981 40.752 440.616 41.264C439.272 41.7547 437.725 42 435.976 42H428.104ZM431.816 28.272H434.984C436.776 28.272 438.067 27.952 438.856 27.312C439.667 26.672 440.072 25.808 440.072 24.72C440.072 23.504 439.656 22.64 438.824 22.128C437.992 21.5947 436.744 21.328 435.08 21.328H431.816V28.272ZM431.816 39.088H435.56C437.395 39.088 438.813 38.7467 439.816 38.064C440.84 37.3813 441.352 36.3253 441.352 34.896C441.352 33.5733 440.851 32.6133 439.848 32.016C438.867 31.3973 437.437 31.088 435.56 31.088H431.816V39.088ZM455.512 42.448C453.89 42.448 452.354 42.1387 450.904 41.52C449.474 40.9013 448.216 40.048 447.128 38.96L449.304 36.4C450.157 37.232 451.128 37.904 452.216 38.416C453.325 38.928 454.456 39.184 455.608 39.184C457.016 39.184 458.093 38.8747 458.84 38.256C459.608 37.6373 459.992 36.8373 459.992 35.856C459.992 35.1307 459.832 34.5547 459.512 34.128C459.192 33.68 458.744 33.3067 458.168 33.008C457.613 32.7093 456.973 32.4 456.248 32.08L452.984 30.672C452.216 30.352 451.458 29.936 450.712 29.424C449.986 28.8907 449.378 28.2293 448.888 27.44C448.418 26.6293 448.184 25.648 448.184 24.496C448.184 23.2587 448.514 22.1493 449.176 21.168C449.837 20.1867 450.754 19.4187 451.928 18.864C453.101 18.288 454.434 18 455.928 18C457.314 18 458.626 18.2667 459.864 18.8C461.101 19.3333 462.157 20.0587 463.032 20.976L461.144 23.344C460.397 22.6827 459.597 22.1707 458.744 21.808C457.912 21.424 456.973 21.232 455.928 21.232C454.712 21.232 453.752 21.5093 453.048 22.064C452.344 22.5973 451.992 23.3227 451.992 24.24C451.992 24.9227 452.173 25.488 452.536 25.936C452.898 26.3627 453.368 26.7253 453.944 27.024C454.541 27.3013 455.149 27.568 455.768 27.824L459 29.2C459.938 29.584 460.77 30.0533 461.496 30.608C462.221 31.1627 462.786 31.8347 463.192 32.624C463.597 33.4133 463.8 34.3947 463.8 35.568C463.8 36.8267 463.469 37.9787 462.808 39.024C462.146 40.048 461.197 40.88 459.96 41.52C458.722 42.1387 457.24 42.448 455.512 42.448ZM468.932 48.368L466.628 47.344C467.994 45.04 469.007 42.576 469.668 39.952C470.33 37.328 470.66 34.672 470.66 31.984C470.66 29.3173 470.33 26.672 469.668 24.048C469.007 21.4027 467.994 18.928 466.628 16.624L468.932 15.6C470.447 18.032 471.62 20.5813 472.452 23.248C473.284 25.9147 473.7 28.8267 473.7 31.984C473.7 35.1627 473.284 38.0853 472.452 40.752C471.62 43.3973 470.447 45.936 468.932 48.368Z" fill="white"/>
</svg>
