<svg width="235" height="58" viewBox="0 0 235 58" fill="none" xmlns="http://www.w3.org/2000/svg">
<rect x="11" y="25.8455" width="8.95935" height="18.1545" rx="0.943089" fill="#7244ED"/>
<rect x="21.1387" y="20.187" width="8.95935" height="23.813" rx="0.943089" fill="#FEFEFF"/>
<rect x="31.2764" y="15" width="8.95935" height="29" rx="0.943089" fill="#DFD9FC"/>
<path d="M55.3875 42L56.2515 34.832H53.4355V32.368H56.5395L57.1475 27.472H54.1715V24.976H57.4675L58.2675 18.608H60.5395L59.7395 24.976H64.1875L64.9875 18.608H67.2595L66.4915 24.976H69.3715V27.472H66.2035L65.5635 32.368H68.6355V34.832H65.2755L64.4115 42H62.1075L62.9715 34.832H58.5555L57.6595 42H55.3875ZM58.8115 32.368H63.2595L63.8675 27.472H59.4195L58.8115 32.368ZM93.6695 15.376H96.8695V44.624H93.6695V15.376ZM81.9575 26.32H89.0615V29.072H81.9575V26.32ZM87.6855 16.016H90.8535V43.248H87.6855V16.016ZM72.8695 35.056H74.8215C76.2935 35.056 77.6055 35.0453 78.7575 35.024C79.9095 34.9813 80.9975 34.9067 82.0215 34.8C83.0455 34.672 84.0908 34.5013 85.1575 34.288L85.4775 37.04C84.3682 37.2533 83.2802 37.424 82.2135 37.552C81.1682 37.6587 80.0482 37.7333 78.8535 37.776C77.6588 37.8187 76.3148 37.84 74.8215 37.84H72.8695V35.056ZM72.8695 18.832H83.9415V21.552H76.1975V36.208H72.8695V18.832ZM122.051 15.376H125.411V44.688H122.051V15.376ZM109.859 17.52C111.31 17.52 112.6 17.9467 113.731 18.8C114.883 19.6533 115.779 20.848 116.419 22.384C117.059 23.92 117.379 25.7333 117.379 27.824C117.379 29.936 117.059 31.7707 116.419 33.328C115.779 34.864 114.883 36.0587 113.731 36.912C112.6 37.744 111.31 38.16 109.859 38.16C108.408 38.16 107.107 37.744 105.955 36.912C104.824 36.0587 103.928 34.864 103.267 33.328C102.627 31.7707 102.307 29.936 102.307 27.824C102.307 25.7333 102.627 23.92 103.267 22.384C103.928 20.848 104.824 19.6533 105.955 18.8C107.107 17.9467 108.408 17.52 109.859 17.52ZM109.859 20.56C109.006 20.56 108.248 20.848 107.587 21.424C106.947 22 106.446 22.832 106.083 23.92C105.72 25.008 105.539 26.3093 105.539 27.824C105.539 29.36 105.72 30.672 106.083 31.76C106.446 32.848 106.947 33.6907 107.587 34.288C108.248 34.864 109.006 35.152 109.859 35.152C110.712 35.152 111.459 34.864 112.099 34.288C112.739 33.6907 113.24 32.848 113.603 31.76C113.966 30.672 114.147 29.36 114.147 27.824C114.147 26.3093 113.966 25.008 113.603 23.92C113.24 22.832 112.739 22 112.099 21.424C111.459 20.848 110.712 20.56 109.859 20.56ZM151.713 15.376H155.073V44.688H151.713V15.376ZM146.113 26.064H152.161V28.816H146.113V26.064ZM132.129 35.12H134.401C136.15 35.12 137.729 35.0987 139.137 35.056C140.566 35.0133 141.931 34.9387 143.233 34.832C144.534 34.704 145.867 34.5227 147.233 34.288L147.553 36.976C146.145 37.2107 144.769 37.392 143.425 37.52C142.102 37.648 140.705 37.7333 139.233 37.776C137.782 37.8187 136.171 37.84 134.401 37.84H132.129V35.12ZM132.129 17.936H145.633V20.688H135.457V35.984H132.129V17.936ZM134.625 26.128H144.481V28.784H134.625V26.128ZM167.378 30.608H193.874V33.296H167.378V30.608ZM179.218 32.016H182.578V38.512H179.218V32.016ZM170.61 41.328H190.93V44.048H170.61V41.328ZM170.61 36.08H173.938V42.416H170.61V36.08ZM170.834 16.304H174.161V19.696H187.09V16.304H190.418V28.144H170.834V16.304ZM174.161 22.256V25.52H187.09V22.256H174.161ZM211.823 21.2H218.319V23.952H211.823V21.2ZM203.855 16.88H206.607V19.792C206.607 21.6907 206.298 23.472 205.679 25.136C205.06 26.7787 204.143 28.208 202.927 29.424C201.732 30.64 200.271 31.568 198.543 32.208L196.783 29.552C198.319 29.0187 199.61 28.2613 200.655 27.28C201.722 26.2773 202.522 25.136 203.055 23.856C203.588 22.576 203.855 21.2213 203.855 19.792V16.88ZM204.527 16.88H207.215V19.984C207.215 20.944 207.364 21.8827 207.663 22.8C207.983 23.7173 208.431 24.5813 209.007 25.392C209.604 26.1813 210.33 26.8853 211.183 27.504C212.036 28.1227 213.007 28.624 214.095 29.008L212.335 31.632C210.671 31.0347 209.252 30.16 208.079 29.008C206.927 27.8347 206.042 26.48 205.423 24.944C204.826 23.3867 204.527 21.7333 204.527 19.984V16.88ZM201.391 34.224H221.071V44.656H217.711V36.912H201.391V34.224ZM217.711 15.408H221.071V32.72H217.711V15.408Z" fill="white"/>
</svg>
