<svg width="281" height="58" viewBox="0 0 281 58" fill="none" xmlns="http://www.w3.org/2000/svg">
<path d="M13.5281 42L14.3921 34.832H11.5761V32.368H14.6801L15.2881 27.472H12.3121V24.976H15.6081L16.4081 18.608H18.6801L17.8801 24.976H22.3281L23.1281 18.608H25.4001L24.6321 24.976H27.5121V27.472H24.3441L23.7041 32.368H26.7761V34.832H23.4161L22.5521 42H20.2481L21.1121 34.832H16.6961L15.8001 42H13.5281ZM16.9521 32.368H21.4001L22.0081 27.472H17.5601L16.9521 32.368ZM34.0821 42L29.3141 18.416H33.1221L35.3301 30.672C35.5435 31.9307 35.7568 33.1893 35.9701 34.448C36.1835 35.7067 36.3968 36.976 36.6101 38.256H36.7381C36.9941 36.976 37.2501 35.7067 37.5061 34.448C37.7835 33.1893 38.0608 31.9307 38.3381 30.672L41.3461 18.416H44.6421L47.6821 30.672C47.9595 31.9093 48.2261 33.168 48.4821 34.448C48.7381 35.7067 49.0048 36.976 49.2821 38.256H49.4421C49.6555 36.976 49.8581 35.7067 50.0501 34.448C50.2421 33.1893 50.4341 31.9307 50.6261 30.672L52.8661 18.416H56.4181L51.7781 42H47.2021L44.0341 28.912C43.8421 27.9733 43.6501 27.0667 43.4581 26.192C43.2875 25.296 43.1168 24.4 42.9461 23.504H42.8181C42.6475 24.4 42.4661 25.296 42.2741 26.192C42.0821 27.0667 41.8901 27.9733 41.6981 28.912L38.5941 42H34.0821ZM67.3159 42.448C65.7159 42.448 64.2652 42.0853 62.9639 41.36C61.6625 40.6133 60.6279 39.5573 59.8599 38.192C59.0919 36.8053 58.7079 35.1413 58.7079 33.2C58.7079 31.7707 58.9319 30.4907 59.3799 29.36C59.8279 28.208 60.4359 27.2373 61.2039 26.448C61.9719 25.6373 62.8359 25.0187 63.7959 24.592C64.7559 24.1653 65.7372 23.952 66.7399 23.952C68.2972 23.952 69.6092 24.304 70.6759 25.008C71.7425 25.6907 72.5532 26.6613 73.1079 27.92C73.6625 29.1573 73.9399 30.608 73.9399 32.272C73.9399 32.6347 73.9185 32.9867 73.8759 33.328C73.8545 33.648 73.8119 33.9253 73.7479 34.16H62.3239C62.4305 35.2693 62.7185 36.2293 63.1879 37.04C63.6785 37.8293 64.3079 38.448 65.0759 38.896C65.8652 39.3227 66.7612 39.536 67.7639 39.536C68.5532 39.536 69.2892 39.4187 69.9719 39.184C70.6545 38.9493 71.3159 38.6293 71.9559 38.224L73.2359 40.56C72.4252 41.0933 71.5185 41.5413 70.5159 41.904C69.5345 42.2667 68.4679 42.448 67.3159 42.448ZM62.2919 31.6H70.7399C70.7399 30.1067 70.3985 28.944 69.7159 28.112C69.0545 27.28 68.0839 26.864 66.8039 26.864C66.0785 26.864 65.3959 27.0453 64.7559 27.408C64.1159 27.7707 63.5719 28.304 63.1239 29.008C62.6972 29.712 62.4199 30.576 62.2919 31.6ZM86.2729 42.448C85.4835 42.448 84.6622 42.2453 83.8089 41.84C82.9555 41.4347 82.1662 40.88 81.4409 40.176H81.3129L80.9929 42H78.0809V16.496H81.7609V23.248L81.6329 26.256C82.4009 25.5733 83.2329 25.0187 84.1289 24.592C85.0462 24.1653 85.9635 23.952 86.8809 23.952C88.3742 23.952 89.6329 24.3253 90.6569 25.072C91.7022 25.7973 92.4915 26.832 93.0249 28.176C93.5795 29.52 93.8569 31.0987 93.8569 32.912C93.8569 34.9173 93.4942 36.6347 92.7689 38.064C92.0649 39.4933 91.1369 40.5813 89.9849 41.328C88.8329 42.0747 87.5955 42.448 86.2729 42.448ZM85.5689 39.344C86.4222 39.344 87.1795 39.0987 87.8409 38.608C88.5235 38.1173 89.0569 37.4027 89.4409 36.464C89.8462 35.504 90.0489 34.3413 90.0489 32.976C90.0489 31.7387 89.8995 30.6827 89.6009 29.808C89.3235 28.912 88.8862 28.2293 88.2889 27.76C87.6915 27.2693 86.9022 27.024 85.9209 27.024C85.2382 27.024 84.5555 27.2053 83.8729 27.568C83.1902 27.9093 82.4862 28.4427 81.7609 29.168V37.776C82.4222 38.352 83.0835 38.7573 83.7449 38.992C84.4275 39.2267 85.0355 39.344 85.5689 39.344ZM105.713 42V18.416H109.425V42H105.713ZM115.268 42V24.368H118.276L118.596 26.832H118.66C119.471 26.0427 120.346 25.3707 121.284 24.816C122.223 24.24 123.29 23.952 124.484 23.952C126.362 23.952 127.727 24.56 128.58 25.776C129.455 26.9707 129.892 28.688 129.892 30.928V42H126.212V31.376C126.212 29.8613 125.978 28.784 125.508 28.144C125.039 27.4827 124.282 27.152 123.236 27.152C122.426 27.152 121.7 27.3547 121.06 27.76C120.442 28.144 119.738 28.7307 118.948 29.52V42H115.268ZM141.157 42.448C139.834 42.448 138.778 42.192 137.989 41.68C137.221 41.1467 136.666 40.4213 136.325 39.504C135.984 38.5653 135.813 37.4773 135.813 36.24V27.344H133.253V24.592L136.005 24.368L136.421 19.504H139.493V24.368H144.069V27.344H139.493V36.272C139.493 37.3173 139.696 38.1173 140.101 38.672C140.506 39.2053 141.168 39.472 142.085 39.472C142.384 39.472 142.704 39.4293 143.045 39.344C143.386 39.2587 143.685 39.1627 143.941 39.056L144.613 41.776C144.144 41.9253 143.61 42.0747 143.013 42.224C142.437 42.3733 141.818 42.448 141.157 42.448ZM154.628 42.448C153.028 42.448 151.578 42.0853 150.276 41.36C148.975 40.6133 147.94 39.5573 147.172 38.192C146.404 36.8053 146.02 35.1413 146.02 33.2C146.02 31.7707 146.244 30.4907 146.692 29.36C147.14 28.208 147.748 27.2373 148.516 26.448C149.284 25.6373 150.148 25.0187 151.108 24.592C152.068 24.1653 153.05 23.952 154.052 23.952C155.61 23.952 156.922 24.304 157.988 25.008C159.055 25.6907 159.866 26.6613 160.42 27.92C160.975 29.1573 161.252 30.608 161.252 32.272C161.252 32.6347 161.231 32.9867 161.188 33.328C161.167 33.648 161.124 33.9253 161.06 34.16H149.636C149.743 35.2693 150.031 36.2293 150.5 37.04C150.991 37.8293 151.62 38.448 152.388 38.896C153.178 39.3227 154.074 39.536 155.076 39.536C155.866 39.536 156.602 39.4187 157.284 39.184C157.967 38.9493 158.628 38.6293 159.268 38.224L160.548 40.56C159.738 41.0933 158.831 41.5413 157.828 41.904C156.847 42.2667 155.78 42.448 154.628 42.448ZM149.604 31.6H158.052C158.052 30.1067 157.711 28.944 157.028 28.112C156.367 27.28 155.396 26.864 154.116 26.864C153.391 26.864 152.708 27.0453 152.068 27.408C151.428 27.7707 150.884 28.304 150.436 29.008C150.01 29.712 149.732 30.576 149.604 31.6ZM165.393 42V24.368H168.401L168.721 27.536H168.785C169.425 26.4053 170.183 25.5307 171.057 24.912C171.932 24.272 172.849 23.952 173.809 23.952C174.236 23.952 174.599 23.984 174.897 24.048C175.196 24.112 175.484 24.1973 175.761 24.304L175.121 27.536C174.801 27.4293 174.513 27.3547 174.257 27.312C174.001 27.2693 173.692 27.248 173.329 27.248C172.625 27.248 171.879 27.536 171.089 28.112C170.3 28.6667 169.628 29.648 169.073 31.056V42H165.393ZM181.616 42.448C180.613 42.448 179.717 42.2347 178.928 41.808C178.16 41.3813 177.552 40.784 177.104 40.016C176.656 39.248 176.432 38.352 176.432 37.328C176.432 35.4293 177.264 33.968 178.928 32.944C180.613 31.8987 183.291 31.1733 186.96 30.768C186.939 30.0853 186.832 29.456 186.64 28.88C186.448 28.304 186.107 27.8453 185.616 27.504C185.147 27.1413 184.475 26.96 183.6 26.96C182.683 26.96 181.797 27.1413 180.944 27.504C180.091 27.8667 179.28 28.2827 178.512 28.752L177.136 26.256C177.755 25.872 178.437 25.5093 179.184 25.168C179.931 24.8053 180.731 24.5173 181.584 24.304C182.437 24.0693 183.323 23.952 184.24 23.952C185.712 23.952 186.917 24.2507 187.856 24.848C188.795 25.424 189.488 26.2667 189.936 27.376C190.405 28.4853 190.64 29.8293 190.64 31.408V42H187.632L187.344 39.984H187.216C186.427 40.6667 185.563 41.2533 184.624 41.744C183.685 42.2133 182.683 42.448 181.616 42.448ZM182.736 39.504C183.504 39.504 184.219 39.3333 184.88 38.992C185.541 38.6293 186.235 38.1067 186.96 37.424V33.136C185.232 33.328 183.856 33.616 182.832 34C181.808 34.3627 181.072 34.8 180.624 35.312C180.197 35.8027 179.984 36.3787 179.984 37.04C179.984 37.9147 180.251 38.544 180.784 38.928C181.317 39.312 181.968 39.504 182.736 39.504ZM203.03 42.448C201.43 42.448 200.001 42.0853 198.742 41.36C197.483 40.6133 196.481 39.5573 195.734 38.192C194.987 36.8053 194.614 35.1413 194.614 33.2C194.614 31.2373 195.019 29.5733 195.83 28.208C196.641 26.8213 197.707 25.7653 199.03 25.04C200.353 24.3147 201.782 23.952 203.318 23.952C204.449 23.952 205.43 24.144 206.262 24.528C207.094 24.912 207.83 25.392 208.47 25.968L206.646 28.368C206.177 27.9413 205.686 27.6107 205.174 27.376C204.662 27.12 204.107 26.992 203.51 26.992C202.529 26.992 201.654 27.2587 200.886 27.792C200.118 28.304 199.51 29.0293 199.062 29.968C198.635 30.8853 198.422 31.9627 198.422 33.2C198.422 34.4373 198.635 35.5253 199.062 36.464C199.489 37.3813 200.075 38.096 200.822 38.608C201.569 39.12 202.422 39.376 203.382 39.376C204.129 39.376 204.822 39.2267 205.462 38.928C206.102 38.608 206.689 38.224 207.222 37.776L208.758 40.24C207.947 40.9653 207.041 41.52 206.038 41.904C205.035 42.2667 204.033 42.448 203.03 42.448ZM217.813 42.448C216.491 42.448 215.435 42.192 214.645 41.68C213.877 41.1467 213.323 40.4213 212.981 39.504C212.64 38.5653 212.469 37.4773 212.469 36.24V27.344H209.909V24.592L212.661 24.368L213.077 19.504H216.149V24.368H220.725V27.344H216.149V36.272C216.149 37.3173 216.352 38.1173 216.757 38.672C217.163 39.2053 217.824 39.472 218.741 39.472C219.04 39.472 219.36 39.4293 219.701 39.344C220.043 39.2587 220.341 39.1627 220.597 39.056L221.269 41.776C220.8 41.9253 220.267 42.0747 219.669 42.224C219.093 42.3733 218.475 42.448 217.813 42.448ZM224.581 42V24.368H228.261V42H224.581ZM226.437 21.104C225.733 21.104 225.168 20.9013 224.741 20.496C224.336 20.0907 224.133 19.5467 224.133 18.864C224.133 18.224 224.336 17.7013 224.741 17.296C225.168 16.8907 225.733 16.688 226.437 16.688C227.098 16.688 227.642 16.8907 228.069 17.296C228.496 17.7013 228.709 18.224 228.709 18.864C228.709 19.5467 228.496 20.0907 228.069 20.496C227.642 20.9013 227.098 21.104 226.437 21.104ZM240.872 42.448C239.421 42.448 238.056 42.0853 236.776 41.36C235.517 40.6133 234.493 39.5573 233.704 38.192C232.936 36.8053 232.552 35.1413 232.552 33.2C232.552 31.2373 232.936 29.5733 233.704 28.208C234.493 26.8213 235.517 25.7653 236.776 25.04C238.056 24.3147 239.421 23.952 240.872 23.952C241.938 23.952 242.973 24.1653 243.976 24.592C244.978 24.9973 245.864 25.5947 246.632 26.384C247.4 27.1733 248.008 28.144 248.456 29.296C248.904 30.4267 249.128 31.728 249.128 33.2C249.128 35.1413 248.733 36.8053 247.944 38.192C247.176 39.5573 246.162 40.6133 244.904 41.36C243.666 42.0853 242.322 42.448 240.872 42.448ZM240.872 39.376C241.789 39.376 242.578 39.12 243.24 38.608C243.922 38.096 244.445 37.3813 244.808 36.464C245.17 35.5253 245.352 34.4373 245.352 33.2C245.352 31.9627 245.17 30.8853 244.808 29.968C244.445 29.0293 243.922 28.304 243.24 27.792C242.578 27.2587 241.789 26.992 240.872 26.992C239.933 26.992 239.122 27.2587 238.44 27.792C237.778 28.304 237.266 29.0293 236.904 29.968C236.541 30.8853 236.36 31.9627 236.36 33.2C236.36 34.4373 236.541 35.5253 236.904 36.464C237.266 37.3813 237.778 38.096 238.44 38.608C239.122 39.12 239.933 39.376 240.872 39.376ZM253.487 42V24.368H256.495L256.815 26.832H256.879C257.69 26.0427 258.564 25.3707 259.503 24.816C260.442 24.24 261.508 23.952 262.703 23.952C264.58 23.952 265.946 24.56 266.799 25.776C267.674 26.9707 268.111 28.688 268.111 30.928V42H264.431V31.376C264.431 29.8613 264.196 28.784 263.727 28.144C263.258 27.4827 262.5 27.152 261.455 27.152C260.644 27.152 259.919 27.3547 259.279 27.76C258.66 28.144 257.956 28.7307 257.167 29.52V42H253.487Z" fill="white"/>
</svg>
