<svg width="193" height="58" viewBox="0 0 193 58" fill="none" xmlns="http://www.w3.org/2000/svg">
<path d="M13.3875 42L14.2515 34.832H11.4355V32.368H14.5395L15.1475 27.472H12.1715V24.976H15.4675L16.2675 18.608H18.5395L17.7395 24.976H22.1875L22.9875 18.608H25.2595L24.4915 24.976H27.3715V27.472H24.2035L23.5635 32.368H26.6355V34.832H23.2755L22.4115 42H20.1075L20.9715 34.832H16.5555L15.6595 42H13.3875ZM16.8115 32.368H21.2595L21.8675 27.472H17.4195L16.8115 32.368ZM51.6375 15.408H54.8375V33.456H51.6375V15.408ZM46.2295 15.92H49.3655V33.36H46.2295V15.92ZM41.4615 29.776H47.6055V32.08H41.4615V29.776ZM35.9575 27.696H39.1575V33.328H35.9575V27.696ZM30.0695 29.072L29.7175 26.512C30.6988 26.512 31.8082 26.512 33.0455 26.512C34.3042 26.4907 35.6055 26.4587 36.9495 26.416C38.3148 26.352 39.6695 26.2667 41.0135 26.16C42.3575 26.032 43.6268 25.872 44.8215 25.68L45.0775 27.952C43.4348 28.2933 41.6962 28.5493 39.8615 28.72C38.0482 28.8693 36.2882 28.9653 34.5815 29.008C32.8748 29.0507 31.3708 29.072 30.0695 29.072ZM34.6455 34.448H37.9735V36.816H51.5095V34.448H54.8375V44.272H34.6455V34.448ZM37.9735 39.376V41.648H51.5095V39.376H37.9735ZM37.4935 16.4C39.3922 16.4 40.9175 16.7947 42.0695 17.584C43.2428 18.352 43.8295 19.408 43.8295 20.752C43.8295 22.0747 43.2428 23.1307 42.0695 23.92C40.9175 24.7093 39.3922 25.104 37.4935 25.104C35.5735 25.104 34.0268 24.7093 32.8535 23.92C31.6802 23.1307 31.0935 22.0747 31.0935 20.752C31.0935 19.408 31.6802 18.352 32.8535 17.584C34.0268 16.7947 35.5735 16.4 37.4935 16.4ZM37.4935 18.736C36.4695 18.736 35.6482 18.9173 35.0295 19.28C34.4108 19.6213 34.1015 20.112 34.1015 20.752C34.1015 21.392 34.4108 21.8933 35.0295 22.256C35.6482 22.5973 36.4695 22.768 37.4935 22.768C38.4962 22.768 39.2962 22.5973 39.8935 22.256C40.5122 21.8933 40.8215 21.392 40.8215 20.752C40.8215 20.112 40.5122 19.6213 39.8935 19.28C39.2962 18.9173 38.4962 18.736 37.4935 18.736ZM87.2705 15.408H90.6305V36.624H87.2705V15.408ZM71.5585 41.328H91.4625V44.048H71.5585V41.328ZM71.5585 34.48H74.8865V42.384H71.5585V34.48ZM74.8545 17.36C76.3265 17.36 77.6492 17.6693 78.8225 18.288C79.9958 18.9067 80.9238 19.7707 81.6065 20.88C82.2892 21.968 82.6305 23.2267 82.6305 24.656C82.6305 26.064 82.2892 27.3227 81.6065 28.432C80.9238 29.5413 79.9958 30.4053 78.8225 31.024C77.6492 31.6427 76.3265 31.952 74.8545 31.952C73.3825 31.952 72.0598 31.6427 70.8865 31.024C69.7132 30.4053 68.7852 29.5413 68.1025 28.432C67.4198 27.3227 67.0785 26.064 67.0785 24.656C67.0785 23.2267 67.4198 21.968 68.1025 20.88C68.7852 19.7707 69.7132 18.9067 70.8865 18.288C72.0598 17.6693 73.3825 17.36 74.8545 17.36ZM74.8545 20.272C74.0012 20.272 73.2332 20.4533 72.5505 20.816C71.8678 21.1787 71.3345 21.6907 70.9505 22.352C70.5665 22.992 70.3745 23.76 70.3745 24.656C70.3745 25.552 70.5665 26.3307 70.9505 26.992C71.3345 27.632 71.8678 28.1333 72.5505 28.496C73.2332 28.8587 74.0012 29.04 74.8545 29.04C75.7078 29.04 76.4758 28.8587 77.1585 28.496C77.8412 28.1333 78.3745 27.632 78.7585 26.992C79.1638 26.3307 79.3665 25.552 79.3665 24.656C79.3665 23.76 79.1638 22.992 78.7585 22.352C78.3745 21.6907 77.8412 21.1787 77.1585 20.816C76.4758 20.4533 75.7078 20.272 74.8545 20.272ZM116.9 15.376H120.26V44.688H116.9V15.376ZM111.3 26.064H117.348V28.816H111.3V26.064ZM97.316 35.12H99.588C101.337 35.12 102.916 35.0987 104.324 35.056C105.753 35.0133 107.119 34.9387 108.42 34.832C109.721 34.704 111.055 34.5227 112.42 34.288L112.74 36.976C111.332 37.2107 109.956 37.392 108.612 37.52C107.289 37.648 105.892 37.7333 104.42 37.776C102.969 37.8187 101.359 37.84 99.588 37.84H97.316V35.12ZM97.316 17.936H110.82V20.688H100.644V35.984H97.316V17.936ZM99.812 26.128H109.668V28.784H99.812V26.128ZM130.466 34.928H150.178V44.656H146.85V37.648H130.466V34.928ZM126.658 29.712H128.61C129.996 29.712 131.255 29.7013 132.385 29.68C133.516 29.6373 134.615 29.5627 135.682 29.456C136.748 29.3493 137.847 29.1787 138.978 28.944L139.33 31.632C138.156 31.824 137.015 31.984 135.906 32.112C134.818 32.2187 133.676 32.2933 132.482 32.336C131.308 32.3787 130.018 32.4 128.61 32.4H126.658V29.712ZM126.626 17.584H136.93V26.064H129.89V31.472H126.658V23.6H133.698V20.24H126.626V17.584ZM146.978 15.408H150.178V33.616H146.978V15.408ZM138.018 22.608H143.458V25.36H138.018V22.608ZM141.186 15.952H144.322V33.424H141.186V15.952ZM170.303 19.472H176.543V22.192H170.303V19.472ZM170.303 25.328H176.543V28.016H170.303V25.328ZM161.887 17.04H164.607V20.624C164.607 22.5653 164.298 24.4 163.679 26.128C163.06 27.8347 162.154 29.328 160.959 30.608C159.764 31.888 158.303 32.8587 156.575 33.52L154.783 30.896C155.956 30.4693 156.98 29.904 157.855 29.2C158.73 28.496 159.466 27.696 160.063 26.8C160.66 25.8827 161.108 24.9013 161.407 23.856C161.727 22.8107 161.887 21.7333 161.887 20.624V17.04ZM162.559 17.04H165.247V20.624C165.247 21.648 165.396 22.6613 165.695 23.664C165.994 24.6667 166.431 25.6053 167.007 26.48C167.604 27.3547 168.319 28.144 169.151 28.848C170.004 29.5307 170.986 30.0747 172.095 30.48L170.239 33.104C168.618 32.4427 167.231 31.4933 166.079 30.256C164.927 28.9973 164.052 27.5467 163.455 25.904C162.858 24.24 162.559 22.48 162.559 20.624V17.04ZM175.711 15.408H179.071V37.136H175.711V15.408ZM160.031 41.328H179.743V44.048H160.031V41.328ZM160.031 35.056H163.391V42.96H160.031V35.056Z" fill="white"/>
</svg>
