<svg width="379" height="58" viewBox="0 0 379 58" fill="none" xmlns="http://www.w3.org/2000/svg">
<path d="M19 18L27 17.5L31.5 19.5L34 23.5V40H19V18Z" fill="white"/>
<path d="M21.847 29.4107H30.1537C30.343 29.4107 30.5017 29.3467 30.6297 29.2187C30.7577 29.0907 30.8217 28.932 30.8217 28.7427C30.8217 28.5533 30.7577 28.3951 30.6297 28.268C30.5017 28.1409 30.3434 28.0773 30.155 28.0773H21.847C21.6577 28.0773 21.499 28.1413 21.371 28.2693C21.2439 28.3973 21.1803 28.5556 21.1803 28.744C21.1803 28.9333 21.2439 29.092 21.371 29.22C21.4981 29.348 21.6568 29.4116 21.847 29.4107ZM21.847 33.1027H30.1537C30.343 33.1027 30.5017 33.0387 30.6297 32.9107C30.7577 32.7827 30.8217 32.624 30.8217 32.4347C30.8217 32.2453 30.7577 32.0871 30.6297 31.96C30.5017 31.8329 30.3434 31.7693 30.155 31.7693H21.847C21.6577 31.7693 21.499 31.8333 21.371 31.9613C21.2439 32.0893 21.1803 32.248 21.1803 32.4373C21.1803 32.6267 21.2439 32.7849 21.371 32.912C21.4981 33.0391 21.6568 33.1027 21.847 33.1027ZM21.847 36.796H26.1537C26.343 36.796 26.5017 36.7316 26.6297 36.6027C26.7577 36.4738 26.8217 36.3156 26.8217 36.128C26.8217 35.9404 26.7577 35.7822 26.6297 35.6533C26.5017 35.5244 26.3434 35.4604 26.155 35.4613H21.847C21.6577 35.4613 21.499 35.5253 21.371 35.6533C21.2439 35.7813 21.1803 35.94 21.1803 36.1293C21.1803 36.3187 21.2439 36.4769 21.371 36.604C21.4981 36.7311 21.6568 36.796 21.847 36.796ZM18.8203 41C18.207 41 17.695 40.7947 17.2843 40.384C16.8737 39.9733 16.6679 39.4609 16.667 38.8467V19.1533C16.667 18.54 16.8728 18.028 17.2843 17.6173C17.6959 17.2067 18.2083 17.0009 18.8217 17H28.439C28.7332 17 29.0141 17.0578 29.2817 17.1733C29.5492 17.2889 29.7794 17.444 29.9723 17.6387L34.6937 22.36C34.8865 22.5538 35.0412 22.784 35.1577 23.0507C35.2741 23.3173 35.3323 23.5982 35.3323 23.8933V38.8453C35.3323 39.4587 35.1265 39.9711 34.715 40.3827C34.3034 40.7942 33.7919 41 33.1803 41H18.8203ZM28.667 22.6C28.667 22.9022 28.7692 23.1556 28.9737 23.36C29.1781 23.5644 29.4314 23.6667 29.7337 23.6667H34.0003L28.667 18.3333V22.6Z" fill="#7244ED"/>
<path d="M55.6063 42L56.4703 34.832H53.6543V32.368H56.7583L57.3663 27.472H54.3903V24.976H57.6863L58.4863 18.608H60.7583L59.9583 24.976H64.4063L65.2063 18.608H67.4783L66.7103 24.976H69.5903V27.472H66.4223L65.7823 32.368H68.8542V34.832H65.4943L64.6303 42H62.3263L63.1903 34.832H58.7743L57.8783 42H55.6063ZM59.0303 32.368H63.4783L64.0863 27.472H59.6383L59.0303 32.368ZM81.5683 17.424C83.1043 17.424 84.4696 17.7227 85.6643 18.32C86.8589 18.9173 87.7976 19.7493 88.4803 20.816C89.1629 21.8613 89.5043 23.0773 89.5043 24.464C89.5043 25.8293 89.1629 27.0453 88.4803 28.112C87.7976 29.1787 86.8589 30.0107 85.6643 30.608C84.4696 31.2053 83.1043 31.504 81.5683 31.504C80.0536 31.504 78.6989 31.2053 77.5043 30.608C76.3096 30.0107 75.3603 29.1787 74.6562 28.112C73.9736 27.0453 73.6323 25.8293 73.6323 24.464C73.6323 23.0773 73.9736 21.8613 74.6562 20.816C75.3603 19.7493 76.3096 18.9173 77.5043 18.32C78.6989 17.7227 80.0536 17.424 81.5683 17.424ZM81.5683 20.336C80.6936 20.336 79.8936 20.5067 79.1683 20.848C78.4643 21.168 77.9096 21.6373 77.5043 22.256C77.0989 22.8747 76.8963 23.6107 76.8963 24.464C76.8963 25.296 77.0989 26.032 77.5043 26.672C77.9096 27.2907 78.4643 27.7707 79.1683 28.112C79.8936 28.4533 80.6936 28.624 81.5683 28.624C82.4643 28.624 83.2536 28.4533 83.9363 28.112C84.6403 27.7707 85.1949 27.2907 85.6003 26.672C86.0056 26.032 86.2083 25.296 86.2083 24.464C86.2083 23.6107 86.0056 22.8747 85.6003 22.256C85.1949 21.6373 84.6403 21.168 83.9363 20.848C83.2536 20.5067 82.4643 20.336 81.5683 20.336ZM92.8323 15.376H96.1923V44.688H92.8323V15.376ZM72.7043 38.48L72.2563 35.728C74.0269 35.728 75.9683 35.7173 78.0803 35.696C80.1923 35.6533 82.3576 35.568 84.5763 35.44C86.8163 35.2907 88.9816 35.056 91.0723 34.736L91.3283 37.2C89.1736 37.6053 86.9869 37.904 84.7683 38.096C82.5709 38.2667 80.4376 38.3733 78.3683 38.416C76.2989 38.4587 74.4109 38.48 72.7043 38.48ZM108.478 17.808H111.198V22.608C111.198 24.2933 111.006 25.9573 110.622 27.6C110.259 29.2213 109.726 30.736 109.022 32.144C108.339 33.552 107.496 34.8107 106.494 35.92C105.491 37.008 104.36 37.872 103.102 38.512L101.086 35.792C102.216 35.2373 103.24 34.5013 104.158 33.584C105.075 32.6453 105.854 31.5893 106.494 30.416C107.134 29.2213 107.624 27.9627 107.966 26.64C108.307 25.296 108.478 23.952 108.478 22.608V17.808ZM109.086 17.808H111.806V22.608C111.806 23.9093 111.966 25.2 112.286 26.48C112.606 27.7387 113.075 28.944 113.694 30.096C114.334 31.2267 115.091 32.24 115.966 33.136C116.84 34.032 117.822 34.7467 118.91 35.28L116.862 37.968C115.646 37.328 114.558 36.4853 113.598 35.44C112.659 34.3733 111.848 33.1573 111.166 31.792C110.504 30.4267 109.992 28.9653 109.63 27.408C109.267 25.8507 109.086 24.2507 109.086 22.608V17.808ZM120.862 15.408H124.222V44.656H120.862V15.408ZM123.486 26.96H128.766V29.776H123.486V26.96ZM131.003 38.256H157.499V41.008H131.003V38.256ZM142.459 31.408H145.787V39.056H142.459V31.408ZM142.331 17.2H145.275V19.408C145.275 20.6453 145.073 21.84 144.667 22.992C144.283 24.1227 143.718 25.1787 142.971 26.16C142.246 27.1413 141.382 28.0267 140.379 28.816C139.377 29.6053 138.267 30.2773 137.051 30.832C135.857 31.3867 134.598 31.792 133.275 32.048L131.867 29.232C133.019 29.04 134.118 28.72 135.163 28.272C136.209 27.824 137.169 27.28 138.043 26.64C138.918 26 139.675 25.296 140.315 24.528C140.955 23.7387 141.446 22.9173 141.787 22.064C142.15 21.1893 142.331 20.304 142.331 19.408V17.2ZM142.971 17.2H145.883V19.408C145.883 20.304 146.065 21.1893 146.427 22.064C146.79 22.9387 147.291 23.76 147.931 24.528C148.571 25.296 149.329 26.0107 150.203 26.672C151.078 27.312 152.038 27.856 153.083 28.304C154.129 28.7307 155.238 29.04 156.411 29.232L154.971 32.048C153.649 31.792 152.379 31.3867 151.163 30.832C149.969 30.2773 148.87 29.616 147.867 28.848C146.865 28.0587 145.99 27.1733 145.243 26.192C144.518 25.1893 143.953 24.1227 143.547 22.992C143.163 21.84 142.971 20.6453 142.971 19.408V17.2ZM160.409 30.704H186.841V33.36H160.409V30.704ZM171.961 27.216H175.289V31.728H171.961V27.216ZM163.801 25.712H183.897V28.304H163.801V25.712ZM163.801 16.176H183.705V18.768H167.161V27.152H163.801V16.176ZM166.169 20.944H182.969V23.44H166.169V20.944ZM173.593 35.152C176.793 35.152 179.267 35.5573 181.017 36.368C182.787 37.1573 183.673 38.3307 183.673 39.888C183.673 41.424 182.787 42.5867 181.017 43.376C179.267 44.1867 176.793 44.592 173.593 44.592C170.414 44.592 167.939 44.1867 166.169 43.376C164.419 42.5867 163.545 41.424 163.545 39.888C163.545 38.3307 164.419 37.1573 166.169 36.368C167.939 35.5573 170.414 35.152 173.593 35.152ZM173.593 37.648C171.395 37.648 169.731 37.84 168.601 38.224C167.47 38.5867 166.905 39.1413 166.905 39.888C166.905 40.6347 167.47 41.2 168.601 41.584C169.731 41.9467 171.395 42.128 173.593 42.128C175.811 42.128 177.486 41.9467 178.617 41.584C179.747 41.2 180.313 40.6347 180.313 39.888C180.313 39.1413 179.747 38.5867 178.617 38.224C177.486 37.84 175.811 37.648 173.593 37.648ZM197.098 34.32V31.6H205.546V34.32H197.098ZM223.627 33.04H226.987V37.84H223.627V33.04ZM236.395 15.408H239.755V44.656H236.395V15.408ZM216.267 39.376L215.851 36.624C217.664 36.624 219.627 36.6133 221.739 36.592C223.872 36.5493 226.048 36.464 228.267 36.336C230.485 36.208 232.629 36.016 234.699 35.76L234.955 38.192C232.8 38.5547 230.624 38.8213 228.427 38.992C226.251 39.1627 224.117 39.2693 222.027 39.312C219.957 39.3547 218.037 39.376 216.267 39.376ZM216.427 18.832H234.123V21.488H216.427V18.832ZM225.259 22.896C226.688 22.896 227.936 23.1307 229.003 23.6C230.069 24.048 230.901 24.6773 231.499 25.488C232.117 26.2987 232.427 27.2587 232.427 28.368C232.427 29.456 232.117 30.416 231.499 31.248C230.901 32.0587 230.069 32.688 229.003 33.136C227.936 33.584 226.688 33.808 225.259 33.808C223.872 33.808 222.635 33.584 221.547 33.136C220.48 32.688 219.648 32.0587 219.051 31.248C218.453 30.416 218.155 29.456 218.155 28.368C218.155 27.2587 218.453 26.2987 219.051 25.488C219.648 24.6773 220.48 24.048 221.547 23.6C222.635 23.1307 223.872 22.896 225.259 22.896ZM225.259 25.456C224.107 25.456 223.157 25.7227 222.411 26.256C221.685 26.768 221.323 27.472 221.323 28.368C221.323 29.264 221.685 29.968 222.411 30.48C223.157 30.992 224.107 31.248 225.259 31.248C226.453 31.248 227.413 30.992 228.139 30.48C228.864 29.968 229.227 29.264 229.227 28.368C229.227 27.472 228.864 26.768 228.139 26.256C227.413 25.7227 226.453 25.456 225.259 25.456ZM223.627 15.44H226.987V20.304H223.627V15.44ZM254.568 17.424C256.104 17.424 257.47 17.7227 258.664 18.32C259.859 18.9173 260.798 19.7493 261.48 20.816C262.163 21.8613 262.504 23.0773 262.504 24.464C262.504 25.8293 262.163 27.0453 261.48 28.112C260.798 29.1787 259.859 30.0107 258.664 30.608C257.47 31.2053 256.104 31.504 254.568 31.504C253.054 31.504 251.699 31.2053 250.504 30.608C249.31 30.0107 248.36 29.1787 247.656 28.112C246.974 27.0453 246.632 25.8293 246.632 24.464C246.632 23.0773 246.974 21.8613 247.656 20.816C248.36 19.7493 249.31 18.9173 250.504 18.32C251.699 17.7227 253.054 17.424 254.568 17.424ZM254.568 20.336C253.694 20.336 252.894 20.5067 252.168 20.848C251.464 21.168 250.91 21.6373 250.504 22.256C250.099 22.8747 249.896 23.6107 249.896 24.464C249.896 25.296 250.099 26.032 250.504 26.672C250.91 27.2907 251.464 27.7707 252.168 28.112C252.894 28.4533 253.694 28.624 254.568 28.624C255.464 28.624 256.254 28.4533 256.936 28.112C257.64 27.7707 258.195 27.2907 258.6 26.672C259.006 26.032 259.208 25.296 259.208 24.464C259.208 23.6107 259.006 22.8747 258.6 22.256C258.195 21.6373 257.64 21.168 256.936 20.848C256.254 20.5067 255.464 20.336 254.568 20.336ZM265.832 15.376H269.192V44.688H265.832V15.376ZM245.704 38.48L245.256 35.728C247.027 35.728 248.968 35.7173 251.08 35.696C253.192 35.6533 255.358 35.568 257.576 35.44C259.816 35.2907 261.982 35.056 264.072 34.736L264.328 37.2C262.174 37.6053 259.987 37.904 257.768 38.096C255.571 38.2667 253.438 38.3733 251.368 38.416C249.299 38.4587 247.411 38.48 245.704 38.48ZM274.566 31.312H301.062V34H274.566V31.312ZM277.862 16.048H297.734V23.504H281.222V27.12H277.926V21.104H294.406V18.64H277.862V16.048ZM277.926 26.064H298.31V28.656H277.926V26.064ZM286.118 27.376H289.478V32.688H286.118V27.376ZM277.478 35.952H297.894V44.464H294.534V38.672H277.478V35.952ZM331.991 15.376H335.351V44.624H331.991V15.376ZM323.383 18.48H326.711C326.711 20.656 326.476 22.736 326.007 24.72C325.537 26.704 324.769 28.592 323.703 30.384C322.657 32.1547 321.271 33.7973 319.543 35.312C317.836 36.8267 315.724 38.192 313.207 39.408L311.415 36.752C314.252 35.3867 316.545 33.8293 318.295 32.08C320.044 30.3307 321.324 28.3787 322.135 26.224C322.967 24.048 323.383 21.6587 323.383 19.056V18.48ZM312.855 18.48H324.887V21.168H312.855V18.48ZM360.116 15.408H363.444V36.912H360.116V15.408ZM362.452 23.984H367.572V26.768H362.452V23.984ZM344.948 41.328H364.66V44.048H344.948V41.328ZM344.948 34.8H348.308V41.936H344.948V34.8ZM341.652 17.488H344.98V22.064H352.116V17.488H355.444V32.144H341.652V17.488ZM344.98 24.656V29.456H352.116V24.656H344.98Z" fill="white"/>
</svg>
