<svg width="141" height="58" viewBox="0 0 141 58" fill="none" xmlns="http://www.w3.org/2000/svg">
<path d="M13.5438 42L14.4078 34.832H11.5918V32.368H14.6958L15.3038 27.472H12.3278V24.976H15.6238L16.4238 18.608H18.6958L17.8958 24.976H22.3438L23.1438 18.608H25.4158L24.6478 24.976H27.5278V27.472H24.3598L23.7198 32.368H26.7917V34.832H23.4318L22.5678 42H20.2638L21.1278 34.832H16.7118L15.8158 42H13.5438ZM16.9678 32.368H21.4158L22.0238 27.472H17.5758L16.9678 32.368ZM31.6978 42V18.416H38.8338C40.6044 18.416 42.1618 18.6507 43.5058 19.12C44.8498 19.568 45.9058 20.3147 46.6737 21.36C47.4631 22.384 47.8578 23.792 47.8578 25.584C47.8578 27.2907 47.4738 28.6987 46.7058 29.808C45.9378 30.896 44.8818 31.7173 43.5378 32.272C42.2151 32.8053 40.6898 33.072 38.9618 33.072H35.4098V42H31.6978ZM35.4098 30.064H38.6418C40.4978 30.064 41.8844 29.7013 42.8018 28.976C43.7191 28.2507 44.1778 27.12 44.1778 25.584C44.1778 24.0053 43.6978 22.9173 42.7378 22.32C41.7778 21.7227 40.3591 21.424 38.4818 21.424H35.4098V30.064ZM62.0798 42.448C59.9891 42.448 58.1118 41.968 56.4478 41.008C54.8051 40.048 53.5038 38.6613 52.5438 36.848C51.6051 35.0347 51.1358 32.8373 51.1358 30.256C51.1358 28.336 51.4131 26.6187 51.9678 25.104C52.5438 23.5893 53.3224 22.3093 54.3038 21.264C55.3064 20.1973 56.4691 19.3867 57.7917 18.832C59.1358 18.2773 60.5971 18 62.1758 18C63.8398 18 65.2371 18.3093 66.3678 18.928C67.5198 19.5467 68.4478 20.2293 69.1518 20.976L67.1678 23.344C66.5704 22.768 65.8878 22.2773 65.1198 21.872C64.3518 21.4453 63.4024 21.232 62.2718 21.232C60.8211 21.232 59.5411 21.5947 58.4318 22.32C57.3438 23.0453 56.4904 24.0693 55.8718 25.392C55.2744 26.7147 54.9758 28.304 54.9758 30.16C54.9758 32.016 55.2638 33.6267 55.8398 34.992C56.4158 36.336 57.2584 37.3707 58.3678 38.096C59.4771 38.8213 60.8424 39.184 62.4638 39.184C63.1891 39.184 63.8718 39.088 64.5118 38.896C65.1731 38.6827 65.7064 38.3947 66.1118 38.032V32.528H61.4718V29.456H69.5038V39.664C68.7144 40.4533 67.6798 41.1147 66.3998 41.648C65.1198 42.1813 63.6798 42.448 62.0798 42.448ZM86.6293 19.728H95.3653V22.448H86.6293V19.728ZM86.6293 26.8H95.3653V29.52H86.6293V26.8ZM94.1173 15.408H97.4773V36.912H94.1173V15.408ZM78.5333 41.328H98.2453V44.048H78.5333V41.328ZM78.5333 34.768H81.8933V42.64H78.5333V34.768ZM81.2533 17.2C82.7039 17.2 84.0053 17.52 85.1573 18.16C86.3093 18.8 87.2159 19.6747 87.8773 20.784C88.5386 21.8933 88.8693 23.1733 88.8693 24.624C88.8693 26.0747 88.5386 27.3653 87.8773 28.496C87.2159 29.6053 86.3093 30.48 85.1573 31.12C84.0053 31.7387 82.7039 32.048 81.2533 32.048C79.8239 32.048 78.5333 31.7387 77.3813 31.12C76.2293 30.48 75.3226 29.6053 74.6613 28.496C73.9999 27.3653 73.6693 26.0747 73.6693 24.624C73.6693 23.1733 73.9999 21.8933 74.6613 20.784C75.3226 19.6747 76.2293 18.8 77.3813 18.16C78.5333 17.52 79.8239 17.2 81.2533 17.2ZM81.2533 20.176C80.4213 20.176 79.6746 20.368 79.0133 20.752C78.3519 21.1147 77.8186 21.6267 77.4133 22.288C77.0293 22.9493 76.8373 23.728 76.8373 24.624C76.8373 25.52 77.0293 26.3093 77.4133 26.992C77.8186 27.6747 78.3519 28.208 79.0133 28.592C79.6746 28.9547 80.4319 29.136 81.2853 29.136C82.1173 29.136 82.8639 28.9547 83.5253 28.592C84.1866 28.208 84.7093 27.6747 85.0933 26.992C85.4773 26.3093 85.6693 25.52 85.6693 24.624C85.6693 23.728 85.4773 22.9493 85.0933 22.288C84.7093 21.6267 84.1866 21.1147 83.5253 20.752C82.8639 20.368 82.1066 20.176 81.2533 20.176ZM114.019 23.344H120.227V26.032H114.019V23.344ZM113.795 30.64H120.163V33.36H113.795V30.64ZM124.483 15.376H127.683V44.624H124.483V15.376ZM118.531 16.08H121.699V43.216H118.531V16.08ZM112.003 18.96H115.203C115.203 21.6267 114.861 24.144 114.179 26.512C113.496 28.8587 112.355 31.0347 110.755 33.04C109.176 35.0453 107.064 36.848 104.419 38.448L102.499 36.048C104.739 34.704 106.552 33.2 107.939 31.536C109.347 29.872 110.371 28.048 111.011 26.064C111.672 24.08 112.003 21.936 112.003 19.632V18.96ZM103.939 18.96H113.187V21.68H103.939V18.96Z" fill="white"/>
</svg>
