<svg width="397" height="58" viewBox="0 0 397 58" fill="none" xmlns="http://www.w3.org/2000/svg">
<path d="M13.5438 42L14.4078 34.832H11.5918V32.368H14.6958L15.3038 27.472H12.3278V24.976H15.6238L16.4238 18.608H18.6958L17.8958 24.976H22.3438L23.1438 18.608H25.4158L24.6478 24.976H27.5278V27.472H24.3598L23.7198 32.368H26.7917V34.832H23.4318L22.5678 42H20.2638L21.1278 34.832H16.7118L15.8158 42H13.5438ZM16.9678 32.368H21.4158L22.0238 27.472H17.5758L16.9678 32.368ZM38.4178 42.448C36.7964 42.448 35.2604 42.1387 33.8098 41.52C32.3804 40.9013 31.1218 40.048 30.0338 38.96L32.2098 36.4C33.0631 37.232 34.0338 37.904 35.1218 38.416C36.2311 38.928 37.3618 39.184 38.5138 39.184C39.9218 39.184 40.9991 38.8747 41.7458 38.256C42.5138 37.6373 42.8978 36.8373 42.8978 35.856C42.8978 35.1307 42.7378 34.5547 42.4178 34.128C42.0978 33.68 41.6498 33.3067 41.0738 33.008C40.5191 32.7093 39.8791 32.4 39.1538 32.08L35.8898 30.672C35.1218 30.352 34.3644 29.936 33.6178 29.424C32.8924 28.8907 32.2844 28.2293 31.7938 27.44C31.3244 26.6293 31.0898 25.648 31.0898 24.496C31.0898 23.2587 31.4204 22.1493 32.0818 21.168C32.7431 20.1867 33.6604 19.4187 34.8338 18.864C36.0071 18.288 37.3404 18 38.8338 18C40.2204 18 41.5324 18.2667 42.7698 18.8C44.0071 19.3333 45.0631 20.0587 45.9378 20.976L44.0498 23.344C43.3031 22.6827 42.5031 22.1707 41.6498 21.808C40.8178 21.424 39.8791 21.232 38.8338 21.232C37.6178 21.232 36.6578 21.5093 35.9538 22.064C35.2498 22.5973 34.8978 23.3227 34.8978 24.24C34.8978 24.9227 35.0791 25.488 35.4418 25.936C35.8044 26.3627 36.2738 26.7253 36.8498 27.024C37.4471 27.3013 38.0551 27.568 38.6738 27.824L41.9058 29.2C42.8444 29.584 43.6764 30.0533 44.4018 30.608C45.1271 31.1627 45.6924 31.8347 46.0978 32.624C46.5031 33.4133 46.7058 34.3947 46.7058 35.568C46.7058 36.8267 46.3751 37.9787 45.7138 39.024C45.0524 40.048 44.1031 40.88 42.8658 41.52C41.6284 42.1387 40.1458 42.448 38.4178 42.448ZM55.0065 42.448C54.0038 42.448 53.1078 42.2347 52.3185 41.808C51.5505 41.3813 50.9425 40.784 50.4945 40.016C50.0465 39.248 49.8225 38.352 49.8225 37.328C49.8225 35.4293 50.6545 33.968 52.3185 32.944C54.0038 31.8987 56.6812 31.1733 60.3505 30.768C60.3292 30.0853 60.2225 29.456 60.0305 28.88C59.8385 28.304 59.4972 27.8453 59.0065 27.504C58.5372 27.1413 57.8652 26.96 56.9905 26.96C56.0732 26.96 55.1878 27.1413 54.3345 27.504C53.4812 27.8667 52.6705 28.2827 51.9025 28.752L50.5265 26.256C51.1452 25.872 51.8278 25.5093 52.5745 25.168C53.3212 24.8053 54.1212 24.5173 54.9745 24.304C55.8278 24.0693 56.7132 23.952 57.6305 23.952C59.1025 23.952 60.3078 24.2507 61.2465 24.848C62.1852 25.424 62.8785 26.2667 63.3265 27.376C63.7958 28.4853 64.0305 29.8293 64.0305 31.408V42H61.0225L60.7345 39.984H60.6065C59.8172 40.6667 58.9532 41.2533 58.0145 41.744C57.0758 42.2133 56.0732 42.448 55.0065 42.448ZM56.1265 39.504C56.8945 39.504 57.6092 39.3333 58.2705 38.992C58.9318 38.6293 59.6252 38.1067 60.3505 37.424V33.136C58.6225 33.328 57.2465 33.616 56.2225 34C55.1985 34.3627 54.4625 34.8 54.0145 35.312C53.5878 35.8027 53.3745 36.3787 53.3745 37.04C53.3745 37.9147 53.6412 38.544 54.1745 38.928C54.7078 39.312 55.3585 39.504 56.1265 39.504ZM72.9008 42.448C72.0048 42.448 71.2901 42.2667 70.7568 41.904C70.2234 41.52 69.8394 40.9867 69.6048 40.304C69.3701 39.6 69.2528 38.7787 69.2528 37.84V16.496H72.9328V38.032C72.9328 38.5227 73.0181 38.8747 73.1888 39.088C73.3808 39.28 73.5834 39.376 73.7968 39.376C73.8821 39.376 73.9674 39.376 74.0528 39.376C74.1381 39.3547 74.2661 39.3333 74.4368 39.312L74.8848 42.096C74.6714 42.1813 74.4048 42.256 74.0848 42.32C73.7648 42.4053 73.3701 42.448 72.9008 42.448ZM86.144 42.448C84.544 42.448 83.0933 42.0853 81.792 41.36C80.4907 40.6133 79.456 39.5573 78.688 38.192C77.92 36.8053 77.536 35.1413 77.536 33.2C77.536 31.7707 77.76 30.4907 78.208 29.36C78.656 28.208 79.264 27.2373 80.032 26.448C80.8 25.6373 81.664 25.0187 82.624 24.592C83.584 24.1653 84.5653 23.952 85.568 23.952C87.1253 23.952 88.4373 24.304 89.504 25.008C90.5707 25.6907 91.3813 26.6613 91.936 27.92C92.4907 29.1573 92.768 30.608 92.768 32.272C92.768 32.6347 92.7467 32.9867 92.704 33.328C92.6827 33.648 92.64 33.9253 92.576 34.16H81.152C81.2587 35.2693 81.5467 36.2293 82.016 37.04C82.5067 37.8293 83.136 38.448 83.904 38.896C84.6933 39.3227 85.5893 39.536 86.592 39.536C87.3813 39.536 88.1173 39.4187 88.8 39.184C89.4827 38.9493 90.144 38.6293 90.784 38.224L92.064 40.56C91.2533 41.0933 90.3467 41.5413 89.344 41.904C88.3627 42.2667 87.296 42.448 86.144 42.448ZM81.12 31.6H89.568C89.568 30.1067 89.2267 28.944 88.544 28.112C87.8827 27.28 86.912 26.864 85.632 26.864C84.9067 26.864 84.224 27.0453 83.584 27.408C82.944 27.7707 82.4 28.304 81.952 29.008C81.5253 29.712 81.248 30.576 81.12 31.6ZM101.677 42.448C100.482 42.448 99.2877 42.2133 98.093 41.744C96.9197 41.2747 95.9063 40.688 95.053 39.984L96.813 37.584C97.581 38.2027 98.3597 38.704 99.149 39.088C99.9597 39.4507 100.834 39.632 101.773 39.632C102.818 39.632 103.586 39.408 104.077 38.96C104.589 38.4907 104.845 37.9253 104.845 37.264C104.845 36.7307 104.653 36.2827 104.269 35.92C103.906 35.5573 103.426 35.248 102.829 34.992C102.232 34.7147 101.613 34.4587 100.973 34.224C100.184 33.9253 99.405 33.5733 98.637 33.168C97.8903 32.7413 97.2717 32.208 96.781 31.568C96.2903 30.9067 96.045 30.0853 96.045 29.104C96.045 28.1013 96.2903 27.216 96.781 26.448C97.293 25.68 98.0183 25.072 98.957 24.624C99.8957 24.176 101.016 23.952 102.317 23.952C103.49 23.952 104.557 24.1547 105.517 24.56C106.498 24.9653 107.33 25.456 108.013 26.032L106.317 28.304C105.698 27.856 105.069 27.4933 104.429 27.216C103.789 26.9173 103.117 26.768 102.413 26.768C101.432 26.768 100.706 26.9813 100.237 27.408C99.7677 27.8133 99.533 28.3253 99.533 28.944C99.533 29.4347 99.7037 29.84 100.045 30.16C100.386 30.48 100.834 30.7573 101.389 30.992C101.965 31.2267 102.573 31.472 103.213 31.728C103.832 31.9413 104.44 32.1973 105.037 32.496C105.656 32.7733 106.21 33.1147 106.701 33.52C107.192 33.904 107.586 34.384 107.885 34.96C108.205 35.5147 108.365 36.208 108.365 37.04C108.365 38.0213 108.109 38.928 107.597 39.76C107.085 40.592 106.338 41.2533 105.357 41.744C104.376 42.2133 103.149 42.448 101.677 42.448ZM126.512 42.448C124.89 42.448 123.354 42.1387 121.904 41.52C120.474 40.9013 119.216 40.048 118.128 38.96L120.304 36.4C121.157 37.232 122.128 37.904 123.216 38.416C124.325 38.928 125.456 39.184 126.608 39.184C128.016 39.184 129.093 38.8747 129.84 38.256C130.608 37.6373 130.992 36.8373 130.992 35.856C130.992 35.1307 130.832 34.5547 130.512 34.128C130.192 33.68 129.744 33.3067 129.168 33.008C128.613 32.7093 127.973 32.4 127.248 32.08L123.984 30.672C123.216 30.352 122.458 29.936 121.712 29.424C120.986 28.8907 120.378 28.2293 119.888 27.44C119.418 26.6293 119.184 25.648 119.184 24.496C119.184 23.2587 119.514 22.1493 120.176 21.168C120.837 20.1867 121.754 19.4187 122.928 18.864C124.101 18.288 125.434 18 126.928 18C128.314 18 129.626 18.2667 130.864 18.8C132.101 19.3333 133.157 20.0587 134.032 20.976L132.144 23.344C131.397 22.6827 130.597 22.1707 129.744 21.808C128.912 21.424 127.973 21.232 126.928 21.232C125.712 21.232 124.752 21.5093 124.048 22.064C123.344 22.5973 122.992 23.3227 122.992 24.24C122.992 24.9227 123.173 25.488 123.536 25.936C123.898 26.3627 124.368 26.7253 124.944 27.024C125.541 27.3013 126.149 27.568 126.768 27.824L130 29.2C130.938 29.584 131.77 30.0533 132.496 30.608C133.221 31.1627 133.786 31.8347 134.192 32.624C134.597 33.4133 134.8 34.3947 134.8 35.568C134.8 36.8267 134.469 37.9787 133.808 39.024C133.146 40.048 132.197 40.88 130.96 41.52C129.722 42.1387 128.24 42.448 126.512 42.448ZM143.829 42.448C142.506 42.448 141.45 42.192 140.661 41.68C139.893 41.1467 139.338 40.4213 138.997 39.504C138.656 38.5653 138.485 37.4773 138.485 36.24V27.344H135.925V24.592L138.677 24.368L139.093 19.504H142.165V24.368H146.741V27.344H142.165V36.272C142.165 37.3173 142.368 38.1173 142.773 38.672C143.178 39.2053 143.84 39.472 144.757 39.472C145.056 39.472 145.376 39.4293 145.717 39.344C146.058 39.2587 146.357 39.1627 146.613 39.056L147.285 41.776C146.816 41.9253 146.282 42.0747 145.685 42.224C145.109 42.3733 144.49 42.448 143.829 42.448ZM150.597 42V24.368H153.605L153.925 27.536H153.989C154.629 26.4053 155.386 25.5307 156.26 24.912C157.135 24.272 158.053 23.952 159.013 23.952C159.439 23.952 159.802 23.984 160.101 24.048C160.399 24.112 160.687 24.1973 160.965 24.304L160.325 27.536C160.005 27.4293 159.717 27.3547 159.461 27.312C159.205 27.2693 158.895 27.248 158.533 27.248C157.829 27.248 157.082 27.536 156.293 28.112C155.503 28.6667 154.831 29.648 154.277 31.056V42H150.597ZM166.819 42.448C165.816 42.448 164.92 42.2347 164.131 41.808C163.363 41.3813 162.755 40.784 162.307 40.016C161.859 39.248 161.635 38.352 161.635 37.328C161.635 35.4293 162.467 33.968 164.131 32.944C165.816 31.8987 168.494 31.1733 172.163 30.768C172.142 30.0853 172.035 29.456 171.843 28.88C171.651 28.304 171.31 27.8453 170.819 27.504C170.35 27.1413 169.678 26.96 168.803 26.96C167.886 26.96 167 27.1413 166.147 27.504C165.294 27.8667 164.483 28.2827 163.715 28.752L162.339 26.256C162.958 25.872 163.64 25.5093 164.387 25.168C165.134 24.8053 165.934 24.5173 166.787 24.304C167.64 24.0693 168.526 23.952 169.443 23.952C170.915 23.952 172.12 24.2507 173.059 24.848C173.998 25.424 174.691 26.2667 175.139 27.376C175.608 28.4853 175.843 29.8293 175.843 31.408V42H172.835L172.547 39.984H172.419C171.63 40.6667 170.766 41.2533 169.827 41.744C168.888 42.2133 167.886 42.448 166.819 42.448ZM167.939 39.504C168.707 39.504 169.422 39.3333 170.083 38.992C170.744 38.6293 171.438 38.1067 172.163 37.424V33.136C170.435 33.328 169.059 33.616 168.035 34C167.011 34.3627 166.275 34.8 165.827 35.312C165.4 35.8027 165.187 36.3787 165.187 37.04C165.187 37.9147 165.454 38.544 165.987 38.928C166.52 39.312 167.171 39.504 167.939 39.504ZM186.329 42.448C185.006 42.448 183.95 42.192 183.161 41.68C182.393 41.1467 181.838 40.4213 181.497 39.504C181.156 38.5653 180.985 37.4773 180.985 36.24V27.344H178.425V24.592L181.177 24.368L181.593 19.504H184.665V24.368H189.241V27.344H184.665V36.272C184.665 37.3173 184.868 38.1173 185.273 38.672C185.678 39.2053 186.34 39.472 187.257 39.472C187.556 39.472 187.876 39.4293 188.217 39.344C188.558 39.2587 188.857 39.1627 189.113 39.056L189.785 41.776C189.316 41.9253 188.782 42.0747 188.185 42.224C187.609 42.3733 186.99 42.448 186.329 42.448ZM199.8 42.448C198.2 42.448 196.75 42.0853 195.448 41.36C194.147 40.6133 193.112 39.5573 192.344 38.192C191.576 36.8053 191.192 35.1413 191.192 33.2C191.192 31.7707 191.416 30.4907 191.864 29.36C192.312 28.208 192.92 27.2373 193.688 26.448C194.456 25.6373 195.32 25.0187 196.28 24.592C197.24 24.1653 198.222 23.952 199.224 23.952C200.782 23.952 202.094 24.304 203.16 25.008C204.227 25.6907 205.038 26.6613 205.592 27.92C206.147 29.1573 206.424 30.608 206.424 32.272C206.424 32.6347 206.403 32.9867 206.36 33.328C206.339 33.648 206.296 33.9253 206.232 34.16H194.808C194.915 35.2693 195.203 36.2293 195.672 37.04C196.163 37.8293 196.792 38.448 197.56 38.896C198.35 39.3227 199.246 39.536 200.248 39.536C201.038 39.536 201.774 39.4187 202.456 39.184C203.139 38.9493 203.8 38.6293 204.44 38.224L205.72 40.56C204.91 41.0933 204.003 41.5413 203 41.904C202.019 42.2667 200.952 42.448 199.8 42.448ZM194.776 31.6H203.224C203.224 30.1067 202.883 28.944 202.2 28.112C201.539 27.28 200.568 26.864 199.288 26.864C198.563 26.864 197.88 27.0453 197.24 27.408C196.6 27.7707 196.056 28.304 195.608 29.008C195.182 29.712 194.904 30.576 194.776 31.6ZM216.113 49.904C214.705 49.904 213.447 49.7227 212.337 49.36C211.228 49.0187 210.353 48.5067 209.713 47.824C209.095 47.1413 208.785 46.288 208.785 45.264C208.785 44.5173 209.009 43.8133 209.457 43.152C209.905 42.4907 210.535 41.9147 211.345 41.424V41.296C210.897 40.9973 210.513 40.6133 210.193 40.144C209.895 39.6533 209.745 39.056 209.745 38.352C209.745 37.648 209.948 37.0187 210.353 36.464C210.78 35.888 211.239 35.4293 211.729 35.088V34.96C211.111 34.4907 210.567 33.8507 210.097 33.04C209.628 32.2293 209.393 31.3013 209.393 30.256C209.393 28.9333 209.703 27.8027 210.321 26.864C210.961 25.904 211.793 25.1787 212.817 24.688C213.863 24.1973 214.993 23.952 216.209 23.952C216.721 23.952 217.191 23.9947 217.617 24.08C218.065 24.144 218.449 24.24 218.769 24.368H225.009V27.152H221.681C222.001 27.5147 222.268 27.9733 222.481 28.528C222.695 29.0827 222.801 29.6907 222.801 30.352C222.801 31.632 222.503 32.7307 221.905 33.648C221.329 34.544 220.54 35.2373 219.537 35.728C218.535 36.1973 217.425 36.432 216.209 36.432C215.825 36.432 215.409 36.3893 214.961 36.304C214.535 36.1973 214.129 36.0693 213.745 35.92C213.468 36.1547 213.233 36.4107 213.041 36.688C212.871 36.9653 212.785 37.3173 212.785 37.744C212.785 38.256 212.988 38.672 213.393 38.992C213.82 39.312 214.599 39.472 215.729 39.472H218.993C221.063 39.472 222.631 39.8133 223.697 40.496C224.764 41.1573 225.297 42.2347 225.297 43.728C225.297 44.8587 224.924 45.8933 224.177 46.832C223.431 47.7707 222.364 48.5173 220.977 49.072C219.612 49.6267 217.991 49.904 216.113 49.904ZM216.209 34.032C216.807 34.032 217.361 33.8827 217.873 33.584C218.385 33.2853 218.791 32.8587 219.089 32.304C219.388 31.728 219.537 31.0453 219.537 30.256C219.537 29.4667 219.388 28.8053 219.089 28.272C218.791 27.7173 218.385 27.2907 217.873 26.992C217.383 26.6933 216.828 26.544 216.209 26.544C215.591 26.544 215.025 26.6933 214.513 26.992C214.023 27.2907 213.628 27.7173 213.329 28.272C213.031 28.8053 212.881 29.4667 212.881 30.256C212.881 31.0453 213.031 31.728 213.329 32.304C213.649 32.8587 214.055 33.2853 214.545 33.584C215.057 33.8827 215.612 34.032 216.209 34.032ZM216.625 47.472C217.671 47.472 218.567 47.3227 219.313 47.024C220.06 46.7253 220.647 46.3307 221.073 45.84C221.5 45.3707 221.713 44.8693 221.713 44.336C221.713 43.5893 221.436 43.0773 220.881 42.8C220.327 42.544 219.516 42.416 218.449 42.416H215.793C215.367 42.416 214.961 42.3947 214.577 42.352C214.193 42.3093 213.809 42.2453 213.425 42.16C212.913 42.544 212.54 42.96 212.305 43.408C212.071 43.856 211.953 44.2933 211.953 44.72C211.953 45.5733 212.369 46.2453 213.201 46.736C214.033 47.2267 215.175 47.472 216.625 47.472ZM229.71 49.36C229.24 49.36 228.824 49.328 228.462 49.264C228.12 49.2 227.79 49.1147 227.47 49.008L228.174 46.128C228.344 46.1707 228.547 46.224 228.782 46.288C229.016 46.352 229.251 46.384 229.486 46.384C230.446 46.384 231.214 46.064 231.79 45.424C232.366 44.8053 232.814 44.0267 233.134 43.088L233.518 41.872L226.542 24.368H230.286L233.518 33.456C233.795 34.2453 234.062 35.0667 234.318 35.92C234.595 36.752 234.872 37.584 235.15 38.416H235.31C235.523 37.6053 235.747 36.7733 235.982 35.92C236.216 35.0667 236.451 34.2453 236.686 33.456L239.534 24.368H243.086L236.622 43.056C236.174 44.3147 235.64 45.4133 235.022 46.352C234.424 47.312 233.699 48.048 232.846 48.56C231.992 49.0933 230.947 49.36 229.71 49.36ZM253.792 42V18.416H260.928C262.698 18.416 264.256 18.6507 265.6 19.12C266.944 19.568 268 20.3147 268.767 21.36C269.557 22.384 269.952 23.792 269.952 25.584C269.952 27.2907 269.568 28.6987 268.8 29.808C268.032 30.896 266.976 31.7173 265.632 32.272C264.309 32.8053 262.784 33.072 261.056 33.072H257.504V42H253.792ZM257.504 30.064H260.736C262.592 30.064 263.978 29.7013 264.896 28.976C265.813 28.2507 266.272 27.12 266.272 25.584C266.272 24.0053 265.792 22.9173 264.832 22.32C263.872 21.7227 262.453 21.424 260.576 21.424H257.504V30.064ZM274.222 42V24.368H277.23L277.55 27.536H277.614C278.254 26.4053 279.011 25.5307 279.885 24.912C280.76 24.272 281.678 23.952 282.638 23.952C283.064 23.952 283.427 23.984 283.726 24.048C284.024 24.112 284.312 24.1973 284.59 24.304L283.95 27.536C283.63 27.4293 283.342 27.3547 283.086 27.312C282.83 27.2693 282.52 27.248 282.158 27.248C281.454 27.248 280.707 27.536 279.918 28.112C279.128 28.6667 278.456 29.648 277.902 31.056V42H274.222ZM293.887 42.448C292.437 42.448 291.071 42.0853 289.791 41.36C288.533 40.6133 287.509 39.5573 286.719 38.192C285.951 36.8053 285.567 35.1413 285.567 33.2C285.567 31.2373 285.951 29.5733 286.719 28.208C287.509 26.8213 288.533 25.7653 289.791 25.04C291.071 24.3147 292.437 23.952 293.887 23.952C294.954 23.952 295.989 24.1653 296.991 24.592C297.994 24.9973 298.879 25.5947 299.647 26.384C300.415 27.1733 301.023 28.144 301.471 29.296C301.919 30.4267 302.143 31.728 302.143 33.2C302.143 35.1413 301.749 36.8053 300.959 38.192C300.191 39.5573 299.178 40.6133 297.919 41.36C296.682 42.0853 295.338 42.448 293.887 42.448ZM293.887 39.376C294.805 39.376 295.594 39.12 296.255 38.608C296.938 38.096 297.461 37.3813 297.823 36.464C298.186 35.5253 298.367 34.4373 298.367 33.2C298.367 31.9627 298.186 30.8853 297.823 29.968C297.461 29.0293 296.938 28.304 296.255 27.792C295.594 27.2587 294.805 26.992 293.887 26.992C292.949 26.992 292.138 27.2587 291.455 27.792C290.794 28.304 290.282 29.0293 289.919 29.968C289.557 30.8853 289.375 31.9627 289.375 33.2C289.375 34.4373 289.557 35.5253 289.919 36.464C290.282 37.3813 290.794 38.096 291.455 38.608C292.138 39.12 292.949 39.376 293.887 39.376ZM306.503 49.136V24.368H309.511L309.831 26.32H309.895C310.684 25.68 311.537 25.1253 312.455 24.656C313.372 24.1867 314.332 23.952 315.335 23.952C316.807 23.952 318.065 24.3253 319.111 25.072C320.156 25.8187 320.945 26.864 321.479 28.208C322.012 29.5307 322.279 31.0987 322.279 32.912C322.279 34.9173 321.916 36.6347 321.191 38.064C320.487 39.4933 319.559 40.5813 318.407 41.328C317.255 42.0747 316.017 42.448 314.695 42.448C313.927 42.448 313.148 42.2773 312.359 41.936C311.569 41.5733 310.812 41.072 310.087 40.432L310.183 43.44V49.136H306.503ZM313.991 39.344C314.844 39.344 315.601 39.0987 316.263 38.608C316.945 38.1173 317.479 37.4027 317.863 36.464C318.268 35.504 318.471 34.3413 318.471 32.976C318.471 31.7387 318.321 30.6827 318.023 29.808C317.745 28.912 317.308 28.2293 316.711 27.76C316.113 27.2693 315.324 27.024 314.343 27.024C313.66 27.024 312.977 27.2053 312.295 27.568C311.633 27.9093 310.929 28.4427 310.183 29.168V37.776C310.865 38.352 311.537 38.7573 312.199 38.992C312.86 39.2267 313.457 39.344 313.991 39.344ZM333.731 42.448C332.28 42.448 330.915 42.0853 329.635 41.36C328.376 40.6133 327.352 39.5573 326.563 38.192C325.795 36.8053 325.411 35.1413 325.411 33.2C325.411 31.2373 325.795 29.5733 326.563 28.208C327.352 26.8213 328.376 25.7653 329.635 25.04C330.915 24.3147 332.28 23.952 333.731 23.952C334.798 23.952 335.832 24.1653 336.835 24.592C337.838 24.9973 338.723 25.5947 339.491 26.384C340.259 27.1733 340.867 28.144 341.315 29.296C341.763 30.4267 341.987 31.728 341.987 33.2C341.987 35.1413 341.592 36.8053 340.803 38.192C340.035 39.5573 339.022 40.6133 337.763 41.36C336.526 42.0853 335.182 42.448 333.731 42.448ZM333.731 39.376C334.648 39.376 335.438 39.12 336.099 38.608C336.782 38.096 337.304 37.3813 337.667 36.464C338.03 35.5253 338.211 34.4373 338.211 33.2C338.211 31.9627 338.03 30.8853 337.667 29.968C337.304 29.0293 336.782 28.304 336.099 27.792C335.438 27.2587 334.648 26.992 333.731 26.992C332.792 26.992 331.982 27.2587 331.299 27.792C330.638 28.304 330.126 29.0293 329.763 29.968C329.4 30.8853 329.219 31.9627 329.219 33.2C329.219 34.4373 329.4 35.5253 329.763 36.464C330.126 37.3813 330.638 38.096 331.299 38.608C331.982 39.12 332.792 39.376 333.731 39.376ZM350.896 42.448C349.701 42.448 348.506 42.2133 347.312 41.744C346.138 41.2747 345.125 40.688 344.272 39.984L346.032 37.584C346.8 38.2027 347.578 38.704 348.368 39.088C349.178 39.4507 350.053 39.632 350.992 39.632C352.037 39.632 352.805 39.408 353.296 38.96C353.808 38.4907 354.064 37.9253 354.064 37.264C354.064 36.7307 353.872 36.2827 353.488 35.92C353.125 35.5573 352.645 35.248 352.048 34.992C351.45 34.7147 350.832 34.4587 350.192 34.224C349.402 33.9253 348.624 33.5733 347.856 33.168C347.109 32.7413 346.49 32.208 346 31.568C345.509 30.9067 345.264 30.0853 345.264 29.104C345.264 28.1013 345.509 27.216 346 26.448C346.512 25.68 347.237 25.072 348.176 24.624C349.114 24.176 350.234 23.952 351.536 23.952C352.709 23.952 353.776 24.1547 354.736 24.56C355.717 24.9653 356.549 25.456 357.232 26.032L355.536 28.304C354.917 27.856 354.288 27.4933 353.648 27.216C353.008 26.9173 352.336 26.768 351.632 26.768C350.65 26.768 349.925 26.9813 349.456 27.408C348.986 27.8133 348.752 28.3253 348.752 28.944C348.752 29.4347 348.922 29.84 349.264 30.16C349.605 30.48 350.053 30.7573 350.608 30.992C351.184 31.2267 351.792 31.472 352.432 31.728C353.05 31.9413 353.658 32.1973 354.256 32.496C354.874 32.7733 355.429 33.1147 355.92 33.52C356.41 33.904 356.805 34.384 357.104 34.96C357.424 35.5147 357.584 36.208 357.584 37.04C357.584 38.0213 357.328 38.928 356.816 39.76C356.304 40.592 355.557 41.2533 354.576 41.744C353.594 42.2133 352.368 42.448 350.896 42.448ZM365.663 42.448C364.66 42.448 363.764 42.2347 362.975 41.808C362.207 41.3813 361.599 40.784 361.151 40.016C360.703 39.248 360.479 38.352 360.479 37.328C360.479 35.4293 361.311 33.968 362.975 32.944C364.66 31.8987 367.337 31.1733 371.007 30.768C370.985 30.0853 370.879 29.456 370.687 28.88C370.495 28.304 370.153 27.8453 369.663 27.504C369.193 27.1413 368.521 26.96 367.647 26.96C366.729 26.96 365.844 27.1413 364.991 27.504C364.137 27.8667 363.327 28.2827 362.559 28.752L361.183 26.256C361.801 25.872 362.484 25.5093 363.231 25.168C363.977 24.8053 364.777 24.5173 365.631 24.304C366.484 24.0693 367.369 23.952 368.287 23.952C369.759 23.952 370.964 24.2507 371.903 24.848C372.841 25.424 373.535 26.2667 373.983 27.376C374.452 28.4853 374.687 29.8293 374.687 31.408V42H371.679L371.391 39.984H371.263C370.473 40.6667 369.609 41.2533 368.671 41.744C367.732 42.2133 366.729 42.448 365.663 42.448ZM366.783 39.504C367.551 39.504 368.265 39.3333 368.927 38.992C369.588 38.6293 370.281 38.1067 371.007 37.424V33.136C369.279 33.328 367.903 33.616 366.879 34C365.855 34.3627 365.119 34.8 364.671 35.312C364.244 35.8027 364.031 36.3787 364.031 37.04C364.031 37.9147 364.297 38.544 364.831 38.928C365.364 39.312 366.015 39.504 366.783 39.504ZM383.557 42.448C382.661 42.448 381.946 42.2667 381.413 41.904C380.88 41.52 380.496 40.9867 380.261 40.304C380.026 39.6 379.909 38.7787 379.909 37.84V16.496H383.589V38.032C383.589 38.5227 383.674 38.8747 383.845 39.088C384.037 39.28 384.24 39.376 384.453 39.376C384.538 39.376 384.624 39.376 384.709 39.376C384.794 39.3547 384.922 39.3333 385.093 39.312L385.541 42.096C385.328 42.1813 385.061 42.256 384.741 42.32C384.421 42.4053 384.026 42.448 383.557 42.448Z" fill="white"/>
</svg>
