<svg width="585" height="58" viewBox="0 0 585 58" fill="none" xmlns="http://www.w3.org/2000/svg">
<path d="M20.4656 42L21.3296 34.832H18.5136V32.368H21.6176L22.2256 27.472H19.2496V24.976H22.5456L23.3456 18.608H25.6176L24.8176 24.976H29.2656L30.0656 18.608H32.3376L31.5696 24.976H34.4496V27.472H31.2816L30.6416 32.368H33.7136V34.832H30.3536L29.4896 42H27.1856L28.0496 34.832H23.6336L22.7376 42H20.4656ZM23.8896 32.368H28.3376L28.9456 27.472H24.4976L23.8896 32.368ZM48.2516 42.448C46.161 42.448 44.2836 41.968 42.6196 41.008C40.977 40.048 39.6756 38.6613 38.7156 36.848C37.777 35.0347 37.3076 32.8373 37.3076 30.256C37.3076 28.336 37.585 26.6187 38.1396 25.104C38.7156 23.5893 39.4943 22.3093 40.4756 21.264C41.4783 20.1973 42.641 19.3867 43.9636 18.832C45.3076 18.2773 46.769 18 48.3476 18C50.0116 18 51.409 18.3093 52.5396 18.928C53.6916 19.5467 54.6196 20.2293 55.3236 20.976L53.3396 23.344C52.7423 22.768 52.0596 22.2773 51.2916 21.872C50.5236 21.4453 49.5743 21.232 48.4436 21.232C46.993 21.232 45.713 21.5947 44.6036 22.32C43.5156 23.0453 42.6623 24.0693 42.0436 25.392C41.4463 26.7147 41.1476 28.304 41.1476 30.16C41.1476 32.016 41.4356 33.6267 42.0116 34.992C42.5876 36.336 43.4303 37.3707 44.5396 38.096C45.649 38.8213 47.0143 39.184 48.6356 39.184C49.361 39.184 50.0436 39.088 50.6836 38.896C51.345 38.6827 51.8783 38.3947 52.2836 38.032V32.528H47.6436V29.456H55.6756V39.664C54.8863 40.4533 53.8516 41.1147 52.5716 41.648C51.2916 42.1813 49.8516 42.448 48.2516 42.448ZM68.0971 42.448C66.4971 42.448 65.0465 42.0853 63.7451 41.36C62.4438 40.6133 61.4091 39.5573 60.6411 38.192C59.8731 36.8053 59.4891 35.1413 59.4891 33.2C59.4891 31.7707 59.7131 30.4907 60.1611 29.36C60.6091 28.208 61.2171 27.2373 61.9851 26.448C62.7531 25.6373 63.6171 25.0187 64.5771 24.592C65.5371 24.1653 66.5185 23.952 67.5211 23.952C69.0785 23.952 70.3905 24.304 71.4571 25.008C72.5238 25.6907 73.3345 26.6613 73.8891 27.92C74.4438 29.1573 74.7211 30.608 74.7211 32.272C74.7211 32.6347 74.6998 32.9867 74.6571 33.328C74.6358 33.648 74.5931 33.9253 74.5291 34.16H63.1051C63.2118 35.2693 63.4998 36.2293 63.9691 37.04C64.4598 37.8293 65.0891 38.448 65.8571 38.896C66.6465 39.3227 67.5425 39.536 68.5451 39.536C69.3345 39.536 70.0705 39.4187 70.7531 39.184C71.4358 38.9493 72.0971 38.6293 72.7371 38.224L74.0171 40.56C73.2065 41.0933 72.2998 41.5413 71.2971 41.904C70.3158 42.2667 69.2491 42.448 68.0971 42.448ZM63.0731 31.6H71.5211C71.5211 30.1067 71.1798 28.944 70.4971 28.112C69.8358 27.28 68.8651 26.864 67.5851 26.864C66.8598 26.864 66.1771 27.0453 65.5371 27.408C64.8971 27.7707 64.3531 28.304 63.9051 29.008C63.4785 29.712 63.2011 30.576 63.0731 31.6ZM78.8621 42V24.368H81.8701L82.1901 26.832H82.2541C83.0648 26.0427 83.9395 25.3707 84.8781 24.816C85.8168 24.24 86.8835 23.952 88.0781 23.952C89.9555 23.952 91.3208 24.56 92.1741 25.776C93.0488 26.9707 93.4861 28.688 93.4861 30.928V42H89.8061V31.376C89.8061 29.8613 89.5715 28.784 89.1021 28.144C88.6328 27.4827 87.8755 27.152 86.8301 27.152C86.0195 27.152 85.2941 27.3547 84.6541 27.76C84.0355 28.144 83.3315 28.7307 82.5421 29.52V42H78.8621ZM106.191 42.448C104.591 42.448 103.14 42.0853 101.839 41.36C100.538 40.6133 99.5029 39.5573 98.7349 38.192C97.9669 36.8053 97.5829 35.1413 97.5829 33.2C97.5829 31.7707 97.8069 30.4907 98.2549 29.36C98.7029 28.208 99.3109 27.2373 100.079 26.448C100.847 25.6373 101.711 25.0187 102.671 24.592C103.631 24.1653 104.612 23.952 105.615 23.952C107.172 23.952 108.484 24.304 109.551 25.008C110.618 25.6907 111.428 26.6613 111.983 27.92C112.538 29.1573 112.815 30.608 112.815 32.272C112.815 32.6347 112.794 32.9867 112.751 33.328C112.73 33.648 112.687 33.9253 112.623 34.16H101.199C101.306 35.2693 101.594 36.2293 102.063 37.04C102.554 37.8293 103.183 38.448 103.951 38.896C104.74 39.3227 105.636 39.536 106.639 39.536C107.428 39.536 108.164 39.4187 108.847 39.184C109.53 38.9493 110.191 38.6293 110.831 38.224L112.111 40.56C111.3 41.0933 110.394 41.5413 109.391 41.904C108.41 42.2667 107.343 42.448 106.191 42.448ZM101.167 31.6H109.615C109.615 30.1067 109.274 28.944 108.591 28.112C107.93 27.28 106.959 26.864 105.679 26.864C104.954 26.864 104.271 27.0453 103.631 27.408C102.991 27.7707 102.447 28.304 101.999 29.008C101.572 29.712 101.295 30.576 101.167 31.6ZM116.956 42V24.368H119.964L120.284 27.536H120.348C120.988 26.4053 121.745 25.5307 122.62 24.912C123.495 24.272 124.412 23.952 125.372 23.952C125.799 23.952 126.161 23.984 126.46 24.048C126.759 24.112 127.047 24.1973 127.324 24.304L126.684 27.536C126.364 27.4293 126.076 27.3547 125.82 27.312C125.564 27.2693 125.255 27.248 124.892 27.248C124.188 27.248 123.441 27.536 122.652 28.112C121.863 28.6667 121.191 29.648 120.636 31.056V42H116.956ZM133.178 42.448C132.176 42.448 131.28 42.2347 130.49 41.808C129.722 41.3813 129.114 40.784 128.666 40.016C128.218 39.248 127.994 38.352 127.994 37.328C127.994 35.4293 128.826 33.968 130.49 32.944C132.176 31.8987 134.853 31.1733 138.522 30.768C138.501 30.0853 138.394 29.456 138.202 28.88C138.01 28.304 137.669 27.8453 137.178 27.504C136.709 27.1413 136.037 26.96 135.162 26.96C134.245 26.96 133.36 27.1413 132.506 27.504C131.653 27.8667 130.842 28.2827 130.074 28.752L128.698 26.256C129.317 25.872 130 25.5093 130.746 25.168C131.493 24.8053 132.293 24.5173 133.146 24.304C134 24.0693 134.885 23.952 135.802 23.952C137.274 23.952 138.48 24.2507 139.418 24.848C140.357 25.424 141.05 26.2667 141.498 27.376C141.968 28.4853 142.202 29.8293 142.202 31.408V42H139.194L138.906 39.984H138.778C137.989 40.6667 137.125 41.2533 136.186 41.744C135.248 42.2133 134.245 42.448 133.178 42.448ZM134.298 39.504C135.066 39.504 135.781 39.3333 136.442 38.992C137.104 38.6293 137.797 38.1067 138.522 37.424V33.136C136.794 33.328 135.418 33.616 134.394 34C133.37 34.3627 132.634 34.8 132.186 35.312C131.76 35.8027 131.546 36.3787 131.546 37.04C131.546 37.9147 131.813 38.544 132.346 38.928C132.88 39.312 133.53 39.504 134.298 39.504ZM152.688 42.448C151.366 42.448 150.31 42.192 149.52 41.68C148.752 41.1467 148.198 40.4213 147.856 39.504C147.515 38.5653 147.344 37.4773 147.344 36.24V27.344H144.784V24.592L147.536 24.368L147.952 19.504H151.024V24.368H155.6V27.344H151.024V36.272C151.024 37.3173 151.227 38.1173 151.632 38.672C152.038 39.2053 152.699 39.472 153.616 39.472C153.915 39.472 154.235 39.4293 154.576 39.344C154.918 39.2587 155.216 39.1627 155.472 39.056L156.144 41.776C155.675 41.9253 155.142 42.0747 154.544 42.224C153.968 42.3733 153.35 42.448 152.688 42.448ZM159.456 42V24.368H163.136V42H159.456ZM161.312 21.104C160.608 21.104 160.043 20.9013 159.616 20.496C159.211 20.0907 159.008 19.5467 159.008 18.864C159.008 18.224 159.211 17.7013 159.616 17.296C160.043 16.8907 160.608 16.688 161.312 16.688C161.973 16.688 162.517 16.8907 162.944 17.296C163.371 17.7013 163.584 18.224 163.584 18.864C163.584 19.5467 163.371 20.0907 162.944 20.496C162.517 20.9013 161.973 21.104 161.312 21.104ZM172.515 42L166.339 24.368H170.083L173.091 33.872C173.347 34.7253 173.603 35.6 173.859 36.496C174.115 37.3707 174.371 38.2453 174.627 39.12H174.755C175.032 38.2453 175.299 37.3707 175.555 36.496C175.811 35.6 176.056 34.7253 176.291 33.872L179.299 24.368H182.883L176.835 42H172.515ZM193.16 42.448C191.56 42.448 190.109 42.0853 188.808 41.36C187.506 40.6133 186.472 39.5573 185.704 38.192C184.936 36.8053 184.552 35.1413 184.552 33.2C184.552 31.7707 184.776 30.4907 185.224 29.36C185.672 28.208 186.28 27.2373 187.048 26.448C187.816 25.6373 188.68 25.0187 189.64 24.592C190.6 24.1653 191.581 23.952 192.584 23.952C194.141 23.952 195.453 24.304 196.52 25.008C197.586 25.6907 198.397 26.6613 198.952 27.92C199.506 29.1573 199.784 30.608 199.784 32.272C199.784 32.6347 199.762 32.9867 199.72 33.328C199.698 33.648 199.656 33.9253 199.592 34.16H188.168C188.274 35.2693 188.562 36.2293 189.032 37.04C189.522 37.8293 190.152 38.448 190.92 38.896C191.709 39.3227 192.605 39.536 193.608 39.536C194.397 39.536 195.133 39.4187 195.816 39.184C196.498 38.9493 197.16 38.6293 197.8 38.224L199.08 40.56C198.269 41.0933 197.362 41.5413 196.36 41.904C195.378 42.2667 194.312 42.448 193.16 42.448ZM188.136 31.6H196.584C196.584 30.1067 196.242 28.944 195.56 28.112C194.898 27.28 193.928 26.864 192.648 26.864C191.922 26.864 191.24 27.0453 190.6 27.408C189.96 27.7707 189.416 28.304 188.968 29.008C188.541 29.712 188.264 30.576 188.136 31.6ZM208.328 42L216.136 18.416H220.424L228.232 42H224.296L220.488 29.2C220.104 27.92 219.731 26.6293 219.368 25.328C219.005 24.0053 218.643 22.6827 218.28 21.36H218.152C217.811 22.704 217.448 24.0267 217.064 25.328C216.701 26.6293 216.328 27.92 215.944 29.2L212.136 42H208.328ZM212.744 35.312V32.368H223.752V35.312H212.744ZM231.338 42V18.416H235.05V42H231.338ZM257.585 42.448C256.113 42.448 254.737 42.1813 253.457 41.648C252.198 41.0933 251.089 40.2933 250.129 39.248C249.169 38.2027 248.422 36.9333 247.889 35.44C247.356 33.9253 247.089 32.1973 247.089 30.256C247.089 28.336 247.366 26.6187 247.921 25.104C248.476 23.5893 249.233 22.3093 250.193 21.264C251.153 20.1973 252.284 19.3867 253.585 18.832C254.886 18.2773 256.284 18 257.777 18C259.228 18 260.518 18.2987 261.649 18.896C262.78 19.4933 263.708 20.1867 264.433 20.976L262.449 23.344C261.83 22.7253 261.137 22.224 260.369 21.84C259.622 21.4347 258.78 21.232 257.841 21.232C256.476 21.232 255.27 21.5947 254.225 22.32C253.201 23.0453 252.39 24.0693 251.793 25.392C251.217 26.7147 250.929 28.304 250.929 30.16C250.929 32.016 251.206 33.6267 251.761 34.992C252.316 36.336 253.105 37.3707 254.129 38.096C255.153 38.8213 256.358 39.184 257.745 39.184C258.812 39.184 259.761 38.96 260.593 38.512C261.446 38.0427 262.225 37.424 262.929 36.656L264.945 39.024C263.985 40.1333 262.897 40.9867 261.681 41.584C260.486 42.16 259.121 42.448 257.585 42.448ZM273.452 42.448C271.575 42.448 270.199 41.84 269.324 40.624C268.45 39.408 268.012 37.6907 268.012 35.472V24.368H271.724V35.024C271.724 36.5173 271.959 37.5947 272.428 38.256C272.898 38.9173 273.644 39.248 274.668 39.248C275.479 39.248 276.204 39.0453 276.844 38.64C277.484 38.2133 278.167 37.5413 278.892 36.624V24.368H282.604V42H279.564L279.276 39.344H279.18C278.37 40.2613 277.516 41.008 276.62 41.584C275.724 42.16 274.668 42.448 273.452 42.448ZM292.88 42.448C291.685 42.448 290.491 42.2133 289.296 41.744C288.123 41.2747 287.109 40.688 286.256 39.984L288.016 37.584C288.784 38.2027 289.563 38.704 290.352 39.088C291.163 39.4507 292.037 39.632 292.976 39.632C294.021 39.632 294.789 39.408 295.28 38.96C295.792 38.4907 296.048 37.9253 296.048 37.264C296.048 36.7307 295.856 36.2827 295.472 35.92C295.109 35.5573 294.629 35.248 294.032 34.992C293.435 34.7147 292.816 34.4587 292.176 34.224C291.387 33.9253 290.608 33.5733 289.84 33.168C289.093 32.7413 288.475 32.208 287.984 31.568C287.493 30.9067 287.248 30.0853 287.248 29.104C287.248 28.1013 287.493 27.216 287.984 26.448C288.496 25.68 289.221 25.072 290.16 24.624C291.099 24.176 292.219 23.952 293.52 23.952C294.693 23.952 295.76 24.1547 296.72 24.56C297.701 24.9653 298.533 25.456 299.216 26.032L297.52 28.304C296.901 27.856 296.272 27.4933 295.632 27.216C294.992 26.9173 294.32 26.768 293.616 26.768C292.635 26.768 291.909 26.9813 291.44 27.408C290.971 27.8133 290.736 28.3253 290.736 28.944C290.736 29.4347 290.907 29.84 291.248 30.16C291.589 30.48 292.037 30.7573 292.592 30.992C293.168 31.2267 293.776 31.472 294.416 31.728C295.035 31.9413 295.643 32.1973 296.24 32.496C296.859 32.7733 297.413 33.1147 297.904 33.52C298.395 33.904 298.789 34.384 299.088 34.96C299.408 35.5147 299.568 36.208 299.568 37.04C299.568 38.0213 299.312 38.928 298.8 39.76C298.288 40.592 297.541 41.2533 296.56 41.744C295.579 42.2133 294.352 42.448 292.88 42.448ZM308.532 42.448C307.209 42.448 306.153 42.192 305.364 41.68C304.596 41.1467 304.041 40.4213 303.7 39.504C303.359 38.5653 303.188 37.4773 303.188 36.24V27.344H300.628V24.592L303.38 24.368L303.796 19.504H306.868V24.368H311.444V27.344H306.868V36.272C306.868 37.3173 307.071 38.1173 307.476 38.672C307.881 39.2053 308.543 39.472 309.46 39.472C309.759 39.472 310.079 39.4293 310.42 39.344C310.761 39.2587 311.06 39.1627 311.316 39.056L311.988 41.776C311.519 41.9253 310.985 42.0747 310.388 42.224C309.812 42.3733 309.193 42.448 308.532 42.448ZM321.715 42.448C320.265 42.448 318.899 42.0853 317.619 41.36C316.361 40.6133 315.337 39.5573 314.547 38.192C313.779 36.8053 313.395 35.1413 313.395 33.2C313.395 31.2373 313.779 29.5733 314.547 28.208C315.337 26.8213 316.361 25.7653 317.619 25.04C318.899 24.3147 320.265 23.952 321.715 23.952C322.782 23.952 323.817 24.1653 324.819 24.592C325.822 24.9973 326.707 25.5947 327.475 26.384C328.243 27.1733 328.851 28.144 329.299 29.296C329.747 30.4267 329.971 31.728 329.971 33.2C329.971 35.1413 329.577 36.8053 328.787 38.192C328.019 39.5573 327.006 40.6133 325.747 41.36C324.51 42.0853 323.166 42.448 321.715 42.448ZM321.715 39.376C322.633 39.376 323.422 39.12 324.083 38.608C324.766 38.096 325.289 37.3813 325.651 36.464C326.014 35.5253 326.195 34.4373 326.195 33.2C326.195 31.9627 326.014 30.8853 325.651 29.968C325.289 29.0293 324.766 28.304 324.083 27.792C323.422 27.2587 322.633 26.992 321.715 26.992C320.777 26.992 319.966 27.2587 319.283 27.792C318.622 28.304 318.11 29.0293 317.747 29.968C317.385 30.8853 317.203 31.9627 317.203 33.2C317.203 34.4373 317.385 35.5253 317.747 36.464C318.11 37.3813 318.622 38.096 319.283 38.608C319.966 39.12 320.777 39.376 321.715 39.376ZM334.331 42V24.368H337.339L337.659 26.864H337.723C338.491 26.0533 339.312 25.3707 340.187 24.816C341.083 24.24 342.086 23.952 343.195 23.952C344.496 23.952 345.531 24.24 346.299 24.816C347.067 25.3707 347.643 26.16 348.027 27.184C348.902 26.2453 349.798 25.4773 350.715 24.88C351.654 24.2613 352.667 23.952 353.755 23.952C355.59 23.952 356.944 24.56 357.819 25.776C358.715 26.9707 359.163 28.688 359.163 30.928V42H355.451V31.376C355.451 29.8613 355.216 28.784 354.747 28.144C354.278 27.4827 353.542 27.152 352.539 27.152C351.942 27.152 351.312 27.344 350.651 27.728C350.011 28.112 349.318 28.7093 348.571 29.52V42H344.891V31.376C344.891 29.8613 344.656 28.784 344.187 28.144C343.718 27.4827 342.971 27.152 341.947 27.152C341.371 27.152 340.752 27.344 340.091 27.728C339.43 28.112 338.736 28.7093 338.011 29.52V42H334.331ZM372.026 42V18.416H378.138C380.57 18.416 382.629 18.864 384.314 19.76C385.999 20.6347 387.279 21.936 388.154 23.664C389.05 25.392 389.498 27.5467 389.498 30.128C389.498 32.688 389.05 34.8533 388.154 36.624C387.279 38.3947 386.01 39.7387 384.346 40.656C382.682 41.552 380.677 42 378.33 42H372.026ZM375.738 38.96H377.882C379.567 38.96 380.986 38.6293 382.138 37.968C383.311 37.3067 384.186 36.3253 384.762 35.024C385.359 33.7013 385.658 32.0693 385.658 30.128C385.658 28.1653 385.359 26.544 384.762 25.264C384.186 23.984 383.311 23.0347 382.138 22.416C380.986 21.776 379.567 21.456 377.882 21.456H375.738V38.96ZM401.441 42.448C399.841 42.448 398.39 42.0853 397.089 41.36C395.788 40.6133 394.753 39.5573 393.985 38.192C393.217 36.8053 392.833 35.1413 392.833 33.2C392.833 31.7707 393.057 30.4907 393.505 29.36C393.953 28.208 394.561 27.2373 395.329 26.448C396.097 25.6373 396.961 25.0187 397.921 24.592C398.881 24.1653 399.862 23.952 400.865 23.952C402.422 23.952 403.734 24.304 404.801 25.008C405.868 25.6907 406.678 26.6613 407.233 27.92C407.788 29.1573 408.065 30.608 408.065 32.272C408.065 32.6347 408.044 32.9867 408.001 33.328C407.98 33.648 407.937 33.9253 407.873 34.16H396.449C396.556 35.2693 396.844 36.2293 397.313 37.04C397.804 37.8293 398.433 38.448 399.201 38.896C399.99 39.3227 400.886 39.536 401.889 39.536C402.678 39.536 403.414 39.4187 404.097 39.184C404.78 38.9493 405.441 38.6293 406.081 38.224L407.361 40.56C406.55 41.0933 405.644 41.5413 404.641 41.904C403.66 42.2667 402.593 42.448 401.441 42.448ZM396.417 31.6H404.865C404.865 30.1067 404.524 28.944 403.841 28.112C403.18 27.28 402.209 26.864 400.929 26.864C400.204 26.864 399.521 27.0453 398.881 27.408C398.241 27.7707 397.697 28.304 397.249 29.008C396.822 29.712 396.545 30.576 396.417 31.6ZM415.952 42L409.776 24.368H413.52L416.528 33.872C416.784 34.7253 417.04 35.6 417.296 36.496C417.552 37.3707 417.808 38.2453 418.064 39.12H418.192C418.469 38.2453 418.736 37.3707 418.992 36.496C419.248 35.6 419.493 34.7253 419.728 33.872L422.736 24.368H426.32L420.272 42H415.952ZM436.597 42.448C434.997 42.448 433.546 42.0853 432.245 41.36C430.944 40.6133 429.909 39.5573 429.141 38.192C428.373 36.8053 427.989 35.1413 427.989 33.2C427.989 31.7707 428.213 30.4907 428.661 29.36C429.109 28.208 429.717 27.2373 430.485 26.448C431.253 25.6373 432.117 25.0187 433.077 24.592C434.037 24.1653 435.018 23.952 436.021 23.952C437.578 23.952 438.89 24.304 439.957 25.008C441.024 25.6907 441.834 26.6613 442.389 27.92C442.944 29.1573 443.221 30.608 443.221 32.272C443.221 32.6347 443.2 32.9867 443.157 33.328C443.136 33.648 443.093 33.9253 443.029 34.16H431.605C431.712 35.2693 432 36.2293 432.469 37.04C432.96 37.8293 433.589 38.448 434.357 38.896C435.146 39.3227 436.042 39.536 437.045 39.536C437.834 39.536 438.57 39.4187 439.253 39.184C439.936 38.9493 440.597 38.6293 441.237 38.224L442.517 40.56C441.706 41.0933 440.8 41.5413 439.797 41.904C438.816 42.2667 437.749 42.448 436.597 42.448ZM431.573 31.6H440.021C440.021 30.1067 439.68 28.944 438.997 28.112C438.336 27.28 437.365 26.864 436.085 26.864C435.36 26.864 434.677 27.0453 434.037 27.408C433.397 27.7707 432.853 28.304 432.405 29.008C431.978 29.712 431.701 30.576 431.573 31.6ZM451.01 42.448C450.114 42.448 449.399 42.2667 448.866 41.904C448.333 41.52 447.949 40.9867 447.714 40.304C447.479 39.6 447.362 38.7787 447.362 37.84V16.496H451.042V38.032C451.042 38.5227 451.127 38.8747 451.298 39.088C451.49 39.28 451.693 39.376 451.906 39.376C451.991 39.376 452.077 39.376 452.162 39.376C452.247 39.3547 452.375 39.3333 452.546 39.312L452.994 42.096C452.781 42.1813 452.514 42.256 452.194 42.32C451.874 42.4053 451.479 42.448 451.01 42.448ZM463.965 42.448C462.515 42.448 461.149 42.0853 459.869 41.36C458.611 40.6133 457.587 39.5573 456.797 38.192C456.029 36.8053 455.645 35.1413 455.645 33.2C455.645 31.2373 456.029 29.5733 456.797 28.208C457.587 26.8213 458.611 25.7653 459.869 25.04C461.149 24.3147 462.515 23.952 463.965 23.952C465.032 23.952 466.067 24.1653 467.069 24.592C468.072 24.9973 468.957 25.5947 469.725 26.384C470.493 27.1733 471.101 28.144 471.549 29.296C471.997 30.4267 472.221 31.728 472.221 33.2C472.221 35.1413 471.827 36.8053 471.037 38.192C470.269 39.5573 469.256 40.6133 467.997 41.36C466.76 42.0853 465.416 42.448 463.965 42.448ZM463.965 39.376C464.883 39.376 465.672 39.12 466.333 38.608C467.016 38.096 467.539 37.3813 467.901 36.464C468.264 35.5253 468.445 34.4373 468.445 33.2C468.445 31.9627 468.264 30.8853 467.901 29.968C467.539 29.0293 467.016 28.304 466.333 27.792C465.672 27.2587 464.883 26.992 463.965 26.992C463.027 26.992 462.216 27.2587 461.533 27.792C460.872 28.304 460.36 29.0293 459.997 29.968C459.635 30.8853 459.453 31.9627 459.453 33.2C459.453 34.4373 459.635 35.5253 459.997 36.464C460.36 37.3813 460.872 38.096 461.533 38.608C462.216 39.12 463.027 39.376 463.965 39.376ZM476.581 49.136V24.368H479.589L479.909 26.32H479.973C480.762 25.68 481.616 25.1253 482.533 24.656C483.45 24.1867 484.41 23.952 485.413 23.952C486.885 23.952 488.144 24.3253 489.189 25.072C490.234 25.8187 491.024 26.864 491.557 28.208C492.09 29.5307 492.357 31.0987 492.357 32.912C492.357 34.9173 491.994 36.6347 491.269 38.064C490.565 39.4933 489.637 40.5813 488.485 41.328C487.333 42.0747 486.096 42.448 484.773 42.448C484.005 42.448 483.226 42.2773 482.437 41.936C481.648 41.5733 480.89 41.072 480.165 40.432L480.261 43.44V49.136H476.581ZM484.069 39.344C484.922 39.344 485.68 39.0987 486.341 38.608C487.024 38.1173 487.557 37.4027 487.941 36.464C488.346 35.504 488.549 34.3413 488.549 32.976C488.549 31.7387 488.4 30.6827 488.101 29.808C487.824 28.912 487.386 28.2293 486.789 27.76C486.192 27.2693 485.402 27.024 484.421 27.024C483.738 27.024 483.056 27.2053 482.373 27.568C481.712 27.9093 481.008 28.4427 480.261 29.168V37.776C480.944 38.352 481.616 38.7573 482.277 38.992C482.938 39.2267 483.536 39.344 484.069 39.344ZM496.737 42V24.368H499.745L500.065 26.864H500.129C500.897 26.0533 501.718 25.3707 502.593 24.816C503.489 24.24 504.492 23.952 505.601 23.952C506.902 23.952 507.937 24.24 508.705 24.816C509.473 25.3707 510.049 26.16 510.433 27.184C511.308 26.2453 512.204 25.4773 513.121 24.88C514.06 24.2613 515.073 23.952 516.161 23.952C517.996 23.952 519.35 24.56 520.225 25.776C521.121 26.9707 521.569 28.688 521.569 30.928V42H517.857V31.376C517.857 29.8613 517.622 28.784 517.153 28.144C516.684 27.4827 515.948 27.152 514.945 27.152C514.348 27.152 513.718 27.344 513.057 27.728C512.417 28.112 511.724 28.7093 510.977 29.52V42H507.297V31.376C507.297 29.8613 507.062 28.784 506.593 28.144C506.124 27.4827 505.377 27.152 504.353 27.152C503.777 27.152 503.158 27.344 502.497 27.728C501.836 28.112 501.142 28.7093 500.417 29.52V42H496.737ZM534.285 42.448C532.685 42.448 531.234 42.0853 529.933 41.36C528.631 40.6133 527.597 39.5573 526.829 38.192C526.061 36.8053 525.677 35.1413 525.677 33.2C525.677 31.7707 525.901 30.4907 526.349 29.36C526.797 28.208 527.405 27.2373 528.173 26.448C528.941 25.6373 529.805 25.0187 530.765 24.592C531.725 24.1653 532.706 23.952 533.709 23.952C535.266 23.952 536.578 24.304 537.645 25.008C538.711 25.6907 539.522 26.6613 540.077 27.92C540.631 29.1573 540.909 30.608 540.909 32.272C540.909 32.6347 540.887 32.9867 540.845 33.328C540.823 33.648 540.781 33.9253 540.717 34.16H529.293C529.399 35.2693 529.687 36.2293 530.157 37.04C530.647 37.8293 531.277 38.448 532.045 38.896C532.834 39.3227 533.73 39.536 534.733 39.536C535.522 39.536 536.258 39.4187 536.941 39.184C537.623 38.9493 538.285 38.6293 538.925 38.224L540.205 40.56C539.394 41.0933 538.487 41.5413 537.485 41.904C536.503 42.2667 535.437 42.448 534.285 42.448ZM529.261 31.6H537.709C537.709 30.1067 537.367 28.944 536.685 28.112C536.023 27.28 535.053 26.864 533.773 26.864C533.047 26.864 532.365 27.0453 531.725 27.408C531.085 27.7707 530.541 28.304 530.093 29.008C529.666 29.712 529.389 30.576 529.261 31.6ZM545.05 42V24.368H548.058L548.378 26.832H548.442C549.252 26.0427 550.127 25.3707 551.066 24.816C552.004 24.24 553.071 23.952 554.266 23.952C556.143 23.952 557.508 24.56 558.362 25.776C559.236 26.9707 559.674 28.688 559.674 30.928V42H555.994V31.376C555.994 29.8613 555.759 28.784 555.29 28.144C554.82 27.4827 554.063 27.152 553.018 27.152C552.207 27.152 551.482 27.3547 550.842 27.76C550.223 28.144 549.519 28.7307 548.73 29.52V42H545.05ZM570.938 42.448C569.616 42.448 568.56 42.192 567.77 41.68C567.002 41.1467 566.448 40.4213 566.106 39.504C565.765 38.5653 565.594 37.4773 565.594 36.24V27.344H563.034V24.592L565.786 24.368L566.202 19.504H569.274V24.368H573.85V27.344H569.274V36.272C569.274 37.3173 569.477 38.1173 569.882 38.672C570.288 39.2053 570.949 39.472 571.866 39.472C572.165 39.472 572.485 39.4293 572.826 39.344C573.168 39.2587 573.466 39.1627 573.722 39.056L574.394 41.776C573.925 41.9253 573.392 42.0747 572.794 42.224C572.218 42.3733 571.6 42.448 570.938 42.448Z" fill="white"/>
</svg>
