<svg width="222" height="58" viewBox="0 0 222 58" fill="none" xmlns="http://www.w3.org/2000/svg">
<path d="M13.4031 42L14.2671 34.832H11.4511V32.368H14.5551L15.1631 27.472H12.1871V24.976H15.4831L16.2831 18.608H18.5551L17.7551 24.976H22.2031L23.0031 18.608H25.2751L24.5071 24.976H27.3871V27.472H24.2191L23.5791 32.368H26.6511V34.832H23.2911L22.4271 42H20.1231L20.9871 34.832H16.5711L15.6751 42H13.4031ZM16.8271 32.368H21.2751L21.8831 27.472H17.4351L16.8271 32.368ZM40.1971 42.448C38.8958 42.448 37.7011 42.256 36.6131 41.872C35.5465 41.488 34.6291 40.88 33.8611 40.048C33.0931 39.216 32.4958 38.128 32.0691 36.784C31.6425 35.44 31.4291 33.808 31.4291 31.888V18.416H35.1411V32.112C35.1411 33.8827 35.3545 35.2907 35.7811 36.336C36.2291 37.36 36.8265 38.096 37.5731 38.544C38.3411 38.9707 39.2158 39.184 40.1971 39.184C41.1998 39.184 42.0851 38.9707 42.8531 38.544C43.6211 38.096 44.2291 37.36 44.6771 36.336C45.1251 35.2907 45.3491 33.8827 45.3491 32.112V18.416H48.9331V31.888C48.9331 33.808 48.7198 35.44 48.2931 36.784C47.8878 38.128 47.3011 39.216 46.5331 40.048C45.7651 40.88 44.8371 41.488 43.7491 41.872C42.6825 42.256 41.4985 42.448 40.1971 42.448ZM55.0259 42V18.416H58.7379V42H55.0259ZM62.1809 47.76L71.0769 16.432H73.6049L64.7729 47.76H62.1809ZM86.0096 42.448C84.7083 42.448 83.5136 42.256 82.4256 41.872C81.359 41.488 80.4416 40.88 79.6736 40.048C78.9056 39.216 78.3083 38.128 77.8816 36.784C77.455 35.44 77.2416 33.808 77.2416 31.888V18.416H80.9536V32.112C80.9536 33.8827 81.167 35.2907 81.5936 36.336C82.0416 37.36 82.639 38.096 83.3856 38.544C84.1536 38.9707 85.0283 39.184 86.0096 39.184C87.0123 39.184 87.8976 38.9707 88.6656 38.544C89.4336 38.096 90.0416 37.36 90.4896 36.336C90.9376 35.2907 91.1616 33.8827 91.1616 32.112V18.416H94.7456V31.888C94.7456 33.808 94.5323 35.44 94.1056 36.784C93.7003 38.128 93.1136 39.216 92.3456 40.048C91.5776 40.88 90.6496 41.488 89.5616 41.872C88.495 42.256 87.311 42.448 86.0096 42.448ZM97.7464 42L104.498 29.84L98.1624 18.416H102.29L105.138 23.952C105.437 24.5067 105.714 25.0613 105.97 25.616C106.248 26.1707 106.578 26.8107 106.962 27.536H107.09C107.389 26.8107 107.666 26.1707 107.922 25.616C108.178 25.0613 108.445 24.5067 108.722 23.952L111.474 18.416H115.378L109.074 30L115.826 42H111.698L108.594 36.144C108.296 35.5467 107.986 34.9387 107.666 34.32C107.346 33.68 107.005 33.008 106.642 32.304H106.514C106.194 33.008 105.885 33.68 105.586 34.32C105.288 34.9387 104.989 35.5467 104.69 36.144L101.682 42H97.7464ZM132.924 31.056H136.284V37.264H132.924V31.056ZM132.924 20.688H135.612V21.36C135.612 23.024 135.282 24.5707 134.62 26C133.98 27.4293 133.042 28.656 131.804 29.68C130.588 30.704 129.116 31.472 127.388 31.984L125.852 29.392C127.346 28.9653 128.615 28.3467 129.66 27.536C130.727 26.7253 131.538 25.7973 132.092 24.752C132.647 23.6853 132.924 22.5547 132.924 21.36V20.688ZM133.596 20.688H136.316V21.36C136.316 22.4907 136.594 23.5787 137.148 24.624C137.703 25.648 138.514 26.544 139.58 27.312C140.647 28.08 141.916 28.6773 143.388 29.104L141.884 31.696C140.156 31.2053 138.674 30.4587 137.436 29.456C136.199 28.4533 135.25 27.2587 134.588 25.872C133.927 24.4853 133.596 22.9813 133.596 21.36V20.688ZM126.62 19.024H142.684V21.712H126.62V19.024ZM132.924 15.632H136.284V20.24H132.924V15.632ZM145.66 15.376H149.02V44.688H145.66V15.376ZM125.532 38.928L125.084 36.144C126.834 36.144 128.764 36.1333 130.876 36.112C133.01 36.0693 135.186 35.984 137.404 35.856C139.644 35.7067 141.81 35.472 143.9 35.152L144.156 37.616C142.002 38.0213 139.815 38.32 137.596 38.512C135.399 38.6827 133.266 38.7893 131.196 38.832C129.127 38.8747 127.239 38.9067 125.532 38.928ZM161.53 18.352H164.282V20.496C164.282 22.288 163.951 23.984 163.29 25.584C162.65 27.184 161.722 28.5813 160.506 29.776C159.29 30.9707 157.818 31.8773 156.09 32.496L154.362 29.84C155.514 29.4347 156.527 28.912 157.402 28.272C158.298 27.632 159.055 26.896 159.674 26.064C160.293 25.2107 160.751 24.3147 161.05 23.376C161.37 22.416 161.53 21.456 161.53 20.496V18.352ZM162.202 18.352H164.922V20.464C164.922 21.68 165.189 22.864 165.722 24.016C166.255 25.168 167.034 26.2027 168.058 27.12C169.082 28.016 170.33 28.72 171.802 29.232L170.138 31.856C168.453 31.28 167.013 30.416 165.818 29.264C164.645 28.112 163.749 26.7787 163.13 25.264C162.511 23.7493 162.202 22.1493 162.202 20.464V18.352ZM170.17 22.736H176.218V25.488H170.17V22.736ZM155.354 17.232H171.002V19.92H155.354V17.232ZM158.938 34.32H178.618V44.656H175.258V37.008H158.938V34.32ZM175.258 15.408H178.618V32.848H175.258V15.408ZM191.031 32.784H194.391V37.52H191.031V32.784ZM203.319 15.408H206.679V44.656H203.319V15.408ZM205.559 27.568H210.839V30.352H205.559V27.568ZM183.959 39.376L183.511 36.624C185.239 36.624 187.127 36.6133 189.175 36.592C191.223 36.5707 193.325 36.496 195.479 36.368C197.634 36.24 199.703 36.0373 201.687 35.76L201.943 38.192C199.874 38.576 197.773 38.8533 195.639 39.024C193.506 39.1947 191.447 39.3013 189.463 39.344C187.479 39.3653 185.645 39.376 183.959 39.376ZM184.023 18.8H201.367V21.456H184.023V18.8ZM192.727 22.896C194.093 22.896 195.298 23.1307 196.343 23.6C197.41 24.048 198.242 24.6773 198.839 25.488C199.437 26.2987 199.735 27.2587 199.735 28.368C199.735 29.456 199.437 30.416 198.839 31.248C198.242 32.0587 197.41 32.688 196.343 33.136C195.298 33.584 194.093 33.808 192.727 33.808C191.341 33.808 190.114 33.584 189.047 33.136C188.002 32.688 187.181 32.0587 186.583 31.248C186.007 30.416 185.719 29.456 185.719 28.368C185.719 27.2587 186.007 26.2987 186.583 25.488C187.181 24.6773 188.002 24.048 189.047 23.6C190.114 23.1307 191.341 22.896 192.727 22.896ZM192.727 25.456C191.575 25.456 190.647 25.7227 189.943 26.256C189.239 26.768 188.887 27.472 188.887 28.368C188.887 29.264 189.239 29.968 189.943 30.48C190.647 30.992 191.575 31.248 192.727 31.248C193.879 31.248 194.807 30.992 195.511 30.48C196.215 29.968 196.567 29.264 196.567 28.368C196.567 27.472 196.215 26.768 195.511 26.256C194.807 25.7227 193.879 25.456 192.727 25.456ZM191.031 15.472H194.391V20.688H191.031V15.472Z" fill="white"/>
</svg>
