<svg width="451" height="58" viewBox="0 0 451 58" fill="none" xmlns="http://www.w3.org/2000/svg">
<path d="M13.6844 42L14.5484 34.832H11.7324V32.368H14.8364L15.4444 27.472H12.4684V24.976H15.7644L16.5644 18.608H18.8364L18.0364 24.976H22.4844L23.2844 18.608H25.5564L24.7884 24.976H27.6684V27.472H24.5004L23.8604 32.368H26.9324V34.832H23.5724L22.7084 42H20.4044L21.2684 34.832H16.8524L15.9564 42H13.6844ZM17.1084 32.368H21.5564L22.1644 27.472H17.7164L17.1084 32.368ZM31.8384 42V18.416H39.1664C40.7664 18.416 42.185 18.608 43.4224 18.992C44.681 19.376 45.6624 19.9947 46.3664 20.848C47.0917 21.68 47.4544 22.8 47.4544 24.208C47.4544 24.976 47.3157 25.7013 47.0384 26.384C46.7824 27.0667 46.409 27.6747 45.9184 28.208C45.4277 28.72 44.8197 29.0933 44.0944 29.328V29.488C45.4384 29.7653 46.5477 30.3733 47.4224 31.312C48.297 32.2293 48.7344 33.488 48.7344 35.088C48.7344 36.6453 48.3397 37.936 47.5504 38.96C46.7824 39.984 45.7157 40.752 44.3504 41.264C43.0064 41.7547 41.4597 42 39.7104 42H31.8384ZM35.5504 28.272H38.7184C40.5104 28.272 41.801 27.952 42.5904 27.312C43.401 26.672 43.8064 25.808 43.8064 24.72C43.8064 23.504 43.3904 22.64 42.5584 22.128C41.7264 21.5947 40.4784 21.328 38.8144 21.328H35.5504V28.272ZM35.5504 39.088H39.2944C41.129 39.088 42.5477 38.7467 43.5504 38.064C44.5744 37.3813 45.0864 36.3253 45.0864 34.896C45.0864 33.5733 44.585 32.6133 43.5824 32.016C42.601 31.3973 41.1717 31.088 39.2944 31.088H35.5504V39.088ZM58.0461 42.448C56.1688 42.448 54.7928 41.84 53.9181 40.624C53.0435 39.408 52.6061 37.6907 52.6061 35.472V24.368H56.3181V35.024C56.3181 36.5173 56.5528 37.5947 57.0221 38.256C57.4915 38.9173 58.2381 39.248 59.2621 39.248C60.0728 39.248 60.7981 39.0453 61.4381 38.64C62.0781 38.2133 62.7608 37.5413 63.4861 36.624V24.368H67.1981V42H64.1581L63.8701 39.344H63.7741C62.9635 40.2613 62.1101 41.008 61.2141 41.584C60.3181 42.16 59.2621 42.448 58.0461 42.448ZM77.4739 42.448C76.2792 42.448 75.0845 42.2133 73.8899 41.744C72.7165 41.2747 71.7032 40.688 70.8499 39.984L72.6099 37.584C73.3779 38.2027 74.1565 38.704 74.9459 39.088C75.7565 39.4507 76.6312 39.632 77.5699 39.632C78.6152 39.632 79.3832 39.408 79.8739 38.96C80.3859 38.4907 80.6419 37.9253 80.6419 37.264C80.6419 36.7307 80.4499 36.2827 80.0659 35.92C79.7032 35.5573 79.2232 35.248 78.6259 34.992C78.0285 34.7147 77.4099 34.4587 76.7699 34.224C75.9805 33.9253 75.2019 33.5733 74.4339 33.168C73.6872 32.7413 73.0685 32.208 72.5779 31.568C72.0872 30.9067 71.8419 30.0853 71.8419 29.104C71.8419 28.1013 72.0872 27.216 72.5779 26.448C73.0899 25.68 73.8152 25.072 74.7539 24.624C75.6925 24.176 76.8125 23.952 78.1139 23.952C79.2872 23.952 80.3539 24.1547 81.3139 24.56C82.2952 24.9653 83.1272 25.456 83.8099 26.032L82.1139 28.304C81.4952 27.856 80.8659 27.4933 80.2259 27.216C79.5859 26.9173 78.9139 26.768 78.2099 26.768C77.2285 26.768 76.5032 26.9813 76.0339 27.408C75.5645 27.8133 75.3299 28.3253 75.3299 28.944C75.3299 29.4347 75.5005 29.84 75.8419 30.16C76.1832 30.48 76.6312 30.7573 77.1859 30.992C77.7619 31.2267 78.3699 31.472 79.0099 31.728C79.6285 31.9413 80.2365 32.1973 80.8339 32.496C81.4525 32.7733 82.0072 33.1147 82.4979 33.52C82.9885 33.904 83.3832 34.384 83.6819 34.96C84.0019 35.5147 84.1619 36.208 84.1619 37.04C84.1619 38.0213 83.9059 38.928 83.3939 39.76C82.8819 40.592 82.1352 41.2533 81.1539 41.744C80.1725 42.2133 78.9459 42.448 77.4739 42.448ZM88.0809 42V24.368H91.7609V42H88.0809ZM89.9369 21.104C89.2329 21.104 88.6675 20.9013 88.2409 20.496C87.8355 20.0907 87.6329 19.5467 87.6329 18.864C87.6329 18.224 87.8355 17.7013 88.2409 17.296C88.6675 16.8907 89.2329 16.688 89.9369 16.688C90.5982 16.688 91.1422 16.8907 91.5689 17.296C91.9955 17.7013 92.2089 18.224 92.2089 18.864C92.2089 19.5467 91.9955 20.0907 91.5689 20.496C91.1422 20.9013 90.5982 21.104 89.9369 21.104ZM97.2996 42V24.368H100.308L100.628 26.832H100.692C101.502 26.0427 102.377 25.3707 103.316 24.816C104.254 24.24 105.321 23.952 106.516 23.952C108.393 23.952 109.758 24.56 110.612 25.776C111.486 26.9707 111.924 28.688 111.924 30.928V42H108.244V31.376C108.244 29.8613 108.009 28.784 107.54 28.144C107.07 27.4827 106.313 27.152 105.268 27.152C104.457 27.152 103.732 27.3547 103.092 27.76C102.473 28.144 101.769 28.7307 100.98 29.52V42H97.2996ZM124.628 42.448C123.028 42.448 121.578 42.0853 120.276 41.36C118.975 40.6133 117.94 39.5573 117.172 38.192C116.404 36.8053 116.02 35.1413 116.02 33.2C116.02 31.7707 116.244 30.4907 116.692 29.36C117.14 28.208 117.748 27.2373 118.516 26.448C119.284 25.6373 120.148 25.0187 121.108 24.592C122.068 24.1653 123.05 23.952 124.052 23.952C125.61 23.952 126.922 24.304 127.988 25.008C129.055 25.6907 129.866 26.6613 130.42 27.92C130.975 29.1573 131.252 30.608 131.252 32.272C131.252 32.6347 131.231 32.9867 131.188 33.328C131.167 33.648 131.124 33.9253 131.06 34.16H119.636C119.743 35.2693 120.031 36.2293 120.5 37.04C120.991 37.8293 121.62 38.448 122.388 38.896C123.178 39.3227 124.074 39.536 125.076 39.536C125.866 39.536 126.602 39.4187 127.284 39.184C127.967 38.9493 128.628 38.6293 129.268 38.224L130.548 40.56C129.738 41.0933 128.831 41.5413 127.828 41.904C126.847 42.2667 125.78 42.448 124.628 42.448ZM119.604 31.6H128.052C128.052 30.1067 127.711 28.944 127.028 28.112C126.367 27.28 125.396 26.864 124.116 26.864C123.391 26.864 122.708 27.0453 122.068 27.408C121.428 27.7707 120.884 28.304 120.436 29.008C120.01 29.712 119.732 30.576 119.604 31.6ZM140.161 42.448C138.967 42.448 137.772 42.2133 136.577 41.744C135.404 41.2747 134.391 40.688 133.537 39.984L135.297 37.584C136.065 38.2027 136.844 38.704 137.633 39.088C138.444 39.4507 139.319 39.632 140.257 39.632C141.303 39.632 142.071 39.408 142.561 38.96C143.073 38.4907 143.329 37.9253 143.329 37.264C143.329 36.7307 143.137 36.2827 142.753 35.92C142.391 35.5573 141.911 35.248 141.313 34.992C140.716 34.7147 140.097 34.4587 139.457 34.224C138.668 33.9253 137.889 33.5733 137.121 33.168C136.375 32.7413 135.756 32.208 135.265 31.568C134.775 30.9067 134.529 30.0853 134.529 29.104C134.529 28.1013 134.775 27.216 135.265 26.448C135.777 25.68 136.503 25.072 137.441 24.624C138.38 24.176 139.5 23.952 140.801 23.952C141.975 23.952 143.041 24.1547 144.001 24.56C144.983 24.9653 145.815 25.456 146.497 26.032L144.801 28.304C144.183 27.856 143.553 27.4933 142.913 27.216C142.273 26.9173 141.601 26.768 140.897 26.768C139.916 26.768 139.191 26.9813 138.721 27.408C138.252 27.8133 138.017 28.3253 138.017 28.944C138.017 29.4347 138.188 29.84 138.529 30.16C138.871 30.48 139.319 30.7573 139.873 30.992C140.449 31.2267 141.057 31.472 141.697 31.728C142.316 31.9413 142.924 32.1973 143.521 32.496C144.14 32.7733 144.695 33.1147 145.185 33.52C145.676 33.904 146.071 34.384 146.369 34.96C146.689 35.5147 146.849 36.208 146.849 37.04C146.849 38.0213 146.593 38.928 146.081 39.76C145.569 40.592 144.823 41.2533 143.841 41.744C142.86 42.2133 141.633 42.448 140.161 42.448ZM155.536 42.448C154.342 42.448 153.147 42.2133 151.952 41.744C150.779 41.2747 149.766 40.688 148.912 39.984L150.672 37.584C151.44 38.2027 152.219 38.704 153.008 39.088C153.819 39.4507 154.694 39.632 155.632 39.632C156.678 39.632 157.446 39.408 157.936 38.96C158.448 38.4907 158.704 37.9253 158.704 37.264C158.704 36.7307 158.512 36.2827 158.128 35.92C157.766 35.5573 157.286 35.248 156.688 34.992C156.091 34.7147 155.472 34.4587 154.832 34.224C154.043 33.9253 153.264 33.5733 152.496 33.168C151.75 32.7413 151.131 32.208 150.64 31.568C150.15 30.9067 149.904 30.0853 149.904 29.104C149.904 28.1013 150.15 27.216 150.64 26.448C151.152 25.68 151.878 25.072 152.816 24.624C153.755 24.176 154.875 23.952 156.176 23.952C157.35 23.952 158.416 24.1547 159.376 24.56C160.358 24.9653 161.19 25.456 161.872 26.032L160.176 28.304C159.558 27.856 158.928 27.4933 158.288 27.216C157.648 26.9173 156.976 26.768 156.272 26.768C155.291 26.768 154.566 26.9813 154.096 27.408C153.627 27.8133 153.392 28.3253 153.392 28.944C153.392 29.4347 153.563 29.84 153.904 30.16C154.246 30.48 154.694 30.7573 155.248 30.992C155.824 31.2267 156.432 31.472 157.072 31.728C157.691 31.9413 158.299 32.1973 158.896 32.496C159.515 32.7733 160.07 33.1147 160.56 33.52C161.051 33.904 161.446 34.384 161.744 34.96C162.064 35.5147 162.224 36.208 162.224 37.04C162.224 38.0213 161.968 38.928 161.456 39.76C160.944 40.592 160.198 41.2533 159.216 41.744C158.235 42.2133 157.008 42.448 155.536 42.448ZM180.371 42.448C178.75 42.448 177.214 42.1387 175.763 41.52C174.334 40.9013 173.075 40.048 171.987 38.96L174.163 36.4C175.016 37.232 175.987 37.904 177.075 38.416C178.184 38.928 179.315 39.184 180.467 39.184C181.875 39.184 182.952 38.8747 183.699 38.256C184.467 37.6373 184.851 36.8373 184.851 35.856C184.851 35.1307 184.691 34.5547 184.371 34.128C184.051 33.68 183.603 33.3067 183.027 33.008C182.472 32.7093 181.832 32.4 181.107 32.08L177.843 30.672C177.075 30.352 176.318 29.936 175.571 29.424C174.846 28.8907 174.238 28.2293 173.747 27.44C173.278 26.6293 173.043 25.648 173.043 24.496C173.043 23.2587 173.374 22.1493 174.035 21.168C174.696 20.1867 175.614 19.4187 176.787 18.864C177.96 18.288 179.294 18 180.787 18C182.174 18 183.486 18.2667 184.723 18.8C185.96 19.3333 187.016 20.0587 187.891 20.976L186.003 23.344C185.256 22.6827 184.456 22.1707 183.603 21.808C182.771 21.424 181.832 21.232 180.787 21.232C179.571 21.232 178.611 21.5093 177.907 22.064C177.203 22.5973 176.851 23.3227 176.851 24.24C176.851 24.9227 177.032 25.488 177.395 25.936C177.758 26.3627 178.227 26.7253 178.803 27.024C179.4 27.3013 180.008 27.568 180.627 27.824L183.859 29.2C184.798 29.584 185.63 30.0533 186.355 30.608C187.08 31.1627 187.646 31.8347 188.051 32.624C188.456 33.4133 188.659 34.3947 188.659 35.568C188.659 36.8267 188.328 37.9787 187.667 39.024C187.006 40.048 186.056 40.88 184.819 41.52C183.582 42.1387 182.099 42.448 180.371 42.448ZM197.688 42.448C196.366 42.448 195.31 42.192 194.52 41.68C193.752 41.1467 193.198 40.4213 192.856 39.504C192.515 38.5653 192.344 37.4773 192.344 36.24V27.344H189.784V24.592L192.536 24.368L192.952 19.504H196.024V24.368H200.6V27.344H196.024V36.272C196.024 37.3173 196.227 38.1173 196.632 38.672C197.038 39.2053 197.699 39.472 198.616 39.472C198.915 39.472 199.235 39.4293 199.576 39.344C199.918 39.2587 200.216 39.1627 200.472 39.056L201.144 41.776C200.675 41.9253 200.142 42.0747 199.544 42.224C198.968 42.3733 198.35 42.448 197.688 42.448ZM204.456 42V24.368H207.464L207.784 27.536H207.848C208.488 26.4053 209.245 25.5307 210.12 24.912C210.995 24.272 211.912 23.952 212.872 23.952C213.299 23.952 213.661 23.984 213.96 24.048C214.259 24.112 214.547 24.1973 214.824 24.304L214.184 27.536C213.864 27.4293 213.576 27.3547 213.32 27.312C213.064 27.2693 212.755 27.248 212.392 27.248C211.688 27.248 210.941 27.536 210.152 28.112C209.363 28.6667 208.691 29.648 208.136 31.056V42H204.456ZM220.678 42.448C219.676 42.448 218.78 42.2347 217.99 41.808C217.222 41.3813 216.614 40.784 216.166 40.016C215.718 39.248 215.494 38.352 215.494 37.328C215.494 35.4293 216.326 33.968 217.99 32.944C219.676 31.8987 222.353 31.1733 226.022 30.768C226.001 30.0853 225.894 29.456 225.702 28.88C225.51 28.304 225.169 27.8453 224.678 27.504C224.209 27.1413 223.537 26.96 222.662 26.96C221.745 26.96 220.86 27.1413 220.006 27.504C219.153 27.8667 218.342 28.2827 217.574 28.752L216.198 26.256C216.817 25.872 217.5 25.5093 218.246 25.168C218.993 24.8053 219.793 24.5173 220.646 24.304C221.5 24.0693 222.385 23.952 223.302 23.952C224.774 23.952 225.98 24.2507 226.918 24.848C227.857 25.424 228.55 26.2667 228.998 27.376C229.468 28.4853 229.702 29.8293 229.702 31.408V42H226.694L226.406 39.984H226.278C225.489 40.6667 224.625 41.2533 223.686 41.744C222.748 42.2133 221.745 42.448 220.678 42.448ZM221.798 39.504C222.566 39.504 223.281 39.3333 223.942 38.992C224.604 38.6293 225.297 38.1067 226.022 37.424V33.136C224.294 33.328 222.918 33.616 221.894 34C220.87 34.3627 220.134 34.8 219.686 35.312C219.26 35.8027 219.046 36.3787 219.046 37.04C219.046 37.9147 219.313 38.544 219.846 38.928C220.38 39.312 221.03 39.504 221.798 39.504ZM240.188 42.448C238.866 42.448 237.81 42.192 237.02 41.68C236.252 41.1467 235.698 40.4213 235.356 39.504C235.015 38.5653 234.844 37.4773 234.844 36.24V27.344H232.284V24.592L235.036 24.368L235.452 19.504H238.524V24.368H243.1V27.344H238.524V36.272C238.524 37.3173 238.727 38.1173 239.132 38.672C239.538 39.2053 240.199 39.472 241.116 39.472C241.415 39.472 241.735 39.4293 242.076 39.344C242.418 39.2587 242.716 39.1627 242.972 39.056L243.644 41.776C243.175 41.9253 242.642 42.0747 242.044 42.224C241.468 42.3733 240.85 42.448 240.188 42.448ZM253.66 42.448C252.06 42.448 250.609 42.0853 249.308 41.36C248.006 40.6133 246.972 39.5573 246.204 38.192C245.436 36.8053 245.052 35.1413 245.052 33.2C245.052 31.7707 245.276 30.4907 245.724 29.36C246.172 28.208 246.78 27.2373 247.548 26.448C248.316 25.6373 249.18 25.0187 250.14 24.592C251.1 24.1653 252.081 23.952 253.084 23.952C254.641 23.952 255.953 24.304 257.02 25.008C258.086 25.6907 258.897 26.6613 259.452 27.92C260.006 29.1573 260.284 30.608 260.284 32.272C260.284 32.6347 260.262 32.9867 260.22 33.328C260.198 33.648 260.156 33.9253 260.092 34.16H248.668C248.774 35.2693 249.062 36.2293 249.532 37.04C250.022 37.8293 250.652 38.448 251.42 38.896C252.209 39.3227 253.105 39.536 254.108 39.536C254.897 39.536 255.633 39.4187 256.316 39.184C256.998 38.9493 257.66 38.6293 258.3 38.224L259.58 40.56C258.769 41.0933 257.862 41.5413 256.86 41.904C255.878 42.2667 254.812 42.448 253.66 42.448ZM248.636 31.6H257.084C257.084 30.1067 256.742 28.944 256.06 28.112C255.398 27.28 254.428 26.864 253.148 26.864C252.422 26.864 251.74 27.0453 251.1 27.408C250.46 27.7707 249.916 28.304 249.468 29.008C249.041 29.712 248.764 30.576 248.636 31.6ZM269.973 49.904C268.565 49.904 267.306 49.7227 266.197 49.36C265.087 49.0187 264.213 48.5067 263.573 47.824C262.954 47.1413 262.645 46.288 262.645 45.264C262.645 44.5173 262.869 43.8133 263.317 43.152C263.765 42.4907 264.394 41.9147 265.205 41.424V41.296C264.757 40.9973 264.373 40.6133 264.053 40.144C263.754 39.6533 263.605 39.056 263.605 38.352C263.605 37.648 263.807 37.0187 264.213 36.464C264.639 35.888 265.098 35.4293 265.589 35.088V34.96C264.97 34.4907 264.426 33.8507 263.957 33.04C263.487 32.2293 263.253 31.3013 263.253 30.256C263.253 28.9333 263.562 27.8027 264.181 26.864C264.821 25.904 265.653 25.1787 266.677 24.688C267.722 24.1973 268.853 23.952 270.069 23.952C270.581 23.952 271.05 23.9947 271.477 24.08C271.925 24.144 272.309 24.24 272.629 24.368H278.869V27.152H275.541C275.861 27.5147 276.127 27.9733 276.341 28.528C276.554 29.0827 276.661 29.6907 276.661 30.352C276.661 31.632 276.362 32.7307 275.765 33.648C275.189 34.544 274.399 35.2373 273.397 35.728C272.394 36.1973 271.285 36.432 270.069 36.432C269.685 36.432 269.269 36.3893 268.821 36.304C268.394 36.1973 267.989 36.0693 267.605 35.92C267.327 36.1547 267.093 36.4107 266.901 36.688C266.73 36.9653 266.645 37.3173 266.645 37.744C266.645 38.256 266.847 38.672 267.253 38.992C267.679 39.312 268.458 39.472 269.589 39.472H272.853C274.922 39.472 276.49 39.8133 277.557 40.496C278.623 41.1573 279.157 42.2347 279.157 43.728C279.157 44.8587 278.783 45.8933 278.037 46.832C277.29 47.7707 276.223 48.5173 274.837 49.072C273.471 49.6267 271.85 49.904 269.973 49.904ZM270.069 34.032C270.666 34.032 271.221 33.8827 271.733 33.584C272.245 33.2853 272.65 32.8587 272.949 32.304C273.247 31.728 273.397 31.0453 273.397 30.256C273.397 29.4667 273.247 28.8053 272.949 28.272C272.65 27.7173 272.245 27.2907 271.733 26.992C271.242 26.6933 270.687 26.544 270.069 26.544C269.45 26.544 268.885 26.6933 268.373 26.992C267.882 27.2907 267.487 27.7173 267.189 28.272C266.89 28.8053 266.741 29.4667 266.741 30.256C266.741 31.0453 266.89 31.728 267.189 32.304C267.509 32.8587 267.914 33.2853 268.405 33.584C268.917 33.8827 269.471 34.032 270.069 34.032ZM270.485 47.472C271.53 47.472 272.426 47.3227 273.173 47.024C273.919 46.7253 274.506 46.3307 274.933 45.84C275.359 45.3707 275.573 44.8693 275.573 44.336C275.573 43.5893 275.295 43.0773 274.741 42.8C274.186 42.544 273.375 42.416 272.309 42.416H269.653C269.226 42.416 268.821 42.3947 268.437 42.352C268.053 42.3093 267.669 42.2453 267.285 42.16C266.773 42.544 266.399 42.96 266.165 43.408C265.93 43.856 265.813 44.2933 265.813 44.72C265.813 45.5733 266.229 46.2453 267.061 46.736C267.893 47.2267 269.034 47.472 270.485 47.472ZM283.569 49.36C283.1 49.36 282.684 49.328 282.321 49.264C281.98 49.2 281.649 49.1147 281.329 49.008L282.033 46.128C282.204 46.1707 282.406 46.224 282.641 46.288C282.876 46.352 283.11 46.384 283.345 46.384C284.305 46.384 285.073 46.064 285.649 45.424C286.225 44.8053 286.673 44.0267 286.993 43.088L287.377 41.872L280.401 24.368H284.145L287.377 33.456C287.654 34.2453 287.921 35.0667 288.177 35.92C288.454 36.752 288.732 37.584 289.009 38.416H289.169C289.382 37.6053 289.606 36.7733 289.841 35.92C290.076 35.0667 290.31 34.2453 290.545 33.456L293.393 24.368H296.945L290.481 43.056C290.033 44.3147 289.5 45.4133 288.881 46.352C288.284 47.312 287.558 48.048 286.705 48.56C285.852 49.0933 284.806 49.36 283.569 49.36ZM307.651 42V18.416H314.787C316.558 18.416 318.115 18.6507 319.459 19.12C320.803 19.568 321.859 20.3147 322.627 21.36C323.416 22.384 323.811 23.792 323.811 25.584C323.811 27.2907 323.427 28.6987 322.659 29.808C321.891 30.896 320.835 31.7173 319.491 32.272C318.168 32.8053 316.643 33.072 314.915 33.072H311.363V42H307.651ZM311.363 30.064H314.595C316.451 30.064 317.838 29.7013 318.755 28.976C319.672 28.2507 320.131 27.12 320.131 25.584C320.131 24.0053 319.651 22.9173 318.691 22.32C317.731 21.7227 316.312 21.424 314.435 21.424H311.363V30.064ZM328.081 42V24.368H331.089L331.409 27.536H331.473C332.113 26.4053 332.87 25.5307 333.745 24.912C334.62 24.272 335.537 23.952 336.497 23.952C336.924 23.952 337.286 23.984 337.585 24.048C337.884 24.112 338.172 24.1973 338.449 24.304L337.809 27.536C337.489 27.4293 337.201 27.3547 336.945 27.312C336.689 27.2693 336.38 27.248 336.017 27.248C335.313 27.248 334.566 27.536 333.777 28.112C332.988 28.6667 332.316 29.648 331.761 31.056V42H328.081ZM347.747 42.448C346.296 42.448 344.931 42.0853 343.651 41.36C342.392 40.6133 341.368 39.5573 340.579 38.192C339.811 36.8053 339.427 35.1413 339.427 33.2C339.427 31.2373 339.811 29.5733 340.579 28.208C341.368 26.8213 342.392 25.7653 343.651 25.04C344.931 24.3147 346.296 23.952 347.747 23.952C348.813 23.952 349.848 24.1653 350.851 24.592C351.853 24.9973 352.739 25.5947 353.507 26.384C354.275 27.1733 354.883 28.144 355.331 29.296C355.779 30.4267 356.003 31.728 356.003 33.2C356.003 35.1413 355.608 36.8053 354.819 38.192C354.051 39.5573 353.037 40.6133 351.779 41.36C350.541 42.0853 349.197 42.448 347.747 42.448ZM347.747 39.376C348.664 39.376 349.453 39.12 350.115 38.608C350.797 38.096 351.32 37.3813 351.683 36.464C352.045 35.5253 352.227 34.4373 352.227 33.2C352.227 31.9627 352.045 30.8853 351.683 29.968C351.32 29.0293 350.797 28.304 350.115 27.792C349.453 27.2587 348.664 26.992 347.747 26.992C346.808 26.992 345.997 27.2587 345.315 27.792C344.653 28.304 344.141 29.0293 343.779 29.968C343.416 30.8853 343.235 31.9627 343.235 33.2C343.235 34.4373 343.416 35.5253 343.779 36.464C344.141 37.3813 344.653 38.096 345.315 38.608C345.997 39.12 346.808 39.376 347.747 39.376ZM360.362 49.136V24.368H363.37L363.69 26.32H363.754C364.543 25.68 365.397 25.1253 366.314 24.656C367.231 24.1867 368.191 23.952 369.194 23.952C370.666 23.952 371.925 24.3253 372.97 25.072C374.015 25.8187 374.805 26.864 375.338 28.208C375.871 29.5307 376.138 31.0987 376.138 32.912C376.138 34.9173 375.775 36.6347 375.05 38.064C374.346 39.4933 373.418 40.5813 372.266 41.328C371.114 42.0747 369.877 42.448 368.554 42.448C367.786 42.448 367.007 42.2773 366.218 41.936C365.429 41.5733 364.671 41.072 363.946 40.432L364.042 43.44V49.136H360.362ZM367.85 39.344C368.703 39.344 369.461 39.0987 370.122 38.608C370.805 38.1173 371.338 37.4027 371.722 36.464C372.127 35.504 372.33 34.3413 372.33 32.976C372.33 31.7387 372.181 30.6827 371.882 29.808C371.605 28.912 371.167 28.2293 370.57 27.76C369.973 27.2693 369.183 27.024 368.202 27.024C367.519 27.024 366.837 27.2053 366.154 27.568C365.493 27.9093 364.789 28.4427 364.042 29.168V37.776C364.725 38.352 365.397 38.7573 366.058 38.992C366.719 39.2267 367.317 39.344 367.85 39.344ZM387.59 42.448C386.14 42.448 384.774 42.0853 383.494 41.36C382.236 40.6133 381.212 39.5573 380.422 38.192C379.654 36.8053 379.27 35.1413 379.27 33.2C379.27 31.2373 379.654 29.5733 380.422 28.208C381.212 26.8213 382.236 25.7653 383.494 25.04C384.774 24.3147 386.14 23.952 387.59 23.952C388.657 23.952 389.692 24.1653 390.694 24.592C391.697 24.9973 392.582 25.5947 393.35 26.384C394.118 27.1733 394.726 28.144 395.174 29.296C395.622 30.4267 395.846 31.728 395.846 33.2C395.846 35.1413 395.452 36.8053 394.662 38.192C393.894 39.5573 392.881 40.6133 391.622 41.36C390.385 42.0853 389.041 42.448 387.59 42.448ZM387.59 39.376C388.508 39.376 389.297 39.12 389.958 38.608C390.641 38.096 391.164 37.3813 391.526 36.464C391.889 35.5253 392.07 34.4373 392.07 33.2C392.07 31.9627 391.889 30.8853 391.526 29.968C391.164 29.0293 390.641 28.304 389.958 27.792C389.297 27.2587 388.508 26.992 387.59 26.992C386.652 26.992 385.841 27.2587 385.158 27.792C384.497 28.304 383.985 29.0293 383.622 29.968C383.26 30.8853 383.078 31.9627 383.078 33.2C383.078 34.4373 383.26 35.5253 383.622 36.464C383.985 37.3813 384.497 38.096 385.158 38.608C385.841 39.12 386.652 39.376 387.59 39.376ZM404.755 42.448C403.56 42.448 402.366 42.2133 401.171 41.744C399.998 41.2747 398.984 40.688 398.131 39.984L399.891 37.584C400.659 38.2027 401.438 38.704 402.227 39.088C403.038 39.4507 403.912 39.632 404.851 39.632C405.896 39.632 406.664 39.408 407.155 38.96C407.667 38.4907 407.923 37.9253 407.923 37.264C407.923 36.7307 407.731 36.2827 407.347 35.92C406.984 35.5573 406.504 35.248 405.907 34.992C405.31 34.7147 404.691 34.4587 404.051 34.224C403.262 33.9253 402.483 33.5733 401.715 33.168C400.968 32.7413 400.35 32.208 399.859 31.568C399.368 30.9067 399.123 30.0853 399.123 29.104C399.123 28.1013 399.368 27.216 399.859 26.448C400.371 25.68 401.096 25.072 402.035 24.624C402.974 24.176 404.094 23.952 405.395 23.952C406.568 23.952 407.635 24.1547 408.595 24.56C409.576 24.9653 410.408 25.456 411.091 26.032L409.395 28.304C408.776 27.856 408.147 27.4933 407.507 27.216C406.867 26.9173 406.195 26.768 405.491 26.768C404.51 26.768 403.784 26.9813 403.315 27.408C402.846 27.8133 402.611 28.3253 402.611 28.944C402.611 29.4347 402.782 29.84 403.123 30.16C403.464 30.48 403.912 30.7573 404.467 30.992C405.043 31.2267 405.651 31.472 406.291 31.728C406.91 31.9413 407.518 32.1973 408.115 32.496C408.734 32.7733 409.288 33.1147 409.779 33.52C410.27 33.904 410.664 34.384 410.963 34.96C411.283 35.5147 411.443 36.208 411.443 37.04C411.443 38.0213 411.187 38.928 410.675 39.76C410.163 40.592 409.416 41.2533 408.435 41.744C407.454 42.2133 406.227 42.448 404.755 42.448ZM419.522 42.448C418.519 42.448 417.623 42.2347 416.834 41.808C416.066 41.3813 415.458 40.784 415.01 40.016C414.562 39.248 414.338 38.352 414.338 37.328C414.338 35.4293 415.17 33.968 416.834 32.944C418.519 31.8987 421.197 31.1733 424.866 30.768C424.845 30.0853 424.738 29.456 424.546 28.88C424.354 28.304 424.013 27.8453 423.522 27.504C423.053 27.1413 422.381 26.96 421.506 26.96C420.589 26.96 419.703 27.1413 418.85 27.504C417.997 27.8667 417.186 28.2827 416.418 28.752L415.042 26.256C415.661 25.872 416.343 25.5093 417.09 25.168C417.837 24.8053 418.637 24.5173 419.49 24.304C420.343 24.0693 421.229 23.952 422.146 23.952C423.618 23.952 424.823 24.2507 425.762 24.848C426.701 25.424 427.394 26.2667 427.842 27.376C428.311 28.4853 428.546 29.8293 428.546 31.408V42H425.538L425.25 39.984H425.122C424.333 40.6667 423.469 41.2533 422.53 41.744C421.591 42.2133 420.589 42.448 419.522 42.448ZM420.642 39.504C421.41 39.504 422.125 39.3333 422.786 38.992C423.447 38.6293 424.141 38.1067 424.866 37.424V33.136C423.138 33.328 421.762 33.616 420.738 34C419.714 34.3627 418.978 34.8 418.53 35.312C418.103 35.8027 417.89 36.3787 417.89 37.04C417.89 37.9147 418.157 38.544 418.69 38.928C419.223 39.312 419.874 39.504 420.642 39.504ZM437.416 42.448C436.52 42.448 435.806 42.2667 435.272 41.904C434.739 41.52 434.355 40.9867 434.12 40.304C433.886 39.6 433.768 38.7787 433.768 37.84V16.496H437.448V38.032C437.448 38.5227 437.534 38.8747 437.704 39.088C437.896 39.28 438.099 39.376 438.312 39.376C438.398 39.376 438.483 39.376 438.568 39.376C438.654 39.3547 438.782 39.3333 438.952 39.312L439.4 42.096C439.187 42.1813 438.92 42.256 438.6 42.32C438.28 42.4053 437.886 42.448 437.416 42.448Z" fill="white"/>
</svg>
