<svg width="565" height="58" viewBox="0 0 565 58" fill="none" xmlns="http://www.w3.org/2000/svg">
<path d="M26.0122 25.2047C25.0778 25.2047 24.2028 25.5672 23.5403 26.2297C22.881 26.8922 22.5153 27.7672 22.5153 28.7016C22.5153 29.6359 22.881 30.5109 23.5403 31.1734C24.2028 31.8328 25.0778 32.1984 26.0122 32.1984C26.9466 32.1984 27.8216 31.8328 28.4841 31.1734C29.1435 30.5109 29.5091 29.6359 29.5091 28.7016C29.5091 27.7672 29.1435 26.8922 28.4841 26.2297C28.1605 25.9036 27.7754 25.6451 27.351 25.4691C26.9267 25.2932 26.4716 25.2033 26.0122 25.2047ZM38.8966 32.5641L36.8528 30.8172C36.9497 30.2234 36.9997 29.6172 36.9997 29.0141C36.9997 28.4109 36.9497 27.8016 36.8528 27.2109L38.8966 25.4641C39.051 25.3319 39.1615 25.1559 39.2134 24.9594C39.2653 24.7629 39.2562 24.5552 39.1872 24.3641L39.1591 24.2828C38.5966 22.71 37.7539 21.252 36.6716 19.9797L36.6153 19.9141C36.4839 19.7595 36.3088 19.6485 36.113 19.5955C35.9172 19.5425 35.7099 19.55 35.5185 19.6172L32.981 20.5203C32.0435 19.7516 30.9997 19.1453 29.8685 18.7234L29.3778 16.0703C29.3408 15.8704 29.2439 15.6866 29.0999 15.5431C28.9559 15.3997 28.7716 15.3034 28.5716 15.2672L28.4872 15.2516C26.8622 14.9578 25.1497 14.9578 23.5247 15.2516L23.4403 15.2672C23.2403 15.3034 23.0561 15.3997 22.9121 15.5431C22.7681 15.6866 22.6711 15.8704 22.6341 16.0703L22.1403 18.7359C21.0198 19.1612 19.9759 19.7659 19.0497 20.5266L16.4935 19.6172C16.3021 19.5495 16.0947 19.5417 15.8988 19.5947C15.7028 19.6477 15.5277 19.7591 15.3966 19.9141L15.3403 19.9797C14.26 21.2534 13.4174 22.711 12.8528 24.2828L12.8247 24.3641C12.6841 24.7547 12.7997 25.1922 13.1153 25.4641L15.1841 27.2297C15.0872 27.8172 15.0403 28.4172 15.0403 29.0109C15.0403 29.6109 15.0872 30.2109 15.1841 30.7922L13.1216 32.5578C12.9672 32.69 12.8567 32.866 12.8048 33.0625C12.7529 33.259 12.762 33.4666 12.831 33.6578L12.8591 33.7391C13.4247 35.3109 14.2591 36.7641 15.3466 38.0422L15.4028 38.1078C15.5343 38.2623 15.7094 38.3734 15.9052 38.4264C16.101 38.4794 16.3083 38.4718 16.4997 38.4047L19.056 37.4953C19.9872 38.2609 21.0247 38.8672 22.1466 39.2859L22.6403 41.9516C22.6774 42.1514 22.7743 42.3353 22.9183 42.4788C23.0623 42.6222 23.2466 42.7184 23.4466 42.7547L23.531 42.7703C25.172 43.0656 26.8525 43.0656 28.4935 42.7703L28.5778 42.7547C28.7779 42.7184 28.9621 42.6222 29.1061 42.4788C29.2501 42.3353 29.3471 42.1514 29.3841 41.9516L29.8747 39.2984C31.006 38.8734 32.0497 38.2703 32.9872 37.5016L35.5247 38.4047C35.7161 38.4724 35.9235 38.4802 36.1194 38.4272C36.3153 38.3742 36.4905 38.2628 36.6216 38.1078L36.6778 38.0422C37.7653 36.7578 38.5997 35.3109 39.1653 33.7391L39.1935 33.6578C39.3278 33.2703 39.2122 32.8359 38.8966 32.5641ZM26.0122 34.1953C22.9778 34.1953 20.5185 31.7359 20.5185 28.7016C20.5185 25.6672 22.9778 23.2078 26.0122 23.2078C29.0466 23.2078 31.506 25.6672 31.506 28.7016C31.506 31.7359 29.0466 34.1953 26.0122 34.1953Z" fill="#7244ED"/>
<circle cx="26.0022" cy="28.9983" r="5.76" fill="white"/>
<path d="M55.5438 42L56.4078 34.832H53.5918V32.368H56.6958L57.3038 27.472H54.3278V24.976H57.6238L58.4238 18.608H60.6958L59.8958 24.976H64.3438L65.1438 18.608H67.4158L66.6478 24.976H69.5278V27.472H66.3598L65.7198 32.368H68.7917V34.832H65.4318L64.5678 42H62.2638L63.1278 34.832H58.7118L57.8158 42H55.5438ZM58.9678 32.368H63.4158L64.0238 27.472H59.5758L58.9678 32.368ZM73.6978 42V18.416H87.6498V21.552H77.4098V28.752H86.1458V31.856H77.4098V42H73.6978ZM95.968 42.448C94.0907 42.448 92.7147 41.84 91.84 40.624C90.9653 39.408 90.528 37.6907 90.528 35.472V24.368H94.24V35.024C94.24 36.5173 94.4747 37.5947 94.944 38.256C95.4133 38.9173 96.16 39.248 97.184 39.248C97.9947 39.248 98.72 39.0453 99.36 38.64C100 38.2133 100.683 37.5413 101.408 36.624V24.368H105.12V42H102.08L101.792 39.344H101.696C100.885 40.2613 100.032 41.008 99.136 41.584C98.24 42.16 97.184 42.448 95.968 42.448ZM110.628 42V24.368H113.636L113.956 26.832H114.02C114.83 26.0427 115.705 25.3707 116.644 24.816C117.582 24.24 118.649 23.952 119.844 23.952C121.721 23.952 123.086 24.56 123.94 25.776C124.814 26.9707 125.252 28.688 125.252 30.928V42H121.572V31.376C121.572 29.8613 121.337 28.784 120.868 28.144C120.398 27.4827 119.641 27.152 118.596 27.152C117.785 27.152 117.06 27.3547 116.42 27.76C115.801 28.144 115.097 28.7307 114.308 29.52V42H110.628ZM137.765 42.448C136.165 42.448 134.735 42.0853 133.477 41.36C132.218 40.6133 131.215 39.5573 130.469 38.192C129.722 36.8053 129.349 35.1413 129.349 33.2C129.349 31.2373 129.754 29.5733 130.565 28.208C131.375 26.8213 132.442 25.7653 133.765 25.04C135.087 24.3147 136.517 23.952 138.053 23.952C139.183 23.952 140.165 24.144 140.997 24.528C141.829 24.912 142.565 25.392 143.205 25.968L141.381 28.368C140.911 27.9413 140.421 27.6107 139.909 27.376C139.397 27.12 138.842 26.992 138.245 26.992C137.263 26.992 136.389 27.2587 135.621 27.792C134.853 28.304 134.245 29.0293 133.797 29.968C133.37 30.8853 133.157 31.9627 133.157 33.2C133.157 34.4373 133.37 35.5253 133.797 36.464C134.223 37.3813 134.81 38.096 135.557 38.608C136.303 39.12 137.157 39.376 138.117 39.376C138.863 39.376 139.557 39.2267 140.197 38.928C140.837 38.608 141.423 38.224 141.957 37.776L143.493 40.24C142.682 40.9653 141.775 41.52 140.773 41.904C139.77 42.2667 138.767 42.448 137.765 42.448ZM152.548 42.448C151.225 42.448 150.169 42.192 149.38 41.68C148.612 41.1467 148.057 40.4213 147.716 39.504C147.374 38.5653 147.204 37.4773 147.204 36.24V27.344H144.644V24.592L147.396 24.368L147.812 19.504H150.884V24.368H155.46V27.344H150.884V36.272C150.884 37.3173 151.086 38.1173 151.492 38.672C151.897 39.2053 152.558 39.472 153.476 39.472C153.774 39.472 154.094 39.4293 154.436 39.344C154.777 39.2587 155.076 39.1627 155.332 39.056L156.004 41.776C155.534 41.9253 155.001 42.0747 154.404 42.224C153.828 42.3733 153.209 42.448 152.548 42.448ZM159.315 42V24.368H162.995V42H159.315ZM161.171 21.104C160.467 21.104 159.902 20.9013 159.475 20.496C159.07 20.0907 158.867 19.5467 158.867 18.864C158.867 18.224 159.07 17.7013 159.475 17.296C159.902 16.8907 160.467 16.688 161.171 16.688C161.833 16.688 162.377 16.8907 162.803 17.296C163.23 17.7013 163.443 18.224 163.443 18.864C163.443 19.5467 163.23 20.0907 162.803 20.496C162.377 20.9013 161.833 21.104 161.171 21.104ZM175.606 42.448C174.155 42.448 172.79 42.0853 171.51 41.36C170.251 40.6133 169.227 39.5573 168.438 38.192C167.67 36.8053 167.286 35.1413 167.286 33.2C167.286 31.2373 167.67 29.5733 168.438 28.208C169.227 26.8213 170.251 25.7653 171.51 25.04C172.79 24.3147 174.155 23.952 175.606 23.952C176.673 23.952 177.707 24.1653 178.71 24.592C179.713 24.9973 180.598 25.5947 181.366 26.384C182.134 27.1733 182.742 28.144 183.19 29.296C183.638 30.4267 183.862 31.728 183.862 33.2C183.862 35.1413 183.467 36.8053 182.678 38.192C181.91 39.5573 180.897 40.6133 179.638 41.36C178.401 42.0853 177.057 42.448 175.606 42.448ZM175.606 39.376C176.523 39.376 177.313 39.12 177.974 38.608C178.657 38.096 179.179 37.3813 179.542 36.464C179.905 35.5253 180.086 34.4373 180.086 33.2C180.086 31.9627 179.905 30.8853 179.542 29.968C179.179 29.0293 178.657 28.304 177.974 27.792C177.313 27.2587 176.523 26.992 175.606 26.992C174.667 26.992 173.857 27.2587 173.174 27.792C172.513 28.304 172.001 29.0293 171.638 29.968C171.275 30.8853 171.094 31.9627 171.094 33.2C171.094 34.4373 171.275 35.5253 171.638 36.464C172.001 37.3813 172.513 38.096 173.174 38.608C173.857 39.12 174.667 39.376 175.606 39.376ZM188.222 42V24.368H191.23L191.55 26.832H191.614C192.424 26.0427 193.299 25.3707 194.238 24.816C195.176 24.24 196.243 23.952 197.438 23.952C199.315 23.952 200.68 24.56 201.534 25.776C202.408 26.9707 202.846 28.688 202.846 30.928V42H199.166V31.376C199.166 29.8613 198.931 28.784 198.462 28.144C197.992 27.4827 197.235 27.152 196.19 27.152C195.379 27.152 194.654 27.3547 194.014 27.76C193.395 28.144 192.691 28.7307 191.902 29.52V42H188.222ZM224.658 42.448C222.652 42.448 220.871 41.9467 219.314 40.944C217.778 39.9413 216.572 38.5227 215.698 36.688C214.823 34.832 214.386 32.6453 214.386 30.128C214.386 27.5893 214.823 25.424 215.698 23.632C216.572 21.8187 217.778 20.432 219.314 19.472C220.871 18.4907 222.652 18 224.658 18C226.684 18 228.466 18.4907 230.002 19.472C231.538 20.432 232.743 21.8187 233.618 23.632C234.492 25.424 234.93 27.5893 234.93 30.128C234.93 32.6453 234.492 34.832 233.618 36.688C232.743 38.5227 231.538 39.9413 230.002 40.944C228.466 41.9467 226.684 42.448 224.658 42.448ZM224.658 39.184C225.959 39.184 227.09 38.8107 228.05 38.064C229.031 37.3173 229.788 36.272 230.322 34.928C230.855 33.5627 231.122 31.9627 231.122 30.128C231.122 28.2933 230.855 26.7147 230.322 25.392C229.788 24.048 229.031 23.024 228.05 22.32C227.09 21.5947 225.959 21.232 224.658 21.232C223.356 21.232 222.215 21.5947 221.234 22.32C220.274 23.024 219.527 24.048 218.994 25.392C218.482 26.7147 218.226 28.2933 218.226 30.128C218.226 31.9627 218.482 33.5627 218.994 34.928C219.527 36.272 220.274 37.3173 221.234 38.064C222.215 38.8107 223.356 39.184 224.658 39.184ZM239.503 49.136V24.368H242.511L242.831 26.32H242.895C243.684 25.68 244.537 25.1253 245.455 24.656C246.372 24.1867 247.332 23.952 248.335 23.952C249.807 23.952 251.065 24.3253 252.111 25.072C253.156 25.8187 253.945 26.864 254.479 28.208C255.012 29.5307 255.279 31.0987 255.279 32.912C255.279 34.9173 254.916 36.6347 254.191 38.064C253.487 39.4933 252.559 40.5813 251.407 41.328C250.255 42.0747 249.017 42.448 247.695 42.448C246.927 42.448 246.148 42.2773 245.359 41.936C244.569 41.5733 243.812 41.072 243.087 40.432L243.183 43.44V49.136H239.503ZM246.991 39.344C247.844 39.344 248.601 39.0987 249.263 38.608C249.945 38.1173 250.479 37.4027 250.863 36.464C251.268 35.504 251.471 34.3413 251.471 32.976C251.471 31.7387 251.321 30.6827 251.023 29.808C250.745 28.912 250.308 28.2293 249.711 27.76C249.113 27.2693 248.324 27.024 247.343 27.024C246.66 27.024 245.977 27.2053 245.295 27.568C244.633 27.9093 243.929 28.4427 243.183 29.168V37.776C243.865 38.352 244.537 38.7573 245.199 38.992C245.86 39.2267 246.457 39.344 246.991 39.344ZM264.735 42.448C263.413 42.448 262.357 42.192 261.567 41.68C260.799 41.1467 260.245 40.4213 259.903 39.504C259.562 38.5653 259.391 37.4773 259.391 36.24V27.344H256.831V24.592L259.583 24.368L259.999 19.504H263.071V24.368H267.647V27.344H263.071V36.272C263.071 37.3173 263.274 38.1173 263.679 38.672C264.085 39.2053 264.746 39.472 265.663 39.472C265.962 39.472 266.282 39.4293 266.623 39.344C266.965 39.2587 267.263 39.1627 267.519 39.056L268.191 41.776C267.722 41.9253 267.189 42.0747 266.591 42.224C266.015 42.3733 265.397 42.448 264.735 42.448ZM271.503 42V24.368H275.183V42H271.503ZM273.359 21.104C272.655 21.104 272.089 20.9013 271.663 20.496C271.257 20.0907 271.055 19.5467 271.055 18.864C271.055 18.224 271.257 17.7013 271.663 17.296C272.089 16.8907 272.655 16.688 273.359 16.688C274.02 16.688 274.564 16.8907 274.991 17.296C275.417 17.7013 275.631 18.224 275.631 18.864C275.631 19.5467 275.417 20.0907 274.991 20.496C274.564 20.9013 274.02 21.104 273.359 21.104ZM280.722 42V24.368H283.73L284.05 26.864H284.114C284.882 26.0533 285.703 25.3707 286.578 24.816C287.474 24.24 288.476 23.952 289.586 23.952C290.887 23.952 291.922 24.24 292.69 24.816C293.458 25.3707 294.034 26.16 294.418 27.184C295.292 26.2453 296.188 25.4773 297.106 24.88C298.044 24.2613 299.058 23.952 300.146 23.952C301.98 23.952 303.335 24.56 304.21 25.776C305.106 26.9707 305.554 28.688 305.554 30.928V42H301.842V31.376C301.842 29.8613 301.607 28.784 301.138 28.144C300.668 27.4827 299.932 27.152 298.93 27.152C298.332 27.152 297.703 27.344 297.042 27.728C296.402 28.112 295.708 28.7093 294.962 29.52V42H291.282V31.376C291.282 29.8613 291.047 28.784 290.578 28.144C290.108 27.4827 289.362 27.152 288.338 27.152C287.762 27.152 287.143 27.344 286.482 27.728C285.82 28.112 285.127 28.7093 284.402 29.52V42H280.722ZM310.909 42V24.368H314.589V42H310.909ZM312.765 21.104C312.061 21.104 311.496 20.9013 311.069 20.496C310.664 20.0907 310.461 19.5467 310.461 18.864C310.461 18.224 310.664 17.7013 311.069 17.296C311.496 16.8907 312.061 16.688 312.765 16.688C313.426 16.688 313.97 16.8907 314.397 17.296C314.824 17.7013 315.037 18.224 315.037 18.864C315.037 19.5467 314.824 20.0907 314.397 20.496C313.97 20.9013 313.426 21.104 312.765 21.104ZM318.528 42V40.016L327.2 27.344H319.488V24.368H331.84V26.352L323.168 39.056H332.16V42H318.528ZM339.132 42.448C338.129 42.448 337.233 42.2347 336.444 41.808C335.676 41.3813 335.068 40.784 334.62 40.016C334.172 39.248 333.948 38.352 333.948 37.328C333.948 35.4293 334.78 33.968 336.444 32.944C338.129 31.8987 340.806 31.1733 344.476 30.768C344.454 30.0853 344.348 29.456 344.156 28.88C343.964 28.304 343.622 27.8453 343.132 27.504C342.662 27.1413 341.99 26.96 341.116 26.96C340.198 26.96 339.313 27.1413 338.46 27.504C337.606 27.8667 336.796 28.2827 336.028 28.752L334.652 26.256C335.27 25.872 335.953 25.5093 336.7 25.168C337.446 24.8053 338.246 24.5173 339.1 24.304C339.953 24.0693 340.838 23.952 341.756 23.952C343.228 23.952 344.433 24.2507 345.372 24.848C346.31 25.424 347.004 26.2667 347.452 27.376C347.921 28.4853 348.156 29.8293 348.156 31.408V42H345.148L344.86 39.984H344.732C343.942 40.6667 343.078 41.2533 342.14 41.744C341.201 42.2133 340.198 42.448 339.132 42.448ZM340.252 39.504C341.02 39.504 341.734 39.3333 342.396 38.992C343.057 38.6293 343.75 38.1067 344.476 37.424V33.136C342.748 33.328 341.372 33.616 340.348 34C339.324 34.3627 338.588 34.8 338.14 35.312C337.713 35.8027 337.5 36.3787 337.5 37.04C337.5 37.9147 337.766 38.544 338.3 38.928C338.833 39.312 339.484 39.504 340.252 39.504ZM358.642 42.448C357.319 42.448 356.263 42.192 355.474 41.68C354.706 41.1467 354.151 40.4213 353.81 39.504C353.468 38.5653 353.298 37.4773 353.298 36.24V27.344H350.738V24.592L353.49 24.368L353.906 19.504H356.978V24.368H361.554V27.344H356.978V36.272C356.978 37.3173 357.18 38.1173 357.586 38.672C357.991 39.2053 358.652 39.472 359.57 39.472C359.868 39.472 360.188 39.4293 360.53 39.344C360.871 39.2587 361.17 39.1627 361.426 39.056L362.098 41.776C361.628 41.9253 361.095 42.0747 360.498 42.224C359.922 42.3733 359.303 42.448 358.642 42.448ZM365.409 42V24.368H369.089V42H365.409ZM367.265 21.104C366.561 21.104 365.996 20.9013 365.569 20.496C365.164 20.0907 364.961 19.5467 364.961 18.864C364.961 18.224 365.164 17.7013 365.569 17.296C365.996 16.8907 366.561 16.688 367.265 16.688C367.926 16.688 368.47 16.8907 368.897 17.296C369.324 17.7013 369.537 18.224 369.537 18.864C369.537 19.5467 369.324 20.0907 368.897 20.496C368.47 20.9013 367.926 21.104 367.265 21.104ZM381.7 42.448C380.249 42.448 378.884 42.0853 377.604 41.36C376.345 40.6133 375.321 39.5573 374.532 38.192C373.764 36.8053 373.38 35.1413 373.38 33.2C373.38 31.2373 373.764 29.5733 374.532 28.208C375.321 26.8213 376.345 25.7653 377.604 25.04C378.884 24.3147 380.249 23.952 381.7 23.952C382.766 23.952 383.801 24.1653 384.804 24.592C385.806 24.9973 386.692 25.5947 387.46 26.384C388.228 27.1733 388.836 28.144 389.284 29.296C389.732 30.4267 389.956 31.728 389.956 33.2C389.956 35.1413 389.561 36.8053 388.772 38.192C388.004 39.5573 386.99 40.6133 385.732 41.36C384.494 42.0853 383.15 42.448 381.7 42.448ZM381.7 39.376C382.617 39.376 383.406 39.12 384.068 38.608C384.75 38.096 385.273 37.3813 385.636 36.464C385.998 35.5253 386.18 34.4373 386.18 33.2C386.18 31.9627 385.998 30.8853 385.636 29.968C385.273 29.0293 384.75 28.304 384.068 27.792C383.406 27.2587 382.617 26.992 381.7 26.992C380.761 26.992 379.95 27.2587 379.268 27.792C378.606 28.304 378.094 29.0293 377.732 29.968C377.369 30.8853 377.188 31.9627 377.188 33.2C377.188 34.4373 377.369 35.5253 377.732 36.464C378.094 37.3813 378.606 38.096 379.268 38.608C379.95 39.12 380.761 39.376 381.7 39.376ZM394.315 42V24.368H397.323L397.643 26.832H397.707C398.518 26.0427 399.393 25.3707 400.331 24.816C401.27 24.24 402.337 23.952 403.531 23.952C405.409 23.952 406.774 24.56 407.627 25.776C408.502 26.9707 408.939 28.688 408.939 30.928V42H405.259V31.376C405.259 29.8613 405.025 28.784 404.555 28.144C404.086 27.4827 403.329 27.152 402.283 27.152C401.473 27.152 400.747 27.3547 400.107 27.76C399.489 28.144 398.785 28.7307 397.995 29.52V42H394.315ZM421.792 42V18.416H428.928C430.698 18.416 432.256 18.6507 433.6 19.12C434.944 19.568 436 20.3147 436.767 21.36C437.557 22.384 437.952 23.792 437.952 25.584C437.952 27.2907 437.568 28.6987 436.8 29.808C436.032 30.896 434.976 31.7173 433.632 32.272C432.309 32.8053 430.784 33.072 429.056 33.072H425.504V42H421.792ZM425.504 30.064H428.736C430.592 30.064 431.978 29.7013 432.896 28.976C433.813 28.2507 434.272 27.12 434.272 25.584C434.272 24.0053 433.792 22.9173 432.832 22.32C431.872 21.7227 430.453 21.424 428.576 21.424H425.504V30.064ZM442.222 42V24.368H445.23L445.55 27.536H445.614C446.254 26.4053 447.011 25.5307 447.885 24.912C448.76 24.272 449.678 23.952 450.638 23.952C451.064 23.952 451.427 23.984 451.726 24.048C452.024 24.112 452.312 24.1973 452.59 24.304L451.95 27.536C451.63 27.4293 451.342 27.3547 451.086 27.312C450.83 27.2693 450.52 27.248 450.158 27.248C449.454 27.248 448.707 27.536 447.918 28.112C447.128 28.6667 446.456 29.648 445.902 31.056V42H442.222ZM461.887 42.448C460.437 42.448 459.071 42.0853 457.791 41.36C456.533 40.6133 455.509 39.5573 454.719 38.192C453.951 36.8053 453.567 35.1413 453.567 33.2C453.567 31.2373 453.951 29.5733 454.719 28.208C455.509 26.8213 456.533 25.7653 457.791 25.04C459.071 24.3147 460.437 23.952 461.887 23.952C462.954 23.952 463.989 24.1653 464.991 24.592C465.994 24.9973 466.879 25.5947 467.647 26.384C468.415 27.1733 469.023 28.144 469.471 29.296C469.919 30.4267 470.143 31.728 470.143 33.2C470.143 35.1413 469.749 36.8053 468.959 38.192C468.191 39.5573 467.178 40.6133 465.919 41.36C464.682 42.0853 463.338 42.448 461.887 42.448ZM461.887 39.376C462.805 39.376 463.594 39.12 464.255 38.608C464.938 38.096 465.461 37.3813 465.823 36.464C466.186 35.5253 466.367 34.4373 466.367 33.2C466.367 31.9627 466.186 30.8853 465.823 29.968C465.461 29.0293 464.938 28.304 464.255 27.792C463.594 27.2587 462.805 26.992 461.887 26.992C460.949 26.992 460.138 27.2587 459.455 27.792C458.794 28.304 458.282 29.0293 457.919 29.968C457.557 30.8853 457.375 31.9627 457.375 33.2C457.375 34.4373 457.557 35.5253 457.919 36.464C458.282 37.3813 458.794 38.096 459.455 38.608C460.138 39.12 460.949 39.376 461.887 39.376ZM474.503 49.136V24.368H477.511L477.831 26.32H477.895C478.684 25.68 479.537 25.1253 480.455 24.656C481.372 24.1867 482.332 23.952 483.335 23.952C484.807 23.952 486.065 24.3253 487.111 25.072C488.156 25.8187 488.945 26.864 489.479 28.208C490.012 29.5307 490.279 31.0987 490.279 32.912C490.279 34.9173 489.916 36.6347 489.191 38.064C488.487 39.4933 487.559 40.5813 486.407 41.328C485.255 42.0747 484.017 42.448 482.695 42.448C481.927 42.448 481.148 42.2773 480.359 41.936C479.569 41.5733 478.812 41.072 478.087 40.432L478.183 43.44V49.136H474.503ZM481.991 39.344C482.844 39.344 483.601 39.0987 484.263 38.608C484.945 38.1173 485.479 37.4027 485.863 36.464C486.268 35.504 486.471 34.3413 486.471 32.976C486.471 31.7387 486.321 30.6827 486.023 29.808C485.745 28.912 485.308 28.2293 484.711 27.76C484.113 27.2693 483.324 27.024 482.343 27.024C481.66 27.024 480.977 27.2053 480.295 27.568C479.633 27.9093 478.929 28.4427 478.183 29.168V37.776C478.865 38.352 479.537 38.7573 480.199 38.992C480.86 39.2267 481.457 39.344 481.991 39.344ZM501.731 42.448C500.28 42.448 498.915 42.0853 497.635 41.36C496.376 40.6133 495.352 39.5573 494.563 38.192C493.795 36.8053 493.411 35.1413 493.411 33.2C493.411 31.2373 493.795 29.5733 494.563 28.208C495.352 26.8213 496.376 25.7653 497.635 25.04C498.915 24.3147 500.28 23.952 501.731 23.952C502.798 23.952 503.832 24.1653 504.835 24.592C505.838 24.9973 506.723 25.5947 507.491 26.384C508.259 27.1733 508.867 28.144 509.315 29.296C509.763 30.4267 509.987 31.728 509.987 33.2C509.987 35.1413 509.592 36.8053 508.803 38.192C508.035 39.5573 507.022 40.6133 505.763 41.36C504.526 42.0853 503.182 42.448 501.731 42.448ZM501.731 39.376C502.648 39.376 503.438 39.12 504.099 38.608C504.782 38.096 505.304 37.3813 505.667 36.464C506.03 35.5253 506.211 34.4373 506.211 33.2C506.211 31.9627 506.03 30.8853 505.667 29.968C505.304 29.0293 504.782 28.304 504.099 27.792C503.438 27.2587 502.648 26.992 501.731 26.992C500.792 26.992 499.982 27.2587 499.299 27.792C498.638 28.304 498.126 29.0293 497.763 29.968C497.4 30.8853 497.219 31.9627 497.219 33.2C497.219 34.4373 497.4 35.5253 497.763 36.464C498.126 37.3813 498.638 38.096 499.299 38.608C499.982 39.12 500.792 39.376 501.731 39.376ZM518.896 42.448C517.701 42.448 516.506 42.2133 515.312 41.744C514.138 41.2747 513.125 40.688 512.272 39.984L514.032 37.584C514.8 38.2027 515.578 38.704 516.368 39.088C517.178 39.4507 518.053 39.632 518.992 39.632C520.037 39.632 520.805 39.408 521.296 38.96C521.808 38.4907 522.064 37.9253 522.064 37.264C522.064 36.7307 521.872 36.2827 521.488 35.92C521.125 35.5573 520.645 35.248 520.048 34.992C519.45 34.7147 518.832 34.4587 518.192 34.224C517.402 33.9253 516.624 33.5733 515.856 33.168C515.109 32.7413 514.49 32.208 514 31.568C513.509 30.9067 513.264 30.0853 513.264 29.104C513.264 28.1013 513.509 27.216 514 26.448C514.512 25.68 515.237 25.072 516.176 24.624C517.114 24.176 518.234 23.952 519.536 23.952C520.709 23.952 521.776 24.1547 522.736 24.56C523.717 24.9653 524.549 25.456 525.232 26.032L523.536 28.304C522.917 27.856 522.288 27.4933 521.648 27.216C521.008 26.9173 520.336 26.768 519.632 26.768C518.65 26.768 517.925 26.9813 517.456 27.408C516.986 27.8133 516.752 28.3253 516.752 28.944C516.752 29.4347 516.922 29.84 517.264 30.16C517.605 30.48 518.053 30.7573 518.608 30.992C519.184 31.2267 519.792 31.472 520.432 31.728C521.05 31.9413 521.658 32.1973 522.256 32.496C522.874 32.7733 523.429 33.1147 523.92 33.52C524.41 33.904 524.805 34.384 525.104 34.96C525.424 35.5147 525.584 36.208 525.584 37.04C525.584 38.0213 525.328 38.928 524.816 39.76C524.304 40.592 523.557 41.2533 522.576 41.744C521.594 42.2133 520.368 42.448 518.896 42.448ZM533.663 42.448C532.66 42.448 531.764 42.2347 530.975 41.808C530.207 41.3813 529.599 40.784 529.151 40.016C528.703 39.248 528.479 38.352 528.479 37.328C528.479 35.4293 529.311 33.968 530.975 32.944C532.66 31.8987 535.337 31.1733 539.007 30.768C538.985 30.0853 538.879 29.456 538.687 28.88C538.495 28.304 538.153 27.8453 537.663 27.504C537.193 27.1413 536.521 26.96 535.647 26.96C534.729 26.96 533.844 27.1413 532.991 27.504C532.137 27.8667 531.327 28.2827 530.559 28.752L529.183 26.256C529.801 25.872 530.484 25.5093 531.231 25.168C531.977 24.8053 532.777 24.5173 533.631 24.304C534.484 24.0693 535.369 23.952 536.287 23.952C537.759 23.952 538.964 24.2507 539.903 24.848C540.841 25.424 541.535 26.2667 541.983 27.376C542.452 28.4853 542.687 29.8293 542.687 31.408V42H539.679L539.391 39.984H539.263C538.473 40.6667 537.609 41.2533 536.671 41.744C535.732 42.2133 534.729 42.448 533.663 42.448ZM534.783 39.504C535.551 39.504 536.265 39.3333 536.927 38.992C537.588 38.6293 538.281 38.1067 539.007 37.424V33.136C537.279 33.328 535.903 33.616 534.879 34C533.855 34.3627 533.119 34.8 532.671 35.312C532.244 35.8027 532.031 36.3787 532.031 37.04C532.031 37.9147 532.297 38.544 532.831 38.928C533.364 39.312 534.015 39.504 534.783 39.504ZM551.557 42.448C550.661 42.448 549.946 42.2667 549.413 41.904C548.88 41.52 548.496 40.9867 548.261 40.304C548.026 39.6 547.909 38.7787 547.909 37.84V16.496H551.589V38.032C551.589 38.5227 551.674 38.8747 551.845 39.088C552.037 39.28 552.24 39.376 552.453 39.376C552.538 39.376 552.624 39.376 552.709 39.376C552.794 39.3547 552.922 39.3333 553.093 39.312L553.541 42.096C553.328 42.1813 553.061 42.256 552.741 42.32C552.421 42.4053 552.026 42.448 551.557 42.448Z" fill="white"/>
</svg>
