<svg width="684" height="58" viewBox="0 0 684 58" fill="none" xmlns="http://www.w3.org/2000/svg">
<path d="M15.2188 18.3281L37.7797 18.3281" stroke="white" stroke-width="1.10955"/>
<path d="M19.8444 32.3828L15.9609 36.2663M26.5017 32.3828V36.2663M32.9741 32.3828L36.8575 36.2663" stroke="#7244ED" stroke-width="1.2" stroke-linecap="round"/>
<rect x="13.1849" y="35.1576" width="6.28748" height="6.28748" rx="0.554777" fill="#7244ED" stroke="#7244ED" stroke-width="0.369851"/>
<rect x="23.5443" y="35.1576" width="6.28748" height="6.28748" rx="0.554777" fill="#7244ED" stroke="#7244ED" stroke-width="0.369851"/>
<rect x="33.5287" y="35.1576" width="6.28748" height="6.28748" rx="0.554777" fill="#7244ED" stroke="#7244ED" stroke-width="0.369851"/>
<rect x="14.1094" y="16.1094" width="24.78" height="17.0132" rx="2.95881" fill="#7244ED"/>
<path d="M23.7266 23.1367H32.9728" stroke="white" stroke-width="1.84926" stroke-linecap="round"/>
<path d="M23.9141 27.3906H33.1603" stroke="white" stroke-width="1.84926" stroke-linecap="round"/>
<circle cx="19.8387" cy="22.952" r="0.924629" fill="#CAC0F9"/>
<circle cx="19.8387" cy="27.3895" r="0.924629" fill="#CAC0F9"/>
<path d="M55.575 42L56.439 34.832H53.623V32.368H56.727L57.335 27.472H54.359V24.976H57.655L58.455 18.608H60.727L59.927 24.976H64.375L65.175 18.608H67.447L66.679 24.976H69.559V27.472H66.391L65.751 32.368H68.823V34.832H65.463L64.599 42H62.295L63.159 34.832H58.743L57.847 42H55.575ZM58.999 32.368H63.447L64.055 27.472H59.607L58.999 32.368ZM73.729 42V18.416H81.057C82.657 18.416 84.0757 18.608 85.313 18.992C86.5717 19.376 87.553 19.9947 88.257 20.848C88.9823 21.68 89.345 22.8 89.345 24.208C89.345 24.976 89.2063 25.7013 88.929 26.384C88.673 27.0667 88.2997 27.6747 87.809 28.208C87.3183 28.72 86.7103 29.0933 85.985 29.328V29.488C87.329 29.7653 88.4383 30.3733 89.313 31.312C90.1877 32.2293 90.625 33.488 90.625 35.088C90.625 36.6453 90.2303 37.936 89.441 38.96C88.673 39.984 87.6063 40.752 86.241 41.264C84.897 41.7547 83.3503 42 81.601 42H73.729ZM77.441 28.272H80.609C82.401 28.272 83.6917 27.952 84.481 27.312C85.2917 26.672 85.697 25.808 85.697 24.72C85.697 23.504 85.281 22.64 84.449 22.128C83.617 21.5947 82.369 21.328 80.705 21.328H77.441V28.272ZM77.441 39.088H81.185C83.0197 39.088 84.4383 38.7467 85.441 38.064C86.465 37.3813 86.977 36.3253 86.977 34.896C86.977 33.5733 86.4757 32.6133 85.473 32.016C84.4917 31.3973 83.0623 31.088 81.185 31.088H77.441V39.088ZM99.9368 42.448C98.0594 42.448 96.6834 41.84 95.8088 40.624C94.9341 39.408 94.4968 37.6907 94.4968 35.472V24.368H98.2088V35.024C98.2088 36.5173 98.4434 37.5947 98.9128 38.256C99.3821 38.9173 100.129 39.248 101.153 39.248C101.963 39.248 102.689 39.0453 103.329 38.64C103.969 38.2133 104.651 37.5413 105.377 36.624V24.368H109.089V42H106.049L105.761 39.344H105.665C104.854 40.2613 104.001 41.008 103.105 41.584C102.209 42.16 101.153 42.448 99.9368 42.448ZM119.365 42.448C118.17 42.448 116.975 42.2133 115.781 41.744C114.607 41.2747 113.594 40.688 112.741 39.984L114.501 37.584C115.269 38.2027 116.047 38.704 116.837 39.088C117.647 39.4507 118.522 39.632 119.461 39.632C120.506 39.632 121.274 39.408 121.765 38.96C122.277 38.4907 122.533 37.9253 122.533 37.264C122.533 36.7307 122.341 36.2827 121.957 35.92C121.594 35.5573 121.114 35.248 120.517 34.992C119.919 34.7147 119.301 34.4587 118.661 34.224C117.871 33.9253 117.093 33.5733 116.325 33.168C115.578 32.7413 114.959 32.208 114.469 31.568C113.978 30.9067 113.733 30.0853 113.733 29.104C113.733 28.1013 113.978 27.216 114.469 26.448C114.981 25.68 115.706 25.072 116.645 24.624C117.583 24.176 118.703 23.952 120.005 23.952C121.178 23.952 122.245 24.1547 123.205 24.56C124.186 24.9653 125.018 25.456 125.701 26.032L124.005 28.304C123.386 27.856 122.757 27.4933 122.117 27.216C121.477 26.9173 120.805 26.768 120.101 26.768C119.119 26.768 118.394 26.9813 117.925 27.408C117.455 27.8133 117.221 28.3253 117.221 28.944C117.221 29.4347 117.391 29.84 117.733 30.16C118.074 30.48 118.522 30.7573 119.077 30.992C119.653 31.2267 120.261 31.472 120.901 31.728C121.519 31.9413 122.127 32.1973 122.725 32.496C123.343 32.7733 123.898 33.1147 124.389 33.52C124.879 33.904 125.274 34.384 125.573 34.96C125.893 35.5147 126.053 36.208 126.053 37.04C126.053 38.0213 125.797 38.928 125.285 39.76C124.773 40.592 124.026 41.2533 123.045 41.744C122.063 42.2133 120.837 42.448 119.365 42.448ZM129.972 42V24.368H133.652V42H129.972ZM131.828 21.104C131.124 21.104 130.558 20.9013 130.132 20.496C129.726 20.0907 129.524 19.5467 129.524 18.864C129.524 18.224 129.726 17.7013 130.132 17.296C130.558 16.8907 131.124 16.688 131.828 16.688C132.489 16.688 133.033 16.8907 133.46 17.296C133.886 17.7013 134.1 18.224 134.1 18.864C134.1 19.5467 133.886 20.0907 133.46 20.496C133.033 20.9013 132.489 21.104 131.828 21.104ZM139.19 42V24.368H142.198L142.518 26.832H142.582C143.393 26.0427 144.268 25.3707 145.206 24.816C146.145 24.24 147.212 23.952 148.406 23.952C150.284 23.952 151.649 24.56 152.502 25.776C153.377 26.9707 153.814 28.688 153.814 30.928V42H150.134V31.376C150.134 29.8613 149.9 28.784 149.43 28.144C148.961 27.4827 148.204 27.152 147.158 27.152C146.348 27.152 145.622 27.3547 144.982 27.76C144.364 28.144 143.66 28.7307 142.87 29.52V42H139.19ZM166.519 42.448C164.919 42.448 163.468 42.0853 162.167 41.36C160.866 40.6133 159.831 39.5573 159.063 38.192C158.295 36.8053 157.911 35.1413 157.911 33.2C157.911 31.7707 158.135 30.4907 158.583 29.36C159.031 28.208 159.639 27.2373 160.407 26.448C161.175 25.6373 162.039 25.0187 162.999 24.592C163.959 24.1653 164.94 23.952 165.943 23.952C167.5 23.952 168.812 24.304 169.879 25.008C170.946 25.6907 171.756 26.6613 172.311 27.92C172.866 29.1573 173.143 30.608 173.143 32.272C173.143 32.6347 173.122 32.9867 173.079 33.328C173.058 33.648 173.015 33.9253 172.951 34.16H161.527C161.634 35.2693 161.922 36.2293 162.391 37.04C162.882 37.8293 163.511 38.448 164.279 38.896C165.068 39.3227 165.964 39.536 166.967 39.536C167.756 39.536 168.492 39.4187 169.175 39.184C169.858 38.9493 170.519 38.6293 171.159 38.224L172.439 40.56C171.628 41.0933 170.722 41.5413 169.719 41.904C168.738 42.2667 167.671 42.448 166.519 42.448ZM161.495 31.6H169.943C169.943 30.1067 169.602 28.944 168.919 28.112C168.258 27.28 167.287 26.864 166.007 26.864C165.282 26.864 164.599 27.0453 163.959 27.408C163.319 27.7707 162.775 28.304 162.327 29.008C161.9 29.712 161.623 30.576 161.495 31.6ZM182.052 42.448C180.857 42.448 179.663 42.2133 178.468 41.744C177.295 41.2747 176.281 40.688 175.428 39.984L177.188 37.584C177.956 38.2027 178.735 38.704 179.524 39.088C180.335 39.4507 181.209 39.632 182.148 39.632C183.193 39.632 183.961 39.408 184.452 38.96C184.964 38.4907 185.22 37.9253 185.22 37.264C185.22 36.7307 185.028 36.2827 184.644 35.92C184.281 35.5573 183.801 35.248 183.204 34.992C182.607 34.7147 181.988 34.4587 181.348 34.224C180.559 33.9253 179.78 33.5733 179.012 33.168C178.265 32.7413 177.647 32.208 177.156 31.568C176.665 30.9067 176.42 30.0853 176.42 29.104C176.42 28.1013 176.665 27.216 177.156 26.448C177.668 25.68 178.393 25.072 179.332 24.624C180.271 24.176 181.391 23.952 182.692 23.952C183.865 23.952 184.932 24.1547 185.892 24.56C186.873 24.9653 187.705 25.456 188.388 26.032L186.692 28.304C186.073 27.856 185.444 27.4933 184.804 27.216C184.164 26.9173 183.492 26.768 182.788 26.768C181.807 26.768 181.081 26.9813 180.612 27.408C180.143 27.8133 179.908 28.3253 179.908 28.944C179.908 29.4347 180.079 29.84 180.42 30.16C180.761 30.48 181.209 30.7573 181.764 30.992C182.34 31.2267 182.948 31.472 183.588 31.728C184.207 31.9413 184.815 32.1973 185.412 32.496C186.031 32.7733 186.585 33.1147 187.076 33.52C187.567 33.904 187.961 34.384 188.26 34.96C188.58 35.5147 188.74 36.208 188.74 37.04C188.74 38.0213 188.484 38.928 187.972 39.76C187.46 40.592 186.713 41.2533 185.732 41.744C184.751 42.2133 183.524 42.448 182.052 42.448ZM197.427 42.448C196.232 42.448 195.038 42.2133 193.843 41.744C192.67 41.2747 191.656 40.688 190.803 39.984L192.563 37.584C193.331 38.2027 194.11 38.704 194.899 39.088C195.71 39.4507 196.584 39.632 197.523 39.632C198.568 39.632 199.336 39.408 199.827 38.96C200.339 38.4907 200.595 37.9253 200.595 37.264C200.595 36.7307 200.403 36.2827 200.019 35.92C199.656 35.5573 199.176 35.248 198.579 34.992C197.982 34.7147 197.363 34.4587 196.723 34.224C195.934 33.9253 195.155 33.5733 194.387 33.168C193.64 32.7413 193.022 32.208 192.531 31.568C192.04 30.9067 191.795 30.0853 191.795 29.104C191.795 28.1013 192.04 27.216 192.531 26.448C193.043 25.68 193.768 25.072 194.707 24.624C195.646 24.176 196.766 23.952 198.067 23.952C199.24 23.952 200.307 24.1547 201.267 24.56C202.248 24.9653 203.08 25.456 203.763 26.032L202.067 28.304C201.448 27.856 200.819 27.4933 200.179 27.216C199.539 26.9173 198.867 26.768 198.163 26.768C197.182 26.768 196.456 26.9813 195.987 27.408C195.518 27.8133 195.283 28.3253 195.283 28.944C195.283 29.4347 195.454 29.84 195.795 30.16C196.136 30.48 196.584 30.7573 197.139 30.992C197.715 31.2267 198.323 31.472 198.963 31.728C199.582 31.9413 200.19 32.1973 200.787 32.496C201.406 32.7733 201.96 33.1147 202.451 33.52C202.942 33.904 203.336 34.384 203.635 34.96C203.955 35.5147 204.115 36.208 204.115 37.04C204.115 38.0213 203.859 38.928 203.347 39.76C202.835 40.592 202.088 41.2533 201.107 41.744C200.126 42.2133 198.899 42.448 197.427 42.448ZM224.726 42.448C223.254 42.448 221.878 42.1813 220.598 41.648C219.339 41.0933 218.23 40.2933 217.27 39.248C216.31 38.2027 215.563 36.9333 215.03 35.44C214.496 33.9253 214.23 32.1973 214.23 30.256C214.23 28.336 214.507 26.6187 215.062 25.104C215.616 23.5893 216.374 22.3093 217.334 21.264C218.294 20.1973 219.424 19.3867 220.726 18.832C222.027 18.2773 223.424 18 224.918 18C226.368 18 227.659 18.2987 228.79 18.896C229.92 19.4933 230.848 20.1867 231.574 20.976L229.59 23.344C228.971 22.7253 228.278 22.224 227.51 21.84C226.763 21.4347 225.92 21.232 224.982 21.232C223.616 21.232 222.411 21.5947 221.366 22.32C220.342 23.0453 219.531 24.0693 218.934 25.392C218.358 26.7147 218.07 28.304 218.07 30.16C218.07 32.016 218.347 33.6267 218.902 34.992C219.456 36.336 220.246 37.3707 221.27 38.096C222.294 38.8213 223.499 39.184 224.886 39.184C225.952 39.184 226.902 38.96 227.734 38.512C228.587 38.0427 229.366 37.424 230.069 36.656L232.086 39.024C231.126 40.1333 230.038 40.9867 228.822 41.584C227.627 42.16 226.262 42.448 224.726 42.448ZM242.981 42.448C241.53 42.448 240.165 42.0853 238.885 41.36C237.626 40.6133 236.602 39.5573 235.813 38.192C235.045 36.8053 234.661 35.1413 234.661 33.2C234.661 31.2373 235.045 29.5733 235.813 28.208C236.602 26.8213 237.626 25.7653 238.885 25.04C240.165 24.3147 241.53 23.952 242.981 23.952C244.048 23.952 245.082 24.1653 246.085 24.592C247.088 24.9973 247.973 25.5947 248.741 26.384C249.509 27.1733 250.117 28.144 250.565 29.296C251.013 30.4267 251.237 31.728 251.237 33.2C251.237 35.1413 250.842 36.8053 250.053 38.192C249.285 39.5573 248.272 40.6133 247.013 41.36C245.776 42.0853 244.432 42.448 242.981 42.448ZM242.981 39.376C243.898 39.376 244.688 39.12 245.349 38.608C246.032 38.096 246.554 37.3813 246.917 36.464C247.28 35.5253 247.461 34.4373 247.461 33.2C247.461 31.9627 247.28 30.8853 246.917 29.968C246.554 29.0293 246.032 28.304 245.349 27.792C244.688 27.2587 243.898 26.992 242.981 26.992C242.042 26.992 241.232 27.2587 240.549 27.792C239.888 28.304 239.376 29.0293 239.013 29.968C238.65 30.8853 238.469 31.9627 238.469 33.2C238.469 34.4373 238.65 35.5253 239.013 36.464C239.376 37.3813 239.888 38.096 240.549 38.608C241.232 39.12 242.042 39.376 242.981 39.376ZM255.597 42V24.368H258.605L258.925 26.864H258.989C259.757 26.0533 260.578 25.3707 261.453 24.816C262.349 24.24 263.351 23.952 264.461 23.952C265.762 23.952 266.797 24.24 267.565 24.816C268.333 25.3707 268.909 26.16 269.293 27.184C270.167 26.2453 271.063 25.4773 271.981 24.88C272.919 24.2613 273.933 23.952 275.021 23.952C276.855 23.952 278.21 24.56 279.085 25.776C279.981 26.9707 280.429 28.688 280.429 30.928V42H276.717V31.376C276.717 29.8613 276.482 28.784 276.013 28.144C275.543 27.4827 274.807 27.152 273.805 27.152C273.207 27.152 272.578 27.344 271.917 27.728C271.277 28.112 270.583 28.7093 269.837 29.52V42H266.157V31.376C266.157 29.8613 265.922 28.784 265.453 28.144C264.983 27.4827 264.237 27.152 263.213 27.152C262.637 27.152 262.018 27.344 261.357 27.728C260.695 28.112 260.002 28.7093 259.277 29.52V42H255.597ZM285.784 42V24.368H288.792L289.112 26.864H289.176C289.944 26.0533 290.765 25.3707 291.64 24.816C292.536 24.24 293.539 23.952 294.648 23.952C295.949 23.952 296.984 24.24 297.752 24.816C298.52 25.3707 299.096 26.16 299.48 27.184C300.355 26.2453 301.251 25.4773 302.168 24.88C303.107 24.2613 304.12 23.952 305.208 23.952C307.043 23.952 308.397 24.56 309.272 25.776C310.168 26.9707 310.616 28.688 310.616 30.928V42H306.904V31.376C306.904 29.8613 306.669 28.784 306.2 28.144C305.731 27.4827 304.995 27.152 303.992 27.152C303.395 27.152 302.765 27.344 302.104 27.728C301.464 28.112 300.771 28.7093 300.024 29.52V42H296.344V31.376C296.344 29.8613 296.109 28.784 295.64 28.144C295.171 27.4827 294.424 27.152 293.4 27.152C292.824 27.152 292.205 27.344 291.544 27.728C290.883 28.112 290.189 28.7093 289.464 29.52V42H285.784ZM323.332 42.448C321.732 42.448 320.281 42.0853 318.98 41.36C317.678 40.6133 316.644 39.5573 315.876 38.192C315.108 36.8053 314.724 35.1413 314.724 33.2C314.724 31.7707 314.948 30.4907 315.396 29.36C315.844 28.208 316.452 27.2373 317.22 26.448C317.988 25.6373 318.852 25.0187 319.812 24.592C320.772 24.1653 321.753 23.952 322.756 23.952C324.313 23.952 325.625 24.304 326.692 25.008C327.758 25.6907 328.569 26.6613 329.124 27.92C329.678 29.1573 329.956 30.608 329.956 32.272C329.956 32.6347 329.934 32.9867 329.892 33.328C329.87 33.648 329.828 33.9253 329.764 34.16H318.34C318.446 35.2693 318.734 36.2293 319.204 37.04C319.694 37.8293 320.324 38.448 321.092 38.896C321.881 39.3227 322.777 39.536 323.78 39.536C324.569 39.536 325.305 39.4187 325.988 39.184C326.67 38.9493 327.332 38.6293 327.972 38.224L329.252 40.56C328.441 41.0933 327.534 41.5413 326.532 41.904C325.55 42.2667 324.484 42.448 323.332 42.448ZM318.308 31.6H326.756C326.756 30.1067 326.414 28.944 325.732 28.112C325.07 27.28 324.1 26.864 322.82 26.864C322.094 26.864 321.412 27.0453 320.772 27.408C320.132 27.7707 319.588 28.304 319.14 29.008C318.713 29.712 318.436 30.576 318.308 31.6ZM334.097 42V24.368H337.105L337.425 27.536H337.489C338.129 26.4053 338.886 25.5307 339.76 24.912C340.635 24.272 341.553 23.952 342.513 23.952C342.939 23.952 343.302 23.984 343.601 24.048C343.899 24.112 344.187 24.1973 344.465 24.304L343.825 27.536C343.505 27.4293 343.217 27.3547 342.961 27.312C342.705 27.2693 342.395 27.248 342.033 27.248C341.329 27.248 340.582 27.536 339.793 28.112C339.003 28.6667 338.331 29.648 337.777 31.056V42H334.097ZM353.858 42.448C352.258 42.448 350.829 42.0853 349.57 41.36C348.312 40.6133 347.309 39.5573 346.562 38.192C345.816 36.8053 345.442 35.1413 345.442 33.2C345.442 31.2373 345.848 29.5733 346.658 28.208C347.469 26.8213 348.536 25.7653 349.858 25.04C351.181 24.3147 352.61 23.952 354.146 23.952C355.277 23.952 356.258 24.144 357.09 24.528C357.922 24.912 358.658 25.392 359.298 25.968L357.474 28.368C357.005 27.9413 356.514 27.6107 356.002 27.376C355.49 27.12 354.936 26.992 354.338 26.992C353.357 26.992 352.482 27.2587 351.714 27.792C350.946 28.304 350.338 29.0293 349.89 29.968C349.464 30.8853 349.25 31.9627 349.25 33.2C349.25 34.4373 349.464 35.5253 349.89 36.464C350.317 37.3813 350.904 38.096 351.65 38.608C352.397 39.12 353.25 39.376 354.21 39.376C354.957 39.376 355.65 39.2267 356.29 38.928C356.93 38.608 357.517 38.224 358.05 37.776L359.586 40.24C358.776 40.9653 357.869 41.52 356.866 41.904C355.864 42.2667 354.861 42.448 353.858 42.448ZM363.222 42V24.368H366.902V42H363.222ZM365.078 21.104C364.374 21.104 363.808 20.9013 363.382 20.496C362.976 20.0907 362.774 19.5467 362.774 18.864C362.774 18.224 362.976 17.7013 363.382 17.296C363.808 16.8907 364.374 16.688 365.078 16.688C365.739 16.688 366.283 16.8907 366.71 17.296C367.136 17.7013 367.35 18.224 367.35 18.864C367.35 19.5467 367.136 20.0907 366.71 20.496C366.283 20.9013 365.739 21.104 365.078 21.104ZM376.6 42.448C375.598 42.448 374.702 42.2347 373.912 41.808C373.144 41.3813 372.536 40.784 372.088 40.016C371.64 39.248 371.416 38.352 371.416 37.328C371.416 35.4293 372.248 33.968 373.912 32.944C375.598 31.8987 378.275 31.1733 381.944 30.768C381.923 30.0853 381.816 29.456 381.624 28.88C381.432 28.304 381.091 27.8453 380.6 27.504C380.131 27.1413 379.459 26.96 378.584 26.96C377.667 26.96 376.782 27.1413 375.928 27.504C375.075 27.8667 374.264 28.2827 373.496 28.752L372.12 26.256C372.739 25.872 373.422 25.5093 374.168 25.168C374.915 24.8053 375.715 24.5173 376.568 24.304C377.422 24.0693 378.307 23.952 379.224 23.952C380.696 23.952 381.902 24.2507 382.84 24.848C383.779 25.424 384.472 26.2667 384.92 27.376C385.39 28.4853 385.624 29.8293 385.624 31.408V42H382.616L382.328 39.984H382.2C381.411 40.6667 380.547 41.2533 379.608 41.744C378.67 42.2133 377.667 42.448 376.6 42.448ZM377.72 39.504C378.488 39.504 379.203 39.3333 379.864 38.992C380.526 38.6293 381.219 38.1067 381.944 37.424V33.136C380.216 33.328 378.84 33.616 377.816 34C376.792 34.3627 376.056 34.8 375.608 35.312C375.182 35.8027 374.968 36.3787 374.968 37.04C374.968 37.9147 375.235 38.544 375.768 38.928C376.302 39.312 376.952 39.504 377.72 39.504ZM394.495 42.448C393.599 42.448 392.884 42.2667 392.351 41.904C391.817 41.52 391.433 40.9867 391.199 40.304C390.964 39.6 390.847 38.7787 390.847 37.84V16.496H394.527V38.032C394.527 38.5227 394.612 38.8747 394.783 39.088C394.975 39.28 395.177 39.376 395.391 39.376C395.476 39.376 395.561 39.376 395.647 39.376C395.732 39.3547 395.86 39.3333 396.031 39.312L396.479 42.096C396.265 42.1813 395.999 42.256 395.679 42.32C395.359 42.4053 394.964 42.448 394.495 42.448ZM400.378 42V24.368H404.058V42H400.378ZM402.234 21.104C401.53 21.104 400.964 20.9013 400.538 20.496C400.132 20.0907 399.93 19.5467 399.93 18.864C399.93 18.224 400.132 17.7013 400.538 17.296C400.964 16.8907 401.53 16.688 402.234 16.688C402.895 16.688 403.439 16.8907 403.866 17.296C404.292 17.7013 404.506 18.224 404.506 18.864C404.506 19.5467 404.292 20.0907 403.866 20.496C403.439 20.9013 402.895 21.104 402.234 21.104ZM407.997 42V40.016L416.669 27.344H408.957V24.368H421.309V26.352L412.637 39.056H421.629V42H407.997ZM428.6 42.448C427.598 42.448 426.702 42.2347 425.912 41.808C425.144 41.3813 424.536 40.784 424.088 40.016C423.64 39.248 423.416 38.352 423.416 37.328C423.416 35.4293 424.248 33.968 425.912 32.944C427.598 31.8987 430.275 31.1733 433.944 30.768C433.923 30.0853 433.816 29.456 433.624 28.88C433.432 28.304 433.091 27.8453 432.6 27.504C432.131 27.1413 431.459 26.96 430.584 26.96C429.667 26.96 428.782 27.1413 427.928 27.504C427.075 27.8667 426.264 28.2827 425.496 28.752L424.12 26.256C424.739 25.872 425.422 25.5093 426.168 25.168C426.915 24.8053 427.715 24.5173 428.568 24.304C429.422 24.0693 430.307 23.952 431.224 23.952C432.696 23.952 433.902 24.2507 434.84 24.848C435.779 25.424 436.472 26.2667 436.92 27.376C437.39 28.4853 437.624 29.8293 437.624 31.408V42H434.616L434.328 39.984H434.2C433.411 40.6667 432.547 41.2533 431.608 41.744C430.67 42.2133 429.667 42.448 428.6 42.448ZM429.72 39.504C430.488 39.504 431.203 39.3333 431.864 38.992C432.526 38.6293 433.219 38.1067 433.944 37.424V33.136C432.216 33.328 430.84 33.616 429.816 34C428.792 34.3627 428.056 34.8 427.608 35.312C427.182 35.8027 426.968 36.3787 426.968 37.04C426.968 37.9147 427.235 38.544 427.768 38.928C428.302 39.312 428.952 39.504 429.72 39.504ZM448.11 42.448C446.788 42.448 445.732 42.192 444.942 41.68C444.174 41.1467 443.62 40.4213 443.278 39.504C442.937 38.5653 442.766 37.4773 442.766 36.24V27.344H440.206V24.592L442.958 24.368L443.374 19.504H446.446V24.368H451.022V27.344H446.446V36.272C446.446 37.3173 446.649 38.1173 447.054 38.672C447.46 39.2053 448.121 39.472 449.038 39.472C449.337 39.472 449.657 39.4293 449.998 39.344C450.34 39.2587 450.638 39.1627 450.894 39.056L451.566 41.776C451.097 41.9253 450.564 42.0747 449.966 42.224C449.39 42.3733 448.772 42.448 448.11 42.448ZM454.878 42V24.368H458.558V42H454.878ZM456.734 21.104C456.03 21.104 455.464 20.9013 455.038 20.496C454.632 20.0907 454.43 19.5467 454.43 18.864C454.43 18.224 454.632 17.7013 455.038 17.296C455.464 16.8907 456.03 16.688 456.734 16.688C457.395 16.688 457.939 16.8907 458.366 17.296C458.792 17.7013 459.006 18.224 459.006 18.864C459.006 19.5467 458.792 20.0907 458.366 20.496C457.939 20.9013 457.395 21.104 456.734 21.104ZM471.169 42.448C469.718 42.448 468.353 42.0853 467.073 41.36C465.814 40.6133 464.79 39.5573 464.001 38.192C463.233 36.8053 462.849 35.1413 462.849 33.2C462.849 31.2373 463.233 29.5733 464.001 28.208C464.79 26.8213 465.814 25.7653 467.073 25.04C468.353 24.3147 469.718 23.952 471.169 23.952C472.235 23.952 473.27 24.1653 474.273 24.592C475.275 24.9973 476.161 25.5947 476.929 26.384C477.697 27.1733 478.305 28.144 478.753 29.296C479.201 30.4267 479.425 31.728 479.425 33.2C479.425 35.1413 479.03 36.8053 478.241 38.192C477.473 39.5573 476.459 40.6133 475.201 41.36C473.963 42.0853 472.619 42.448 471.169 42.448ZM471.169 39.376C472.086 39.376 472.875 39.12 473.537 38.608C474.219 38.096 474.742 37.3813 475.105 36.464C475.467 35.5253 475.649 34.4373 475.649 33.2C475.649 31.9627 475.467 30.8853 475.105 29.968C474.742 29.0293 474.219 28.304 473.537 27.792C472.875 27.2587 472.086 26.992 471.169 26.992C470.23 26.992 469.419 27.2587 468.737 27.792C468.075 28.304 467.563 29.0293 467.201 29.968C466.838 30.8853 466.657 31.9627 466.657 33.2C466.657 34.4373 466.838 35.5253 467.201 36.464C467.563 37.3813 468.075 38.096 468.737 38.608C469.419 39.12 470.23 39.376 471.169 39.376ZM483.784 42V24.368H486.792L487.112 26.832H487.176C487.987 26.0427 488.861 25.3707 489.8 24.816C490.739 24.24 491.805 23.952 493 23.952C494.877 23.952 496.243 24.56 497.096 25.776C497.971 26.9707 498.408 28.688 498.408 30.928V42H494.728V31.376C494.728 29.8613 494.493 28.784 494.024 28.144C493.555 27.4827 492.797 27.152 491.752 27.152C490.941 27.152 490.216 27.3547 489.576 27.76C488.957 28.144 488.253 28.7307 487.464 29.52V42H483.784ZM520.444 42.448C518.972 42.448 517.596 42.1813 516.316 41.648C515.058 41.0933 513.948 40.2933 512.988 39.248C512.028 38.2027 511.282 36.9333 510.748 35.44C510.215 33.9253 509.948 32.1973 509.948 30.256C509.948 28.336 510.226 26.6187 510.78 25.104C511.335 23.5893 512.092 22.3093 513.052 21.264C514.012 20.1973 515.143 19.3867 516.444 18.832C517.746 18.2773 519.143 18 520.636 18C522.087 18 523.378 18.2987 524.508 18.896C525.639 19.4933 526.567 20.1867 527.292 20.976L525.308 23.344C524.69 22.7253 523.996 22.224 523.228 21.84C522.482 21.4347 521.639 21.232 520.7 21.232C519.335 21.232 518.13 21.5947 517.084 22.32C516.06 23.0453 515.25 24.0693 514.652 25.392C514.076 26.7147 513.788 28.304 513.788 30.16C513.788 32.016 514.066 33.6267 514.62 34.992C515.175 36.336 515.964 37.3707 516.988 38.096C518.012 38.8213 519.218 39.184 520.604 39.184C521.671 39.184 522.62 38.96 523.452 38.512C524.306 38.0427 525.084 37.424 525.788 36.656L527.804 39.024C526.844 40.1333 525.756 40.9867 524.54 41.584C523.346 42.16 521.98 42.448 520.444 42.448ZM538.7 42.448C537.249 42.448 535.884 42.0853 534.604 41.36C533.345 40.6133 532.321 39.5573 531.532 38.192C530.764 36.8053 530.38 35.1413 530.38 33.2C530.38 31.2373 530.764 29.5733 531.532 28.208C532.321 26.8213 533.345 25.7653 534.604 25.04C535.884 24.3147 537.249 23.952 538.7 23.952C539.766 23.952 540.801 24.1653 541.804 24.592C542.806 24.9973 543.692 25.5947 544.46 26.384C545.228 27.1733 545.836 28.144 546.284 29.296C546.732 30.4267 546.956 31.728 546.956 33.2C546.956 35.1413 546.561 36.8053 545.772 38.192C545.004 39.5573 543.99 40.6133 542.732 41.36C541.494 42.0853 540.15 42.448 538.7 42.448ZM538.7 39.376C539.617 39.376 540.406 39.12 541.068 38.608C541.75 38.096 542.273 37.3813 542.636 36.464C542.998 35.5253 543.18 34.4373 543.18 33.2C543.18 31.9627 542.998 30.8853 542.636 29.968C542.273 29.0293 541.75 28.304 541.068 27.792C540.406 27.2587 539.617 26.992 538.7 26.992C537.761 26.992 536.95 27.2587 536.268 27.792C535.606 28.304 535.094 29.0293 534.732 29.968C534.369 30.8853 534.188 31.9627 534.188 33.2C534.188 34.4373 534.369 35.5253 534.732 36.464C535.094 37.3813 535.606 38.096 536.268 38.608C536.95 39.12 537.761 39.376 538.7 39.376ZM551.315 42V24.368H554.323L554.643 26.832H554.707C555.518 26.0427 556.393 25.3707 557.331 24.816C558.27 24.24 559.337 23.952 560.531 23.952C562.409 23.952 563.774 24.56 564.627 25.776C565.502 26.9707 565.939 28.688 565.939 30.928V42H562.259V31.376C562.259 29.8613 562.025 28.784 561.555 28.144C561.086 27.4827 560.329 27.152 559.283 27.152C558.473 27.152 557.747 27.3547 557.107 27.76C556.489 28.144 555.785 28.7307 554.995 29.52V42H551.315ZM576.052 42.448C574.857 42.448 573.663 42.2133 572.468 41.744C571.295 41.2747 570.281 40.688 569.428 39.984L571.188 37.584C571.956 38.2027 572.735 38.704 573.524 39.088C574.335 39.4507 575.209 39.632 576.148 39.632C577.193 39.632 577.961 39.408 578.452 38.96C578.964 38.4907 579.22 37.9253 579.22 37.264C579.22 36.7307 579.028 36.2827 578.644 35.92C578.281 35.5573 577.801 35.248 577.204 34.992C576.607 34.7147 575.988 34.4587 575.348 34.224C574.559 33.9253 573.78 33.5733 573.012 33.168C572.265 32.7413 571.647 32.208 571.156 31.568C570.665 30.9067 570.42 30.0853 570.42 29.104C570.42 28.1013 570.665 27.216 571.156 26.448C571.668 25.68 572.393 25.072 573.332 24.624C574.271 24.176 575.391 23.952 576.692 23.952C577.865 23.952 578.932 24.1547 579.892 24.56C580.873 24.9653 581.705 25.456 582.388 26.032L580.692 28.304C580.073 27.856 579.444 27.4933 578.804 27.216C578.164 26.9173 577.492 26.768 576.788 26.768C575.807 26.768 575.081 26.9813 574.612 27.408C574.143 27.8133 573.908 28.3253 573.908 28.944C573.908 29.4347 574.079 29.84 574.42 30.16C574.761 30.48 575.209 30.7573 575.764 30.992C576.34 31.2267 576.948 31.472 577.588 31.728C578.207 31.9413 578.815 32.1973 579.412 32.496C580.031 32.7733 580.585 33.1147 581.076 33.52C581.567 33.904 581.961 34.384 582.26 34.96C582.58 35.5147 582.74 36.208 582.74 37.04C582.74 38.0213 582.484 38.928 581.972 39.76C581.46 40.592 580.713 41.2533 579.732 41.744C578.751 42.2133 577.524 42.448 576.052 42.448ZM591.843 42.448C589.966 42.448 588.59 41.84 587.715 40.624C586.84 39.408 586.403 37.6907 586.403 35.472V24.368H590.115V35.024C590.115 36.5173 590.35 37.5947 590.819 38.256C591.288 38.9173 592.035 39.248 593.059 39.248C593.87 39.248 594.595 39.0453 595.235 38.64C595.875 38.2133 596.558 37.5413 597.283 36.624V24.368H600.995V42H597.955L597.667 39.344H597.571C596.76 40.2613 595.907 41.008 595.011 41.584C594.115 42.16 593.059 42.448 591.843 42.448ZM610.151 42.448C609.255 42.448 608.54 42.2667 608.007 41.904C607.473 41.52 607.089 40.9867 606.855 40.304C606.62 39.6 606.503 38.7787 606.503 37.84V16.496H610.183V38.032C610.183 38.5227 610.268 38.8747 610.439 39.088C610.631 39.28 610.833 39.376 611.047 39.376C611.132 39.376 611.217 39.376 611.303 39.376C611.388 39.3547 611.516 39.3333 611.687 39.312L612.135 42.096C611.921 42.1813 611.655 42.256 611.335 42.32C611.015 42.4053 610.62 42.448 610.151 42.448ZM621.954 42.448C620.631 42.448 619.575 42.192 618.786 41.68C618.018 41.1467 617.463 40.4213 617.122 39.504C616.781 38.5653 616.61 37.4773 616.61 36.24V27.344H614.05V24.592L616.802 24.368L617.218 19.504H620.29V24.368H624.866V27.344H620.29V36.272C620.29 37.3173 620.493 38.1173 620.898 38.672C621.303 39.2053 621.965 39.472 622.882 39.472C623.181 39.472 623.501 39.4293 623.842 39.344C624.183 39.2587 624.482 39.1627 624.738 39.056L625.41 41.776C624.941 41.9253 624.407 42.0747 623.81 42.224C623.234 42.3733 622.615 42.448 621.954 42.448ZM628.722 42V24.368H632.402V42H628.722ZM630.578 21.104C629.874 21.104 629.308 20.9013 628.882 20.496C628.476 20.0907 628.274 19.5467 628.274 18.864C628.274 18.224 628.476 17.7013 628.882 17.296C629.308 16.8907 629.874 16.688 630.578 16.688C631.239 16.688 631.783 16.8907 632.21 17.296C632.636 17.7013 632.85 18.224 632.85 18.864C632.85 19.5467 632.636 20.0907 632.21 20.496C631.783 20.9013 631.239 21.104 630.578 21.104ZM637.94 42V24.368H640.948L641.268 26.832H641.332C642.143 26.0427 643.018 25.3707 643.956 24.816C644.895 24.24 645.962 23.952 647.156 23.952C649.034 23.952 650.399 24.56 651.252 25.776C652.127 26.9707 652.564 28.688 652.564 30.928V42H648.884V31.376C648.884 29.8613 648.65 28.784 648.18 28.144C647.711 27.4827 646.954 27.152 645.908 27.152C645.098 27.152 644.372 27.3547 643.732 27.76C643.114 28.144 642.41 28.7307 641.62 29.52V42H637.94ZM663.957 49.904C662.549 49.904 661.29 49.7227 660.181 49.36C659.072 49.0187 658.197 48.5067 657.557 47.824C656.938 47.1413 656.629 46.288 656.629 45.264C656.629 44.5173 656.853 43.8133 657.301 43.152C657.749 42.4907 658.378 41.9147 659.189 41.424V41.296C658.741 40.9973 658.357 40.6133 658.037 40.144C657.738 39.6533 657.589 39.056 657.589 38.352C657.589 37.648 657.792 37.0187 658.197 36.464C658.624 35.888 659.082 35.4293 659.573 35.088V34.96C658.954 34.4907 658.41 33.8507 657.941 33.04C657.472 32.2293 657.237 31.3013 657.237 30.256C657.237 28.9333 657.546 27.8027 658.165 26.864C658.805 25.904 659.637 25.1787 660.661 24.688C661.706 24.1973 662.837 23.952 664.053 23.952C664.565 23.952 665.034 23.9947 665.461 24.08C665.909 24.144 666.293 24.24 666.613 24.368H672.853V27.152H669.525C669.845 27.5147 670.112 27.9733 670.325 28.528C670.538 29.0827 670.645 29.6907 670.645 30.352C670.645 31.632 670.346 32.7307 669.749 33.648C669.173 34.544 668.384 35.2373 667.381 35.728C666.378 36.1973 665.269 36.432 664.053 36.432C663.669 36.432 663.253 36.3893 662.805 36.304C662.378 36.1973 661.973 36.0693 661.589 35.92C661.312 36.1547 661.077 36.4107 660.885 36.688C660.714 36.9653 660.629 37.3173 660.629 37.744C660.629 38.256 660.832 38.672 661.237 38.992C661.664 39.312 662.442 39.472 663.573 39.472H666.837C668.906 39.472 670.474 39.8133 671.541 40.496C672.608 41.1573 673.141 42.2347 673.141 43.728C673.141 44.8587 672.768 45.8933 672.021 46.832C671.274 47.7707 670.208 48.5173 668.821 49.072C667.456 49.6267 665.834 49.904 663.957 49.904ZM664.053 34.032C664.65 34.032 665.205 33.8827 665.717 33.584C666.229 33.2853 666.634 32.8587 666.933 32.304C667.232 31.728 667.381 31.0453 667.381 30.256C667.381 29.4667 667.232 28.8053 666.933 28.272C666.634 27.7173 666.229 27.2907 665.717 26.992C665.226 26.6933 664.672 26.544 664.053 26.544C663.434 26.544 662.869 26.6933 662.357 26.992C661.866 27.2907 661.472 27.7173 661.173 28.272C660.874 28.8053 660.725 29.4667 660.725 30.256C660.725 31.0453 660.874 31.728 661.173 32.304C661.493 32.8587 661.898 33.2853 662.389 33.584C662.901 33.8827 663.456 34.032 664.053 34.032ZM664.469 47.472C665.514 47.472 666.41 47.3227 667.157 47.024C667.904 46.7253 668.49 46.3307 668.917 45.84C669.344 45.3707 669.557 44.8693 669.557 44.336C669.557 43.5893 669.28 43.0773 668.725 42.8C668.17 42.544 667.36 42.416 666.293 42.416H663.637C663.21 42.416 662.805 42.3947 662.421 42.352C662.037 42.3093 661.653 42.2453 661.269 42.16C660.757 42.544 660.384 42.96 660.149 43.408C659.914 43.856 659.797 44.2933 659.797 44.72C659.797 45.5733 660.213 46.2453 661.045 46.736C661.877 47.2267 663.018 47.472 664.469 47.472Z" fill="white"/>
</svg>
