<svg width="283" height="58" viewBox="0 0 283 58" fill="none" xmlns="http://www.w3.org/2000/svg">
<rect x="11" y="25.8438" width="8.95935" height="18.1545" rx="0.943089" fill="#7244ED"/>
<rect x="21.1406" y="20.1875" width="8.95935" height="23.813" rx="0.943089" fill="#FEFEFF"/>
<rect x="31.2734" y="15" width="8.95935" height="29" rx="0.943089" fill="#DFD9FC"/>
<path d="M55.2313 42L56.0953 34.832H53.2793V32.368H56.3833L56.9913 27.472H54.0153V24.976H57.3113L58.1113 18.608H60.3833L59.5833 24.976H64.0313L64.8313 18.608H67.1033L66.3353 24.976H69.2153V27.472H66.0473L65.4073 32.368H68.4792V34.832H65.1193L64.2553 42H61.9513L62.8153 34.832H58.3993L57.5033 42H55.2313ZM58.6553 32.368H63.1033L63.7113 27.472H59.2633L58.6553 32.368ZM73.3853 42V18.416H79.4973C81.9293 18.416 83.9879 18.864 85.6733 19.76C87.3586 20.6347 88.6386 21.936 89.5133 23.664C90.4093 25.392 90.8573 27.5467 90.8573 30.128C90.8573 32.688 90.4093 34.8533 89.5133 36.624C88.6386 38.3947 87.3693 39.7387 85.7053 40.656C84.0413 41.552 82.0359 42 79.6892 42H73.3853ZM77.0973 38.96H79.2413C80.9266 38.96 82.3453 38.6293 83.4973 37.968C84.6706 37.3067 85.5453 36.3253 86.1213 35.024C86.7186 33.7013 87.0173 32.0693 87.0173 30.128C87.0173 28.1653 86.7186 26.544 86.1213 25.264C85.5453 23.984 84.6706 23.0347 83.4973 22.416C82.3453 21.776 80.9266 21.456 79.2413 21.456H77.0973V38.96ZM99.6003 42.448C98.5976 42.448 97.7016 42.2347 96.9123 41.808C96.1443 41.3813 95.5363 40.784 95.0883 40.016C94.6403 39.248 94.4163 38.352 94.4163 37.328C94.4163 35.4293 95.2483 33.968 96.9123 32.944C98.5976 31.8987 101.275 31.1733 104.944 30.768C104.923 30.0853 104.816 29.456 104.624 28.88C104.432 28.304 104.091 27.8453 103.6 27.504C103.131 27.1413 102.459 26.96 101.584 26.96C100.667 26.96 99.7816 27.1413 98.9283 27.504C98.0749 27.8667 97.2643 28.2827 96.4963 28.752L95.1203 26.256C95.7389 25.872 96.4216 25.5093 97.1683 25.168C97.9149 24.8053 98.7149 24.5173 99.5683 24.304C100.422 24.0693 101.307 23.952 102.224 23.952C103.696 23.952 104.902 24.2507 105.84 24.848C106.779 25.424 107.472 26.2667 107.92 27.376C108.39 28.4853 108.624 29.8293 108.624 31.408V42H105.616L105.328 39.984H105.2C104.411 40.6667 103.547 41.2533 102.608 41.744C101.67 42.2133 100.667 42.448 99.6003 42.448ZM100.72 39.504C101.488 39.504 102.203 39.3333 102.864 38.992C103.526 38.6293 104.219 38.1067 104.944 37.424V33.136C103.216 33.328 101.84 33.616 100.816 34C99.7923 34.3627 99.0563 34.8 98.6083 35.312C98.1816 35.8027 97.9683 36.3787 97.9683 37.04C97.9683 37.9147 98.2349 38.544 98.7683 38.928C99.3016 39.312 99.9523 39.504 100.72 39.504ZM119.11 42.448C117.788 42.448 116.732 42.192 115.942 41.68C115.174 41.1467 114.62 40.4213 114.278 39.504C113.937 38.5653 113.766 37.4773 113.766 36.24V27.344H111.206V24.592L113.958 24.368L114.374 19.504H117.446V24.368H122.022V27.344H117.446V36.272C117.446 37.3173 117.649 38.1173 118.054 38.672C118.46 39.2053 119.121 39.472 120.038 39.472C120.337 39.472 120.657 39.4293 120.998 39.344C121.34 39.2587 121.638 39.1627 121.894 39.056L122.566 41.776C122.097 41.9253 121.564 42.0747 120.966 42.224C120.39 42.3733 119.772 42.448 119.11 42.448ZM129.132 42.448C128.129 42.448 127.233 42.2347 126.444 41.808C125.676 41.3813 125.068 40.784 124.62 40.016C124.172 39.248 123.948 38.352 123.948 37.328C123.948 35.4293 124.78 33.968 126.444 32.944C128.129 31.8987 130.806 31.1733 134.476 30.768C134.454 30.0853 134.348 29.456 134.156 28.88C133.964 28.304 133.622 27.8453 133.132 27.504C132.662 27.1413 131.99 26.96 131.116 26.96C130.198 26.96 129.313 27.1413 128.46 27.504C127.606 27.8667 126.796 28.2827 126.028 28.752L124.652 26.256C125.27 25.872 125.953 25.5093 126.7 25.168C127.446 24.8053 128.246 24.5173 129.1 24.304C129.953 24.0693 130.838 23.952 131.756 23.952C133.228 23.952 134.433 24.2507 135.372 24.848C136.31 25.424 137.004 26.2667 137.452 27.376C137.921 28.4853 138.156 29.8293 138.156 31.408V42H135.148L134.86 39.984H134.732C133.942 40.6667 133.078 41.2533 132.14 41.744C131.201 42.2133 130.198 42.448 129.132 42.448ZM130.252 39.504C131.02 39.504 131.734 39.3333 132.396 38.992C133.057 38.6293 133.75 38.1067 134.476 37.424V33.136C132.748 33.328 131.372 33.616 130.348 34C129.324 34.3627 128.588 34.8 128.14 35.312C127.713 35.8027 127.5 36.3787 127.5 37.04C127.5 37.9147 127.766 38.544 128.3 38.928C128.833 39.312 129.484 39.504 130.252 39.504ZM147.781 42L155.589 18.416H159.877L167.685 42H163.749L159.941 29.2C159.557 27.92 159.184 26.6293 158.821 25.328C158.459 24.0053 158.096 22.6827 157.733 21.36H157.605C157.264 22.704 156.901 24.0267 156.517 25.328C156.155 26.6293 155.781 27.92 155.397 29.2L151.589 42H147.781ZM152.197 35.312V32.368H163.205V35.312H152.197ZM170.472 42V24.368H173.48L173.8 26.832H173.864C174.674 26.0427 175.549 25.3707 176.488 24.816C177.426 24.24 178.493 23.952 179.688 23.952C181.565 23.952 182.93 24.56 183.784 25.776C184.658 26.9707 185.096 28.688 185.096 30.928V42H181.416V31.376C181.416 29.8613 181.181 28.784 180.712 28.144C180.242 27.4827 179.485 27.152 178.44 27.152C177.629 27.152 176.904 27.3547 176.264 27.76C175.645 28.144 174.941 28.7307 174.152 29.52V42H170.472ZM194.6 42.448C193.598 42.448 192.702 42.2347 191.912 41.808C191.144 41.3813 190.536 40.784 190.088 40.016C189.64 39.248 189.416 38.352 189.416 37.328C189.416 35.4293 190.248 33.968 191.912 32.944C193.598 31.8987 196.275 31.1733 199.944 30.768C199.923 30.0853 199.816 29.456 199.624 28.88C199.432 28.304 199.091 27.8453 198.6 27.504C198.131 27.1413 197.459 26.96 196.584 26.96C195.667 26.96 194.782 27.1413 193.928 27.504C193.075 27.8667 192.264 28.2827 191.496 28.752L190.12 26.256C190.739 25.872 191.422 25.5093 192.168 25.168C192.915 24.8053 193.715 24.5173 194.568 24.304C195.422 24.0693 196.307 23.952 197.224 23.952C198.696 23.952 199.902 24.2507 200.84 24.848C201.779 25.424 202.472 26.2667 202.92 27.376C203.39 28.4853 203.624 29.8293 203.624 31.408V42H200.616L200.328 39.984H200.2C199.411 40.6667 198.547 41.2533 197.608 41.744C196.67 42.2133 195.667 42.448 194.6 42.448ZM195.72 39.504C196.488 39.504 197.203 39.3333 197.864 38.992C198.526 38.6293 199.219 38.1067 199.944 37.424V33.136C198.216 33.328 196.84 33.616 195.816 34C194.792 34.3627 194.056 34.8 193.608 35.312C193.182 35.8027 192.968 36.3787 192.968 37.04C192.968 37.9147 193.235 38.544 193.768 38.928C194.302 39.312 194.952 39.504 195.72 39.504ZM212.495 42.448C211.599 42.448 210.884 42.2667 210.351 41.904C209.817 41.52 209.433 40.9867 209.199 40.304C208.964 39.6 208.847 38.7787 208.847 37.84V16.496H212.527V38.032C212.527 38.5227 212.612 38.8747 212.783 39.088C212.975 39.28 213.177 39.376 213.391 39.376C213.476 39.376 213.561 39.376 213.647 39.376C213.732 39.3547 213.86 39.3333 214.031 39.312L214.479 42.096C214.265 42.1813 213.999 42.256 213.679 42.32C213.359 42.4053 212.964 42.448 212.495 42.448ZM219.21 49.36C218.74 49.36 218.324 49.328 217.962 49.264C217.62 49.2 217.29 49.1147 216.97 49.008L217.674 46.128C217.844 46.1707 218.047 46.224 218.282 46.288C218.516 46.352 218.751 46.384 218.986 46.384C219.946 46.384 220.714 46.064 221.29 45.424C221.866 44.8053 222.314 44.0267 222.634 43.088L223.018 41.872L216.042 24.368H219.786L223.018 33.456C223.295 34.2453 223.562 35.0667 223.818 35.92C224.095 36.752 224.372 37.584 224.65 38.416H224.81C225.023 37.6053 225.247 36.7733 225.482 35.92C225.716 35.0667 225.951 34.2453 226.186 33.456L229.034 24.368H232.586L226.122 43.056C225.674 44.3147 225.14 45.4133 224.522 46.352C223.924 47.312 223.199 48.048 222.346 48.56C221.492 49.0933 220.447 49.36 219.21 49.36ZM240.552 42.448C239.357 42.448 238.163 42.2133 236.968 41.744C235.795 41.2747 234.781 40.688 233.928 39.984L235.688 37.584C236.456 38.2027 237.235 38.704 238.024 39.088C238.835 39.4507 239.709 39.632 240.648 39.632C241.693 39.632 242.461 39.408 242.952 38.96C243.464 38.4907 243.72 37.9253 243.72 37.264C243.72 36.7307 243.528 36.2827 243.144 35.92C242.781 35.5573 242.301 35.248 241.704 34.992C241.107 34.7147 240.488 34.4587 239.848 34.224C239.059 33.9253 238.28 33.5733 237.512 33.168C236.765 32.7413 236.147 32.208 235.656 31.568C235.165 30.9067 234.92 30.0853 234.92 29.104C234.92 28.1013 235.165 27.216 235.656 26.448C236.168 25.68 236.893 25.072 237.832 24.624C238.771 24.176 239.891 23.952 241.192 23.952C242.365 23.952 243.432 24.1547 244.392 24.56C245.373 24.9653 246.205 25.456 246.888 26.032L245.192 28.304C244.573 27.856 243.944 27.4933 243.304 27.216C242.664 26.9173 241.992 26.768 241.288 26.768C240.307 26.768 239.581 26.9813 239.112 27.408C238.643 27.8133 238.408 28.3253 238.408 28.944C238.408 29.4347 238.579 29.84 238.92 30.16C239.261 30.48 239.709 30.7573 240.264 30.992C240.84 31.2267 241.448 31.472 242.088 31.728C242.707 31.9413 243.315 32.1973 243.912 32.496C244.531 32.7733 245.085 33.1147 245.576 33.52C246.067 33.904 246.461 34.384 246.76 34.96C247.08 35.5147 247.24 36.208 247.24 37.04C247.24 38.0213 246.984 38.928 246.472 39.76C245.96 40.592 245.213 41.2533 244.232 41.744C243.251 42.2133 242.024 42.448 240.552 42.448ZM251.159 42V24.368H254.839V42H251.159ZM253.015 21.104C252.311 21.104 251.746 20.9013 251.319 20.496C250.914 20.0907 250.711 19.5467 250.711 18.864C250.711 18.224 250.914 17.7013 251.319 17.296C251.746 16.8907 252.311 16.688 253.015 16.688C253.676 16.688 254.22 16.8907 254.647 17.296C255.074 17.7013 255.287 18.224 255.287 18.864C255.287 19.5467 255.074 20.0907 254.647 20.496C254.22 20.9013 253.676 21.104 253.015 21.104ZM265.146 42.448C263.951 42.448 262.756 42.2133 261.562 41.744C260.388 41.2747 259.375 40.688 258.522 39.984L260.282 37.584C261.05 38.2027 261.828 38.704 262.618 39.088C263.428 39.4507 264.303 39.632 265.242 39.632C266.287 39.632 267.055 39.408 267.546 38.96C268.058 38.4907 268.314 37.9253 268.314 37.264C268.314 36.7307 268.122 36.2827 267.738 35.92C267.375 35.5573 266.895 35.248 266.298 34.992C265.7 34.7147 265.082 34.4587 264.442 34.224C263.652 33.9253 262.874 33.5733 262.106 33.168C261.359 32.7413 260.74 32.208 260.25 31.568C259.759 30.9067 259.514 30.0853 259.514 29.104C259.514 28.1013 259.759 27.216 260.25 26.448C260.762 25.68 261.487 25.072 262.426 24.624C263.364 24.176 264.484 23.952 265.786 23.952C266.959 23.952 268.026 24.1547 268.986 24.56C269.967 24.9653 270.799 25.456 271.482 26.032L269.786 28.304C269.167 27.856 268.538 27.4933 267.898 27.216C267.258 26.9173 266.586 26.768 265.882 26.768C264.9 26.768 264.175 26.9813 263.706 27.408C263.236 27.8133 263.002 28.3253 263.002 28.944C263.002 29.4347 263.172 29.84 263.514 30.16C263.855 30.48 264.303 30.7573 264.858 30.992C265.434 31.2267 266.042 31.472 266.682 31.728C267.3 31.9413 267.908 32.1973 268.506 32.496C269.124 32.7733 269.679 33.1147 270.17 33.52C270.66 33.904 271.055 34.384 271.354 34.96C271.674 35.5147 271.834 36.208 271.834 37.04C271.834 38.0213 271.578 38.928 271.066 39.76C270.554 40.592 269.807 41.2533 268.826 41.744C267.844 42.2133 266.618 42.448 265.146 42.448Z" fill="white"/>
</svg>
