<svg width="303" height="58" viewBox="0 0 303 58" fill="none" xmlns="http://www.w3.org/2000/svg">
<path d="M20.4656 42L21.3296 34.832H18.5136V32.368H21.6176L22.2256 27.472H19.2496V24.976H22.5456L23.3456 18.608H25.6176L24.8176 24.976H29.2656L30.0656 18.608H32.3376L31.5696 24.976H34.4496V27.472H31.2816L30.6416 32.368H33.7136V34.832H30.3536L29.4896 42H27.1856L28.0496 34.832H23.6336L22.7376 42H20.4656ZM23.8896 32.368H28.3376L28.9456 27.472H24.4976L23.8896 32.368ZM42.7156 17.2H45.3716V20.88C45.3716 22.416 45.1156 23.9307 44.6036 25.424C44.0916 26.896 43.3343 28.2293 42.3316 29.424C41.3503 30.6187 40.1023 31.5467 38.5876 32.208L36.7956 29.616C38.1183 29.0187 39.217 28.2507 40.0916 27.312C40.9663 26.352 41.617 25.3173 42.0436 24.208C42.4916 23.0773 42.7156 21.968 42.7156 20.88V17.2ZM43.3236 17.2H45.9476V20.88C45.9476 21.9253 46.161 22.96 46.5876 23.984C47.0143 25.008 47.6543 25.936 48.5076 26.768C49.361 27.6 50.4063 28.272 51.6436 28.784L49.8836 31.312C48.433 30.736 47.217 29.9147 46.2356 28.848C45.2543 27.7813 44.5183 26.5653 44.0276 25.2C43.5583 23.8133 43.3236 22.3733 43.3236 20.88V17.2ZM58.5556 15.408H61.7556V33.392H58.5556V15.408ZM54.3956 22.928H59.5156V25.648H54.3956V22.928ZM52.3156 15.952H55.4836V32.464H52.3156V15.952ZM51.9956 33.904C54.0223 33.904 55.7716 34.1173 57.2436 34.544C58.737 34.9707 59.8783 35.5893 60.6676 36.4C61.4783 37.1893 61.8836 38.1493 61.8836 39.28C61.8836 40.3893 61.4783 41.3387 60.6676 42.128C59.8783 42.9387 58.737 43.5467 57.2436 43.952C55.7716 44.3787 54.0223 44.592 51.9956 44.592C49.9903 44.592 48.241 44.3787 46.7476 43.952C45.2543 43.5467 44.1023 42.9387 43.2916 42.128C42.5023 41.3387 42.1076 40.3893 42.1076 39.28C42.1076 38.1493 42.5023 37.1893 43.2916 36.4C44.1023 35.5893 45.2543 34.9707 46.7476 34.544C48.241 34.1173 49.9903 33.904 51.9956 33.904ZM51.9956 36.464C49.9476 36.464 48.337 36.7093 47.1636 37.2C46.0116 37.6693 45.4356 38.3627 45.4356 39.28C45.4356 40.1547 46.0116 40.8373 47.1636 41.328C48.337 41.8187 49.9476 42.064 51.9956 42.064C53.361 42.064 54.5343 41.9573 55.5156 41.744C56.497 41.5093 57.2436 41.1893 57.7556 40.784C58.2676 40.3787 58.5236 39.8773 58.5236 39.28C58.5236 38.3627 57.9476 37.6693 56.7956 37.2C55.665 36.7093 54.065 36.464 51.9956 36.464ZM73.5291 16.976H76.3131V19.824C76.3131 21.744 75.9931 23.536 75.3531 25.2C74.7131 26.8427 73.7745 28.2827 72.5371 29.52C71.3211 30.736 69.8278 31.6747 68.0571 32.336L66.2971 29.616C67.8758 29.0827 69.1985 28.3253 70.2651 27.344C71.3318 26.3413 72.1425 25.1893 72.6971 23.888C73.2518 22.5867 73.5291 21.232 73.5291 19.824V16.976ZM74.2011 16.976H76.9211V19.664C76.9211 21.008 77.1771 22.288 77.6891 23.504C78.2225 24.72 79.0011 25.7867 80.0251 26.704C81.0491 27.6213 82.2971 28.3253 83.7691 28.816L82.0091 31.44C80.3451 30.8427 78.9265 29.968 77.7531 28.816C76.5798 27.664 75.6945 26.3093 75.0971 24.752C74.4998 23.1947 74.2011 21.4987 74.2011 19.664V16.976ZM87.2891 15.408H90.6491V32.624H87.2891V15.408ZM80.9211 33.424C83.9718 33.424 86.3718 33.9147 88.1211 34.896C89.8918 35.8773 90.7771 37.2533 90.7771 39.024C90.7771 40.7947 89.8918 42.16 88.1211 43.12C86.3718 44.1013 83.9718 44.592 80.9211 44.592C77.8705 44.592 75.4598 44.1013 73.6891 43.12C71.9185 42.16 71.0331 40.7947 71.0331 39.024C71.0331 37.2533 71.9185 35.8773 73.6891 34.896C75.4598 33.9147 77.8705 33.424 80.9211 33.424ZM80.9211 36.048C79.5345 36.048 78.3505 36.1653 77.3691 36.4C76.4091 36.6133 75.6731 36.944 75.1611 37.392C74.6491 37.84 74.3931 38.384 74.3931 39.024C74.3931 39.6427 74.6491 40.176 75.1611 40.624C75.6731 41.072 76.4091 41.4133 77.3691 41.648C78.3505 41.8827 79.5345 42 80.9211 42C82.3078 42 83.4811 41.8827 84.4411 41.648C85.4011 41.4133 86.1371 41.072 86.6491 40.624C87.1825 40.176 87.4491 39.6427 87.4491 39.024C87.4491 38.384 87.1825 37.84 86.6491 37.392C86.1371 36.944 85.4011 36.6133 84.4411 36.4C83.4811 36.1653 82.3078 36.048 80.9211 36.048ZM81.4011 21.2H87.8971V23.952H81.4011V21.2ZM112.343 22.16H118.039V24.848H112.343V22.16ZM112.279 27.92H117.975V30.608H112.279V27.92ZM95.9266 18.352H112.151V21.008H95.9266V18.352ZM104.151 22.288C105.495 22.288 106.668 22.5227 107.671 22.992C108.673 23.44 109.463 24.0693 110.039 24.88C110.615 25.6907 110.903 26.64 110.903 27.728C110.903 28.816 110.615 29.776 110.039 30.608C109.463 31.4187 108.673 32.0587 107.671 32.528C106.668 32.976 105.495 33.2 104.151 33.2C102.849 33.2 101.687 32.976 100.663 32.528C99.66 32.0587 98.8706 31.4187 98.2946 30.608C97.7186 29.776 97.4306 28.816 97.4306 27.728C97.4306 26.64 97.7186 25.6907 98.2946 24.88C98.8706 24.0693 99.66 23.44 100.663 22.992C101.687 22.5227 102.849 22.288 104.151 22.288ZM104.151 24.848C103.084 24.848 102.22 25.104 101.559 25.616C100.919 26.128 100.599 26.8427 100.599 27.76C100.599 28.656 100.919 29.3707 101.559 29.904C102.22 30.416 103.084 30.672 104.151 30.672C105.239 30.672 106.113 30.416 106.775 29.904C107.436 29.3707 107.767 28.656 107.767 27.76C107.767 26.8427 107.436 26.128 106.775 25.616C106.113 25.104 105.239 24.848 104.151 24.848ZM102.519 15.152H105.879V20.208H102.519V15.152ZM116.727 15.376H120.087V34.16H116.727V15.376ZM110.391 34.512C112.417 34.512 114.167 34.7147 115.639 35.12C117.111 35.504 118.241 36.08 119.031 36.848C119.841 37.5947 120.247 38.5013 120.247 39.568C120.247 40.6133 119.841 41.5093 119.031 42.256C118.241 43.024 117.111 43.6 115.639 43.984C114.167 44.3893 112.417 44.592 110.391 44.592C108.343 44.592 106.583 44.3893 105.111 43.984C103.639 43.6 102.497 43.024 101.687 42.256C100.897 41.5093 100.503 40.6133 100.503 39.568C100.503 38.5013 100.897 37.5947 101.687 36.848C102.497 36.08 103.639 35.504 105.111 35.12C106.583 34.7147 108.343 34.512 110.391 34.512ZM110.391 37.104C108.385 37.104 106.817 37.3067 105.687 37.712C104.577 38.1173 104.023 38.736 104.023 39.568C104.023 40.3573 104.577 40.9653 105.687 41.392C106.817 41.8187 108.385 42.032 110.391 42.032C112.375 42.032 113.921 41.8187 115.031 41.392C116.161 40.9653 116.727 40.3573 116.727 39.568C116.727 38.736 116.161 38.1173 115.031 37.712C113.921 37.3067 112.375 37.104 110.391 37.104ZM131.016 42L138.824 18.416H143.112L150.92 42H146.984L143.176 29.2C142.792 27.92 142.418 26.6293 142.056 25.328C141.693 24.0053 141.33 22.6827 140.968 21.36H140.84C140.498 22.704 140.136 24.0267 139.752 25.328C139.389 26.6293 139.016 27.92 138.632 29.2L134.824 42H131.016ZM135.432 35.312V32.368H146.44V35.312H135.432ZM154.026 42V18.416H157.738V42H154.026ZM170.48 17.328H184.144V30.032H170.48V17.328ZM180.88 20.016H173.776V27.344H180.88V20.016ZM188.944 15.408H192.272V31.92H188.944V15.408ZM191.376 22.096H196.4V24.88H191.376V22.096ZM181.296 34.768H184.144V35.504C184.144 36.6347 183.878 37.7013 183.344 38.704C182.832 39.6853 182.096 40.5813 181.136 41.392C180.198 42.1813 179.078 42.8427 177.776 43.376C176.475 43.9093 175.024 44.2933 173.424 44.528L172.208 41.968C173.574 41.7973 174.811 41.4987 175.92 41.072C177.051 40.6453 178.011 40.144 178.8 39.568C179.611 38.992 180.23 38.352 180.656 37.648C181.083 36.944 181.296 36.2293 181.296 35.504V34.768ZM181.968 34.768H184.816V35.504C184.816 36.208 185.03 36.912 185.456 37.616C185.904 38.2987 186.534 38.9387 187.344 39.536C188.155 40.1333 189.104 40.6453 190.192 41.072C191.302 41.4987 192.539 41.808 193.904 42L192.688 44.56C191.11 44.3253 189.659 43.9307 188.336 43.376C187.035 42.8213 185.904 42.1493 184.944 41.36C184.006 40.5493 183.27 39.6533 182.736 38.672C182.224 37.6693 181.968 36.6133 181.968 35.504V34.768ZM173.392 33.488H192.72V36.176H173.392V33.488ZM210.414 31.792H213.742V36.24H210.414V31.792ZM198.894 29.648H225.326V32.336H198.894V29.648ZM210.414 15.312H213.742V19.472H210.414V15.312ZM210.254 19.728H213.198V20.208C213.198 21.36 212.91 22.4053 212.334 23.344C211.758 24.2613 210.937 25.0613 209.87 25.744C208.803 26.4053 207.534 26.9493 206.062 27.376C204.611 27.8027 203.001 28.0907 201.23 28.24L200.238 25.712C201.795 25.6053 203.193 25.392 204.43 25.072C205.667 24.752 206.713 24.3573 207.566 23.888C208.441 23.3973 209.102 22.8427 209.55 22.224C210.019 21.584 210.254 20.912 210.254 20.208V19.728ZM210.99 19.728H213.934V20.208C213.934 20.912 214.158 21.584 214.606 22.224C215.054 22.8427 215.705 23.3973 216.558 23.888C217.433 24.3573 218.489 24.752 219.726 25.072C220.963 25.392 222.371 25.6053 223.95 25.712L222.958 28.24C221.187 28.0907 219.566 27.8027 218.094 27.376C216.643 26.9493 215.385 26.4053 214.318 25.744C213.251 25.0613 212.43 24.2613 211.854 23.344C211.278 22.4053 210.99 21.36 210.99 20.208V19.728ZM201.518 18.064H222.702V20.688H201.518V18.064ZM202.062 35.088H222.126V44.272H202.062V35.088ZM218.83 37.744H205.326V41.616H218.83V37.744ZM257.183 15.376H260.415V44.624H257.183V15.376ZM252.927 26.832H258.207V29.52H252.927V26.832ZM244.863 19.088H248.063C248.063 21.0507 247.882 22.9387 247.519 24.752C247.178 26.5653 246.591 28.304 245.759 29.968C244.948 31.6107 243.85 33.1467 242.463 34.576C241.076 35.984 239.359 37.2853 237.311 38.48L235.359 36.144C237.706 34.7787 239.572 33.264 240.959 31.6C242.346 29.936 243.338 28.1227 243.935 26.16C244.554 24.176 244.863 22.032 244.863 19.728V19.088ZM236.639 19.088H245.887V21.808H236.639V19.088ZM250.719 16.144H253.855V43.28H250.719V16.144ZM265.98 16.624H269.308V20.496H276.444V16.624H279.772V29.392H265.98V16.624ZM269.308 23.056V26.768H276.444V23.056H269.308ZM284.444 15.408H287.772V30.384H284.444V15.408ZM286.396 21.392H291.9V24.144H286.396V21.392ZM268.892 31.664H287.772V39.152H272.252V43.12H268.956V36.688H284.476V34.256H268.892V31.664ZM268.956 41.744H288.732V44.368H268.956V41.744Z" fill="white"/>
</svg>
