<svg width="278" height="58" viewBox="0 0 278 58" fill="none" xmlns="http://www.w3.org/2000/svg">
<g clip-path="url(#clip0_2439_18004)">
<path d="M6.66699 19.3117C6.66699 16.5623 8.89588 14.3334 11.6453 14.3334H15.628C15.958 14.3334 16.2254 14.6008 16.2254 14.9308V23.6927C16.2254 24.0226 15.958 24.2901 15.628 24.2901H11.6453C8.89588 24.2901 6.66699 22.0612 6.66699 19.3117Z" fill="#DD5A33"/>
<path d="M6.66699 29.6667C6.66699 26.9172 8.89588 24.6884 11.6453 24.6884H15.628C15.958 24.6884 16.2254 24.9558 16.2254 25.2858V34.0477C16.2254 34.3776 15.958 34.6451 15.628 34.6451H11.6453C8.89588 34.6451 6.66699 32.4162 6.66699 29.6667Z" fill="#9760F6"/>
<path d="M6.66699 40.0217C6.66699 37.2722 8.89588 35.0433 11.6453 35.0433H15.628C15.958 35.0433 16.2254 35.3108 16.2254 35.6407V44.4026C16.2254 44.7326 15.958 45 15.628 45H11.6453C8.89588 45 6.66699 42.7712 6.66699 40.0217Z" fill="#65CC8A"/>
<path d="M16.624 29.4676C16.624 26.8281 18.7638 24.6884 21.4032 24.6884C24.0427 24.6884 26.1825 26.8281 26.1825 29.4676V29.8658C26.1825 32.5053 24.0427 34.6451 21.4032 34.6451C18.7638 34.6451 16.624 32.5053 16.624 29.8658V29.4676Z" fill="#5DBAF8"/>
<path d="M26.1826 19.3117C26.1826 16.5623 23.9537 14.3334 21.2043 14.3334H17.2216C16.8916 14.3334 16.6242 14.6008 16.6242 14.9308V23.6927C16.6242 24.0226 16.8916 24.2901 17.2216 24.2901H21.2043C23.9537 24.2901 26.1826 22.0612 26.1826 19.3117Z" fill="#EB7A69"/>
</g>
<path d="M42.3563 42L43.2203 34.832H40.4043V32.368H43.5083L44.1163 27.472H41.1403V24.976H44.4363L45.2363 18.608H47.5083L46.7083 24.976H51.1563L51.9563 18.608H54.2283L53.4603 24.976H56.3403V27.472H53.1723L52.5323 32.368H55.6042V34.832H52.2443L51.3803 42H49.0763L49.9403 34.832H45.5243L44.6283 42H42.3563ZM45.7803 32.368H50.2283L50.8363 27.472H46.3883L45.7803 32.368ZM79.5823 15.376H82.9423V44.688H79.5823V15.376ZM60.7023 34.768H63.1343C65.1183 34.768 66.8783 34.7467 68.4143 34.704C69.9716 34.64 71.4223 34.544 72.7663 34.416C74.1316 34.2667 75.5076 34.064 76.8943 33.808L77.2143 36.624C75.8063 36.88 74.4089 37.0827 73.0223 37.232C71.6356 37.36 70.1423 37.4453 68.5423 37.488C66.9636 37.5307 65.1609 37.552 63.1343 37.552H60.7023V34.768ZM60.7023 18.096H74.6543V20.848H64.0303V35.824H60.7023V18.096ZM95.2278 19.76H97.9158V23.856C97.9158 25.4347 97.7131 27.0027 97.3078 28.56C96.9238 30.096 96.3691 31.5573 95.6438 32.944C94.9184 34.3093 94.0438 35.5253 93.0198 36.592C92.0171 37.6373 90.9078 38.4693 89.6918 39.088L87.7718 36.432C88.8811 35.8773 89.8838 35.152 90.7798 34.256C91.6971 33.3387 92.4864 32.3147 93.1478 31.184C93.8304 30.032 94.3424 28.8373 94.6838 27.6C95.0464 26.3413 95.2278 25.0933 95.2278 23.856V19.76ZM95.8998 19.76H98.5558V23.856C98.5558 25.008 98.7264 26.1707 99.0678 27.344C99.4091 28.496 99.8998 29.616 100.54 30.704C101.18 31.7707 101.948 32.7413 102.844 33.616C103.761 34.4693 104.774 35.1627 105.884 35.696L104.028 38.352C102.79 37.7547 101.67 36.9547 100.668 35.952C99.6864 34.928 98.8331 33.7653 98.1078 32.464C97.4038 31.1627 96.8598 29.776 96.4758 28.304C96.0918 26.832 95.8998 25.3493 95.8998 23.856V19.76ZM88.8278 18.288H104.732V21.072H88.8278V18.288ZM107.612 15.408H110.972V44.656H107.612V15.408ZM110.236 26.928H115.516V29.712H110.236V26.928ZM138.489 15.408H141.849V36.624H138.489V15.408ZM122.777 41.328H142.681V44.048H122.777V41.328ZM122.777 34.48H126.105V42.384H122.777V34.48ZM126.073 17.36C127.545 17.36 128.868 17.6693 130.041 18.288C131.215 18.9067 132.143 19.7707 132.825 20.88C133.508 21.968 133.849 23.2267 133.849 24.656C133.849 26.064 133.508 27.3227 132.825 28.432C132.143 29.5413 131.215 30.4053 130.041 31.024C128.868 31.6427 127.545 31.952 126.073 31.952C124.601 31.952 123.279 31.6427 122.105 31.024C120.932 30.4053 120.004 29.5413 119.321 28.432C118.639 27.3227 118.297 26.064 118.297 24.656C118.297 23.2267 118.639 21.968 119.321 20.88C120.004 19.7707 120.932 18.9067 122.105 18.288C123.279 17.6693 124.601 17.36 126.073 17.36ZM126.073 20.272C125.22 20.272 124.452 20.4533 123.769 20.816C123.087 21.1787 122.553 21.6907 122.169 22.352C121.785 22.992 121.593 23.76 121.593 24.656C121.593 25.552 121.785 26.3307 122.169 26.992C122.553 27.632 123.087 28.1333 123.769 28.496C124.452 28.8587 125.22 29.04 126.073 29.04C126.927 29.04 127.695 28.8587 128.377 28.496C129.06 28.1333 129.593 27.632 129.977 26.992C130.383 26.3307 130.585 25.552 130.585 24.656C130.585 23.76 130.383 22.992 129.977 22.352C129.593 21.6907 129.06 21.1787 128.377 20.816C127.695 20.4533 126.927 20.272 126.073 20.272ZM169.962 23.248H177.066V25.968H169.962V23.248ZM175.242 15.408H178.602V36.784H175.242V15.408ZM159.658 41.328H179.37V44.048H159.658V41.328ZM159.658 34.928H163.018V42.832H159.658V34.928ZM161.514 19.12H164.266V21.264C164.266 23.056 163.936 24.7627 163.274 26.384C162.634 27.984 161.706 29.3813 160.49 30.576C159.274 31.7707 157.802 32.6773 156.074 33.296L154.346 30.64C155.498 30.2347 156.512 29.712 157.386 29.072C158.282 28.432 159.04 27.696 159.658 26.864C160.277 26.032 160.736 25.136 161.034 24.176C161.354 23.216 161.514 22.2453 161.514 21.264V19.12ZM162.186 19.12H164.906V21.232C164.906 22.448 165.173 23.632 165.706 24.784C166.24 25.936 167.018 26.9707 168.042 27.888C169.066 28.8053 170.314 29.52 171.786 30.032L170.122 32.656C168.437 32.0587 166.997 31.1947 165.802 30.064C164.629 28.912 163.733 27.5787 163.114 26.064C162.496 24.528 162.186 22.9173 162.186 21.232V19.12ZM155.338 17.616H170.986V20.304H155.338V17.616ZM205.64 19.76H210.76V22.512H205.64V19.76ZM205.64 25.968H210.76V28.72H205.64V25.968ZM185 29.136H187.368C189.202 29.136 190.866 29.1147 192.36 29.072C193.853 29.008 195.282 28.912 196.648 28.784C198.013 28.6347 199.41 28.4427 200.84 28.208L201.16 30.928C199.688 31.184 198.248 31.3867 196.84 31.536C195.453 31.664 193.992 31.7493 192.456 31.792C190.941 31.8347 189.245 31.856 187.368 31.856H185V29.136ZM184.936 17.072H198.184V25.584H188.296V30.448H185V23.024H194.888V19.76H184.936V17.072ZM203.304 15.408H206.632V33.168H203.304V15.408ZM187.432 34.64H206.632V44.624H203.304V37.328H187.432V34.64ZM242.169 15.376H245.369V44.624H242.169V15.376ZM231.961 25.68H237.241V28.4H231.961V25.68ZM236.313 15.984H239.449V43.216H236.313V15.984ZM226.073 20.016H228.601V23.44C228.601 25.04 228.462 26.6293 228.185 28.208C227.929 29.7653 227.523 31.2267 226.969 32.592C226.435 33.9573 225.753 35.1947 224.921 36.304C224.089 37.392 223.118 38.2773 222.009 38.96L219.961 36.496C221.369 35.6213 222.521 34.5013 223.417 33.136C224.313 31.7493 224.974 30.224 225.401 28.56C225.849 26.8747 226.073 25.168 226.073 23.44V20.016ZM226.777 20.016H229.305V23.44C229.305 25.104 229.518 26.736 229.945 28.336C230.371 29.936 231.022 31.3867 231.897 32.688C232.793 33.968 233.923 35.0133 235.289 35.824L233.305 38.256C231.833 37.36 230.617 36.1547 229.657 34.64C228.697 33.104 227.971 31.376 227.481 29.456C227.011 27.536 226.777 25.5307 226.777 23.44V20.016ZM220.889 18.576H234.105V21.328H220.889V18.576ZM269.366 15.376H272.694V36.816H269.366V15.376ZM271.702 24.048H276.822V26.832H271.702V24.048ZM254.198 41.328H273.91V44.048H254.198V41.328ZM254.198 34.608H257.558V42.512H254.198V34.608ZM258.006 17.36C259.478 17.36 260.801 17.68 261.974 18.32C263.148 18.9387 264.076 19.8027 264.758 20.912C265.441 22 265.782 23.2587 265.782 24.688C265.782 26.096 265.441 27.3547 264.758 28.464C264.076 29.552 263.148 30.416 261.974 31.056C260.801 31.6747 259.478 31.984 258.006 31.984C256.556 31.984 255.244 31.6747 254.07 31.056C252.897 30.416 251.969 29.552 251.286 28.464C250.604 27.3547 250.262 26.096 250.262 24.688C250.262 23.2587 250.604 22 251.286 20.912C251.969 19.8027 252.897 18.9387 254.07 18.32C255.244 17.68 256.556 17.36 258.006 17.36ZM258.006 20.272C257.174 20.272 256.417 20.4533 255.734 20.816C255.052 21.1787 254.508 21.6907 254.102 22.352C253.718 23.0133 253.526 23.792 253.526 24.688C253.526 25.5627 253.718 26.3307 254.102 26.992C254.508 27.632 255.052 28.1333 255.734 28.496C256.417 28.8587 257.174 29.04 258.006 29.04C258.86 29.04 259.628 28.8587 260.31 28.496C261.014 28.1333 261.558 27.632 261.942 26.992C262.326 26.3307 262.518 25.5627 262.518 24.688C262.518 23.792 262.326 23.0133 261.942 22.352C261.558 21.6907 261.014 21.1787 260.31 20.816C259.628 20.4533 258.86 20.272 258.006 20.272Z" fill="white"/>
<defs>
<clipPath id="clip0_2439_18004">
<rect width="32" height="32" fill="white" transform="translate(0 13)"/>
</clipPath>
</defs>
</svg>
