<svg width="230" height="58" viewBox="0 0 230 58" fill="none" xmlns="http://www.w3.org/2000/svg">
<path d="M13.575 42L14.439 34.832H11.623V32.368H14.727L15.335 27.472H12.359V24.976H15.655L16.455 18.608H18.727L17.927 24.976H22.375L23.175 18.608H25.447L24.679 24.976H27.559V27.472H24.391L23.751 32.368H26.823V34.832H23.463L22.599 42H20.295L21.159 34.832H16.743L15.847 42H13.575ZM16.999 32.368H21.447L22.055 27.472H17.607L16.999 32.368ZM37.009 17.808H39.729V22.608C39.729 24.2933 39.537 25.9573 39.153 27.6C38.7903 29.2213 38.257 30.736 37.553 32.144C36.8703 33.552 36.0277 34.8107 35.025 35.92C34.0223 37.008 32.8917 37.872 31.633 38.512L29.617 35.792C30.7477 35.2373 31.7717 34.5013 32.689 33.584C33.6063 32.6453 34.385 31.5893 35.025 30.416C35.665 29.2213 36.1557 27.9627 36.497 26.64C36.8383 25.296 37.009 23.952 37.009 22.608V17.808ZM37.617 17.808H40.337V22.608C40.337 23.9093 40.497 25.2 40.817 26.48C41.137 27.7387 41.6063 28.944 42.225 30.096C42.865 31.2267 43.6223 32.24 44.497 33.136C45.3717 34.032 46.353 34.7467 47.441 35.28L45.393 37.968C44.177 37.328 43.089 36.4853 42.129 35.44C41.1903 34.3733 40.3797 33.1573 39.697 31.792C39.0357 30.4267 38.5237 28.9653 38.161 27.408C37.7983 25.8507 37.617 24.2507 37.617 22.608V17.808ZM49.393 15.408H52.753V44.656H49.393V15.408ZM52.017 26.96H57.297V29.776H52.017V26.96ZM74.2545 22.128H81.8705V24.88H74.2545V22.128ZM67.5345 16.688C69.0065 16.688 70.3185 16.976 71.4705 17.552C72.6225 18.128 73.5185 18.9387 74.1585 19.984C74.8198 21.008 75.1505 22.192 75.1505 23.536C75.1505 24.88 74.8198 26.0747 74.1585 27.12C73.5185 28.144 72.6225 28.9547 71.4705 29.552C70.3185 30.128 69.0065 30.416 67.5345 30.416C66.0838 30.416 64.7825 30.128 63.6305 29.552C62.4785 28.9547 61.5718 28.144 60.9105 27.12C60.2705 26.0747 59.9505 24.88 59.9505 23.536C59.9505 22.192 60.2705 21.008 60.9105 19.984C61.5718 18.9387 62.4785 18.128 63.6305 17.552C64.7825 16.976 66.0838 16.688 67.5345 16.688ZM67.5665 19.472C66.7132 19.472 65.9452 19.6427 65.2625 19.984C64.6012 20.304 64.0785 20.7733 63.6945 21.392C63.3318 22.0107 63.1505 22.7253 63.1505 23.536C63.1505 24.3467 63.3318 25.0613 63.6945 25.68C64.0785 26.2987 64.6012 26.7787 65.2625 27.12C65.9238 27.44 66.6812 27.6 67.5345 27.6C68.3878 27.6 69.1452 27.44 69.8065 27.12C70.4678 26.7787 70.9905 26.2987 71.3745 25.68C71.7585 25.0613 71.9505 24.3467 71.9505 23.536C71.9505 22.7253 71.7585 22.0107 71.3745 21.392C70.9905 20.7733 70.4678 20.304 69.8065 19.984C69.1665 19.6427 68.4198 19.472 67.5665 19.472ZM80.3985 15.408H83.7585V31.088H80.3985V15.408ZM64.7505 32.496H68.0785V35.76H80.4305V32.496H83.7585V44.272H64.7505V32.496ZM68.0785 38.352V41.584H80.4305V38.352H68.0785ZM111.744 23.248H118.848V25.968H111.744V23.248ZM117.024 15.408H120.384V36.784H117.024V15.408ZM101.44 41.328H121.152V44.048H101.44V41.328ZM101.44 34.928H104.8V42.832H101.44V34.928ZM103.296 19.12H106.048V21.264C106.048 23.056 105.717 24.7627 105.056 26.384C104.416 27.984 103.488 29.3813 102.272 30.576C101.056 31.7707 99.5835 32.6773 97.8555 33.296L96.1275 30.64C97.2795 30.2347 98.2928 29.712 99.1675 29.072C100.064 28.432 100.821 27.696 101.44 26.864C102.058 26.032 102.517 25.136 102.816 24.176C103.136 23.216 103.296 22.2453 103.296 21.264V19.12ZM103.968 19.12H106.688V21.232C106.688 22.448 106.954 23.632 107.488 24.784C108.021 25.936 108.8 26.9707 109.824 27.888C110.848 28.8053 112.096 29.52 113.568 30.032L111.904 32.656C110.218 32.0587 108.778 31.1947 107.584 30.064C106.41 28.912 105.514 27.5787 104.896 26.064C104.277 24.528 103.968 22.9173 103.968 21.232V19.12ZM97.1195 17.616H112.767V20.304H97.1195V17.616ZM147.421 19.76H152.541V22.512H147.421V19.76ZM147.421 25.968H152.541V28.72H147.421V25.968ZM126.781 29.136H129.149C130.984 29.136 132.648 29.1147 134.141 29.072C135.634 29.008 137.064 28.912 138.429 28.784C139.794 28.6347 141.192 28.4427 142.621 28.208L142.941 30.928C141.469 31.184 140.029 31.3867 138.621 31.536C137.234 31.664 135.773 31.7493 134.237 31.792C132.722 31.8347 131.026 31.856 129.149 31.856H126.781V29.136ZM126.717 17.072H139.965V25.584H130.077V30.448H126.781V23.024H136.669V19.76H126.717V17.072ZM145.085 15.408H148.413V33.168H145.085V15.408ZM129.213 34.64H148.413V44.624H145.085V37.328H129.213V34.64ZM183.95 15.376H187.15V44.624H183.95V15.376ZM173.742 25.68H179.022V28.4H173.742V25.68ZM178.094 15.984H181.23V43.216H178.094V15.984ZM167.854 20.016H170.382V23.44C170.382 25.04 170.243 26.6293 169.966 28.208C169.71 29.7653 169.305 31.2267 168.75 32.592C168.217 33.9573 167.534 35.1947 166.702 36.304C165.87 37.392 164.899 38.2773 163.79 38.96L161.742 36.496C163.15 35.6213 164.302 34.5013 165.198 33.136C166.094 31.7493 166.755 30.224 167.182 28.56C167.63 26.8747 167.854 25.168 167.854 23.44V20.016ZM168.558 20.016H171.086V23.44C171.086 25.104 171.299 26.736 171.726 28.336C172.153 29.936 172.803 31.3867 173.678 32.688C174.574 33.968 175.705 35.0133 177.07 35.824L175.086 38.256C173.614 37.36 172.398 36.1547 171.438 34.64C170.478 33.104 169.753 31.376 169.262 29.456C168.793 27.536 168.558 25.5307 168.558 23.44V20.016ZM162.67 18.576H175.886V21.328H162.67V18.576ZM211.148 15.376H214.476V36.816H211.148V15.376ZM213.484 24.048H218.604V26.832H213.484V24.048ZM195.98 41.328H215.692V44.048H195.98V41.328ZM195.98 34.608H199.34V42.512H195.98V34.608ZM199.788 17.36C201.26 17.36 202.582 17.68 203.756 18.32C204.929 18.9387 205.857 19.8027 206.54 20.912C207.222 22 207.564 23.2587 207.564 24.688C207.564 26.096 207.222 27.3547 206.54 28.464C205.857 29.552 204.929 30.416 203.756 31.056C202.582 31.6747 201.26 31.984 199.788 31.984C198.337 31.984 197.025 31.6747 195.852 31.056C194.678 30.416 193.75 29.552 193.068 28.464C192.385 27.3547 192.044 26.096 192.044 24.688C192.044 23.2587 192.385 22 193.068 20.912C193.75 19.8027 194.678 18.9387 195.852 18.32C197.025 17.68 198.337 17.36 199.788 17.36ZM199.788 20.272C198.956 20.272 198.198 20.4533 197.516 20.816C196.833 21.1787 196.289 21.6907 195.884 22.352C195.5 23.0133 195.308 23.792 195.308 24.688C195.308 25.5627 195.5 26.3307 195.884 26.992C196.289 27.632 196.833 28.1333 197.516 28.496C198.198 28.8587 198.956 29.04 199.788 29.04C200.641 29.04 201.409 28.8587 202.092 28.496C202.796 28.1333 203.34 27.632 203.724 26.992C204.108 26.3307 204.3 25.5627 204.3 24.688C204.3 23.792 204.108 23.0133 203.724 22.352C203.34 21.6907 202.796 21.1787 202.092 20.816C201.409 20.4533 200.641 20.272 199.788 20.272Z" fill="white"/>
</svg>
