<svg width="265" height="58" viewBox="0 0 265 58" fill="none" xmlns="http://www.w3.org/2000/svg">
<path d="M15.2197 18.329L37.7807 18.329" stroke="white" stroke-width="1.10955"/>
<path d="M19.8434 32.3834L15.96 36.2669M26.5007 32.3834V36.2669M32.9731 32.3834L36.8566 36.2669" stroke="#7244ED" stroke-width="1.2" stroke-linecap="round"/>
<rect x="13.1859" y="35.1573" width="6.28748" height="6.28748" rx="0.554777" fill="#7244ED" stroke="#7244ED" stroke-width="0.369851"/>
<rect x="23.5423" y="35.1573" width="6.28748" height="6.28748" rx="0.554777" fill="#7244ED" stroke="#7244ED" stroke-width="0.369851"/>
<rect x="33.5277" y="35.1573" width="6.28748" height="6.28748" rx="0.554777" fill="#7244ED" stroke="#7244ED" stroke-width="0.369851"/>
<rect x="14.1113" y="16.11" width="24.78" height="17.0132" rx="2.95881" fill="#7244ED"/>
<path d="M23.7266 23.1372H32.9728" stroke="white" stroke-width="1.84926" stroke-linecap="round"/>
<path d="M23.9121 27.3904H33.1584" stroke="white" stroke-width="1.84926" stroke-linecap="round"/>
<circle cx="19.8426" cy="22.9522" r="0.924629" fill="#CAC0F9"/>
<circle cx="19.8426" cy="27.3904" r="0.924629" fill="#CAC0F9"/>
<path d="M55.6688 42L56.5328 34.832H53.7168V32.368H56.8208L57.4288 27.472H54.4528V24.976H57.7488L58.5488 18.608H60.8208L60.0208 24.976H64.4688L65.2688 18.608H67.5408L66.7728 24.976H69.6528V27.472H66.4848L65.8448 32.368H68.9167V34.832H65.5568L64.6928 42H62.3888L63.2528 34.832H58.8368L57.9408 42H55.6688ZM59.0928 32.368H63.5408L64.1488 27.472H59.7008L59.0928 32.368ZM79.1028 17.808H81.8228V22.608C81.8228 24.2933 81.6308 25.9573 81.2468 27.6C80.8841 29.2213 80.3508 30.736 79.6468 32.144C78.9641 33.552 78.1214 34.8107 77.1188 35.92C76.1161 37.008 74.9854 37.872 73.7268 38.512L71.7108 35.792C72.8414 35.2373 73.8654 34.5013 74.7828 33.584C75.7001 32.6453 76.4788 31.5893 77.1188 30.416C77.7588 29.2213 78.2494 27.9627 78.5908 26.64C78.9321 25.296 79.1028 23.952 79.1028 22.608V17.808ZM79.7108 17.808H82.4308V22.608C82.4308 23.9093 82.5908 25.2 82.9108 26.48C83.2308 27.7387 83.7001 28.944 84.3188 30.096C84.9588 31.2267 85.7161 32.24 86.5908 33.136C87.4654 34.032 88.4468 34.7467 89.5347 35.28L87.4868 37.968C86.2708 37.328 85.1828 36.4853 84.2228 35.44C83.2841 34.3733 82.4734 33.1573 81.7908 31.792C81.1294 30.4267 80.6174 28.9653 80.2548 27.408C79.8921 25.8507 79.7108 24.2507 79.7108 22.608V17.808ZM91.4868 15.408H94.8468V44.656H91.4868V15.408ZM94.1108 26.96H99.3908V29.776H94.1108V26.96ZM116.348 22.128H123.964V24.88H116.348V22.128ZM109.628 16.688C111.1 16.688 112.412 16.976 113.564 17.552C114.716 18.128 115.612 18.9387 116.252 19.984C116.914 21.008 117.244 22.192 117.244 23.536C117.244 24.88 116.914 26.0747 116.252 27.12C115.612 28.144 114.716 28.9547 113.564 29.552C112.412 30.128 111.1 30.416 109.628 30.416C108.178 30.416 106.876 30.128 105.724 29.552C104.572 28.9547 103.666 28.144 103.004 27.12C102.364 26.0747 102.044 24.88 102.044 23.536C102.044 22.192 102.364 21.008 103.004 19.984C103.666 18.9387 104.572 18.128 105.724 17.552C106.876 16.976 108.178 16.688 109.628 16.688ZM109.66 19.472C108.807 19.472 108.039 19.6427 107.356 19.984C106.695 20.304 106.172 20.7733 105.788 21.392C105.426 22.0107 105.244 22.7253 105.244 23.536C105.244 24.3467 105.426 25.0613 105.788 25.68C106.172 26.2987 106.695 26.7787 107.356 27.12C108.018 27.44 108.775 27.6 109.628 27.6C110.482 27.6 111.239 27.44 111.9 27.12C112.562 26.7787 113.084 26.2987 113.468 25.68C113.852 25.0613 114.044 24.3467 114.044 23.536C114.044 22.7253 113.852 22.0107 113.468 21.392C113.084 20.7733 112.562 20.304 111.9 19.984C111.26 19.6427 110.514 19.472 109.66 19.472ZM122.492 15.408H125.852V31.088H122.492V15.408ZM106.844 32.496H110.172V35.76H122.524V32.496H125.852V44.272H106.844V32.496ZM110.172 38.352V41.584H122.524V38.352H110.172ZM138.266 32.784H141.626V37.52H138.266V32.784ZM150.554 15.408H153.914V44.656H150.554V15.408ZM152.794 27.568H158.074V30.352H152.794V27.568ZM131.194 39.376L130.746 36.624C132.474 36.624 134.362 36.6133 136.41 36.592C138.458 36.5707 140.559 36.496 142.714 36.368C144.868 36.24 146.938 36.0373 148.922 35.76L149.178 38.192C147.108 38.576 145.007 38.8533 142.874 39.024C140.74 39.1947 138.682 39.3013 136.698 39.344C134.714 39.3653 132.879 39.376 131.194 39.376ZM131.258 18.8H148.602V21.456H131.258V18.8ZM139.962 22.896C141.327 22.896 142.532 23.1307 143.578 23.6C144.644 24.048 145.476 24.6773 146.074 25.488C146.671 26.2987 146.97 27.2587 146.97 28.368C146.97 29.456 146.671 30.416 146.074 31.248C145.476 32.0587 144.644 32.688 143.578 33.136C142.532 33.584 141.327 33.808 139.962 33.808C138.575 33.808 137.348 33.584 136.282 33.136C135.236 32.688 134.415 32.0587 133.818 31.248C133.242 30.416 132.954 29.456 132.954 28.368C132.954 27.2587 133.242 26.2987 133.818 25.488C134.415 24.6773 135.236 24.048 136.282 23.6C137.348 23.1307 138.575 22.896 139.962 22.896ZM139.962 25.456C138.81 25.456 137.882 25.7227 137.178 26.256C136.474 26.768 136.122 27.472 136.122 28.368C136.122 29.264 136.474 29.968 137.178 30.48C137.882 30.992 138.81 31.248 139.962 31.248C141.114 31.248 142.042 30.992 142.746 30.48C143.45 29.968 143.802 29.264 143.802 28.368C143.802 27.472 143.45 26.768 142.746 26.256C142.042 25.7227 141.114 25.456 139.962 25.456ZM138.266 15.472H141.626V20.688H138.266V15.472ZM182.731 24.496H189.035V27.248H182.731V24.496ZM179.403 17.68H182.859C182.859 20.304 182.421 22.6827 181.547 24.816C180.672 26.928 179.264 28.7733 177.323 30.352C175.381 31.9307 172.811 33.2533 169.611 34.32L168.299 31.664C170.389 31.0027 172.139 30.2347 173.547 29.36C174.976 28.4853 176.117 27.5147 176.971 26.448C177.824 25.3813 178.443 24.2187 178.827 22.96C179.211 21.7013 179.403 20.368 179.403 18.96V17.68ZM169.707 17.68H181.483V20.4H169.707V17.68ZM179.595 23.312V25.616L168.747 26.448L168.235 23.76L179.595 23.312ZM188.555 15.408H191.915V37.072H188.555V15.408ZM173.227 41.328H192.747V44.048H173.227V41.328ZM173.227 34.928H176.587V43.024H173.227V34.928ZM212.104 20.24H219.464V22.96H212.104V20.24ZM217.992 15.408H221.352V30.384H217.992V15.408ZM202.312 31.76H221.352V39.152H205.672V43.248H202.376V36.688H218.056V34.384H202.312V31.76ZM202.376 41.648H222.344V44.272H202.376V41.648ZM204.136 16.336H206.888V18.768C206.888 20.5813 206.568 22.2773 205.928 23.856C205.288 25.4133 204.36 26.768 203.144 27.92C201.95 29.072 200.488 29.936 198.76 30.512L197.032 27.888C198.547 27.376 199.838 26.6613 200.904 25.744C201.971 24.8267 202.771 23.7707 203.304 22.576C203.859 21.3813 204.136 20.112 204.136 18.768V16.336ZM204.776 16.336H207.496V18.768C207.496 19.6853 207.646 20.5813 207.944 21.456C208.243 22.3093 208.691 23.12 209.288 23.888C209.886 24.6347 210.611 25.3067 211.464 25.904C212.318 26.48 213.288 26.9387 214.376 27.28L212.648 29.904C210.984 29.328 209.566 28.496 208.392 27.408C207.219 26.2987 206.323 25.008 205.704 23.536C205.086 22.0427 204.776 20.4533 204.776 18.768V16.336ZM228.198 28.944H230.63C232.699 28.944 234.502 28.9227 236.038 28.88C237.595 28.8373 239.035 28.7627 240.358 28.656C241.68 28.5493 243.024 28.3893 244.39 28.176L244.71 30.8C243.323 31.0347 241.947 31.216 240.582 31.344C239.216 31.4507 237.744 31.5253 236.166 31.568C234.587 31.5893 232.742 31.6 230.63 31.6H228.198V28.944ZM228.198 17.488H242.182V20.176H231.526V30.128H228.198V17.488ZM230.47 23.152H241.35V25.808H230.47V23.152ZM247.302 15.408H250.662V33.328H247.302V15.408ZM240.902 33.744C242.95 33.744 244.71 33.968 246.182 34.416C247.675 34.8427 248.816 35.4613 249.606 36.272C250.416 37.0613 250.822 38.032 250.822 39.184C250.822 40.912 249.936 42.2453 248.166 43.184C246.395 44.1227 243.974 44.592 240.902 44.592C237.83 44.592 235.408 44.1227 233.638 43.184C231.888 42.2453 231.014 40.912 231.014 39.184C231.014 37.4773 231.888 36.144 233.638 35.184C235.408 34.224 237.83 33.744 240.902 33.744ZM240.902 36.368C239.536 36.368 238.352 36.4747 237.35 36.688C236.368 36.9013 235.622 37.2213 235.11 37.648C234.598 38.0533 234.342 38.5653 234.342 39.184C234.342 39.7813 234.598 40.2933 235.11 40.72C235.622 41.1467 236.368 41.4667 237.35 41.68C238.352 41.8933 239.536 42 240.902 42C242.31 42 243.494 41.8933 244.454 41.68C245.435 41.4667 246.182 41.1467 246.694 40.72C247.206 40.2933 247.462 39.7813 247.462 39.184C247.462 38.5653 247.206 38.0533 246.694 37.648C246.182 37.2213 245.435 36.9013 244.454 36.688C243.494 36.4747 242.31 36.368 240.902 36.368Z" fill="white"/>
</svg>
