<svg width="301" height="58" viewBox="0 0 301 58" fill="none" xmlns="http://www.w3.org/2000/svg">
<path d="M26.0152 25.2063C25.0808 25.2063 24.2058 25.5688 23.5433 26.2313C22.8839 26.8938 22.5183 27.7688 22.5183 28.7031C22.5183 29.6375 22.8839 30.5125 23.5433 31.175C24.2058 31.8344 25.0808 32.2 26.0152 32.2C26.9495 32.2 27.8245 31.8344 28.487 31.175C29.1464 30.5125 29.512 29.6375 29.512 28.7031C29.512 27.7688 29.1464 26.8938 28.487 26.2313C28.1634 25.9052 27.7783 25.6467 27.3539 25.4707C26.9296 25.2948 26.4745 25.2049 26.0152 25.2063ZM38.8995 32.5656L36.8558 30.8188C36.9527 30.225 37.0026 29.6188 37.0026 29.0156C37.0026 28.4125 36.9527 27.8031 36.8558 27.2125L38.8995 25.4656C39.0539 25.3335 39.1644 25.1574 39.2163 24.961C39.2682 24.7645 39.2591 24.5568 39.1901 24.3657L39.162 24.2844C38.5996 22.7116 37.7568 21.2536 36.6745 19.9813L36.6183 19.9156C36.4869 19.7611 36.3117 19.65 36.1159 19.597C35.9201 19.5441 35.7128 19.5516 35.5214 19.6188L32.9839 20.5219C32.0464 19.7531 31.0027 19.1469 29.8714 18.725L29.3808 16.0719C29.3438 15.872 29.2468 15.6882 29.1028 15.5447C28.9588 15.4013 28.7745 15.305 28.5745 15.2688L28.4902 15.2531C26.8652 14.9594 25.1527 14.9594 23.5277 15.2531L23.4433 15.2688C23.2433 15.305 23.059 15.4013 22.915 15.5447C22.771 15.6882 22.674 15.872 22.637 16.0719L22.1433 18.7375C21.0227 19.1627 19.9789 19.7675 19.0527 20.5281L16.4964 19.6188C16.305 19.5511 16.0976 19.5432 15.9017 19.5963C15.7058 19.6493 15.5306 19.7607 15.3995 19.9156L15.3433 19.9813C14.2629 21.255 13.4204 22.7125 12.8558 24.2844L12.8277 24.3657C12.687 24.7563 12.8027 25.1938 13.1183 25.4656L15.187 27.2313C15.0902 27.8188 15.0433 28.4188 15.0433 29.0125C15.0433 29.6125 15.0902 30.2125 15.187 30.7938L13.1245 32.5594C12.9701 32.6916 12.8596 32.8676 12.8077 33.0641C12.7558 33.2606 12.7649 33.4682 12.8339 33.6594L12.862 33.7407C13.4277 35.3125 14.262 36.7656 15.3495 38.0438L15.4058 38.1094C15.5372 38.2639 15.7124 38.375 15.9082 38.428C16.104 38.481 16.3112 38.4734 16.5027 38.4063L19.0589 37.4969C19.9902 38.2625 21.0277 38.8688 22.1495 39.2875L22.6433 41.9531C22.6803 42.153 22.7772 42.3369 22.9213 42.4803C23.0653 42.6238 23.2495 42.72 23.4495 42.7563L23.5339 42.7719C25.1749 43.0672 26.8554 43.0672 28.4964 42.7719L28.5808 42.7563C28.7808 42.72 28.965 42.6238 29.109 42.4803C29.2531 42.3369 29.35 42.153 29.387 41.9531L29.8776 39.3C31.0089 38.875 32.0527 38.2719 32.9902 37.5031L35.5277 38.4063C35.719 38.474 35.9264 38.4818 36.1224 38.4288C36.3183 38.3757 36.4934 38.2644 36.6245 38.1094L36.6808 38.0438C37.7683 36.7594 38.6027 35.3125 39.1683 33.7407L39.1964 33.6594C39.3308 33.2719 39.2152 32.8375 38.8995 32.5656ZM26.0152 34.1969C22.9808 34.1969 20.5214 31.7375 20.5214 28.7031C20.5214 25.6688 22.9808 23.2094 26.0152 23.2094C29.0495 23.2094 31.5089 25.6688 31.5089 28.7031C31.5089 31.7375 29.0495 34.1969 26.0152 34.1969Z" fill="#7244ED"/>
<circle cx="26.0002" cy="29" r="5.76" fill="white"/>
<path d="M55.3563 42L56.2203 34.832H53.4043V32.368H56.5083L57.1163 27.472H54.1403V24.976H57.4363L58.2363 18.608H60.5083L59.7083 24.976H64.1563L64.9563 18.608H67.2283L66.4603 24.976H69.3403V27.472H66.1723L65.5323 32.368H68.6042V34.832H65.2443L64.3803 42H62.0763L62.9403 34.832H58.5243L57.6283 42H55.3563ZM58.7803 32.368H63.2283L63.8363 27.472H59.3883L58.7803 32.368ZM92.6783 15.376H96.0383V44.624H92.6783V15.376ZM84.0703 18.48H87.3983C87.3983 20.656 87.1636 22.736 86.6943 24.72C86.2249 26.704 85.4569 28.592 84.3903 30.384C83.3449 32.1547 81.9583 33.7973 80.2303 35.312C78.5236 36.8267 76.4116 38.192 73.8943 39.408L72.1023 36.752C74.9396 35.3867 77.2329 33.8293 78.9823 32.08C80.7316 30.3307 82.0116 28.3787 82.8223 26.224C83.6543 24.048 84.0703 21.6587 84.0703 19.056V18.48ZM73.5423 18.48H85.5743V21.168H73.5423V18.48ZM104.804 23.152H124.772V25.84H104.804V23.152ZM104.804 15.92H108.132V24.336H104.804V15.92ZM101.348 28.816H127.78V31.536H101.348V28.816ZM114.468 33.808C117.625 33.808 120.089 34.2773 121.86 35.216C123.652 36.1547 124.548 37.4773 124.548 39.184C124.548 40.8907 123.652 42.2133 121.86 43.152C120.089 44.0907 117.625 44.56 114.468 44.56C111.353 44.56 108.9 44.0907 107.108 43.152C105.316 42.2133 104.42 40.8907 104.42 39.184C104.42 37.4773 105.316 36.1547 107.108 35.216C108.9 34.2773 111.353 33.808 114.468 33.808ZM114.468 36.4C113.06 36.4 111.854 36.5067 110.852 36.72C109.849 36.9333 109.081 37.2427 108.548 37.648C108.036 38.0533 107.78 38.5653 107.78 39.184C107.78 39.7813 108.036 40.2827 108.548 40.688C109.081 41.0933 109.849 41.4027 110.852 41.616C111.854 41.8293 113.06 41.936 114.468 41.936C115.918 41.936 117.134 41.8293 118.116 41.616C119.118 41.4027 119.876 41.0933 120.388 40.688C120.9 40.2827 121.156 39.7813 121.156 39.184C121.156 38.5653 120.9 38.0533 120.388 37.648C119.876 37.2427 119.118 36.9333 118.116 36.72C117.134 36.5067 115.918 36.4 114.468 36.4ZM145.909 31.056H149.269V37.264H145.909V31.056ZM145.909 20.688H148.597V21.36C148.597 23.024 148.266 24.5707 147.605 26C146.965 27.4293 146.026 28.656 144.789 29.68C143.573 30.704 142.101 31.472 140.373 31.984L138.837 29.392C140.33 28.9653 141.599 28.3467 142.645 27.536C143.711 26.7253 144.522 25.7973 145.077 24.752C145.631 23.6853 145.909 22.5547 145.909 21.36V20.688ZM146.581 20.688H149.301V21.36C149.301 22.4907 149.578 23.5787 150.133 24.624C150.687 25.648 151.498 26.544 152.565 27.312C153.631 28.08 154.901 28.6773 156.373 29.104L154.869 31.696C153.141 31.2053 151.658 30.4587 150.421 29.456C149.183 28.4533 148.234 27.2587 147.573 25.872C146.911 24.4853 146.581 22.9813 146.581 21.36V20.688ZM139.605 19.024H155.669V21.712H139.605V19.024ZM145.909 15.632H149.269V20.24H145.909V15.632ZM158.645 15.376H162.005V44.688H158.645V15.376ZM138.517 38.928L138.069 36.144C139.818 36.144 141.749 36.1333 143.861 36.112C145.994 36.0693 148.17 35.984 150.389 35.856C152.629 35.7067 154.794 35.472 156.885 35.152L157.141 37.616C154.986 38.0213 152.799 38.32 150.581 38.512C148.383 38.6827 146.25 38.7893 144.181 38.832C142.111 38.8747 140.223 38.9067 138.517 38.928ZM174.514 18.352H177.266V20.496C177.266 22.288 176.936 23.984 176.274 25.584C175.634 27.184 174.706 28.5813 173.49 29.776C172.274 30.9707 170.802 31.8773 169.074 32.496L167.346 29.84C168.498 29.4347 169.512 28.912 170.386 28.272C171.282 27.632 172.04 26.896 172.658 26.064C173.277 25.2107 173.736 24.3147 174.034 23.376C174.354 22.416 174.514 21.456 174.514 20.496V18.352ZM175.186 18.352H177.906V20.464C177.906 21.68 178.173 22.864 178.706 24.016C179.24 25.168 180.018 26.2027 181.042 27.12C182.066 28.016 183.314 28.72 184.786 29.232L183.122 31.856C181.437 31.28 179.997 30.416 178.802 29.264C177.629 28.112 176.733 26.7787 176.114 25.264C175.496 23.7493 175.186 22.1493 175.186 20.464V18.352ZM183.154 22.736H189.202V25.488H183.154V22.736ZM168.338 17.232H183.986V19.92H168.338V17.232ZM171.922 34.32H191.602V44.656H188.242V37.008H171.922V34.32ZM188.242 15.408H191.602V32.848H188.242V15.408ZM204.016 32.784H207.376V37.52H204.016V32.784ZM216.304 15.408H219.664V44.656H216.304V15.408ZM218.544 27.568H223.824V30.352H218.544V27.568ZM196.944 39.376L196.496 36.624C198.224 36.624 200.112 36.6133 202.16 36.592C204.208 36.5707 206.309 36.496 208.464 36.368C210.618 36.24 212.688 36.0373 214.672 35.76L214.928 38.192C212.858 38.576 210.757 38.8533 208.624 39.024C206.49 39.1947 204.432 39.3013 202.448 39.344C200.464 39.3653 198.629 39.376 196.944 39.376ZM197.008 18.8H214.352V21.456H197.008V18.8ZM205.712 22.896C207.077 22.896 208.282 23.1307 209.328 23.6C210.394 24.048 211.226 24.6773 211.824 25.488C212.421 26.2987 212.72 27.2587 212.72 28.368C212.72 29.456 212.421 30.416 211.824 31.248C211.226 32.0587 210.394 32.688 209.328 33.136C208.282 33.584 207.077 33.808 205.712 33.808C204.325 33.808 203.098 33.584 202.032 33.136C200.986 32.688 200.165 32.0587 199.568 31.248C198.992 30.416 198.704 29.456 198.704 28.368C198.704 27.2587 198.992 26.2987 199.568 25.488C200.165 24.6773 200.986 24.048 202.032 23.6C203.098 23.1307 204.325 22.896 205.712 22.896ZM205.712 25.456C204.56 25.456 203.632 25.7227 202.928 26.256C202.224 26.768 201.872 27.472 201.872 28.368C201.872 29.264 202.224 29.968 202.928 30.48C203.632 30.992 204.56 31.248 205.712 31.248C206.864 31.248 207.792 30.992 208.496 30.48C209.2 29.968 209.552 29.264 209.552 28.368C209.552 27.472 209.2 26.768 208.496 26.256C207.792 25.7227 206.864 25.456 205.712 25.456ZM204.016 15.472H207.376V20.688H204.016V15.472ZM255.169 15.376H258.369V44.624H255.169V15.376ZM244.961 25.68H250.241V28.4H244.961V25.68ZM249.313 15.984H252.449V43.216H249.313V15.984ZM239.073 20.016H241.601V23.44C241.601 25.04 241.462 26.6293 241.185 28.208C240.929 29.7653 240.523 31.2267 239.969 32.592C239.435 33.9573 238.753 35.1947 237.921 36.304C237.089 37.392 236.118 38.2773 235.009 38.96L232.961 36.496C234.369 35.6213 235.521 34.5013 236.417 33.136C237.313 31.7493 237.974 30.224 238.401 28.56C238.849 26.8747 239.073 25.168 239.073 23.44V20.016ZM239.777 20.016H242.305V23.44C242.305 25.104 242.518 26.736 242.945 28.336C243.371 29.936 244.022 31.3867 244.897 32.688C245.793 33.968 246.923 35.0133 248.289 35.824L246.305 38.256C244.833 37.36 243.617 36.1547 242.657 34.64C241.697 33.104 240.971 31.376 240.481 29.456C240.011 27.536 239.777 25.5307 239.777 23.44V20.016ZM233.889 18.576H247.105V21.328H233.889V18.576ZM282.366 15.376H285.694V36.816H282.366V15.376ZM284.702 24.048H289.822V26.832H284.702V24.048ZM267.198 41.328H286.91V44.048H267.198V41.328ZM267.198 34.608H270.558V42.512H267.198V34.608ZM271.006 17.36C272.478 17.36 273.801 17.68 274.974 18.32C276.148 18.9387 277.076 19.8027 277.758 20.912C278.441 22 278.782 23.2587 278.782 24.688C278.782 26.096 278.441 27.3547 277.758 28.464C277.076 29.552 276.148 30.416 274.974 31.056C273.801 31.6747 272.478 31.984 271.006 31.984C269.556 31.984 268.244 31.6747 267.07 31.056C265.897 30.416 264.969 29.552 264.286 28.464C263.604 27.3547 263.262 26.096 263.262 24.688C263.262 23.2587 263.604 22 264.286 20.912C264.969 19.8027 265.897 18.9387 267.07 18.32C268.244 17.68 269.556 17.36 271.006 17.36ZM271.006 20.272C270.174 20.272 269.417 20.4533 268.734 20.816C268.052 21.1787 267.508 21.6907 267.102 22.352C266.718 23.0133 266.526 23.792 266.526 24.688C266.526 25.5627 266.718 26.3307 267.102 26.992C267.508 27.632 268.052 28.1333 268.734 28.496C269.417 28.8587 270.174 29.04 271.006 29.04C271.86 29.04 272.628 28.8587 273.31 28.496C274.014 28.1333 274.558 27.632 274.942 26.992C275.326 26.3307 275.518 25.5627 275.518 24.688C275.518 23.792 275.326 23.0133 274.942 22.352C274.558 21.6907 274.014 21.1787 273.31 20.816C272.628 20.4533 271.86 20.272 271.006 20.272Z" fill="white"/>
</svg>
