<svg width="347" height="58" viewBox="0 0 347 58" fill="none" xmlns="http://www.w3.org/2000/svg">
<rect x="16.1772" y="18.7085" width="20.4051" height="25.1139" rx="1.96203" fill="#FEFEFF" stroke="#7244ED" stroke-width="2.35443"/>
<path d="M32.8545 18.5127V19.4932C32.8545 20.4684 32.0641 21.2598 31.0889 21.2598H22.0635C21.0883 21.2597 20.2979 20.4684 20.2979 19.4932V18.5127H32.8545Z" fill="#7244ED" stroke="#7244ED" stroke-width="0.392405"/>
<path d="M30.8941 27.9297L23.2422 35.5816" stroke="#7244ED" stroke-width="1.96203" stroke-linecap="round"/>
<circle cx="31.4776" cy="26.9503" r="1.76582" fill="#7244ED" stroke="#7244ED" stroke-width="0.392405"/>
<circle cx="22.4542" cy="36.3683" r="1.76582" fill="#7244ED" stroke="#7244ED" stroke-width="0.392405"/>
<path d="M22.8466 25.7734L20.4922 28.1279" stroke="#7244ED" stroke-width="1.96203" stroke-linecap="round"/>
<path d="M32.2685 36.3672L29.9141 38.7216" stroke="#7244ED" stroke-width="1.96203" stroke-linecap="round"/>
<path d="M22.8438 28.1279L20.4893 25.7734" stroke="#7244ED" stroke-width="1.96203" stroke-linecap="round"/>
<path d="M32.2656 38.7216L29.9112 36.3672" stroke="#7244ED" stroke-width="1.96203" stroke-linecap="round"/>
<mask id="path-10-inside-1_2575_3632" fill="white">
<path d="M29.5207 17.1392C29.5207 18.873 28.1152 20.2785 26.3814 20.2785C24.6477 20.2785 23.2422 18.873 23.2422 17.1392C23.2422 15.4055 24.6477 14 26.3814 14C28.1152 14 29.5207 15.4055 29.5207 17.1392ZM25.4037 17.1392C25.4037 17.6792 25.8415 18.117 26.3814 18.117C26.9214 18.117 27.3591 17.6792 27.3591 17.1392C27.3591 16.5993 26.9214 16.1615 26.3814 16.1615C25.8415 16.1615 25.4037 16.5993 25.4037 17.1392Z"/>
</mask>
<path d="M29.5207 17.1392C29.5207 18.873 28.1152 20.2785 26.3814 20.2785C24.6477 20.2785 23.2422 18.873 23.2422 17.1392C23.2422 15.4055 24.6477 14 26.3814 14C28.1152 14 29.5207 15.4055 29.5207 17.1392ZM25.4037 17.1392C25.4037 17.6792 25.8415 18.117 26.3814 18.117C26.9214 18.117 27.3591 17.6792 27.3591 17.1392C27.3591 16.5993 26.9214 16.1615 26.3814 16.1615C25.8415 16.1615 25.4037 16.5993 25.4037 17.1392Z" fill="#7244ED" stroke="#7244ED" stroke-width="0.78481" mask="url(#path-10-inside-1_2575_3632)"/>
<path d="M55.2469 42L56.1109 34.832H53.2949V32.368H56.3989L57.0069 27.472H54.0309V24.976H57.3269L58.1269 18.608H60.3989L59.5989 24.976H64.0469L64.8469 18.608H67.1189L66.3509 24.976H69.2309V27.472H66.0629L65.4229 32.368H68.4949V34.832H65.1349L64.2709 42H61.9669L62.8309 34.832H58.4149L57.5189 42H55.2469ZM58.6709 32.368H63.1189L63.7269 27.472H59.2789L58.6709 32.368ZM82.5849 42.448C81.1129 42.448 79.7369 42.1813 78.4569 41.648C77.1982 41.0933 76.0889 40.2933 75.1289 39.248C74.1689 38.2027 73.4222 36.9333 72.8889 35.44C72.3555 33.9253 72.0889 32.1973 72.0889 30.256C72.0889 28.336 72.3662 26.6187 72.9209 25.104C73.4755 23.5893 74.2329 22.3093 75.1929 21.264C76.1529 20.1973 77.2835 19.3867 78.5849 18.832C79.8862 18.2773 81.2835 18 82.7769 18C84.2275 18 85.5182 18.2987 86.6489 18.896C87.7795 19.4933 88.7075 20.1867 89.4329 20.976L87.4489 23.344C86.8302 22.7253 86.1369 22.224 85.3689 21.84C84.6222 21.4347 83.7795 21.232 82.8409 21.232C81.4755 21.232 80.2702 21.5947 79.2249 22.32C78.2009 23.0453 77.3902 24.0693 76.7929 25.392C76.2169 26.7147 75.9289 28.304 75.9289 30.16C75.9289 32.016 76.2062 33.6267 76.7609 34.992C77.3155 36.336 78.1049 37.3707 79.1289 38.096C80.1529 38.8213 81.3582 39.184 82.7449 39.184C83.8115 39.184 84.7609 38.96 85.5929 38.512C86.4462 38.0427 87.2249 37.424 87.9289 36.656L89.9449 39.024C88.9849 40.1333 87.8969 40.9867 86.6809 41.584C85.4862 42.16 84.1209 42.448 82.5849 42.448ZM100.84 42.448C99.3897 42.448 98.0244 42.0853 96.7444 41.36C95.4857 40.6133 94.4617 39.5573 93.6724 38.192C92.9044 36.8053 92.5204 35.1413 92.5204 33.2C92.5204 31.2373 92.9044 29.5733 93.6724 28.208C94.4617 26.8213 95.4857 25.7653 96.7444 25.04C98.0244 24.3147 99.3897 23.952 100.84 23.952C101.907 23.952 102.942 24.1653 103.944 24.592C104.947 24.9973 105.832 25.5947 106.6 26.384C107.368 27.1733 107.976 28.144 108.424 29.296C108.872 30.4267 109.096 31.728 109.096 33.2C109.096 35.1413 108.702 36.8053 107.912 38.192C107.144 39.5573 106.131 40.6133 104.872 41.36C103.635 42.0853 102.291 42.448 100.84 42.448ZM100.84 39.376C101.758 39.376 102.547 39.12 103.208 38.608C103.891 38.096 104.414 37.3813 104.776 36.464C105.139 35.5253 105.32 34.4373 105.32 33.2C105.32 31.9627 105.139 30.8853 104.776 29.968C104.414 29.0293 103.891 28.304 103.208 27.792C102.547 27.2587 101.758 26.992 100.84 26.992C99.9017 26.992 99.091 27.2587 98.4084 27.792C97.747 28.304 97.235 29.0293 96.8724 29.968C96.5097 30.8853 96.3284 31.9627 96.3284 33.2C96.3284 34.4373 96.5097 35.5253 96.8724 36.464C97.235 37.3813 97.747 38.096 98.4084 38.608C99.091 39.12 99.9017 39.376 100.84 39.376ZM113.456 42V24.368H116.464L116.784 26.832H116.848C117.659 26.0427 118.533 25.3707 119.472 24.816C120.411 24.24 121.477 23.952 122.672 23.952C124.549 23.952 125.915 24.56 126.768 25.776C127.643 26.9707 128.08 28.688 128.08 30.928V42H124.4V31.376C124.4 29.8613 124.165 28.784 123.696 28.144C123.227 27.4827 122.469 27.152 121.424 27.152C120.613 27.152 119.888 27.3547 119.248 27.76C118.629 28.144 117.925 28.7307 117.136 29.52V42H113.456ZM139.345 42.448C138.022 42.448 136.966 42.192 136.177 41.68C135.409 41.1467 134.854 40.4213 134.513 39.504C134.171 38.5653 134.001 37.4773 134.001 36.24V27.344H131.441V24.592L134.193 24.368L134.609 19.504H137.681V24.368H142.257V27.344H137.681V36.272C137.681 37.3173 137.883 38.1173 138.289 38.672C138.694 39.2053 139.355 39.472 140.273 39.472C140.571 39.472 140.891 39.4293 141.233 39.344C141.574 39.2587 141.873 39.1627 142.129 39.056L142.801 41.776C142.331 41.9253 141.798 42.0747 141.201 42.224C140.625 42.3733 140.006 42.448 139.345 42.448ZM152.816 42.448C151.216 42.448 149.765 42.0853 148.464 41.36C147.163 40.6133 146.128 39.5573 145.36 38.192C144.592 36.8053 144.208 35.1413 144.208 33.2C144.208 31.7707 144.432 30.4907 144.88 29.36C145.328 28.208 145.936 27.2373 146.704 26.448C147.472 25.6373 148.336 25.0187 149.296 24.592C150.256 24.1653 151.237 23.952 152.24 23.952C153.797 23.952 155.109 24.304 156.176 25.008C157.243 25.6907 158.053 26.6613 158.608 27.92C159.163 29.1573 159.44 30.608 159.44 32.272C159.44 32.6347 159.419 32.9867 159.376 33.328C159.355 33.648 159.312 33.9253 159.248 34.16H147.824C147.931 35.2693 148.219 36.2293 148.688 37.04C149.179 37.8293 149.808 38.448 150.576 38.896C151.365 39.3227 152.261 39.536 153.264 39.536C154.053 39.536 154.789 39.4187 155.472 39.184C156.155 38.9493 156.816 38.6293 157.456 38.224L158.736 40.56C157.925 41.0933 157.019 41.5413 156.016 41.904C155.035 42.2667 153.968 42.448 152.816 42.448ZM147.792 31.6H156.24C156.24 30.1067 155.899 28.944 155.216 28.112C154.555 27.28 153.584 26.864 152.304 26.864C151.579 26.864 150.896 27.0453 150.256 27.408C149.616 27.7707 149.072 28.304 148.624 29.008C148.197 29.712 147.92 30.576 147.792 31.6ZM163.581 42V24.368H166.589L166.909 26.832H166.973C167.784 26.0427 168.658 25.3707 169.597 24.816C170.536 24.24 171.602 23.952 172.797 23.952C174.674 23.952 176.04 24.56 176.893 25.776C177.768 26.9707 178.205 28.688 178.205 30.928V42H174.525V31.376C174.525 29.8613 174.29 28.784 173.821 28.144C173.352 27.4827 172.594 27.152 171.549 27.152C170.738 27.152 170.013 27.3547 169.373 27.76C168.754 28.144 168.05 28.7307 167.261 29.52V42H163.581ZM189.47 42.448C188.147 42.448 187.091 42.192 186.302 41.68C185.534 41.1467 184.979 40.4213 184.638 39.504C184.296 38.5653 184.126 37.4773 184.126 36.24V27.344H181.566V24.592L184.318 24.368L184.734 19.504H187.806V24.368H192.382V27.344H187.806V36.272C187.806 37.3173 188.008 38.1173 188.414 38.672C188.819 39.2053 189.48 39.472 190.398 39.472C190.696 39.472 191.016 39.4293 191.358 39.344C191.699 39.2587 191.998 39.1627 192.254 39.056L192.926 41.776C192.456 41.9253 191.923 42.0747 191.326 42.224C190.75 42.3733 190.131 42.448 189.47 42.448ZM203.745 42V18.416H210.881C212.651 18.416 214.209 18.6507 215.553 19.12C216.897 19.568 217.953 20.3147 218.721 21.36C219.51 22.384 219.905 23.792 219.905 25.584C219.905 27.2907 219.521 28.6987 218.753 29.808C217.985 30.896 216.929 31.7173 215.585 32.272C214.262 32.8053 212.737 33.072 211.009 33.072H207.457V42H203.745ZM207.457 30.064H210.689C212.545 30.064 213.931 29.7013 214.849 28.976C215.766 28.2507 216.225 27.12 216.225 25.584C216.225 24.0053 215.745 22.9173 214.785 22.32C213.825 21.7227 212.406 21.424 210.529 21.424H207.457V30.064ZM227.823 42.448C226.927 42.448 226.212 42.2667 225.679 41.904C225.145 41.52 224.761 40.9867 224.527 40.304C224.292 39.6 224.175 38.7787 224.175 37.84V16.496H227.855V38.032C227.855 38.5227 227.94 38.8747 228.111 39.088C228.303 39.28 228.505 39.376 228.719 39.376C228.804 39.376 228.889 39.376 228.975 39.376C229.06 39.3547 229.188 39.3333 229.359 39.312L229.807 42.096C229.593 42.1813 229.327 42.256 229.007 42.32C228.687 42.4053 228.292 42.448 227.823 42.448ZM237.866 42.448C236.863 42.448 235.967 42.2347 235.178 41.808C234.41 41.3813 233.802 40.784 233.354 40.016C232.906 39.248 232.682 38.352 232.682 37.328C232.682 35.4293 233.514 33.968 235.178 32.944C236.863 31.8987 239.541 31.1733 243.21 30.768C243.189 30.0853 243.082 29.456 242.89 28.88C242.698 28.304 242.357 27.8453 241.866 27.504C241.397 27.1413 240.725 26.96 239.85 26.96C238.933 26.96 238.047 27.1413 237.194 27.504C236.341 27.8667 235.53 28.2827 234.762 28.752L233.386 26.256C234.005 25.872 234.687 25.5093 235.434 25.168C236.181 24.8053 236.981 24.5173 237.834 24.304C238.687 24.0693 239.573 23.952 240.49 23.952C241.962 23.952 243.167 24.2507 244.106 24.848C245.045 25.424 245.738 26.2667 246.186 27.376C246.655 28.4853 246.89 29.8293 246.89 31.408V42H243.882L243.594 39.984H243.466C242.677 40.6667 241.813 41.2533 240.874 41.744C239.935 42.2133 238.933 42.448 237.866 42.448ZM238.986 39.504C239.754 39.504 240.469 39.3333 241.13 38.992C241.791 38.6293 242.485 38.1067 243.21 37.424V33.136C241.482 33.328 240.106 33.616 239.082 34C238.058 34.3627 237.322 34.8 236.874 35.312C236.447 35.8027 236.234 36.3787 236.234 37.04C236.234 37.9147 236.501 38.544 237.034 38.928C237.567 39.312 238.218 39.504 238.986 39.504ZM252.112 42V24.368H255.12L255.44 26.832H255.504C256.315 26.0427 257.189 25.3707 258.128 24.816C259.067 24.24 260.133 23.952 261.328 23.952C263.205 23.952 264.571 24.56 265.424 25.776C266.299 26.9707 266.736 28.688 266.736 30.928V42H263.056V31.376C263.056 29.8613 262.821 28.784 262.352 28.144C261.883 27.4827 261.125 27.152 260.08 27.152C259.269 27.152 258.544 27.3547 257.904 27.76C257.285 28.144 256.581 28.7307 255.792 29.52V42H252.112ZM272.081 42V24.368H275.089L275.409 26.832H275.473C276.284 26.0427 277.158 25.3707 278.097 24.816C279.036 24.24 280.102 23.952 281.297 23.952C283.174 23.952 284.54 24.56 285.393 25.776C286.268 26.9707 286.705 28.688 286.705 30.928V42H283.025V31.376C283.025 29.8613 282.79 28.784 282.321 28.144C281.852 27.4827 281.094 27.152 280.049 27.152C279.238 27.152 278.513 27.3547 277.873 27.76C277.254 28.144 276.55 28.7307 275.761 29.52V42H272.081ZM292.05 42V24.368H295.73V42H292.05ZM293.906 21.104C293.202 21.104 292.636 20.9013 292.21 20.496C291.804 20.0907 291.602 19.5467 291.602 18.864C291.602 18.224 291.804 17.7013 292.21 17.296C292.636 16.8907 293.202 16.688 293.906 16.688C294.567 16.688 295.111 16.8907 295.538 17.296C295.964 17.7013 296.178 18.224 296.178 18.864C296.178 19.5467 295.964 20.0907 295.538 20.496C295.111 20.9013 294.567 21.104 293.906 21.104ZM301.268 42V24.368H304.276L304.596 26.832H304.66C305.471 26.0427 306.346 25.3707 307.284 24.816C308.223 24.24 309.29 23.952 310.484 23.952C312.362 23.952 313.727 24.56 314.58 25.776C315.455 26.9707 315.892 28.688 315.892 30.928V42H312.212V31.376C312.212 29.8613 311.978 28.784 311.508 28.144C311.039 27.4827 310.282 27.152 309.236 27.152C308.426 27.152 307.7 27.3547 307.06 27.76C306.442 28.144 305.738 28.7307 304.948 29.52V42H301.268ZM327.285 49.904C325.877 49.904 324.618 49.7227 323.509 49.36C322.4 49.0187 321.525 48.5067 320.885 47.824C320.266 47.1413 319.957 46.288 319.957 45.264C319.957 44.5173 320.181 43.8133 320.629 43.152C321.077 42.4907 321.706 41.9147 322.517 41.424V41.296C322.069 40.9973 321.685 40.6133 321.365 40.144C321.066 39.6533 320.917 39.056 320.917 38.352C320.917 37.648 321.12 37.0187 321.525 36.464C321.952 35.888 322.41 35.4293 322.901 35.088V34.96C322.282 34.4907 321.738 33.8507 321.269 33.04C320.8 32.2293 320.565 31.3013 320.565 30.256C320.565 28.9333 320.874 27.8027 321.493 26.864C322.133 25.904 322.965 25.1787 323.989 24.688C325.034 24.1973 326.165 23.952 327.381 23.952C327.893 23.952 328.362 23.9947 328.789 24.08C329.237 24.144 329.621 24.24 329.941 24.368H336.181V27.152H332.853C333.173 27.5147 333.44 27.9733 333.653 28.528C333.866 29.0827 333.973 29.6907 333.973 30.352C333.973 31.632 333.674 32.7307 333.077 33.648C332.501 34.544 331.712 35.2373 330.709 35.728C329.706 36.1973 328.597 36.432 327.381 36.432C326.997 36.432 326.581 36.3893 326.133 36.304C325.706 36.1973 325.301 36.0693 324.917 35.92C324.64 36.1547 324.405 36.4107 324.213 36.688C324.042 36.9653 323.957 37.3173 323.957 37.744C323.957 38.256 324.16 38.672 324.565 38.992C324.992 39.312 325.77 39.472 326.901 39.472H330.165C332.234 39.472 333.802 39.8133 334.869 40.496C335.936 41.1573 336.469 42.2347 336.469 43.728C336.469 44.8587 336.096 45.8933 335.349 46.832C334.602 47.7707 333.536 48.5173 332.149 49.072C330.784 49.6267 329.162 49.904 327.285 49.904ZM327.381 34.032C327.978 34.032 328.533 33.8827 329.045 33.584C329.557 33.2853 329.962 32.8587 330.261 32.304C330.56 31.728 330.709 31.0453 330.709 30.256C330.709 29.4667 330.56 28.8053 330.261 28.272C329.962 27.7173 329.557 27.2907 329.045 26.992C328.554 26.6933 328 26.544 327.381 26.544C326.762 26.544 326.197 26.6933 325.685 26.992C325.194 27.2907 324.8 27.7173 324.501 28.272C324.202 28.8053 324.053 29.4667 324.053 30.256C324.053 31.0453 324.202 31.728 324.501 32.304C324.821 32.8587 325.226 33.2853 325.717 33.584C326.229 33.8827 326.784 34.032 327.381 34.032ZM327.797 47.472C328.842 47.472 329.738 47.3227 330.485 47.024C331.232 46.7253 331.818 46.3307 332.245 45.84C332.672 45.3707 332.885 44.8693 332.885 44.336C332.885 43.5893 332.608 43.0773 332.053 42.8C331.498 42.544 330.688 42.416 329.621 42.416H326.965C326.538 42.416 326.133 42.3947 325.749 42.352C325.365 42.3093 324.981 42.2453 324.597 42.16C324.085 42.544 323.712 42.96 323.477 43.408C323.242 43.856 323.125 44.2933 323.125 44.72C323.125 45.5733 323.541 46.2453 324.373 46.736C325.205 47.2267 326.346 47.472 327.797 47.472Z" fill="white"/>
</svg>
