<svg width="422" height="58" viewBox="0 0 422 58" fill="none" xmlns="http://www.w3.org/2000/svg">
<path d="M10 35.1211H24.2041V43.9986H13.551C11.5898 43.9986 10 42.4088 10 40.4476V35.1211Z" fill="#DFD9FC"/>
<path d="M41.9609 35.1211H27.7569V43.9986H38.4099C40.3711 43.9986 41.9609 42.4088 41.9609 40.4476V35.1211Z" fill="#DFD9FC"/>
<rect x="10" y="24.4688" width="14.2041" height="8.87755" fill="#DFD9FC"/>
<rect x="27.7578" y="24.4688" width="14.2041" height="8.87755" fill="#DFD9FC"/>
<path d="M10 17.9592C10 16.3249 11.3249 15 12.9592 15H39C40.6343 15 41.9592 16.3249 41.9592 17.9592V22.102H10V17.9592Z" fill="#7244ED"/>
<path d="M55.5281 42L56.3921 34.832H53.5761V32.368H56.6801L57.2881 27.472H54.3121V24.976H57.6081L58.4081 18.608H60.6801L59.8801 24.976H64.3281L65.1281 18.608H67.4001L66.6321 24.976H69.5121V27.472H66.3441L65.7041 32.368H68.7761V34.832H65.4161L64.5521 42H62.2481L63.1121 34.832H58.6961L57.8001 42H55.5281ZM58.9521 32.368H63.4001L64.0081 27.472H59.5601L58.9521 32.368ZM73.6821 42V18.416H87.6341V21.552H77.3941V28.752H86.1301V31.856H77.3941V42H73.6821ZM95.9524 42.448C94.075 42.448 92.699 41.84 91.8244 40.624C90.9497 39.408 90.5124 37.6907 90.5124 35.472V24.368H94.2244V35.024C94.2244 36.5173 94.459 37.5947 94.9284 38.256C95.3977 38.9173 96.1444 39.248 97.1684 39.248C97.979 39.248 98.7044 39.0453 99.3444 38.64C99.9844 38.2133 100.667 37.5413 101.392 36.624V24.368H105.104V42H102.064L101.776 39.344H101.68C100.87 40.2613 100.016 41.008 99.1204 41.584C98.2244 42.16 97.1684 42.448 95.9524 42.448ZM110.612 42V24.368H113.62L113.94 26.832H114.004C114.815 26.0427 115.689 25.3707 116.628 24.816C117.567 24.24 118.633 23.952 119.828 23.952C121.705 23.952 123.071 24.56 123.924 25.776C124.799 26.9707 125.236 28.688 125.236 30.928V42H121.556V31.376C121.556 29.8613 121.321 28.784 120.852 28.144C120.383 27.4827 119.625 27.152 118.58 27.152C117.769 27.152 117.044 27.3547 116.404 27.76C115.785 28.144 115.081 28.7307 114.292 29.52V42H110.612ZM137.749 42.448C136.149 42.448 134.72 42.0853 133.461 41.36C132.202 40.6133 131.2 39.5573 130.453 38.192C129.706 36.8053 129.333 35.1413 129.333 33.2C129.333 31.2373 129.738 29.5733 130.549 28.208C131.36 26.8213 132.426 25.7653 133.749 25.04C135.072 24.3147 136.501 23.952 138.037 23.952C139.168 23.952 140.149 24.144 140.981 24.528C141.813 24.912 142.549 25.392 143.189 25.968L141.365 28.368C140.896 27.9413 140.405 27.6107 139.893 27.376C139.381 27.12 138.826 26.992 138.229 26.992C137.248 26.992 136.373 27.2587 135.605 27.792C134.837 28.304 134.229 29.0293 133.781 29.968C133.354 30.8853 133.141 31.9627 133.141 33.2C133.141 34.4373 133.354 35.5253 133.781 36.464C134.208 37.3813 134.794 38.096 135.541 38.608C136.288 39.12 137.141 39.376 138.101 39.376C138.848 39.376 139.541 39.2267 140.181 38.928C140.821 38.608 141.408 38.224 141.941 37.776L143.477 40.24C142.666 40.9653 141.76 41.52 140.757 41.904C139.754 42.2667 138.752 42.448 137.749 42.448ZM152.532 42.448C151.209 42.448 150.153 42.192 149.364 41.68C148.596 41.1467 148.041 40.4213 147.7 39.504C147.359 38.5653 147.188 37.4773 147.188 36.24V27.344H144.628V24.592L147.38 24.368L147.796 19.504H150.868V24.368H155.444V27.344H150.868V36.272C150.868 37.3173 151.071 38.1173 151.476 38.672C151.881 39.2053 152.543 39.472 153.46 39.472C153.759 39.472 154.079 39.4293 154.42 39.344C154.761 39.2587 155.06 39.1627 155.316 39.056L155.988 41.776C155.519 41.9253 154.985 42.0747 154.388 42.224C153.812 42.3733 153.193 42.448 152.532 42.448ZM159.3 42V24.368H162.98V42H159.3ZM161.156 21.104C160.452 21.104 159.886 20.9013 159.46 20.496C159.054 20.0907 158.852 19.5467 158.852 18.864C158.852 18.224 159.054 17.7013 159.46 17.296C159.886 16.8907 160.452 16.688 161.156 16.688C161.817 16.688 162.361 16.8907 162.788 17.296C163.214 17.7013 163.428 18.224 163.428 18.864C163.428 19.5467 163.214 20.0907 162.788 20.496C162.361 20.9013 161.817 21.104 161.156 21.104ZM175.59 42.448C174.14 42.448 172.774 42.0853 171.494 41.36C170.236 40.6133 169.212 39.5573 168.422 38.192C167.654 36.8053 167.27 35.1413 167.27 33.2C167.27 31.2373 167.654 29.5733 168.422 28.208C169.212 26.8213 170.236 25.7653 171.494 25.04C172.774 24.3147 174.14 23.952 175.59 23.952C176.657 23.952 177.692 24.1653 178.694 24.592C179.697 24.9973 180.582 25.5947 181.35 26.384C182.118 27.1733 182.726 28.144 183.174 29.296C183.622 30.4267 183.846 31.728 183.846 33.2C183.846 35.1413 183.452 36.8053 182.662 38.192C181.894 39.5573 180.881 40.6133 179.622 41.36C178.385 42.0853 177.041 42.448 175.59 42.448ZM175.59 39.376C176.508 39.376 177.297 39.12 177.958 38.608C178.641 38.096 179.164 37.3813 179.526 36.464C179.889 35.5253 180.07 34.4373 180.07 33.2C180.07 31.9627 179.889 30.8853 179.526 29.968C179.164 29.0293 178.641 28.304 177.958 27.792C177.297 27.2587 176.508 26.992 175.59 26.992C174.652 26.992 173.841 27.2587 173.158 27.792C172.497 28.304 171.985 29.0293 171.622 29.968C171.26 30.8853 171.078 31.9627 171.078 33.2C171.078 34.4373 171.26 35.5253 171.622 36.464C171.985 37.3813 172.497 38.096 173.158 38.608C173.841 39.12 174.652 39.376 175.59 39.376ZM188.206 42V24.368H191.214L191.534 26.832H191.598C192.409 26.0427 193.283 25.3707 194.222 24.816C195.161 24.24 196.227 23.952 197.422 23.952C199.299 23.952 200.665 24.56 201.518 25.776C202.393 26.9707 202.83 28.688 202.83 30.928V42H199.15V31.376C199.15 29.8613 198.915 28.784 198.446 28.144C197.977 27.4827 197.219 27.152 196.174 27.152C195.363 27.152 194.638 27.3547 193.998 27.76C193.379 28.144 192.675 28.7307 191.886 29.52V42H188.206ZM222.402 42.448C220.781 42.448 219.245 42.1387 217.794 41.52C216.365 40.9013 215.106 40.048 214.018 38.96L216.194 36.4C217.047 37.232 218.018 37.904 219.106 38.416C220.215 38.928 221.346 39.184 222.498 39.184C223.906 39.184 224.983 38.8747 225.73 38.256C226.498 37.6373 226.882 36.8373 226.882 35.856C226.882 35.1307 226.722 34.5547 226.402 34.128C226.082 33.68 225.634 33.3067 225.058 33.008C224.503 32.7093 223.863 32.4 223.138 32.08L219.874 30.672C219.106 30.352 218.349 29.936 217.602 29.424C216.877 28.8907 216.269 28.2293 215.778 27.44C215.309 26.6293 215.074 25.648 215.074 24.496C215.074 23.2587 215.405 22.1493 216.066 21.168C216.727 20.1867 217.645 19.4187 218.818 18.864C219.991 18.288 221.325 18 222.818 18C224.205 18 225.517 18.2667 226.754 18.8C227.991 19.3333 229.047 20.0587 229.922 20.976L228.034 23.344C227.287 22.6827 226.487 22.1707 225.634 21.808C224.802 21.424 223.863 21.232 222.818 21.232C221.602 21.232 220.642 21.5093 219.938 22.064C219.234 22.5973 218.882 23.3227 218.882 24.24C218.882 24.9227 219.063 25.488 219.426 25.936C219.789 26.3627 220.258 26.7253 220.834 27.024C221.431 27.3013 222.039 27.568 222.658 27.824L225.89 29.2C226.829 29.584 227.661 30.0533 228.386 30.608C229.111 31.1627 229.677 31.8347 230.082 32.624C230.487 33.4133 230.69 34.3947 230.69 35.568C230.69 36.8267 230.359 37.9787 229.698 39.024C229.037 40.048 228.087 40.88 226.85 41.52C225.613 42.1387 224.13 42.448 222.402 42.448ZM234.831 49.136V24.368H237.839L238.159 26.32H238.223C239.012 25.68 239.866 25.1253 240.783 24.656C241.7 24.1867 242.66 23.952 243.663 23.952C245.135 23.952 246.394 24.3253 247.439 25.072C248.484 25.8187 249.274 26.864 249.807 28.208C250.34 29.5307 250.607 31.0987 250.607 32.912C250.607 34.9173 250.244 36.6347 249.519 38.064C248.815 39.4933 247.887 40.5813 246.735 41.328C245.583 42.0747 244.346 42.448 243.023 42.448C242.255 42.448 241.476 42.2773 240.687 41.936C239.898 41.5733 239.14 41.072 238.415 40.432L238.511 43.44V49.136H234.831ZM242.319 39.344C243.172 39.344 243.93 39.0987 244.591 38.608C245.274 38.1173 245.807 37.4027 246.191 36.464C246.596 35.504 246.799 34.3413 246.799 32.976C246.799 31.7387 246.65 30.6827 246.351 29.808C246.074 28.912 245.636 28.2293 245.039 27.76C244.442 27.2693 243.652 27.024 242.671 27.024C241.988 27.024 241.306 27.2053 240.623 27.568C239.962 27.9093 239.258 28.4427 238.511 29.168V37.776C239.194 38.352 239.866 38.7573 240.527 38.992C241.188 39.2267 241.786 39.344 242.319 39.344ZM262.347 42.448C260.747 42.448 259.296 42.0853 257.995 41.36C256.694 40.6133 255.659 39.5573 254.891 38.192C254.123 36.8053 253.739 35.1413 253.739 33.2C253.739 31.7707 253.963 30.4907 254.411 29.36C254.859 28.208 255.467 27.2373 256.235 26.448C257.003 25.6373 257.867 25.0187 258.827 24.592C259.787 24.1653 260.768 23.952 261.771 23.952C263.328 23.952 264.64 24.304 265.707 25.008C266.774 25.6907 267.584 26.6613 268.139 27.92C268.694 29.1573 268.971 30.608 268.971 32.272C268.971 32.6347 268.95 32.9867 268.907 33.328C268.886 33.648 268.843 33.9253 268.779 34.16H257.355C257.462 35.2693 257.75 36.2293 258.219 37.04C258.71 37.8293 259.339 38.448 260.107 38.896C260.896 39.3227 261.792 39.536 262.795 39.536C263.584 39.536 264.32 39.4187 265.003 39.184C265.686 38.9493 266.347 38.6293 266.987 38.224L268.267 40.56C267.456 41.0933 266.55 41.5413 265.547 41.904C264.566 42.2667 263.499 42.448 262.347 42.448ZM257.323 31.6H265.771C265.771 30.1067 265.43 28.944 264.747 28.112C264.086 27.28 263.115 26.864 261.835 26.864C261.11 26.864 260.427 27.0453 259.787 27.408C259.147 27.7707 258.603 28.304 258.155 29.008C257.728 29.712 257.451 30.576 257.323 31.6ZM280.28 42.448C278.68 42.448 277.251 42.0853 275.992 41.36C274.733 40.6133 273.731 39.5573 272.984 38.192C272.237 36.8053 271.864 35.1413 271.864 33.2C271.864 31.2373 272.269 29.5733 273.08 28.208C273.891 26.8213 274.957 25.7653 276.28 25.04C277.603 24.3147 279.032 23.952 280.568 23.952C281.699 23.952 282.68 24.144 283.512 24.528C284.344 24.912 285.08 25.392 285.72 25.968L283.896 28.368C283.427 27.9413 282.936 27.6107 282.424 27.376C281.912 27.12 281.357 26.992 280.76 26.992C279.779 26.992 278.904 27.2587 278.136 27.792C277.368 28.304 276.76 29.0293 276.312 29.968C275.885 30.8853 275.672 31.9627 275.672 33.2C275.672 34.4373 275.885 35.5253 276.312 36.464C276.739 37.3813 277.325 38.096 278.072 38.608C278.819 39.12 279.672 39.376 280.632 39.376C281.379 39.376 282.072 39.2267 282.712 38.928C283.352 38.608 283.939 38.224 284.472 37.776L286.008 40.24C285.197 40.9653 284.291 41.52 283.288 41.904C282.285 42.2667 281.283 42.448 280.28 42.448ZM289.643 42V24.368H293.323V42H289.643ZM291.499 21.104C290.795 21.104 290.23 20.9013 289.803 20.496C289.398 20.0907 289.195 19.5467 289.195 18.864C289.195 18.224 289.398 17.7013 289.803 17.296C290.23 16.8907 290.795 16.688 291.499 16.688C292.161 16.688 292.705 16.8907 293.131 17.296C293.558 17.7013 293.771 18.224 293.771 18.864C293.771 19.5467 293.558 20.0907 293.131 20.496C292.705 20.9013 292.161 21.104 291.499 21.104ZM299.47 42V22.192C299.47 20.976 299.662 19.9093 300.046 18.992C300.43 18.0747 301.027 17.36 301.838 16.848C302.67 16.336 303.737 16.08 305.038 16.08C305.635 16.08 306.201 16.1333 306.734 16.24C307.267 16.3467 307.737 16.4853 308.142 16.656L307.406 19.44C306.787 19.1627 306.147 19.024 305.486 19.024C304.718 19.024 304.131 19.28 303.726 19.792C303.342 20.304 303.15 21.0933 303.15 22.16V42H299.47ZM297.07 27.344V24.592L299.662 24.368H306.702V27.344H297.07ZM309.902 42V24.368H313.582V42H309.902ZM311.758 21.104C311.097 21.104 310.553 20.9013 310.126 20.496C309.699 20.0907 309.486 19.5467 309.486 18.864C309.486 18.224 309.699 17.7013 310.126 17.296C310.553 16.8907 311.097 16.688 311.758 16.688C312.419 16.688 312.963 16.8907 313.39 17.296C313.838 17.7013 314.062 18.224 314.062 18.864C314.062 19.5467 313.838 20.0907 313.39 20.496C312.963 20.9013 312.419 21.104 311.758 21.104ZM326.28 42.448C324.68 42.448 323.251 42.0853 321.992 41.36C320.733 40.6133 319.731 39.5573 318.984 38.192C318.237 36.8053 317.864 35.1413 317.864 33.2C317.864 31.2373 318.269 29.5733 319.08 28.208C319.891 26.8213 320.957 25.7653 322.28 25.04C323.603 24.3147 325.032 23.952 326.568 23.952C327.699 23.952 328.68 24.144 329.512 24.528C330.344 24.912 331.08 25.392 331.72 25.968L329.896 28.368C329.427 27.9413 328.936 27.6107 328.424 27.376C327.912 27.12 327.357 26.992 326.76 26.992C325.779 26.992 324.904 27.2587 324.136 27.792C323.368 28.304 322.76 29.0293 322.312 29.968C321.885 30.8853 321.672 31.9627 321.672 33.2C321.672 34.4373 321.885 35.5253 322.312 36.464C322.739 37.3813 323.325 38.096 324.072 38.608C324.819 39.12 325.672 39.376 326.632 39.376C327.379 39.376 328.072 39.2267 328.712 38.928C329.352 38.608 329.939 38.224 330.472 37.776L332.008 40.24C331.197 40.9653 330.291 41.52 329.288 41.904C328.285 42.2667 327.283 42.448 326.28 42.448ZM339.303 42.448C338.301 42.448 337.405 42.2347 336.615 41.808C335.847 41.3813 335.239 40.784 334.791 40.016C334.343 39.248 334.119 38.352 334.119 37.328C334.119 35.4293 334.951 33.968 336.615 32.944C338.301 31.8987 340.978 31.1733 344.647 30.768C344.626 30.0853 344.519 29.456 344.327 28.88C344.135 28.304 343.794 27.8453 343.303 27.504C342.834 27.1413 342.162 26.96 341.287 26.96C340.37 26.96 339.485 27.1413 338.631 27.504C337.778 27.8667 336.967 28.2827 336.199 28.752L334.823 26.256C335.442 25.872 336.125 25.5093 336.871 25.168C337.618 24.8053 338.418 24.5173 339.271 24.304C340.125 24.0693 341.01 23.952 341.927 23.952C343.399 23.952 344.605 24.2507 345.543 24.848C346.482 25.424 347.175 26.2667 347.623 27.376C348.093 28.4853 348.327 29.8293 348.327 31.408V42H345.319L345.031 39.984H344.903C344.114 40.6667 343.25 41.2533 342.311 41.744C341.373 42.2133 340.37 42.448 339.303 42.448ZM340.423 39.504C341.191 39.504 341.906 39.3333 342.567 38.992C343.229 38.6293 343.922 38.1067 344.647 37.424V33.136C342.919 33.328 341.543 33.616 340.519 34C339.495 34.3627 338.759 34.8 338.311 35.312C337.885 35.8027 337.671 36.3787 337.671 37.04C337.671 37.9147 337.938 38.544 338.471 38.928C339.005 39.312 339.655 39.504 340.423 39.504ZM358.813 42.448C357.491 42.448 356.435 42.192 355.645 41.68C354.877 41.1467 354.323 40.4213 353.981 39.504C353.64 38.5653 353.469 37.4773 353.469 36.24V27.344H350.909V24.592L353.661 24.368L354.077 19.504H357.149V24.368H361.725V27.344H357.149V36.272C357.149 37.3173 357.352 38.1173 357.757 38.672C358.163 39.2053 358.824 39.472 359.741 39.472C360.04 39.472 360.36 39.4293 360.701 39.344C361.043 39.2587 361.341 39.1627 361.597 39.056L362.269 41.776C361.8 41.9253 361.267 42.0747 360.669 42.224C360.093 42.3733 359.475 42.448 358.813 42.448ZM365.581 42V24.368H369.261V42H365.581ZM367.437 21.104C366.733 21.104 366.168 20.9013 365.741 20.496C365.336 20.0907 365.133 19.5467 365.133 18.864C365.133 18.224 365.336 17.7013 365.741 17.296C366.168 16.8907 366.733 16.688 367.437 16.688C368.098 16.688 368.642 16.8907 369.069 17.296C369.496 17.7013 369.709 18.224 369.709 18.864C369.709 19.5467 369.496 20.0907 369.069 20.496C368.642 20.9013 368.098 21.104 367.437 21.104ZM381.872 42.448C380.421 42.448 379.056 42.0853 377.776 41.36C376.517 40.6133 375.493 39.5573 374.704 38.192C373.936 36.8053 373.552 35.1413 373.552 33.2C373.552 31.2373 373.936 29.5733 374.704 28.208C375.493 26.8213 376.517 25.7653 377.776 25.04C379.056 24.3147 380.421 23.952 381.872 23.952C382.938 23.952 383.973 24.1653 384.976 24.592C385.978 24.9973 386.864 25.5947 387.632 26.384C388.4 27.1733 389.008 28.144 389.456 29.296C389.904 30.4267 390.128 31.728 390.128 33.2C390.128 35.1413 389.733 36.8053 388.944 38.192C388.176 39.5573 387.162 40.6133 385.904 41.36C384.666 42.0853 383.322 42.448 381.872 42.448ZM381.872 39.376C382.789 39.376 383.578 39.12 384.24 38.608C384.922 38.096 385.445 37.3813 385.808 36.464C386.17 35.5253 386.352 34.4373 386.352 33.2C386.352 31.9627 386.17 30.8853 385.808 29.968C385.445 29.0293 384.922 28.304 384.24 27.792C383.578 27.2587 382.789 26.992 381.872 26.992C380.933 26.992 380.122 27.2587 379.44 27.792C378.778 28.304 378.266 29.0293 377.904 29.968C377.541 30.8853 377.36 31.9627 377.36 33.2C377.36 34.4373 377.541 35.5253 377.904 36.464C378.266 37.3813 378.778 38.096 379.44 38.608C380.122 39.12 380.933 39.376 381.872 39.376ZM394.487 42V24.368H397.495L397.815 26.832H397.879C398.69 26.0427 399.564 25.3707 400.503 24.816C401.442 24.24 402.508 23.952 403.703 23.952C405.58 23.952 406.946 24.56 407.799 25.776C408.674 26.9707 409.111 28.688 409.111 30.928V42H405.431V31.376C405.431 29.8613 405.196 28.784 404.727 28.144C404.258 27.4827 403.5 27.152 402.455 27.152C401.644 27.152 400.919 27.3547 400.279 27.76C399.66 28.144 398.956 28.7307 398.167 29.52V42H394.487Z" fill="white"/>
</svg>
