<svg width="235" height="58" viewBox="0 0 235 58" fill="none" xmlns="http://www.w3.org/2000/svg">
<rect x="16.1772" y="18.7088" width="20.4051" height="25.1139" rx="1.96203" fill="#FEFEFF" stroke="#7244ED" stroke-width="2.35443"/>
<path d="M32.8545 18.5127V19.4932C32.8545 20.4684 32.0641 21.2598 31.0889 21.2598H22.0635C21.0883 21.2597 20.2979 20.4684 20.2979 19.4932V18.5127H32.8545Z" fill="#7244ED" stroke="#7244ED" stroke-width="0.392405"/>
<path d="M30.8921 27.9303L23.2402 35.5822" stroke="#7244ED" stroke-width="1.96203" stroke-linecap="round"/>
<circle cx="31.4816" cy="26.9493" r="1.76582" fill="#7244ED" stroke="#7244ED" stroke-width="0.392405"/>
<circle cx="22.4552" cy="36.3671" r="1.76582" fill="#7244ED" stroke="#7244ED" stroke-width="0.392405"/>
<path d="M22.8476 25.7721L20.4932 28.1265" stroke="#7244ED" stroke-width="1.96203" stroke-linecap="round"/>
<path d="M32.2656 36.3672L29.9111 38.7216" stroke="#7244ED" stroke-width="1.96203" stroke-linecap="round"/>
<path d="M22.8477 28.1265L20.4932 25.7721" stroke="#7244ED" stroke-width="1.96203" stroke-linecap="round"/>
<path d="M32.2656 38.7216L29.9112 36.3672" stroke="#7244ED" stroke-width="1.96203" stroke-linecap="round"/>
<mask id="path-10-inside-1_2461_18125" fill="white">
<path d="M29.5187 17.1392C29.5187 18.873 28.1132 20.2785 26.3795 20.2785C24.6457 20.2785 23.2402 18.873 23.2402 17.1392C23.2402 15.4055 24.6457 14 26.3795 14C28.1132 14 29.5187 15.4055 29.5187 17.1392ZM25.4018 17.1392C25.4018 17.6792 25.8395 18.117 26.3795 18.117C26.9195 18.117 27.3572 17.6792 27.3572 17.1392C27.3572 16.5993 26.9195 16.1615 26.3795 16.1615C25.8395 16.1615 25.4018 16.5993 25.4018 17.1392Z"/>
</mask>
<path d="M29.5187 17.1392C29.5187 18.873 28.1132 20.2785 26.3795 20.2785C24.6457 20.2785 23.2402 18.873 23.2402 17.1392C23.2402 15.4055 24.6457 14 26.3795 14C28.1132 14 29.5187 15.4055 29.5187 17.1392ZM25.4018 17.1392C25.4018 17.6792 25.8395 18.117 26.3795 18.117C26.9195 18.117 27.3572 17.6792 27.3572 17.1392C27.3572 16.5993 26.9195 16.1615 26.3795 16.1615C25.8395 16.1615 25.4018 16.5993 25.4018 17.1392Z" fill="#7244ED" stroke="#7244ED" stroke-width="0.78481" mask="url(#path-10-inside-1_2461_18125)"/>
<path d="M55.3875 42L56.2515 34.832H53.4355V32.368H56.5395L57.1475 27.472H54.1715V24.976H57.4675L58.2675 18.608H60.5395L59.7395 24.976H64.1875L64.9875 18.608H67.2595L66.4915 24.976H69.3715V27.472H66.2035L65.5635 32.368H68.6355V34.832H65.2755L64.4115 42H62.1075L62.9715 34.832H58.5555L57.6595 42H55.3875ZM58.8115 32.368H63.2595L63.8675 27.472H59.4195L58.8115 32.368ZM74.9815 16.656H93.6695V19.344H74.9815V16.656ZM91.8455 16.656H95.1735V19.28C95.1735 20.6667 95.1415 22.128 95.0775 23.664C95.0135 25.2 94.7788 26.96 94.3735 28.944L91.0455 28.688C91.4508 26.768 91.6855 25.0613 91.7495 23.568C91.8135 22.0747 91.8455 20.6453 91.8455 19.28V16.656ZM92.8695 22.032V24.496L74.6615 25.328L74.2135 22.544L92.8695 22.032ZM71.9415 30.64H98.3095V33.328H71.9415V30.64ZM82.2455 26.736H85.6055V32.368H82.2455V26.736ZM75.1735 41.488H95.7495V44.208H75.1735V41.488ZM75.1735 35.536H78.5015V42.64H75.1735V35.536ZM113.827 23.568H118.563V26.256H113.827V23.568ZM122.915 15.408H126.115V37.296H122.915V15.408ZM117.219 15.984H120.387V36.592H117.219V15.984ZM106.915 41.328H126.915V44.048H106.915V41.328ZM106.915 34.928H110.275V43.088H106.915V34.928ZM102.595 30.096H104.515C105.987 30.096 107.288 30.0853 108.419 30.064C109.55 30.0427 110.627 29.9787 111.651 29.872C112.675 29.744 113.731 29.5947 114.819 29.424L115.107 32.048C114.019 32.2613 112.942 32.4213 111.875 32.528C110.83 32.6347 109.71 32.7093 108.515 32.752C107.342 32.7733 106.008 32.784 104.515 32.784H102.595V30.096ZM102.595 17.744H113.603V20.432H105.827V31.024H102.595V17.744ZM104.835 23.888H112.515V26.48H104.835V23.888ZM130.785 38.32H157.281V41.072H130.785V38.32ZM142.337 21.584H145.281V22.224C145.281 23.7387 144.982 25.1467 144.385 26.448C143.809 27.728 142.987 28.88 141.921 29.904C140.875 30.9067 139.617 31.76 138.145 32.464C136.694 33.1467 135.094 33.6373 133.345 33.936L132.033 31.216C133.59 30.9813 134.998 30.5867 136.257 30.032C137.515 29.456 138.593 28.7627 139.489 27.952C140.406 27.1413 141.11 26.256 141.601 25.296C142.091 24.3147 142.337 23.2907 142.337 22.224V21.584ZM142.753 21.584H145.697V22.224C145.697 23.2907 145.942 24.3147 146.433 25.296C146.923 26.256 147.617 27.1413 148.513 27.952C149.43 28.7627 150.518 29.456 151.777 30.032C153.035 30.5867 154.433 30.9813 155.969 31.216L154.689 33.936C152.939 33.6373 151.329 33.1467 149.857 32.464C148.406 31.76 147.147 30.9067 146.081 29.904C145.014 28.88 144.193 27.728 143.617 26.448C143.041 25.1467 142.753 23.7387 142.753 22.224V21.584ZM133.153 19.792H154.849V22.48H133.153V19.792ZM142.337 15.984H145.697V20.816H142.337V15.984ZM188.21 15.376H191.57V44.624H188.21V15.376ZM179.602 18.48H182.93C182.93 20.656 182.695 22.736 182.226 24.72C181.756 26.704 180.988 28.592 179.922 30.384C178.876 32.1547 177.49 33.7973 175.762 35.312C174.055 36.8267 171.943 38.192 169.426 39.408L167.634 36.752C170.471 35.3867 172.764 33.8293 174.514 32.08C176.263 30.3307 177.543 28.3787 178.354 26.224C179.186 24.048 179.602 21.6587 179.602 19.056V18.48ZM169.074 18.48H181.106V21.168H169.074V18.48ZM197.903 17.808H215.023V20.272H197.903V17.808ZM206.447 21.2C207.876 21.2 209.114 21.3813 210.159 21.744C211.226 22.1067 212.058 22.608 212.655 23.248C213.252 23.888 213.551 24.656 213.551 25.552C213.551 26.448 213.252 27.2267 212.655 27.888C212.058 28.5493 211.226 29.0613 210.159 29.424C209.114 29.7653 207.876 29.936 206.447 29.936C205.039 29.936 203.802 29.7653 202.735 29.424C201.668 29.0613 200.836 28.5493 200.239 27.888C199.663 27.2267 199.375 26.448 199.375 25.552C199.375 24.656 199.663 23.888 200.239 23.248C200.836 22.608 201.668 22.1067 202.735 21.744C203.802 21.3813 205.039 21.2 206.447 21.2ZM206.447 23.472C205.274 23.472 204.335 23.6533 203.631 24.016C202.927 24.3787 202.575 24.8907 202.575 25.552C202.575 26.192 202.927 26.704 203.631 27.088C204.356 27.472 205.295 27.664 206.447 27.664C207.642 27.664 208.591 27.472 209.295 27.088C209.999 26.704 210.351 26.192 210.351 25.552C210.351 24.8907 209.999 24.3787 209.295 24.016C208.591 23.6533 207.642 23.472 206.447 23.472ZM204.783 15.184H208.143V19.088H204.783V15.184ZM204.783 28.656H208.143V32.688H204.783V28.656ZM217.615 15.44H220.943V35.088H217.615V15.44ZM201.103 36.368H220.943V44.656H217.615V38.992H201.103V36.368ZM197.423 34.32L197.007 31.728C198.778 31.728 200.708 31.7173 202.799 31.696C204.911 31.6747 207.055 31.6 209.231 31.472C211.407 31.344 213.508 31.1413 215.535 30.864L215.759 33.168C213.668 33.5307 211.546 33.7973 209.391 33.968C207.236 34.1173 205.135 34.2133 203.087 34.256C201.039 34.2987 199.151 34.32 197.423 34.32Z" fill="white"/>
</svg>
