<svg width="390" height="58" viewBox="0 0 390 58" fill="none" xmlns="http://www.w3.org/2000/svg">
<path d="M15.3359 25H29.3359V29.6667H15.3359V25ZM15.3359 32.3333H29.3359V37H15.3359V32.3333ZM32.0026 25H36.6693V37H32.0026V25Z" fill="#DFD9FC"/>
<path d="M36.6641 18.332H15.3307C13.8641 18.332 12.6774 19.532 12.6774 20.9987L12.6641 36.9987C12.6641 38.4654 13.8641 39.6654 15.3307 39.6654H36.6641C38.1307 39.6654 39.3307 38.4654 39.3307 36.9987V20.9987C39.3307 19.532 38.1307 18.332 36.6641 18.332ZM29.3307 36.9987H15.3307V32.332H29.3307V36.9987ZM29.3307 29.6654H15.3307V24.9987H29.3307V29.6654ZM36.6641 36.9987H31.9974V24.9987H36.6641V36.9987Z" fill="#7244ED"/>
<path d="M62.5594 42L63.4234 34.832H60.6074V32.368H63.7114L64.3194 27.472H61.3434V24.976H64.6394L65.4394 18.608H67.7114L66.9114 24.976H71.3594L72.1594 18.608H74.4314L73.6634 24.976H76.5434V27.472H73.3754L72.7354 32.368H75.8074V34.832H72.4474L71.5834 42H69.2794L70.1434 34.832H65.7274L64.8314 42H62.5594ZM65.9834 32.368H70.4314L71.0394 27.472H66.5914L65.9834 32.368ZM80.7134 42V18.416H88.4254C90.0467 18.416 91.4974 18.64 92.7774 19.088C94.0574 19.5147 95.0707 20.2293 95.8174 21.232C96.564 22.2133 96.9374 23.5573 96.9374 25.264C96.9374 26.9067 96.564 28.2613 95.8174 29.328C95.0707 30.3947 94.0574 31.1947 92.7774 31.728C91.4974 32.24 90.0467 32.496 88.4254 32.496H84.4254V42H80.7134ZM84.4254 29.52H87.9774C89.684 29.52 90.9854 29.168 91.8814 28.464C92.7987 27.7387 93.2574 26.672 93.2574 25.264C93.2574 23.8347 92.7987 22.8427 91.8814 22.288C90.9854 21.712 89.684 21.424 87.9774 21.424H84.4254V29.52ZM93.5774 42L87.7214 31.504L90.4734 29.36L97.7694 42H93.5774ZM108.253 42.448C106.653 42.448 105.203 42.0853 103.901 41.36C102.6 40.6133 101.565 39.5573 100.797 38.192C100.029 36.8053 99.6454 35.1413 99.6454 33.2C99.6454 31.7707 99.8694 30.4907 100.317 29.36C100.765 28.208 101.373 27.2373 102.141 26.448C102.909 25.6373 103.773 25.0187 104.733 24.592C105.693 24.1653 106.675 23.952 107.677 23.952C109.235 23.952 110.547 24.304 111.613 25.008C112.68 25.6907 113.491 26.6613 114.045 27.92C114.6 29.1573 114.877 30.608 114.877 32.272C114.877 32.6347 114.856 32.9867 114.813 33.328C114.792 33.648 114.749 33.9253 114.685 34.16H103.261C103.368 35.2693 103.656 36.2293 104.125 37.04C104.616 37.8293 105.245 38.448 106.013 38.896C106.803 39.3227 107.699 39.536 108.701 39.536C109.491 39.536 110.227 39.4187 110.909 39.184C111.592 38.9493 112.253 38.6293 112.893 38.224L114.173 40.56C113.363 41.0933 112.456 41.5413 111.453 41.904C110.472 42.2667 109.405 42.448 108.253 42.448ZM103.229 31.6H111.677C111.677 30.1067 111.336 28.944 110.653 28.112C109.992 27.28 109.021 26.864 107.741 26.864C107.016 26.864 106.333 27.0453 105.693 27.408C105.053 27.7707 104.509 28.304 104.061 29.008C103.635 29.712 103.357 30.576 103.229 31.6ZM123.786 42.448C122.592 42.448 121.397 42.2133 120.202 41.744C119.029 41.2747 118.016 40.688 117.162 39.984L118.922 37.584C119.69 38.2027 120.469 38.704 121.258 39.088C122.069 39.4507 122.944 39.632 123.882 39.632C124.928 39.632 125.696 39.408 126.186 38.96C126.698 38.4907 126.954 37.9253 126.954 37.264C126.954 36.7307 126.762 36.2827 126.378 35.92C126.016 35.5573 125.536 35.248 124.938 34.992C124.341 34.7147 123.722 34.4587 123.082 34.224C122.293 33.9253 121.514 33.5733 120.746 33.168C120 32.7413 119.381 32.208 118.89 31.568C118.4 30.9067 118.154 30.0853 118.154 29.104C118.154 28.1013 118.4 27.216 118.89 26.448C119.402 25.68 120.128 25.072 121.066 24.624C122.005 24.176 123.125 23.952 124.426 23.952C125.6 23.952 126.666 24.1547 127.626 24.56C128.608 24.9653 129.44 25.456 130.122 26.032L128.426 28.304C127.808 27.856 127.178 27.4933 126.538 27.216C125.898 26.9173 125.226 26.768 124.522 26.768C123.541 26.768 122.816 26.9813 122.346 27.408C121.877 27.8133 121.642 28.3253 121.642 28.944C121.642 29.4347 121.813 29.84 122.154 30.16C122.496 30.48 122.944 30.7573 123.498 30.992C124.074 31.2267 124.682 31.472 125.322 31.728C125.941 31.9413 126.549 32.1973 127.146 32.496C127.765 32.7733 128.32 33.1147 128.81 33.52C129.301 33.904 129.696 34.384 129.994 34.96C130.314 35.5147 130.474 36.208 130.474 37.04C130.474 38.0213 130.218 38.928 129.706 39.76C129.194 40.592 128.448 41.2533 127.466 41.744C126.485 42.2133 125.258 42.448 123.786 42.448ZM134.393 49.136V24.368H137.401L137.721 26.32H137.785C138.575 25.68 139.428 25.1253 140.345 24.656C141.263 24.1867 142.223 23.952 143.225 23.952C144.697 23.952 145.956 24.3253 147.001 25.072C148.047 25.8187 148.836 26.864 149.369 28.208C149.903 29.5307 150.169 31.0987 150.169 32.912C150.169 34.9173 149.807 36.6347 149.081 38.064C148.377 39.4933 147.449 40.5813 146.297 41.328C145.145 42.0747 143.908 42.448 142.585 42.448C141.817 42.448 141.039 42.2773 140.249 41.936C139.46 41.5733 138.703 41.072 137.977 40.432L138.073 43.44V49.136H134.393ZM141.881 39.344C142.735 39.344 143.492 39.0987 144.153 38.608C144.836 38.1173 145.369 37.4027 145.753 36.464C146.159 35.504 146.361 34.3413 146.361 32.976C146.361 31.7387 146.212 30.6827 145.913 29.808C145.636 28.912 145.199 28.2293 144.601 27.76C144.004 27.2693 143.215 27.024 142.233 27.024C141.551 27.024 140.868 27.2053 140.185 27.568C139.524 27.9093 138.82 28.4427 138.073 29.168V37.776C138.756 38.352 139.428 38.7573 140.089 38.992C140.751 39.2267 141.348 39.344 141.881 39.344ZM161.622 42.448C160.171 42.448 158.806 42.0853 157.526 41.36C156.267 40.6133 155.243 39.5573 154.454 38.192C153.686 36.8053 153.302 35.1413 153.302 33.2C153.302 31.2373 153.686 29.5733 154.454 28.208C155.243 26.8213 156.267 25.7653 157.526 25.04C158.806 24.3147 160.171 23.952 161.622 23.952C162.688 23.952 163.723 24.1653 164.726 24.592C165.728 24.9973 166.614 25.5947 167.382 26.384C168.15 27.1733 168.758 28.144 169.206 29.296C169.654 30.4267 169.878 31.728 169.878 33.2C169.878 35.1413 169.483 36.8053 168.694 38.192C167.926 39.5573 166.912 40.6133 165.654 41.36C164.416 42.0853 163.072 42.448 161.622 42.448ZM161.622 39.376C162.539 39.376 163.328 39.12 163.99 38.608C164.672 38.096 165.195 37.3813 165.558 36.464C165.92 35.5253 166.102 34.4373 166.102 33.2C166.102 31.9627 165.92 30.8853 165.558 29.968C165.195 29.0293 164.672 28.304 163.99 27.792C163.328 27.2587 162.539 26.992 161.622 26.992C160.683 26.992 159.872 27.2587 159.19 27.792C158.528 28.304 158.016 29.0293 157.654 29.968C157.291 30.8853 157.11 31.9627 157.11 33.2C157.11 34.4373 157.291 35.5253 157.654 36.464C158.016 37.3813 158.528 38.096 159.19 38.608C159.872 39.12 160.683 39.376 161.622 39.376ZM174.237 42V24.368H177.245L177.565 26.832H177.629C178.44 26.0427 179.314 25.3707 180.253 24.816C181.192 24.24 182.258 23.952 183.453 23.952C185.33 23.952 186.696 24.56 187.549 25.776C188.424 26.9707 188.861 28.688 188.861 30.928V42H185.181V31.376C185.181 29.8613 184.946 28.784 184.477 28.144C184.008 27.4827 183.25 27.152 182.205 27.152C181.394 27.152 180.669 27.3547 180.029 27.76C179.41 28.144 178.706 28.7307 177.917 29.52V42H174.237ZM198.974 42.448C197.779 42.448 196.585 42.2133 195.39 41.744C194.217 41.2747 193.203 40.688 192.35 39.984L194.11 37.584C194.878 38.2027 195.657 38.704 196.446 39.088C197.257 39.4507 198.131 39.632 199.07 39.632C200.115 39.632 200.883 39.408 201.374 38.96C201.886 38.4907 202.142 37.9253 202.142 37.264C202.142 36.7307 201.95 36.2827 201.566 35.92C201.203 35.5573 200.723 35.248 200.126 34.992C199.529 34.7147 198.91 34.4587 198.27 34.224C197.481 33.9253 196.702 33.5733 195.934 33.168C195.187 32.7413 194.569 32.208 194.078 31.568C193.587 30.9067 193.342 30.0853 193.342 29.104C193.342 28.1013 193.587 27.216 194.078 26.448C194.59 25.68 195.315 25.072 196.254 24.624C197.193 24.176 198.313 23.952 199.614 23.952C200.787 23.952 201.854 24.1547 202.814 24.56C203.795 24.9653 204.627 25.456 205.31 26.032L203.614 28.304C202.995 27.856 202.366 27.4933 201.726 27.216C201.086 26.9173 200.414 26.768 199.71 26.768C198.729 26.768 198.003 26.9813 197.534 27.408C197.065 27.8133 196.83 28.3253 196.83 28.944C196.83 29.4347 197.001 29.84 197.342 30.16C197.683 30.48 198.131 30.7573 198.686 30.992C199.262 31.2267 199.87 31.472 200.51 31.728C201.129 31.9413 201.737 32.1973 202.334 32.496C202.953 32.7733 203.507 33.1147 203.998 33.52C204.489 33.904 204.883 34.384 205.182 34.96C205.502 35.5147 205.662 36.208 205.662 37.04C205.662 38.0213 205.406 38.928 204.894 39.76C204.382 40.592 203.635 41.2533 202.654 41.744C201.673 42.2133 200.446 42.448 198.974 42.448ZM209.581 42V24.368H213.261V42H209.581ZM211.437 21.104C210.733 21.104 210.168 20.9013 209.741 20.496C209.336 20.0907 209.133 19.5467 209.133 18.864C209.133 18.224 209.336 17.7013 209.741 17.296C210.168 16.8907 210.733 16.688 211.437 16.688C212.098 16.688 212.642 16.8907 213.069 17.296C213.496 17.7013 213.709 18.224 213.709 18.864C213.709 19.5467 213.496 20.0907 213.069 20.496C212.642 20.9013 212.098 21.104 211.437 21.104ZM222.64 42L216.464 24.368H220.208L223.216 33.872C223.472 34.7253 223.728 35.6 223.984 36.496C224.24 37.3707 224.496 38.2453 224.752 39.12H224.88C225.157 38.2453 225.424 37.3707 225.68 36.496C225.936 35.6 226.181 34.7253 226.416 33.872L229.424 24.368H233.008L226.96 42H222.64ZM243.285 42.448C241.685 42.448 240.234 42.0853 238.933 41.36C237.631 40.6133 236.597 39.5573 235.829 38.192C235.061 36.8053 234.677 35.1413 234.677 33.2C234.677 31.7707 234.901 30.4907 235.349 29.36C235.797 28.208 236.405 27.2373 237.173 26.448C237.941 25.6373 238.805 25.0187 239.765 24.592C240.725 24.1653 241.706 23.952 242.709 23.952C244.266 23.952 245.578 24.304 246.645 25.008C247.711 25.6907 248.522 26.6613 249.077 27.92C249.631 29.1573 249.909 30.608 249.909 32.272C249.909 32.6347 249.887 32.9867 249.845 33.328C249.823 33.648 249.781 33.9253 249.717 34.16H238.293C238.399 35.2693 238.687 36.2293 239.157 37.04C239.647 37.8293 240.277 38.448 241.045 38.896C241.834 39.3227 242.73 39.536 243.733 39.536C244.522 39.536 245.258 39.4187 245.941 39.184C246.623 38.9493 247.285 38.6293 247.925 38.224L249.205 40.56C248.394 41.0933 247.487 41.5413 246.485 41.904C245.503 42.2667 244.437 42.448 243.285 42.448ZM238.261 31.6H246.709C246.709 30.1067 246.367 28.944 245.685 28.112C245.023 27.28 244.053 26.864 242.773 26.864C242.047 26.864 241.365 27.0453 240.725 27.408C240.085 27.7707 239.541 28.304 239.093 29.008C238.666 29.712 238.389 30.576 238.261 31.6ZM263.957 42L259.189 18.416H262.997L265.205 30.672C265.418 31.9307 265.632 33.1893 265.845 34.448C266.058 35.7067 266.272 36.976 266.485 38.256H266.613C266.869 36.976 267.125 35.7067 267.381 34.448C267.658 33.1893 267.936 31.9307 268.213 30.672L271.221 18.416H274.517L277.557 30.672C277.834 31.9093 278.101 33.168 278.357 34.448C278.613 35.7067 278.88 36.976 279.157 38.256H279.317C279.53 36.976 279.733 35.7067 279.925 34.448C280.117 33.1893 280.309 31.9307 280.501 30.672L282.741 18.416H286.293L281.653 42H277.077L273.909 28.912C273.717 27.9733 273.525 27.0667 273.333 26.192C273.162 25.296 272.992 24.4 272.821 23.504H272.693C272.522 24.4 272.341 25.296 272.149 26.192C271.957 27.0667 271.765 27.9733 271.573 28.912L268.469 42H263.957ZM297.191 42.448C295.591 42.448 294.14 42.0853 292.839 41.36C291.538 40.6133 290.503 39.5573 289.735 38.192C288.967 36.8053 288.583 35.1413 288.583 33.2C288.583 31.7707 288.807 30.4907 289.255 29.36C289.703 28.208 290.311 27.2373 291.079 26.448C291.847 25.6373 292.711 25.0187 293.671 24.592C294.631 24.1653 295.612 23.952 296.615 23.952C298.172 23.952 299.484 24.304 300.551 25.008C301.618 25.6907 302.428 26.6613 302.983 27.92C303.538 29.1573 303.815 30.608 303.815 32.272C303.815 32.6347 303.794 32.9867 303.751 33.328C303.73 33.648 303.687 33.9253 303.623 34.16H292.199C292.306 35.2693 292.594 36.2293 293.063 37.04C293.554 37.8293 294.183 38.448 294.951 38.896C295.74 39.3227 296.636 39.536 297.639 39.536C298.428 39.536 299.164 39.4187 299.847 39.184C300.53 38.9493 301.191 38.6293 301.831 38.224L303.111 40.56C302.3 41.0933 301.394 41.5413 300.391 41.904C299.41 42.2667 298.343 42.448 297.191 42.448ZM292.167 31.6H300.615C300.615 30.1067 300.274 28.944 299.591 28.112C298.93 27.28 297.959 26.864 296.679 26.864C295.954 26.864 295.271 27.0453 294.631 27.408C293.991 27.7707 293.447 28.304 292.999 29.008C292.572 29.712 292.295 30.576 292.167 31.6ZM316.148 42.448C315.359 42.448 314.537 42.2453 313.684 41.84C312.831 41.4347 312.041 40.88 311.316 40.176H311.188L310.868 42H307.956V16.496H311.636V23.248L311.508 26.256C312.276 25.5733 313.108 25.0187 314.004 24.592C314.921 24.1653 315.839 23.952 316.756 23.952C318.249 23.952 319.508 24.3253 320.532 25.072C321.577 25.7973 322.367 26.832 322.9 28.176C323.455 29.52 323.732 31.0987 323.732 32.912C323.732 34.9173 323.369 36.6347 322.644 38.064C321.94 39.4933 321.012 40.5813 319.86 41.328C318.708 42.0747 317.471 42.448 316.148 42.448ZM315.444 39.344C316.297 39.344 317.055 39.0987 317.716 38.608C318.399 38.1173 318.932 37.4027 319.316 36.464C319.721 35.504 319.924 34.3413 319.924 32.976C319.924 31.7387 319.775 30.6827 319.476 29.808C319.199 28.912 318.761 28.2293 318.164 27.76C317.567 27.2693 316.777 27.024 315.796 27.024C315.113 27.024 314.431 27.2053 313.748 27.568C313.065 27.9093 312.361 28.4427 311.636 29.168V37.776C312.297 38.352 312.959 38.7573 313.62 38.992C314.303 39.2267 314.911 39.344 315.444 39.344ZM332.63 42.448C331.435 42.448 330.241 42.2133 329.046 41.744C327.873 41.2747 326.859 40.688 326.006 39.984L327.766 37.584C328.534 38.2027 329.313 38.704 330.102 39.088C330.913 39.4507 331.787 39.632 332.726 39.632C333.771 39.632 334.539 39.408 335.03 38.96C335.542 38.4907 335.798 37.9253 335.798 37.264C335.798 36.7307 335.606 36.2827 335.222 35.92C334.859 35.5573 334.379 35.248 333.782 34.992C333.185 34.7147 332.566 34.4587 331.926 34.224C331.137 33.9253 330.358 33.5733 329.59 33.168C328.843 32.7413 328.225 32.208 327.734 31.568C327.243 30.9067 326.998 30.0853 326.998 29.104C326.998 28.1013 327.243 27.216 327.734 26.448C328.246 25.68 328.971 25.072 329.91 24.624C330.849 24.176 331.969 23.952 333.27 23.952C334.443 23.952 335.51 24.1547 336.47 24.56C337.451 24.9653 338.283 25.456 338.966 26.032L337.27 28.304C336.651 27.856 336.022 27.4933 335.382 27.216C334.742 26.9173 334.07 26.768 333.366 26.768C332.385 26.768 331.659 26.9813 331.19 27.408C330.721 27.8133 330.486 28.3253 330.486 28.944C330.486 29.4347 330.657 29.84 330.998 30.16C331.339 30.48 331.787 30.7573 332.342 30.992C332.918 31.2267 333.526 31.472 334.166 31.728C334.785 31.9413 335.393 32.1973 335.99 32.496C336.609 32.7733 337.163 33.1147 337.654 33.52C338.145 33.904 338.539 34.384 338.838 34.96C339.158 35.5147 339.318 36.208 339.318 37.04C339.318 38.0213 339.062 38.928 338.55 39.76C338.038 40.592 337.291 41.2533 336.31 41.744C335.329 42.2133 334.102 42.448 332.63 42.448ZM343.237 42V24.368H346.917V42H343.237ZM345.093 21.104C344.389 21.104 343.824 20.9013 343.397 20.496C342.992 20.0907 342.789 19.5467 342.789 18.864C342.789 18.224 342.992 17.7013 343.397 17.296C343.824 16.8907 344.389 16.688 345.093 16.688C345.754 16.688 346.298 16.8907 346.725 17.296C347.152 17.7013 347.365 18.224 347.365 18.864C347.365 19.5467 347.152 20.0907 346.725 20.496C346.298 20.9013 345.754 21.104 345.093 21.104ZM358.376 42.448C357.053 42.448 355.997 42.192 355.208 41.68C354.44 41.1467 353.885 40.4213 353.544 39.504C353.203 38.5653 353.032 37.4773 353.032 36.24V27.344H350.472V24.592L353.224 24.368L353.64 19.504H356.712V24.368H361.288V27.344H356.712V36.272C356.712 37.3173 356.915 38.1173 357.32 38.672C357.725 39.2053 358.387 39.472 359.304 39.472C359.603 39.472 359.923 39.4293 360.264 39.344C360.605 39.2587 360.904 39.1627 361.16 39.056L361.832 41.776C361.363 41.9253 360.829 42.0747 360.232 42.224C359.656 42.3733 359.037 42.448 358.376 42.448ZM371.847 42.448C370.247 42.448 368.796 42.0853 367.495 41.36C366.194 40.6133 365.159 39.5573 364.391 38.192C363.623 36.8053 363.239 35.1413 363.239 33.2C363.239 31.7707 363.463 30.4907 363.911 29.36C364.359 28.208 364.967 27.2373 365.735 26.448C366.503 25.6373 367.367 25.0187 368.327 24.592C369.287 24.1653 370.268 23.952 371.271 23.952C372.828 23.952 374.14 24.304 375.207 25.008C376.274 25.6907 377.084 26.6613 377.639 27.92C378.194 29.1573 378.471 30.608 378.471 32.272C378.471 32.6347 378.45 32.9867 378.407 33.328C378.386 33.648 378.343 33.9253 378.279 34.16H366.855C366.962 35.2693 367.25 36.2293 367.719 37.04C368.21 37.8293 368.839 38.448 369.607 38.896C370.396 39.3227 371.292 39.536 372.295 39.536C373.084 39.536 373.82 39.4187 374.503 39.184C375.186 38.9493 375.847 38.6293 376.487 38.224L377.767 40.56C376.956 41.0933 376.05 41.5413 375.047 41.904C374.066 42.2667 372.999 42.448 371.847 42.448ZM366.823 31.6H375.271C375.271 30.1067 374.93 28.944 374.247 28.112C373.586 27.28 372.615 26.864 371.335 26.864C370.61 26.864 369.927 27.0453 369.287 27.408C368.647 27.7707 368.103 28.304 367.655 29.008C367.228 29.712 366.951 30.576 366.823 31.6Z" fill="white"/>
</svg>
