<svg width="263" height="58" viewBox="0 0 263 58" fill="none" xmlns="http://www.w3.org/2000/svg">
<path d="M13.3563 42L14.2203 34.832H11.4043V32.368H14.5083L15.1163 27.472H12.1403V24.976H15.4363L16.2363 18.608H18.5083L17.7083 24.976H22.1563L22.9563 18.608H25.2283L24.4603 24.976H27.3403V27.472H24.1723L23.5323 32.368H26.6042V34.832H23.2443L22.3803 42H20.0763L20.9403 34.832H16.5243L15.6283 42H13.3563ZM16.7803 32.368H21.2283L21.8363 27.472H17.3883L16.7803 32.368ZM28.4062 42L36.2143 18.416H40.5023L48.3103 42H44.3743L40.5663 29.2C40.1823 27.92 39.8089 26.6293 39.4463 25.328C39.0836 24.0053 38.7209 22.6827 38.3583 21.36H38.2303C37.8889 22.704 37.5263 24.0267 37.1423 25.328C36.7796 26.6293 36.4063 27.92 36.0223 29.2L32.2143 42H28.4062ZM32.8223 35.312V32.368H43.8303V35.312H32.8223ZM51.4165 42V18.416H55.1285V42H51.4165ZM80.5235 15.408H83.9155V37.072H80.5235V15.408ZM71.5635 17.648H75.0835C75.0835 20.208 74.5288 22.544 73.4195 24.656C72.3315 26.7467 70.7742 28.5707 68.7475 30.128C66.7208 31.664 64.3102 32.88 61.5155 33.776L60.0755 31.088C62.4222 30.3413 64.4488 29.3707 66.1555 28.176C67.8835 26.9813 69.2168 25.6267 70.1555 24.112C71.0942 22.576 71.5635 20.912 71.5635 19.12V17.648ZM61.5795 17.648H73.6435V20.368H61.5795V17.648ZM73.6115 21.232H81.0355V23.952H73.6115V21.232ZM73.3555 27.792H80.8755V30.512H73.3555V27.792ZM65.0995 41.328H84.6195V44.048H65.0995V41.328ZM65.0995 34.96H68.4915V43.024H65.0995V34.96ZM96.233 18.352H98.985V20.496C98.985 22.288 98.6543 23.984 97.993 25.584C97.353 27.184 96.425 28.5813 95.209 29.776C93.993 30.9707 92.521 31.8773 90.793 32.496L89.065 29.84C90.217 29.4347 91.2303 28.912 92.105 28.272C93.001 27.632 93.7583 26.896 94.377 26.064C94.9957 25.2107 95.4543 24.3147 95.753 23.376C96.073 22.416 96.233 21.456 96.233 20.496V18.352ZM96.905 18.352H99.625V20.464C99.625 21.68 99.8917 22.864 100.425 24.016C100.958 25.168 101.737 26.2027 102.761 27.12C103.785 28.016 105.033 28.72 106.505 29.232L104.841 31.856C103.156 31.28 101.716 30.416 100.521 29.264C99.3477 28.112 98.4517 26.7787 97.833 25.264C97.2143 23.7493 96.905 22.1493 96.905 20.464V18.352ZM104.873 22.736H110.921V25.488H104.873V22.736ZM90.057 17.232H105.705V19.92H90.057V17.232ZM93.641 34.32H113.321V44.656H109.961V37.008H93.641V34.32ZM109.961 15.408H113.321V32.848H109.961V15.408ZM133.191 24.976H141.159V27.696H133.191V24.976ZM125.735 17.776H128.455V22.576C128.455 24.304 128.273 25.9893 127.911 27.632C127.548 29.2533 127.015 30.7787 126.311 32.208C125.628 33.616 124.785 34.8747 123.783 35.984C122.801 37.072 121.681 37.936 120.423 38.576L118.343 35.92C119.495 35.3653 120.519 34.6187 121.415 33.68C122.332 32.7413 123.111 31.6747 123.751 30.48C124.412 29.264 124.903 27.9947 125.223 26.672C125.564 25.328 125.735 23.9627 125.735 22.576V17.776ZM126.407 17.776H129.095V22.576C129.095 23.92 129.255 25.2533 129.575 26.576C129.916 27.8773 130.407 29.104 131.047 30.256C131.687 31.3867 132.455 32.4 133.351 33.296C134.247 34.192 135.26 34.896 136.391 35.408L134.375 38.096C133.116 37.456 131.996 36.6133 131.015 35.568C130.033 34.5013 129.201 33.2853 128.519 31.92C127.836 30.5547 127.313 29.0827 126.951 27.504C126.588 25.904 126.407 24.2613 126.407 22.576V17.776ZM139.463 15.376H142.823V44.688H139.463V15.376ZM161.272 48.368C159.778 45.936 158.616 43.3973 157.784 40.752C156.952 38.0853 156.536 35.1627 156.536 31.984C156.536 28.8267 156.952 25.9147 157.784 23.248C158.616 20.5813 159.778 18.032 161.272 15.6L163.576 16.624C162.21 18.928 161.197 21.4027 160.536 24.048C159.896 26.672 159.576 29.3173 159.576 31.984C159.576 34.672 159.896 37.328 160.536 39.952C161.197 42.576 162.21 45.04 163.576 47.344L161.272 48.368ZM165.094 42L172.902 18.416H177.19L184.998 42H181.062L177.254 29.2C176.87 27.92 176.496 26.6293 176.134 25.328C175.771 24.0053 175.408 22.6827 175.046 21.36H174.918C174.576 22.704 174.214 24.0267 173.83 25.328C173.467 26.6293 173.094 27.92 172.71 29.2L168.902 42H165.094ZM169.51 35.312V32.368H180.518V35.312H169.51ZM188.104 42V18.416H191.816V42H188.104ZM207.611 42.448C205.52 42.448 203.643 41.968 201.979 41.008C200.336 40.048 199.035 38.6613 198.075 36.848C197.136 35.0347 196.667 32.8373 196.667 30.256C196.667 28.336 196.944 26.6187 197.499 25.104C198.075 23.5893 198.854 22.3093 199.835 21.264C200.838 20.1973 202 19.3867 203.323 18.832C204.667 18.2773 206.128 18 207.707 18C209.371 18 210.768 18.3093 211.899 18.928C213.051 19.5467 213.979 20.2293 214.683 20.976L212.699 23.344C212.102 22.768 211.419 22.2773 210.651 21.872C209.883 21.4453 208.934 21.232 207.803 21.232C206.352 21.232 205.072 21.5947 203.963 22.32C202.875 23.0453 202.022 24.0693 201.403 25.392C200.806 26.7147 200.507 28.304 200.507 30.16C200.507 32.016 200.795 33.6267 201.371 34.992C201.947 36.336 202.79 37.3707 203.899 38.096C205.008 38.8213 206.374 39.184 207.995 39.184C208.72 39.184 209.403 39.088 210.043 38.896C210.704 38.6827 211.238 38.3947 211.643 38.032V32.528H207.003V29.456H215.035V39.664C214.246 40.4533 213.211 41.1147 211.931 41.648C210.651 42.1813 209.211 42.448 207.611 42.448ZM229.377 42.448C227.371 42.448 225.59 41.9467 224.033 40.944C222.497 39.9413 221.291 38.5227 220.417 36.688C219.542 34.832 219.105 32.6453 219.105 30.128C219.105 27.5893 219.542 25.424 220.417 23.632C221.291 21.8187 222.497 20.432 224.033 19.472C225.59 18.4907 227.371 18 229.377 18C231.403 18 233.185 18.4907 234.721 19.472C236.257 20.432 237.462 21.8187 238.337 23.632C239.211 25.424 239.649 27.5893 239.649 30.128C239.649 32.6453 239.211 34.832 238.337 36.688C237.462 38.5227 236.257 39.9413 234.721 40.944C233.185 41.9467 231.403 42.448 229.377 42.448ZM229.377 39.184C230.678 39.184 231.809 38.8107 232.769 38.064C233.75 37.3173 234.507 36.272 235.041 34.928C235.574 33.5627 235.841 31.9627 235.841 30.128C235.841 28.2933 235.574 26.7147 235.041 25.392C234.507 24.048 233.75 23.024 232.769 22.32C231.809 21.5947 230.678 21.232 229.377 21.232C228.075 21.232 226.934 21.5947 225.953 22.32C224.993 23.024 224.246 24.048 223.713 25.392C223.201 26.7147 222.945 28.2933 222.945 30.128C222.945 31.9627 223.201 33.5627 223.713 34.928C224.246 36.272 224.993 37.3173 225.953 38.064C226.934 38.8107 228.075 39.184 229.377 39.184ZM245.214 48.368L242.91 47.344C244.275 45.04 245.288 42.576 245.95 39.952C246.611 37.328 246.942 34.672 246.942 31.984C246.942 29.3173 246.611 26.672 245.95 24.048C245.288 21.4027 244.275 18.928 242.91 16.624L245.214 15.6C246.728 18.032 247.902 20.5813 248.734 23.248C249.566 25.9147 249.982 28.8267 249.982 31.984C249.982 35.1627 249.566 38.0853 248.734 40.752C247.902 43.3973 246.728 45.936 245.214 48.368Z" fill="white"/>
</svg>
