<svg width="259" height="58" viewBox="0 0 259 58" fill="none" xmlns="http://www.w3.org/2000/svg">
<path d="M13.3563 42L14.2203 34.832H11.4043V32.368H14.5083L15.1163 27.472H12.1403V24.976H15.4363L16.2363 18.608H18.5083L17.7083 24.976H22.1563L22.9563 18.608H25.2283L24.4603 24.976H27.3403V27.472H24.1723L23.5323 32.368H26.6042V34.832H23.2443L22.3803 42H20.0763L20.9403 34.832H16.5243L15.6283 42H13.3563ZM16.7803 32.368H21.2283L21.8363 27.472H17.3883L16.7803 32.368ZM41.3983 25.584H46.6783V28.336H41.3983V25.584ZM35.6063 18.064H38.1983V23.344C38.1983 24.9227 38.0489 26.48 37.7503 28.016C37.4729 29.5307 37.0569 30.96 36.5023 32.304C35.9476 33.648 35.2543 34.864 34.4223 35.952C33.5903 37.0187 32.6196 37.8827 31.5103 38.544L29.4303 36.016C30.4756 35.3973 31.3823 34.6293 32.1503 33.712C32.9183 32.7947 33.5583 31.7707 34.0703 30.64C34.6036 29.5093 34.9876 28.3253 35.2223 27.088C35.4783 25.8293 35.6063 24.5813 35.6063 23.344V18.064ZM36.2783 18.064H38.8383V23.184C38.8383 24.3573 38.9449 25.5413 39.1583 26.736C39.3929 27.9093 39.7449 29.0293 40.2143 30.096C40.6836 31.1627 41.2703 32.144 41.9743 33.04C42.6783 33.936 43.5209 34.6933 44.5023 35.312L42.6463 37.904C41.5369 37.2427 40.5769 36.3893 39.7663 35.344C38.9769 34.2773 38.3263 33.0933 37.8142 31.792C37.3023 30.4693 36.9183 29.0827 36.6623 27.632C36.4063 26.16 36.2783 24.6773 36.2783 23.184V18.064ZM51.6383 15.376H54.8383V44.624H51.6383V15.376ZM45.6863 15.952H48.8223V43.248H45.6863V15.952ZM67.5398 16.368C69.0118 16.368 70.3238 16.6453 71.4758 17.2C72.6278 17.7547 73.5344 18.5333 74.1958 19.536C74.8571 20.5173 75.1878 21.6587 75.1878 22.96C75.1878 24.24 74.8571 25.3707 74.1958 26.352C73.5344 27.3333 72.6278 28.1013 71.4758 28.656C70.3238 29.2107 69.0118 29.488 67.5398 29.488C66.0678 29.488 64.7558 29.2107 63.6038 28.656C62.4518 28.1013 61.5344 27.3333 60.8518 26.352C60.1904 25.3707 59.8598 24.24 59.8598 22.96C59.8598 21.6587 60.1904 20.5173 60.8518 19.536C61.5344 18.5333 62.4518 17.7547 63.6038 17.2C64.7558 16.6453 66.0678 16.368 67.5398 16.368ZM67.5398 19.088C66.6864 19.088 65.9291 19.248 65.2678 19.568C64.6064 19.888 64.0838 20.336 63.6998 20.912C63.3158 21.488 63.1238 22.16 63.1238 22.928C63.1238 23.7173 63.3158 24.4 63.6998 24.976C64.0838 25.552 64.6064 26 65.2678 26.32C65.9291 26.6187 66.6864 26.768 67.5398 26.768C68.3931 26.768 69.1504 26.6187 69.8118 26.32C70.4731 26 70.9958 25.552 71.3798 24.976C71.7638 24.4 71.9558 23.7173 71.9558 22.928C71.9558 22.16 71.7638 21.488 71.3798 20.912C70.9958 20.336 70.4624 19.888 69.7798 19.568C69.1184 19.248 68.3718 19.088 67.5398 19.088ZM80.0518 15.408H83.4118V30.224H80.0518V15.408ZM64.2438 31.536H83.4118V39.056H67.6038V43.056H64.3078V36.592H80.1158V34.16H64.2438V31.536ZM64.3078 41.648H84.3078V44.272H64.3078V41.648ZM88.7533 38.192H115.249V40.944H88.7533V38.192ZM100.209 19.376H103.057V21.456C103.057 22.672 102.855 23.824 102.449 24.912C102.065 26 101.511 27.0133 100.785 27.952C100.06 28.8907 99.2066 29.7333 98.2253 30.48C97.2439 31.2053 96.1559 31.8347 94.9613 32.368C93.7879 32.88 92.5613 33.264 91.2812 33.52L89.9053 30.8C91.0573 30.6293 92.1453 30.3307 93.1693 29.904C94.1933 29.4773 95.1319 28.9653 95.9853 28.368C96.8599 27.7707 97.6066 27.1093 98.2253 26.384C98.8653 25.6587 99.3559 24.88 99.6973 24.048C100.039 23.216 100.209 22.352 100.209 21.456V19.376ZM100.881 19.376H103.729V21.456C103.729 22.352 103.9 23.216 104.241 24.048C104.583 24.8587 105.073 25.6267 105.713 26.352C106.353 27.0773 107.1 27.7387 107.953 28.336C108.828 28.912 109.788 29.4133 110.833 29.84C111.9 30.2453 113.009 30.5333 114.161 30.704L112.817 33.36C111.495 33.1253 110.236 32.752 109.041 32.24C107.847 31.728 106.748 31.1093 105.745 30.384C104.764 29.6587 103.911 28.8373 103.185 27.92C102.46 27.0027 101.895 26 101.489 24.912C101.084 23.824 100.881 22.672 100.881 21.456V19.376ZM90.9293 18.096H113.009V20.816H90.9293V18.096ZM140.962 23.248H148.066V25.968H140.962V23.248ZM146.242 15.408H149.602V36.784H146.242V15.408ZM130.658 41.328H150.37V44.048H130.658V41.328ZM130.658 34.928H134.018V42.832H130.658V34.928ZM132.514 19.12H135.266V21.264C135.266 23.056 134.936 24.7627 134.274 26.384C133.634 27.984 132.706 29.3813 131.49 30.576C130.274 31.7707 128.802 32.6773 127.074 33.296L125.346 30.64C126.498 30.2347 127.512 29.712 128.386 29.072C129.282 28.432 130.04 27.696 130.658 26.864C131.277 26.032 131.736 25.136 132.034 24.176C132.354 23.216 132.514 22.2453 132.514 21.264V19.12ZM133.186 19.12H135.906V21.232C135.906 22.448 136.173 23.632 136.706 24.784C137.24 25.936 138.018 26.9707 139.042 27.888C140.066 28.8053 141.314 29.52 142.786 30.032L141.122 32.656C139.437 32.0587 137.997 31.1947 136.802 30.064C135.629 28.912 134.733 27.5787 134.114 26.064C133.496 24.528 133.186 22.9173 133.186 21.232V19.12ZM126.338 17.616H141.986V20.304H126.338V17.616ZM176.64 19.76H181.76V22.512H176.64V19.76ZM176.64 25.968H181.76V28.72H176.64V25.968ZM156 29.136H158.368C160.202 29.136 161.866 29.1147 163.36 29.072C164.853 29.008 166.282 28.912 167.648 28.784C169.013 28.6347 170.41 28.4427 171.84 28.208L172.16 30.928C170.688 31.184 169.248 31.3867 167.84 31.536C166.453 31.664 164.992 31.7493 163.456 31.792C161.941 31.8347 160.245 31.856 158.368 31.856H156V29.136ZM155.936 17.072H169.184V25.584H159.296V30.448H156V23.024H165.888V19.76H155.936V17.072ZM174.304 15.408H177.632V33.168H174.304V15.408ZM158.432 34.64H177.632V44.624H174.304V37.328H158.432V34.64ZM213.169 15.376H216.369V44.624H213.169V15.376ZM202.961 25.68H208.241V28.4H202.961V25.68ZM207.313 15.984H210.449V43.216H207.313V15.984ZM197.073 20.016H199.601V23.44C199.601 25.04 199.462 26.6293 199.185 28.208C198.929 29.7653 198.523 31.2267 197.969 32.592C197.435 33.9573 196.753 35.1947 195.921 36.304C195.089 37.392 194.118 38.2773 193.009 38.96L190.961 36.496C192.369 35.6213 193.521 34.5013 194.417 33.136C195.313 31.7493 195.974 30.224 196.401 28.56C196.849 26.8747 197.073 25.168 197.073 23.44V20.016ZM197.777 20.016H200.305V23.44C200.305 25.104 200.518 26.736 200.945 28.336C201.371 29.936 202.022 31.3867 202.897 32.688C203.793 33.968 204.923 35.0133 206.289 35.824L204.305 38.256C202.833 37.36 201.617 36.1547 200.657 34.64C199.697 33.104 198.971 31.376 198.481 29.456C198.011 27.536 197.777 25.5307 197.777 23.44V20.016ZM191.889 18.576H205.105V21.328H191.889V18.576ZM240.366 15.376H243.694V36.816H240.366V15.376ZM242.702 24.048H247.822V26.832H242.702V24.048ZM225.198 41.328H244.91V44.048H225.198V41.328ZM225.198 34.608H228.558V42.512H225.198V34.608ZM229.006 17.36C230.478 17.36 231.801 17.68 232.974 18.32C234.148 18.9387 235.076 19.8027 235.758 20.912C236.441 22 236.782 23.2587 236.782 24.688C236.782 26.096 236.441 27.3547 235.758 28.464C235.076 29.552 234.148 30.416 232.974 31.056C231.801 31.6747 230.478 31.984 229.006 31.984C227.556 31.984 226.244 31.6747 225.07 31.056C223.897 30.416 222.969 29.552 222.286 28.464C221.604 27.3547 221.262 26.096 221.262 24.688C221.262 23.2587 221.604 22 222.286 20.912C222.969 19.8027 223.897 18.9387 225.07 18.32C226.244 17.68 227.556 17.36 229.006 17.36ZM229.006 20.272C228.174 20.272 227.417 20.4533 226.734 20.816C226.052 21.1787 225.508 21.6907 225.102 22.352C224.718 23.0133 224.526 23.792 224.526 24.688C224.526 25.5627 224.718 26.3307 225.102 26.992C225.508 27.632 226.052 28.1333 226.734 28.496C227.417 28.8587 228.174 29.04 229.006 29.04C229.86 29.04 230.628 28.8587 231.31 28.496C232.014 28.1333 232.558 27.632 232.942 26.992C233.326 26.3307 233.518 25.5627 233.518 24.688C233.518 23.792 233.326 23.0133 232.942 22.352C232.558 21.6907 232.014 21.1787 231.31 20.816C230.628 20.4533 229.86 20.272 229.006 20.272Z" fill="white"/>
</svg>
