<svg width="301" height="58" viewBox="0 0 301 58" fill="none" xmlns="http://www.w3.org/2000/svg">
<path d="M15.333 25H29.333V29.6667H15.333V25ZM15.333 32.3333H29.333V37H15.333V32.3333ZM31.9997 25H36.6663V37H31.9997V25Z" fill="#DFD9FC"/>
<path d="M36.667 18.3334H15.3337C13.867 18.3334 12.6803 19.5334 12.6803 21L12.667 37C12.667 38.4667 13.867 39.6667 15.3337 39.6667H36.667C38.1337 39.6667 39.3337 38.4667 39.3337 37V21C39.3337 19.5334 38.1337 18.3334 36.667 18.3334ZM29.3337 37H15.3337V32.3334H29.3337V37ZM29.3337 29.6667H15.3337V25H29.3337V29.6667ZM36.667 37H32.0003V25H36.667V37Z" fill="#7244ED"/>
<path d="M62.5438 42L63.4078 34.832H60.5918V32.368H63.6958L64.3038 27.472H61.3278V24.976H64.6238L65.4238 18.608H67.6958L66.8958 24.976H71.3438L72.1438 18.608H74.4158L73.6478 24.976H76.5278V27.472H73.3598L72.7198 32.368H75.7917V34.832H72.4318L71.5678 42H69.2638L70.1278 34.832H65.7118L64.8158 42H62.5438ZM65.9678 32.368H70.4158L71.0238 27.472H66.5758L65.9678 32.368ZM98.5538 15.408H101.882V36.912H98.5538V15.408ZM100.89 23.984H106.01V26.768H100.89V23.984ZM83.3858 41.328H103.098V44.048H83.3858V41.328ZM83.3858 34.8H86.7458V41.936H83.3858V34.8ZM80.0898 17.488H83.4178V22.064H90.5538V17.488H93.8818V32.144H80.0898V17.488ZM83.4178 24.656V29.456H90.5538V24.656H83.4178ZM108.503 29.36H134.935V32.016H108.503V29.36ZM121.655 34.096C124.813 34.096 127.277 34.5547 129.047 35.472C130.839 36.368 131.735 37.6693 131.735 39.376C131.735 41.0613 130.839 42.3627 129.047 43.28C127.277 44.1973 124.813 44.656 121.655 44.656C118.519 44.656 116.055 44.1973 114.263 43.28C112.493 42.3627 111.607 41.0613 111.607 39.376C111.607 37.6693 112.493 36.368 114.263 35.472C116.055 34.5547 118.519 34.096 121.655 34.096ZM121.655 36.656C120.247 36.656 119.042 36.7627 118.039 36.976C117.037 37.168 116.269 37.4667 115.735 37.872C115.223 38.2773 114.967 38.7787 114.967 39.376C114.967 39.952 115.223 40.4427 115.735 40.848C116.269 41.2533 117.037 41.5627 118.039 41.776C119.042 41.968 120.247 42.064 121.655 42.064C123.106 42.064 124.322 41.968 125.303 41.776C126.306 41.5627 127.063 41.2533 127.575 40.848C128.087 40.4427 128.343 39.952 128.343 39.376C128.343 38.7787 128.087 38.2773 127.575 37.872C127.063 37.4667 126.306 37.168 125.303 36.976C124.322 36.7627 123.106 36.656 121.655 36.656ZM121.719 16.08C123.831 16.08 125.666 16.3147 127.223 16.784C128.781 17.232 129.986 17.872 130.839 18.704C131.693 19.536 132.119 20.5387 132.119 21.712C132.119 22.8853 131.693 23.8987 130.839 24.752C129.986 25.584 128.781 26.2347 127.223 26.704C125.666 27.152 123.831 27.376 121.719 27.376C119.607 27.376 117.762 27.152 116.183 26.704C114.626 26.2347 113.421 25.584 112.567 24.752C111.714 23.8987 111.287 22.8853 111.287 21.712C111.287 20.5387 111.714 19.536 112.567 18.704C113.421 17.872 114.626 17.232 116.183 16.784C117.762 16.3147 119.607 16.08 121.719 16.08ZM121.719 18.672C120.269 18.672 119.021 18.7893 117.975 19.024C116.93 19.2587 116.13 19.6 115.575 20.048C115.021 20.496 114.743 21.0507 114.743 21.712C114.743 22.3733 115.021 22.928 115.575 23.376C116.13 23.824 116.93 24.1653 117.975 24.4C119.021 24.6347 120.269 24.752 121.719 24.752C123.17 24.752 124.407 24.6347 125.431 24.4C126.477 24.1653 127.277 23.824 127.831 23.376C128.386 22.928 128.663 22.3733 128.663 21.712C128.663 21.0507 128.386 20.496 127.831 20.048C127.277 19.6 126.477 19.2587 125.431 19.024C124.407 18.7893 123.17 18.672 121.719 18.672ZM154.421 22.16H160.117V24.848H154.421V22.16ZM154.357 27.92H160.053V30.608H154.357V27.92ZM138.005 18.352H154.229V21.008H138.005V18.352ZM146.229 22.288C147.573 22.288 148.746 22.5227 149.749 22.992C150.751 23.44 151.541 24.0693 152.117 24.88C152.693 25.6907 152.981 26.64 152.981 27.728C152.981 28.816 152.693 29.776 152.117 30.608C151.541 31.4187 150.751 32.0587 149.749 32.528C148.746 32.976 147.573 33.2 146.229 33.2C144.927 33.2 143.765 32.976 142.741 32.528C141.738 32.0587 140.949 31.4187 140.373 30.608C139.797 29.776 139.509 28.816 139.509 27.728C139.509 26.64 139.797 25.6907 140.373 24.88C140.949 24.0693 141.738 23.44 142.741 22.992C143.765 22.5227 144.927 22.288 146.229 22.288ZM146.229 24.848C145.162 24.848 144.298 25.104 143.637 25.616C142.997 26.128 142.677 26.8427 142.677 27.76C142.677 28.656 142.997 29.3707 143.637 29.904C144.298 30.416 145.162 30.672 146.229 30.672C147.317 30.672 148.191 30.416 148.853 29.904C149.514 29.3707 149.845 28.656 149.845 27.76C149.845 26.8427 149.514 26.128 148.853 25.616C148.191 25.104 147.317 24.848 146.229 24.848ZM144.597 15.152H147.957V20.208H144.597V15.152ZM158.805 15.376H162.165V34.16H158.805V15.376ZM152.469 34.512C154.495 34.512 156.245 34.7147 157.717 35.12C159.189 35.504 160.319 36.08 161.109 36.848C161.919 37.5947 162.325 38.5013 162.325 39.568C162.325 40.6133 161.919 41.5093 161.109 42.256C160.319 43.024 159.189 43.6 157.717 43.984C156.245 44.3893 154.495 44.592 152.469 44.592C150.421 44.592 148.661 44.3893 147.189 43.984C145.717 43.6 144.575 43.024 143.765 42.256C142.975 41.5093 142.581 40.6133 142.581 39.568C142.581 38.5013 142.975 37.5947 143.765 36.848C144.575 36.08 145.717 35.504 147.189 35.12C148.661 34.7147 150.421 34.512 152.469 34.512ZM152.469 37.104C150.463 37.104 148.895 37.3067 147.765 37.712C146.655 38.1173 146.101 38.736 146.101 39.568C146.101 40.3573 146.655 40.9653 147.765 41.392C148.895 41.8187 150.463 42.032 152.469 42.032C154.453 42.032 155.999 41.8187 157.109 41.392C158.239 40.9653 158.805 40.3573 158.805 39.568C158.805 38.736 158.239 38.1173 157.109 37.712C155.999 37.3067 154.453 37.104 152.469 37.104ZM177.734 35.856H197.798V44.272H177.734V35.856ZM194.502 38.352H180.998V41.776H194.502V38.352ZM175.878 17.648H199.526V20.208H175.878V17.648ZM187.782 21.168C190.854 21.168 193.211 21.52 194.854 22.224C196.518 22.928 197.35 23.9627 197.35 25.328C197.35 26.6933 196.518 27.728 194.854 28.432C193.211 29.136 190.854 29.488 187.782 29.488C184.71 29.488 182.342 29.136 180.678 28.432C179.014 27.728 178.182 26.6933 178.182 25.328C178.182 23.9627 179.014 22.928 180.678 22.224C182.342 21.52 184.71 21.168 187.782 21.168ZM187.782 23.472C185.798 23.472 184.294 23.632 183.27 23.952C182.267 24.2507 181.766 24.7093 181.766 25.328C181.766 25.9467 182.267 26.416 183.27 26.736C184.294 27.0347 185.798 27.184 187.782 27.184C189.766 27.184 191.259 27.0347 192.262 26.736C193.286 26.416 193.798 25.9467 193.798 25.328C193.798 24.7093 193.286 24.2507 192.262 23.952C191.259 23.632 189.766 23.472 187.782 23.472ZM186.118 15.056H189.446V19.408H186.118V15.056ZM174.566 31.344H200.998V33.936H174.566V31.344ZM186.118 28.688H189.446V32.752H186.118V28.688ZM225.955 15.408H229.155V44.656H225.955V15.408ZM216.771 26.32H221.219V29.264H216.771V26.32ZM220.227 16.048H223.363V43.184H220.227V16.048ZM204.259 18.928H217.571V21.616H204.259V18.928ZM204.067 37.712L203.715 34.928C204.654 34.928 205.71 34.9173 206.883 34.896C208.078 34.8747 209.326 34.8427 210.627 34.8C211.95 34.736 213.251 34.6613 214.531 34.576C215.811 34.4907 217.006 34.3733 218.115 34.224L218.339 36.656C216.825 36.9547 215.193 37.1893 213.443 37.36C211.715 37.5093 210.03 37.6053 208.387 37.648C206.766 37.6907 205.326 37.712 204.067 37.712ZM206.371 20.656H209.411V35.664H206.371V20.656ZM212.355 20.656H215.427V35.664H212.355V20.656ZM254.145 15.376H257.505V44.688H254.145V15.376ZM241.953 17.52C243.403 17.52 244.694 17.9467 245.825 18.8C246.977 19.6533 247.873 20.848 248.513 22.384C249.153 23.92 249.473 25.7333 249.473 27.824C249.473 29.936 249.153 31.7707 248.513 33.328C247.873 34.864 246.977 36.0587 245.825 36.912C244.694 37.744 243.403 38.16 241.953 38.16C240.502 38.16 239.201 37.744 238.049 36.912C236.918 36.0587 236.022 34.864 235.361 33.328C234.721 31.7707 234.401 29.936 234.401 27.824C234.401 25.7333 234.721 23.92 235.361 22.384C236.022 20.848 236.918 19.6533 238.049 18.8C239.201 17.9467 240.502 17.52 241.953 17.52ZM241.953 20.56C241.099 20.56 240.342 20.848 239.681 21.424C239.041 22 238.539 22.832 238.177 23.92C237.814 25.008 237.633 26.3093 237.633 27.824C237.633 29.36 237.814 30.672 238.177 31.76C238.539 32.848 239.041 33.6907 239.681 34.288C240.342 34.864 241.099 35.152 241.953 35.152C242.806 35.152 243.553 34.864 244.193 34.288C244.833 33.6907 245.334 32.848 245.697 31.76C246.059 30.672 246.241 29.36 246.241 27.824C246.241 26.3093 246.059 25.008 245.697 23.92C245.334 22.832 244.833 22 244.193 21.424C243.553 20.848 242.806 20.56 241.953 20.56ZM270.302 19.76H272.99V23.856C272.99 25.4773 272.798 27.0667 272.414 28.624C272.03 30.16 271.465 31.6107 270.718 32.976C269.993 34.3413 269.118 35.5467 268.094 36.592C267.07 37.6373 265.94 38.4693 264.702 39.088L262.75 36.432C263.881 35.8987 264.905 35.184 265.822 34.288C266.761 33.392 267.561 32.3787 268.222 31.248C268.884 30.096 269.396 28.8907 269.758 27.632C270.121 26.3733 270.302 25.1147 270.302 23.856V19.76ZM271.006 19.76H273.694V23.856C273.694 25.072 273.876 26.2773 274.238 27.472C274.601 28.6667 275.113 29.7973 275.774 30.864C276.436 31.9307 277.225 32.88 278.142 33.712C279.06 34.544 280.094 35.2053 281.246 35.696L279.39 38.352C278.11 37.776 276.958 36.9973 275.934 36.016C274.91 35.0347 274.025 33.904 273.278 32.624C272.553 31.3227 271.988 29.936 271.582 28.464C271.198 26.9707 271.006 25.4347 271.006 23.856V19.76ZM263.806 18.288H280.19V21.072H263.806V18.288ZM283.582 15.408H286.942V44.656H283.582V15.408Z" fill="white"/>
</svg>
