<svg width="258" height="58" viewBox="0 0 258 58" fill="none" xmlns="http://www.w3.org/2000/svg">
<path d="M13.2 42L14.064 34.832H11.248V32.368H14.352L14.96 27.472H11.984V24.976H15.28L16.08 18.608H18.352L17.552 24.976H22L22.8 18.608H25.072L24.304 24.976H27.184V27.472H24.016L23.376 32.368H26.448V34.832H23.088L22.224 42H19.92L20.784 34.832H16.368L15.472 42H13.2ZM16.624 32.368H21.072L21.68 27.472H17.232L16.624 32.368ZM31.354 42V18.416H38.49C40.2607 18.416 41.818 18.6507 43.162 19.12C44.506 19.568 45.562 20.3147 46.33 21.36C47.1193 22.384 47.514 23.792 47.514 25.584C47.514 27.2907 47.13 28.6987 46.362 29.808C45.594 30.896 44.538 31.7173 43.194 32.272C41.8713 32.8053 40.346 33.072 38.618 33.072H35.066V42H31.354ZM35.066 30.064H38.298C40.154 30.064 41.5407 29.7013 42.458 28.976C43.3753 28.2507 43.834 27.12 43.834 25.584C43.834 24.0053 43.354 22.9173 42.394 22.32C41.434 21.7227 40.0153 21.424 38.138 21.424H35.066V30.064ZM61.736 42.448C59.6453 42.448 57.768 41.968 56.104 41.008C54.4613 40.048 53.16 38.6613 52.2 36.848C51.2613 35.0347 50.792 32.8373 50.792 30.256C50.792 28.336 51.0693 26.6187 51.624 25.104C52.2 23.5893 52.9787 22.3093 53.96 21.264C54.9627 20.1973 56.1253 19.3867 57.448 18.832C58.792 18.2773 60.2533 18 61.832 18C63.496 18 64.8933 18.3093 66.024 18.928C67.176 19.5467 68.104 20.2293 68.808 20.976L66.824 23.344C66.2267 22.768 65.544 22.2773 64.776 21.872C64.008 21.4453 63.0587 21.232 61.928 21.232C60.4773 21.232 59.1973 21.5947 58.088 22.32C57 23.0453 56.1467 24.0693 55.528 25.392C54.9307 26.7147 54.632 28.304 54.632 30.16C54.632 32.016 54.92 33.6267 55.496 34.992C56.072 36.336 56.9147 37.3707 58.024 38.096C59.1333 38.8213 60.4987 39.184 62.12 39.184C62.8453 39.184 63.528 39.088 64.168 38.896C64.8293 38.6827 65.3627 38.3947 65.768 38.032V32.528H61.128V29.456H69.16V39.664C68.3707 40.4533 67.336 41.1147 66.056 41.648C64.776 42.1813 63.336 42.448 61.736 42.448ZM81.729 42V18.416H85.441V42H81.729ZM91.284 42V24.368H94.292L94.612 26.832H94.676C95.4867 26.0427 96.3613 25.3707 97.3 24.816C98.2387 24.24 99.3053 23.952 100.5 23.952C102.377 23.952 103.743 24.56 104.596 25.776C105.471 26.9707 105.908 28.688 105.908 30.928V42H102.228V31.376C102.228 29.8613 101.993 28.784 101.524 28.144C101.055 27.4827 100.297 27.152 99.252 27.152C98.4413 27.152 97.716 27.3547 97.076 27.76C96.4573 28.144 95.7533 28.7307 94.964 29.52V42H91.284ZM117.173 42.448C115.85 42.448 114.794 42.192 114.005 41.68C113.237 41.1467 112.682 40.4213 112.341 39.504C111.999 38.5653 111.829 37.4773 111.829 36.24V27.344H109.269V24.592L112.021 24.368L112.437 19.504H115.509V24.368H120.085V27.344H115.509V36.272C115.509 37.3173 115.711 38.1173 116.117 38.672C116.522 39.2053 117.183 39.472 118.101 39.472C118.399 39.472 118.719 39.4293 119.061 39.344C119.402 39.2587 119.701 39.1627 119.957 39.056L120.629 41.776C120.159 41.9253 119.626 42.0747 119.029 42.224C118.453 42.3733 117.834 42.448 117.173 42.448ZM130.644 42.448C129.044 42.448 127.593 42.0853 126.292 41.36C124.991 40.6133 123.956 39.5573 123.188 38.192C122.42 36.8053 122.036 35.1413 122.036 33.2C122.036 31.7707 122.26 30.4907 122.708 29.36C123.156 28.208 123.764 27.2373 124.532 26.448C125.3 25.6373 126.164 25.0187 127.124 24.592C128.084 24.1653 129.065 23.952 130.068 23.952C131.625 23.952 132.937 24.304 134.004 25.008C135.071 25.6907 135.881 26.6613 136.436 27.92C136.991 29.1573 137.268 30.608 137.268 32.272C137.268 32.6347 137.247 32.9867 137.204 33.328C137.183 33.648 137.14 33.9253 137.076 34.16H125.652C125.759 35.2693 126.047 36.2293 126.516 37.04C127.007 37.8293 127.636 38.448 128.404 38.896C129.193 39.3227 130.089 39.536 131.092 39.536C131.881 39.536 132.617 39.4187 133.3 39.184C133.983 38.9493 134.644 38.6293 135.284 38.224L136.564 40.56C135.753 41.0933 134.847 41.5413 133.844 41.904C132.863 42.2667 131.796 42.448 130.644 42.448ZM125.62 31.6H134.068C134.068 30.1067 133.727 28.944 133.044 28.112C132.383 27.28 131.412 26.864 130.132 26.864C129.407 26.864 128.724 27.0453 128.084 27.408C127.444 27.7707 126.9 28.304 126.452 29.008C126.025 29.712 125.748 30.576 125.62 31.6ZM146.957 49.904C145.549 49.904 144.29 49.7227 143.181 49.36C142.072 49.0187 141.197 48.5067 140.557 47.824C139.938 47.1413 139.629 46.288 139.629 45.264C139.629 44.5173 139.853 43.8133 140.301 43.152C140.749 42.4907 141.378 41.9147 142.189 41.424V41.296C141.741 40.9973 141.357 40.6133 141.037 40.144C140.738 39.6533 140.589 39.056 140.589 38.352C140.589 37.648 140.792 37.0187 141.197 36.464C141.624 35.888 142.082 35.4293 142.573 35.088V34.96C141.954 34.4907 141.41 33.8507 140.941 33.04C140.472 32.2293 140.237 31.3013 140.237 30.256C140.237 28.9333 140.546 27.8027 141.165 26.864C141.805 25.904 142.637 25.1787 143.661 24.688C144.706 24.1973 145.837 23.952 147.053 23.952C147.565 23.952 148.034 23.9947 148.461 24.08C148.909 24.144 149.293 24.24 149.613 24.368H155.853V27.152H152.525C152.845 27.5147 153.112 27.9733 153.325 28.528C153.538 29.0827 153.645 29.6907 153.645 30.352C153.645 31.632 153.346 32.7307 152.749 33.648C152.173 34.544 151.384 35.2373 150.381 35.728C149.378 36.1973 148.269 36.432 147.053 36.432C146.669 36.432 146.253 36.3893 145.805 36.304C145.378 36.1973 144.973 36.0693 144.589 35.92C144.312 36.1547 144.077 36.4107 143.885 36.688C143.714 36.9653 143.629 37.3173 143.629 37.744C143.629 38.256 143.832 38.672 144.237 38.992C144.664 39.312 145.442 39.472 146.573 39.472H149.837C151.906 39.472 153.474 39.8133 154.541 40.496C155.608 41.1573 156.141 42.2347 156.141 43.728C156.141 44.8587 155.768 45.8933 155.021 46.832C154.274 47.7707 153.208 48.5173 151.821 49.072C150.456 49.6267 148.834 49.904 146.957 49.904ZM147.053 34.032C147.65 34.032 148.205 33.8827 148.717 33.584C149.229 33.2853 149.634 32.8587 149.933 32.304C150.232 31.728 150.381 31.0453 150.381 30.256C150.381 29.4667 150.232 28.8053 149.933 28.272C149.634 27.7173 149.229 27.2907 148.717 26.992C148.226 26.6933 147.672 26.544 147.053 26.544C146.434 26.544 145.869 26.6933 145.357 26.992C144.866 27.2907 144.472 27.7173 144.173 28.272C143.874 28.8053 143.725 29.4667 143.725 30.256C143.725 31.0453 143.874 31.728 144.173 32.304C144.493 32.8587 144.898 33.2853 145.389 33.584C145.901 33.8827 146.456 34.032 147.053 34.032ZM147.469 47.472C148.514 47.472 149.41 47.3227 150.157 47.024C150.904 46.7253 151.49 46.3307 151.917 45.84C152.344 45.3707 152.557 44.8693 152.557 44.336C152.557 43.5893 152.28 43.0773 151.725 42.8C151.17 42.544 150.36 42.416 149.293 42.416H146.637C146.21 42.416 145.805 42.3947 145.421 42.352C145.037 42.3093 144.653 42.2453 144.269 42.16C143.757 42.544 143.384 42.96 143.149 43.408C142.914 43.856 142.797 44.2933 142.797 44.72C142.797 45.5733 143.213 46.2453 144.045 46.736C144.877 47.2267 146.018 47.472 147.469 47.472ZM159.409 42V24.368H162.417L162.737 27.536H162.801C163.441 26.4053 164.198 25.5307 165.073 24.912C165.948 24.272 166.865 23.952 167.825 23.952C168.252 23.952 168.614 23.984 168.913 24.048C169.212 24.112 169.5 24.1973 169.777 24.304L169.137 27.536C168.817 27.4293 168.529 27.3547 168.273 27.312C168.017 27.2693 167.708 27.248 167.345 27.248C166.641 27.248 165.894 27.536 165.105 28.112C164.316 28.6667 163.644 29.648 163.089 31.056V42H159.409ZM175.632 42.448C174.629 42.448 173.733 42.2347 172.944 41.808C172.176 41.3813 171.568 40.784 171.12 40.016C170.672 39.248 170.448 38.352 170.448 37.328C170.448 35.4293 171.28 33.968 172.944 32.944C174.629 31.8987 177.306 31.1733 180.976 30.768C180.954 30.0853 180.848 29.456 180.656 28.88C180.464 28.304 180.122 27.8453 179.632 27.504C179.162 27.1413 178.49 26.96 177.616 26.96C176.698 26.96 175.813 27.1413 174.96 27.504C174.106 27.8667 173.296 28.2827 172.528 28.752L171.152 26.256C171.77 25.872 172.453 25.5093 173.2 25.168C173.946 24.8053 174.746 24.5173 175.6 24.304C176.453 24.0693 177.338 23.952 178.256 23.952C179.728 23.952 180.933 24.2507 181.872 24.848C182.81 25.424 183.504 26.2667 183.952 27.376C184.421 28.4853 184.656 29.8293 184.656 31.408V42H181.648L181.36 39.984H181.232C180.442 40.6667 179.578 41.2533 178.64 41.744C177.701 42.2133 176.698 42.448 175.632 42.448ZM176.752 39.504C177.52 39.504 178.234 39.3333 178.896 38.992C179.557 38.6293 180.25 38.1067 180.976 37.424V33.136C179.248 33.328 177.872 33.616 176.848 34C175.824 34.3627 175.088 34.8 174.64 35.312C174.213 35.8027 174 36.3787 174 37.04C174 37.9147 174.266 38.544 174.8 38.928C175.333 39.312 175.984 39.504 176.752 39.504ZM195.142 42.448C193.819 42.448 192.763 42.192 191.974 41.68C191.206 41.1467 190.651 40.4213 190.31 39.504C189.968 38.5653 189.798 37.4773 189.798 36.24V27.344H187.238V24.592L189.99 24.368L190.406 19.504H193.478V24.368H198.054V27.344H193.478V36.272C193.478 37.3173 193.68 38.1173 194.086 38.672C194.491 39.2053 195.152 39.472 196.07 39.472C196.368 39.472 196.688 39.4293 197.03 39.344C197.371 39.2587 197.67 39.1627 197.926 39.056L198.598 41.776C198.128 41.9253 197.595 42.0747 196.998 42.224C196.422 42.3733 195.803 42.448 195.142 42.448ZM201.909 42V24.368H205.589V42H201.909ZM203.765 21.104C203.061 21.104 202.496 20.9013 202.069 20.496C201.664 20.0907 201.461 19.5467 201.461 18.864C201.461 18.224 201.664 17.7013 202.069 17.296C202.496 16.8907 203.061 16.688 203.765 16.688C204.426 16.688 204.97 16.8907 205.397 17.296C205.824 17.7013 206.037 18.224 206.037 18.864C206.037 19.5467 205.824 20.0907 205.397 20.496C204.97 20.9013 204.426 21.104 203.765 21.104ZM218.2 42.448C216.749 42.448 215.384 42.0853 214.104 41.36C212.845 40.6133 211.821 39.5573 211.032 38.192C210.264 36.8053 209.88 35.1413 209.88 33.2C209.88 31.2373 210.264 29.5733 211.032 28.208C211.821 26.8213 212.845 25.7653 214.104 25.04C215.384 24.3147 216.749 23.952 218.2 23.952C219.266 23.952 220.301 24.1653 221.304 24.592C222.306 24.9973 223.192 25.5947 223.96 26.384C224.728 27.1733 225.336 28.144 225.784 29.296C226.232 30.4267 226.456 31.728 226.456 33.2C226.456 35.1413 226.061 36.8053 225.272 38.192C224.504 39.5573 223.49 40.6133 222.232 41.36C220.994 42.0853 219.65 42.448 218.2 42.448ZM218.2 39.376C219.117 39.376 219.906 39.12 220.568 38.608C221.25 38.096 221.773 37.3813 222.136 36.464C222.498 35.5253 222.68 34.4373 222.68 33.2C222.68 31.9627 222.498 30.8853 222.136 29.968C221.773 29.0293 221.25 28.304 220.568 27.792C219.906 27.2587 219.117 26.992 218.2 26.992C217.261 26.992 216.45 27.2587 215.768 27.792C215.106 28.304 214.594 29.0293 214.232 29.968C213.869 30.8853 213.688 31.9627 213.688 33.2C213.688 34.4373 213.869 35.5253 214.232 36.464C214.594 37.3813 215.106 38.096 215.768 38.608C216.45 39.12 217.261 39.376 218.2 39.376ZM230.815 42V24.368H233.823L234.143 26.832H234.207C235.018 26.0427 235.893 25.3707 236.831 24.816C237.77 24.24 238.837 23.952 240.031 23.952C241.909 23.952 243.274 24.56 244.127 25.776C245.002 26.9707 245.439 28.688 245.439 30.928V42H241.759V31.376C241.759 29.8613 241.525 28.784 241.055 28.144C240.586 27.4827 239.829 27.152 238.783 27.152C237.973 27.152 237.247 27.3547 236.607 27.76C235.989 28.144 235.285 28.7307 234.495 29.52V42H230.815Z" fill="white"/>
</svg>
