<svg width="316" height="58" viewBox="0 0 316 58" fill="none" xmlns="http://www.w3.org/2000/svg">
<path d="M13.575 42L14.439 34.832H11.623V32.368H14.727L15.335 27.472H12.359V24.976H15.655L16.455 18.608H18.727L17.927 24.976H22.375L23.175 18.608H25.447L24.679 24.976H27.559V27.472H24.391L23.751 32.368H26.823V34.832H23.463L22.599 42H20.295L21.159 34.832H16.743L15.847 42H13.575ZM16.999 32.368H21.447L22.055 27.472H17.607L16.999 32.368ZM28.625 42L36.433 18.416H40.721L48.529 42H44.593L40.785 29.2C40.401 27.92 40.0277 26.6293 39.665 25.328C39.3023 24.0053 38.9397 22.6827 38.577 21.36H38.449C38.1077 22.704 37.745 24.0267 37.361 25.328C36.9983 26.6293 36.625 27.92 36.241 29.2L32.433 42H28.625ZM33.041 35.312V32.368H44.049V35.312H33.041ZM51.6353 42V18.416H55.3473V42H51.6353ZM68.6978 42V18.416H82.6178V21.552H72.4098V28.112H81.0498V31.248H72.4098V38.832H82.9698V42H68.6978ZM92.3333 42.448C91.1386 42.448 89.9439 42.2133 88.7493 41.744C87.5759 41.2747 86.5626 40.688 85.7093 39.984L87.4693 37.584C88.2373 38.2027 89.0159 38.704 89.8053 39.088C90.6159 39.4507 91.4906 39.632 92.4293 39.632C93.4746 39.632 94.2426 39.408 94.7333 38.96C95.2453 38.4907 95.5013 37.9253 95.5013 37.264C95.5013 36.7307 95.3093 36.2827 94.9253 35.92C94.5626 35.5573 94.0826 35.248 93.4853 34.992C92.8879 34.7147 92.2693 34.4587 91.6293 34.224C90.8399 33.9253 90.0613 33.5733 89.2933 33.168C88.5466 32.7413 87.9279 32.208 87.4373 31.568C86.9466 30.9067 86.7013 30.0853 86.7013 29.104C86.7013 28.1013 86.9466 27.216 87.4373 26.448C87.9493 25.68 88.6746 25.072 89.6133 24.624C90.5519 24.176 91.6719 23.952 92.9733 23.952C94.1466 23.952 95.2133 24.1547 96.1733 24.56C97.1546 24.9653 97.9866 25.456 98.6693 26.032L96.9733 28.304C96.3546 27.856 95.7253 27.4933 95.0853 27.216C94.4453 26.9173 93.7733 26.768 93.0693 26.768C92.0879 26.768 91.3626 26.9813 90.8933 27.408C90.4239 27.8133 90.1893 28.3253 90.1893 28.944C90.1893 29.4347 90.3599 29.84 90.7013 30.16C91.0426 30.48 91.4906 30.7573 92.0453 30.992C92.6213 31.2267 93.2293 31.472 93.8693 31.728C94.4879 31.9413 95.0959 32.1973 95.6933 32.496C96.3119 32.7733 96.8666 33.1147 97.3573 33.52C97.8479 33.904 98.2426 34.384 98.5413 34.96C98.8613 35.5147 99.0213 36.208 99.0213 37.04C99.0213 38.0213 98.7653 38.928 98.2533 39.76C97.7413 40.592 96.9946 41.2533 96.0133 41.744C95.0319 42.2133 93.8053 42.448 92.3333 42.448ZM107.985 42.448C106.663 42.448 105.607 42.192 104.817 41.68C104.049 41.1467 103.495 40.4213 103.153 39.504C102.812 38.5653 102.641 37.4773 102.641 36.24V27.344H100.081V24.592L102.833 24.368L103.249 19.504H106.321V24.368H110.897V27.344H106.321V36.272C106.321 37.3173 106.524 38.1173 106.929 38.672C107.335 39.2053 107.996 39.472 108.913 39.472C109.212 39.472 109.532 39.4293 109.873 39.344C110.215 39.2587 110.513 39.1627 110.769 39.056L111.441 41.776C110.972 41.9253 110.439 42.0747 109.841 42.224C109.265 42.3733 108.647 42.448 107.985 42.448ZM114.753 42V24.368H118.433V42H114.753ZM116.609 21.104C115.905 21.104 115.339 20.9013 114.913 20.496C114.507 20.0907 114.305 19.5467 114.305 18.864C114.305 18.224 114.507 17.7013 114.913 17.296C115.339 16.8907 115.905 16.688 116.609 16.688C117.27 16.688 117.814 16.8907 118.241 17.296C118.667 17.7013 118.881 18.224 118.881 18.864C118.881 19.5467 118.667 20.0907 118.241 20.496C117.814 20.9013 117.27 21.104 116.609 21.104ZM123.972 42V24.368H126.98L127.3 26.864H127.364C128.132 26.0533 128.953 25.3707 129.828 24.816C130.724 24.24 131.726 23.952 132.836 23.952C134.137 23.952 135.172 24.24 135.94 24.816C136.708 25.3707 137.284 26.16 137.668 27.184C138.542 26.2453 139.438 25.4773 140.356 24.88C141.294 24.2613 142.308 23.952 143.396 23.952C145.23 23.952 146.585 24.56 147.46 25.776C148.356 26.9707 148.804 28.688 148.804 30.928V42H145.092V31.376C145.092 29.8613 144.857 28.784 144.388 28.144C143.918 27.4827 143.182 27.152 142.18 27.152C141.582 27.152 140.953 27.344 140.292 27.728C139.652 28.112 138.958 28.7093 138.212 29.52V42H134.532V31.376C134.532 29.8613 134.297 28.784 133.828 28.144C133.358 27.4827 132.612 27.152 131.588 27.152C131.012 27.152 130.393 27.344 129.732 27.728C129.07 28.112 128.377 28.7093 127.652 29.52V42H123.972ZM158.319 42.448C157.316 42.448 156.42 42.2347 155.631 41.808C154.863 41.3813 154.255 40.784 153.807 40.016C153.359 39.248 153.135 38.352 153.135 37.328C153.135 35.4293 153.967 33.968 155.631 32.944C157.316 31.8987 159.994 31.1733 163.663 30.768C163.642 30.0853 163.535 29.456 163.343 28.88C163.151 28.304 162.81 27.8453 162.319 27.504C161.85 27.1413 161.178 26.96 160.303 26.96C159.386 26.96 158.5 27.1413 157.647 27.504C156.794 27.8667 155.983 28.2827 155.215 28.752L153.839 26.256C154.458 25.872 155.14 25.5093 155.887 25.168C156.634 24.8053 157.434 24.5173 158.287 24.304C159.14 24.0693 160.026 23.952 160.943 23.952C162.415 23.952 163.62 24.2507 164.559 24.848C165.498 25.424 166.191 26.2667 166.639 27.376C167.108 28.4853 167.343 29.8293 167.343 31.408V42H164.335L164.047 39.984H163.919C163.13 40.6667 162.266 41.2533 161.327 41.744C160.388 42.2133 159.386 42.448 158.319 42.448ZM159.439 39.504C160.207 39.504 160.922 39.3333 161.583 38.992C162.244 38.6293 162.938 38.1067 163.663 37.424V33.136C161.935 33.328 160.559 33.616 159.535 34C158.511 34.3627 157.775 34.8 157.327 35.312C156.9 35.8027 156.687 36.3787 156.687 37.04C156.687 37.9147 156.954 38.544 157.487 38.928C158.02 39.312 158.671 39.504 159.439 39.504ZM177.829 42.448C176.506 42.448 175.45 42.192 174.661 41.68C173.893 41.1467 173.338 40.4213 172.997 39.504C172.656 38.5653 172.485 37.4773 172.485 36.24V27.344H169.925V24.592L172.677 24.368L173.093 19.504H176.165V24.368H180.741V27.344H176.165V36.272C176.165 37.3173 176.368 38.1173 176.773 38.672C177.178 39.2053 177.84 39.472 178.757 39.472C179.056 39.472 179.376 39.4293 179.717 39.344C180.058 39.2587 180.357 39.1627 180.613 39.056L181.285 41.776C180.816 41.9253 180.282 42.0747 179.685 42.224C179.109 42.3733 178.49 42.448 177.829 42.448ZM191.3 42.448C189.7 42.448 188.25 42.0853 186.948 41.36C185.647 40.6133 184.612 39.5573 183.844 38.192C183.076 36.8053 182.692 35.1413 182.692 33.2C182.692 31.7707 182.916 30.4907 183.364 29.36C183.812 28.208 184.42 27.2373 185.188 26.448C185.956 25.6373 186.82 25.0187 187.78 24.592C188.74 24.1653 189.722 23.952 190.724 23.952C192.282 23.952 193.594 24.304 194.66 25.008C195.727 25.6907 196.538 26.6613 197.092 27.92C197.647 29.1573 197.924 30.608 197.924 32.272C197.924 32.6347 197.903 32.9867 197.86 33.328C197.839 33.648 197.796 33.9253 197.732 34.16H186.308C186.415 35.2693 186.703 36.2293 187.172 37.04C187.663 37.8293 188.292 38.448 189.06 38.896C189.85 39.3227 190.746 39.536 191.748 39.536C192.538 39.536 193.274 39.4187 193.956 39.184C194.639 38.9493 195.3 38.6293 195.94 38.224L197.22 40.56C196.41 41.0933 195.503 41.5413 194.5 41.904C193.519 42.2667 192.452 42.448 191.3 42.448ZM186.276 31.6H194.724C194.724 30.1067 194.383 28.944 193.7 28.112C193.039 27.28 192.068 26.864 190.788 26.864C190.063 26.864 189.38 27.0453 188.74 27.408C188.1 27.7707 187.556 28.304 187.108 29.008C186.682 29.712 186.404 30.576 186.276 31.6ZM214.053 48.368C212.559 45.936 211.397 43.3973 210.565 40.752C209.733 38.0853 209.317 35.1627 209.317 31.984C209.317 28.8267 209.733 25.9147 210.565 23.248C211.397 20.5813 212.559 18.032 214.053 15.6L216.357 16.624C214.991 18.928 213.978 21.4027 213.317 24.048C212.677 26.672 212.357 29.3173 212.357 31.984C212.357 34.672 212.677 37.328 213.317 39.952C213.978 42.576 214.991 45.04 216.357 47.344L214.053 48.368ZM217.875 42L225.683 18.416H229.971L237.779 42H233.843L230.035 29.2C229.651 27.92 229.278 26.6293 228.915 25.328C228.552 24.0053 228.19 22.6827 227.827 21.36H227.699C227.358 22.704 226.995 24.0267 226.611 25.328C226.248 26.6293 225.875 27.92 225.491 29.2L221.683 42H217.875ZM222.291 35.312V32.368H233.299V35.312H222.291ZM240.885 42V18.416H244.597V42H240.885ZM260.392 42.448C258.302 42.448 256.424 41.968 254.76 41.008C253.118 40.048 251.816 38.6613 250.856 36.848C249.918 35.0347 249.448 32.8373 249.448 30.256C249.448 28.336 249.726 26.6187 250.28 25.104C250.856 23.5893 251.635 22.3093 252.616 21.264C253.619 20.1973 254.782 19.3867 256.104 18.832C257.448 18.2773 258.91 18 260.488 18C262.152 18 263.55 18.3093 264.68 18.928C265.832 19.5467 266.76 20.2293 267.464 20.976L265.48 23.344C264.883 22.768 264.2 22.2773 263.432 21.872C262.664 21.4453 261.715 21.232 260.584 21.232C259.134 21.232 257.854 21.5947 256.744 22.32C255.656 23.0453 254.803 24.0693 254.184 25.392C253.587 26.7147 253.288 28.304 253.288 30.16C253.288 32.016 253.576 33.6267 254.152 34.992C254.728 36.336 255.571 37.3707 256.68 38.096C257.79 38.8213 259.155 39.184 260.776 39.184C261.502 39.184 262.184 39.088 262.824 38.896C263.486 38.6827 264.019 38.3947 264.424 38.032V32.528H259.784V29.456H267.816V39.664C267.027 40.4533 265.992 41.1147 264.712 41.648C263.432 42.1813 261.992 42.448 260.392 42.448ZM282.158 42.448C280.152 42.448 278.371 41.9467 276.814 40.944C275.278 39.9413 274.072 38.5227 273.198 36.688C272.323 34.832 271.886 32.6453 271.886 30.128C271.886 27.5893 272.323 25.424 273.198 23.632C274.072 21.8187 275.278 20.432 276.814 19.472C278.371 18.4907 280.152 18 282.158 18C284.184 18 285.966 18.4907 287.502 19.472C289.038 20.432 290.243 21.8187 291.118 23.632C291.992 25.424 292.43 27.5893 292.43 30.128C292.43 32.6453 291.992 34.832 291.118 36.688C290.243 38.5227 289.038 39.9413 287.502 40.944C285.966 41.9467 284.184 42.448 282.158 42.448ZM282.158 39.184C283.459 39.184 284.59 38.8107 285.55 38.064C286.531 37.3173 287.288 36.272 287.822 34.928C288.355 33.5627 288.622 31.9627 288.622 30.128C288.622 28.2933 288.355 26.7147 287.822 25.392C287.288 24.048 286.531 23.024 285.55 22.32C284.59 21.5947 283.459 21.232 282.158 21.232C280.856 21.232 279.715 21.5947 278.734 22.32C277.774 23.024 277.027 24.048 276.494 25.392C275.982 26.7147 275.726 28.2933 275.726 30.128C275.726 31.9627 275.982 33.5627 276.494 34.928C277.027 36.272 277.774 37.3173 278.734 38.064C279.715 38.8107 280.856 39.184 282.158 39.184ZM297.995 48.368L295.691 47.344C297.056 45.04 298.069 42.576 298.731 39.952C299.392 37.328 299.723 34.672 299.723 31.984C299.723 29.3173 299.392 26.672 298.731 24.048C298.069 21.4027 297.056 18.928 295.691 16.624L297.995 15.6C299.509 18.032 300.683 20.5813 301.515 23.248C302.347 25.9147 302.763 28.8267 302.763 31.984C302.763 35.1627 302.347 38.0853 301.515 40.752C300.683 43.3973 299.509 45.936 297.995 48.368Z" fill="white"/>
</svg>
