<svg width="198" height="58" viewBox="0 0 198 58" fill="none" xmlns="http://www.w3.org/2000/svg">
<path d="M10 35.1224H24.2041V44H13.551C11.5898 44 10 42.4101 10 40.449V35.1224Z" fill="#DFD9FC"/>
<path d="M41.959 35.1224H27.7549V44H38.408C40.3691 44 41.959 42.4101 41.959 40.449V35.1224Z" fill="#DFD9FC"/>
<rect x="10" y="24.4694" width="14.2041" height="8.87755" fill="#DFD9FC"/>
<rect x="27.7549" y="24.4694" width="14.2041" height="8.87755" fill="#DFD9FC"/>
<path d="M10 17.9592C10 16.3249 11.3249 15 12.9592 15H39C40.6343 15 41.9592 16.3249 41.9592 17.9592V22.102H10V17.9592Z" fill="#7244ED"/>
<path d="M55.2 42L56.064 34.832H53.248V32.368H56.352L56.96 27.472H53.984V24.976H57.28L58.08 18.608H60.352L59.552 24.976H64L64.8 18.608H67.072L66.304 24.976H69.184V27.472H66.016L65.376 32.368H68.448V34.832H65.088L64.224 42H61.92L62.784 34.832H58.368L57.472 42H55.2ZM58.624 32.368H63.072L63.68 27.472H59.232L58.624 32.368ZM92.522 15.376H95.882V44.624H92.522V15.376ZM83.914 18.48H87.242C87.242 20.656 87.0073 22.736 86.538 24.72C86.0687 26.704 85.3007 28.592 84.234 30.384C83.1887 32.1547 81.802 33.7973 80.074 35.312C78.3673 36.8267 76.2553 38.192 73.738 39.408L71.946 36.752C74.7833 35.3867 77.0767 33.8293 78.826 32.08C80.5753 30.3307 81.8553 28.3787 82.666 26.224C83.498 24.048 83.914 21.6587 83.914 19.056V18.48ZM73.386 18.48H85.418V21.168H73.386V18.48ZM104.648 23.152H124.616V25.84H104.648V23.152ZM104.648 15.92H107.976V24.336H104.648V15.92ZM101.192 28.816H127.624V31.536H101.192V28.816ZM114.312 33.808C117.469 33.808 119.933 34.2773 121.704 35.216C123.496 36.1547 124.392 37.4773 124.392 39.184C124.392 40.8907 123.496 42.2133 121.704 43.152C119.933 44.0907 117.469 44.56 114.312 44.56C111.197 44.56 108.744 44.0907 106.952 43.152C105.16 42.2133 104.264 40.8907 104.264 39.184C104.264 37.4773 105.16 36.1547 106.952 35.216C108.744 34.2773 111.197 33.808 114.312 33.808ZM114.312 36.4C112.904 36.4 111.698 36.5067 110.696 36.72C109.693 36.9333 108.925 37.2427 108.392 37.648C107.88 38.0533 107.624 38.5653 107.624 39.184C107.624 39.7813 107.88 40.2827 108.392 40.688C108.925 41.0933 109.693 41.4027 110.696 41.616C111.698 41.8293 112.904 41.936 114.312 41.936C115.762 41.936 116.978 41.8293 117.96 41.616C118.962 41.4027 119.72 41.0933 120.232 40.688C120.744 40.2827 121 39.7813 121 39.184C121 38.5653 120.744 38.0533 120.232 37.648C119.72 37.2427 118.962 36.9333 117.96 36.72C116.978 36.5067 115.762 36.4 114.312 36.4ZM144.613 19.888H152.613V22.608H144.613V19.888ZM144.613 25.712H152.709V28.432H144.613V25.712ZM151.461 15.408H154.821V32.624H151.461V15.408ZM131.877 17.552H145.413V30.768H131.877V17.552ZM142.149 20.24H135.173V28.112H142.149V20.24ZM145.093 33.424C148.144 33.424 150.544 33.9147 152.293 34.896C154.064 35.8773 154.949 37.2533 154.949 39.024C154.949 40.7947 154.064 42.16 152.293 43.12C150.544 44.1013 148.144 44.592 145.093 44.592C142.042 44.592 139.632 44.1013 137.861 43.12C136.09 42.16 135.205 40.7947 135.205 39.024C135.205 37.2533 136.09 35.8773 137.861 34.896C139.632 33.9147 142.042 33.424 145.093 33.424ZM145.093 36.048C143.706 36.048 142.522 36.1653 141.541 36.4C140.581 36.6133 139.845 36.944 139.333 37.392C138.821 37.8187 138.565 38.3627 138.565 39.024C138.565 39.664 138.821 40.208 139.333 40.656C139.845 41.104 140.581 41.4453 141.541 41.68C142.522 41.8933 143.706 42 145.093 42C146.48 42 147.653 41.8933 148.613 41.68C149.573 41.4453 150.309 41.104 150.821 40.656C151.354 40.208 151.621 39.664 151.621 39.024C151.621 38.3627 151.354 37.8187 150.821 37.392C150.309 36.944 149.573 36.6133 148.613 36.4C147.653 36.1653 146.48 36.048 145.093 36.048ZM171.555 25.584H176.835V28.336H171.555V25.584ZM165.763 18.064H168.355V23.344C168.355 24.9227 168.205 26.48 167.907 28.016C167.629 29.5307 167.213 30.96 166.659 32.304C166.104 33.648 165.411 34.864 164.579 35.952C163.747 37.0187 162.776 37.8827 161.667 38.544L159.587 36.016C160.632 35.3973 161.539 34.6293 162.307 33.712C163.075 32.7947 163.715 31.7707 164.227 30.64C164.76 29.5093 165.144 28.3253 165.379 27.088C165.635 25.8293 165.763 24.5813 165.763 23.344V18.064ZM166.435 18.064H168.995V23.184C168.995 24.3573 169.101 25.5413 169.315 26.736C169.549 27.9093 169.901 29.0293 170.371 30.096C170.84 31.1627 171.427 32.144 172.131 33.04C172.835 33.936 173.677 34.6933 174.659 35.312L172.803 37.904C171.693 37.2427 170.733 36.3893 169.923 35.344C169.133 34.2773 168.483 33.0933 167.97 31.792C167.459 30.4693 167.075 29.0827 166.819 27.632C166.563 26.16 166.435 24.6773 166.435 23.184V18.064ZM181.795 15.376H184.995V44.624H181.795V15.376ZM175.843 15.952H178.979V43.248H175.843V15.952Z" fill="white"/>
</svg>
