<svg width="333" height="58" viewBox="0 0 333 58" fill="none" xmlns="http://www.w3.org/2000/svg">
<path d="M13.6063 42L14.4703 34.832H11.6543V32.368H14.7583L15.3663 27.472H12.3903V24.976H15.6863L16.4863 18.608H18.7583L17.9583 24.976H22.4063L23.2063 18.608H25.4783L24.7103 24.976H27.5903V27.472H24.4223L23.7823 32.368H26.8542V34.832H23.4943L22.6303 42H20.3263L21.1903 34.832H16.7743L15.8783 42H13.6063ZM17.0303 32.368H21.4783L22.0863 27.472H17.6383L17.0303 32.368ZM40.4003 42.448C39.0989 42.448 37.9043 42.256 36.8163 41.872C35.7496 41.488 34.8323 40.88 34.0643 40.048C33.2963 39.216 32.6989 38.128 32.2723 36.784C31.8456 35.44 31.6323 33.808 31.6323 31.888V18.416H35.3443V32.112C35.3443 33.8827 35.5576 35.2907 35.9843 36.336C36.4323 37.36 37.0296 38.096 37.7763 38.544C38.5443 38.9707 39.4189 39.184 40.4003 39.184C41.4029 39.184 42.2883 38.9707 43.0563 38.544C43.8243 38.096 44.4323 37.36 44.8803 36.336C45.3283 35.2907 45.5522 33.8827 45.5522 32.112V18.416H49.1363V31.888C49.1363 33.808 48.9229 35.44 48.4963 36.784C48.0909 38.128 47.5043 39.216 46.7362 40.048C45.9683 40.88 45.0403 41.488 43.9523 41.872C42.8856 42.256 41.7016 42.448 40.4003 42.448ZM55.229 42V18.416H58.941V42H55.229ZM62.384 47.76L71.28 16.432H73.808L64.976 47.76H62.384ZM86.2128 42.448C84.9114 42.448 83.7168 42.256 82.6288 41.872C81.5621 41.488 80.6448 40.88 79.8768 40.048C79.1088 39.216 78.5114 38.128 78.0848 36.784C77.6581 35.44 77.4448 33.808 77.4448 31.888V18.416H81.1568V32.112C81.1568 33.8827 81.3701 35.2907 81.7968 36.336C82.2448 37.36 82.8421 38.096 83.5888 38.544C84.3568 38.9707 85.2314 39.184 86.2128 39.184C87.2154 39.184 88.1008 38.9707 88.8688 38.544C89.6368 38.096 90.2448 37.36 90.6928 36.336C91.1408 35.2907 91.3647 33.8827 91.3647 32.112V18.416H94.9488V31.888C94.9488 33.808 94.7354 35.44 94.3088 36.784C93.9034 38.128 93.3168 39.216 92.5487 40.048C91.7808 40.88 90.8528 41.488 89.7648 41.872C88.6981 42.256 87.5141 42.448 86.2128 42.448ZM97.9495 42L104.702 29.84L98.3655 18.416H102.494L105.342 23.952C105.64 24.5067 105.918 25.0613 106.174 25.616C106.451 26.1707 106.782 26.8107 107.166 27.536H107.294C107.592 26.8107 107.87 26.1707 108.126 25.616C108.382 25.0613 108.648 24.5067 108.926 23.952L111.678 18.416H115.582L109.278 30L116.03 42H111.902L108.798 36.144C108.499 35.5467 108.19 34.9387 107.87 34.32C107.55 33.68 107.208 33.008 106.845 32.304H106.718C106.398 33.008 106.088 33.68 105.79 34.32C105.491 34.9387 105.192 35.5467 104.894 36.144L101.886 42H97.9495ZM135.752 42.448C133.746 42.448 131.965 41.9467 130.408 40.944C128.872 39.9413 127.666 38.5227 126.792 36.688C125.917 34.832 125.48 32.6453 125.48 30.128C125.48 27.5893 125.917 25.424 126.792 23.632C127.666 21.8187 128.872 20.432 130.408 19.472C131.965 18.4907 133.746 18 135.752 18C137.778 18 139.56 18.4907 141.096 19.472C142.632 20.432 143.837 21.8187 144.712 23.632C145.586 25.424 146.024 27.5893 146.024 30.128C146.024 32.6453 145.586 34.832 144.712 36.688C143.837 38.5227 142.632 39.9413 141.096 40.944C139.56 41.9467 137.778 42.448 135.752 42.448ZM135.752 39.184C137.053 39.184 138.184 38.8107 139.144 38.064C140.125 37.3173 140.882 36.272 141.416 34.928C141.949 33.5627 142.216 31.9627 142.216 30.128C142.216 28.2933 141.949 26.7147 141.416 25.392C140.882 24.048 140.125 23.024 139.144 22.32C138.184 21.5947 137.053 21.232 135.752 21.232C134.45 21.232 133.309 21.5947 132.328 22.32C131.368 23.024 130.621 24.048 130.088 25.392C129.576 26.7147 129.32 28.2933 129.32 30.128C129.32 31.9627 129.576 33.5627 130.088 34.928C130.621 36.272 131.368 37.3173 132.328 38.064C133.309 38.8107 134.45 39.184 135.752 39.184ZM150.597 49.136V24.368H153.605L153.925 26.32H153.989C154.778 25.68 155.631 25.1253 156.549 24.656C157.466 24.1867 158.426 23.952 159.429 23.952C160.901 23.952 162.159 24.3253 163.205 25.072C164.25 25.8187 165.039 26.864 165.573 28.208C166.106 29.5307 166.373 31.0987 166.373 32.912C166.373 34.9173 166.01 36.6347 165.285 38.064C164.581 39.4933 163.653 40.5813 162.501 41.328C161.349 42.0747 160.111 42.448 158.789 42.448C158.021 42.448 157.242 42.2773 156.453 41.936C155.663 41.5733 154.906 41.072 154.181 40.432L154.277 43.44V49.136H150.597ZM158.085 39.344C158.938 39.344 159.695 39.0987 160.357 38.608C161.039 38.1173 161.573 37.4027 161.957 36.464C162.362 35.504 162.565 34.3413 162.565 32.976C162.565 31.7387 162.415 30.6827 162.117 29.808C161.839 28.912 161.402 28.2293 160.805 27.76C160.207 27.2693 159.418 27.024 158.437 27.024C157.754 27.024 157.071 27.2053 156.389 27.568C155.727 27.9093 155.023 28.4427 154.277 29.168V37.776C154.959 38.352 155.631 38.7573 156.293 38.992C156.954 39.2267 157.551 39.344 158.085 39.344ZM175.829 42.448C174.506 42.448 173.45 42.192 172.661 41.68C171.893 41.1467 171.338 40.4213 170.997 39.504C170.656 38.5653 170.485 37.4773 170.485 36.24V27.344H167.925V24.592L170.677 24.368L171.093 19.504H174.165V24.368H178.741V27.344H174.165V36.272C174.165 37.3173 174.368 38.1173 174.773 38.672C175.178 39.2053 175.84 39.472 176.757 39.472C177.056 39.472 177.376 39.4293 177.717 39.344C178.058 39.2587 178.357 39.1627 178.613 39.056L179.285 41.776C178.816 41.9253 178.282 42.0747 177.685 42.224C177.109 42.3733 176.49 42.448 175.829 42.448ZM182.597 42V24.368H186.277V42H182.597ZM184.453 21.104C183.749 21.104 183.183 20.9013 182.757 20.496C182.351 20.0907 182.149 19.5467 182.149 18.864C182.149 18.224 182.351 17.7013 182.757 17.296C183.183 16.8907 183.749 16.688 184.453 16.688C185.114 16.688 185.658 16.8907 186.085 17.296C186.511 17.7013 186.725 18.224 186.725 18.864C186.725 19.5467 186.511 20.0907 186.085 20.496C185.658 20.9013 185.114 21.104 184.453 21.104ZM191.815 42V24.368H194.823L195.143 26.864H195.207C195.975 26.0533 196.797 25.3707 197.671 24.816C198.567 24.24 199.57 23.952 200.679 23.952C201.981 23.952 203.015 24.24 203.783 24.816C204.551 25.3707 205.127 26.16 205.511 27.184C206.386 26.2453 207.282 25.4773 208.199 24.88C209.138 24.2613 210.151 23.952 211.239 23.952C213.074 23.952 214.429 24.56 215.303 25.776C216.199 26.9707 216.647 28.688 216.647 30.928V42H212.935V31.376C212.935 29.8613 212.701 28.784 212.231 28.144C211.762 27.4827 211.026 27.152 210.023 27.152C209.426 27.152 208.797 27.344 208.135 27.728C207.495 28.112 206.802 28.7093 206.055 29.52V42H202.375V31.376C202.375 29.8613 202.141 28.784 201.671 28.144C201.202 27.4827 200.455 27.152 199.431 27.152C198.855 27.152 198.237 27.344 197.575 27.728C196.914 28.112 196.221 28.7093 195.495 29.52V42H191.815ZM222.003 42V24.368H225.683V42H222.003ZM223.859 21.104C223.155 21.104 222.589 20.9013 222.163 20.496C221.757 20.0907 221.555 19.5467 221.555 18.864C221.555 18.224 221.757 17.7013 222.163 17.296C222.589 16.8907 223.155 16.688 223.859 16.688C224.52 16.688 225.064 16.8907 225.491 17.296C225.917 17.7013 226.131 18.224 226.131 18.864C226.131 19.5467 225.917 20.0907 225.491 20.496C225.064 20.9013 224.52 21.104 223.859 21.104ZM229.622 42V40.016L238.294 27.344H230.582V24.368H242.934V26.352L234.262 39.056H243.254V42H229.622ZM250.225 42.448C249.223 42.448 248.327 42.2347 247.537 41.808C246.769 41.3813 246.161 40.784 245.713 40.016C245.265 39.248 245.041 38.352 245.041 37.328C245.041 35.4293 245.873 33.968 247.537 32.944C249.223 31.8987 251.9 31.1733 255.569 30.768C255.548 30.0853 255.441 29.456 255.249 28.88C255.057 28.304 254.716 27.8453 254.225 27.504C253.756 27.1413 253.084 26.96 252.209 26.96C251.292 26.96 250.407 27.1413 249.553 27.504C248.7 27.8667 247.889 28.2827 247.121 28.752L245.745 26.256C246.364 25.872 247.047 25.5093 247.793 25.168C248.54 24.8053 249.34 24.5173 250.193 24.304C251.047 24.0693 251.932 23.952 252.849 23.952C254.321 23.952 255.527 24.2507 256.465 24.848C257.404 25.424 258.097 26.2667 258.545 27.376C259.015 28.4853 259.249 29.8293 259.249 31.408V42H256.241L255.953 39.984H255.825C255.036 40.6667 254.172 41.2533 253.233 41.744C252.295 42.2133 251.292 42.448 250.225 42.448ZM251.345 39.504C252.113 39.504 252.828 39.3333 253.489 38.992C254.151 38.6293 254.844 38.1067 255.569 37.424V33.136C253.841 33.328 252.465 33.616 251.441 34C250.417 34.3627 249.681 34.8 249.233 35.312C248.807 35.8027 248.593 36.3787 248.593 37.04C248.593 37.9147 248.86 38.544 249.393 38.928C249.927 39.312 250.577 39.504 251.345 39.504ZM269.735 42.448C268.413 42.448 267.357 42.192 266.567 41.68C265.799 41.1467 265.245 40.4213 264.903 39.504C264.562 38.5653 264.391 37.4773 264.391 36.24V27.344H261.831V24.592L264.583 24.368L264.999 19.504H268.071V24.368H272.647V27.344H268.071V36.272C268.071 37.3173 268.274 38.1173 268.679 38.672C269.085 39.2053 269.746 39.472 270.663 39.472C270.962 39.472 271.282 39.4293 271.623 39.344C271.965 39.2587 272.263 39.1627 272.519 39.056L273.191 41.776C272.722 41.9253 272.189 42.0747 271.591 42.224C271.015 42.3733 270.397 42.448 269.735 42.448ZM276.503 42V24.368H280.183V42H276.503ZM278.359 21.104C277.655 21.104 277.089 20.9013 276.663 20.496C276.257 20.0907 276.055 19.5467 276.055 18.864C276.055 18.224 276.257 17.7013 276.663 17.296C277.089 16.8907 277.655 16.688 278.359 16.688C279.02 16.688 279.564 16.8907 279.991 17.296C280.417 17.7013 280.631 18.224 280.631 18.864C280.631 19.5467 280.417 20.0907 279.991 20.496C279.564 20.9013 279.02 21.104 278.359 21.104ZM292.794 42.448C291.343 42.448 289.978 42.0853 288.698 41.36C287.439 40.6133 286.415 39.5573 285.626 38.192C284.858 36.8053 284.474 35.1413 284.474 33.2C284.474 31.2373 284.858 29.5733 285.626 28.208C286.415 26.8213 287.439 25.7653 288.698 25.04C289.978 24.3147 291.343 23.952 292.794 23.952C293.86 23.952 294.895 24.1653 295.898 24.592C296.9 24.9973 297.786 25.5947 298.554 26.384C299.322 27.1733 299.93 28.144 300.378 29.296C300.826 30.4267 301.05 31.728 301.05 33.2C301.05 35.1413 300.655 36.8053 299.866 38.192C299.098 39.5573 298.084 40.6133 296.826 41.36C295.588 42.0853 294.244 42.448 292.794 42.448ZM292.794 39.376C293.711 39.376 294.5 39.12 295.162 38.608C295.844 38.096 296.367 37.3813 296.73 36.464C297.092 35.5253 297.274 34.4373 297.274 33.2C297.274 31.9627 297.092 30.8853 296.73 29.968C296.367 29.0293 295.844 28.304 295.162 27.792C294.5 27.2587 293.711 26.992 292.794 26.992C291.855 26.992 291.044 27.2587 290.362 27.792C289.7 28.304 289.188 29.0293 288.826 29.968C288.463 30.8853 288.282 31.9627 288.282 33.2C288.282 34.4373 288.463 35.5253 288.826 36.464C289.188 37.3813 289.7 38.096 290.362 38.608C291.044 39.12 291.855 39.376 292.794 39.376ZM305.409 42V24.368H308.417L308.737 26.832H308.801C309.612 26.0427 310.486 25.3707 311.425 24.816C312.364 24.24 313.43 23.952 314.625 23.952C316.502 23.952 317.868 24.56 318.721 25.776C319.596 26.9707 320.033 28.688 320.033 30.928V42H316.353V31.376C316.353 29.8613 316.118 28.784 315.649 28.144C315.18 27.4827 314.422 27.152 313.377 27.152C312.566 27.152 311.841 27.3547 311.201 27.76C310.582 28.144 309.878 28.7307 309.089 29.52V42H305.409Z" fill="white"/>
</svg>
