<svg width="690" height="58" viewBox="0 0 690 58" fill="none" xmlns="http://www.w3.org/2000/svg">
<path d="M19 18L27 17.5L31.5 19.5L34 23.5V40H19V18Z" fill="white"/>
<path d="M21.8441 29.4107H30.1507C30.3401 29.4107 30.4987 29.3467 30.6267 29.2187C30.7547 29.0907 30.8187 28.932 30.8187 28.7427C30.8187 28.5533 30.7547 28.3951 30.6267 28.268C30.4987 28.1409 30.3405 28.0773 30.1521 28.0773H21.8441C21.6547 28.0773 21.4961 28.1413 21.3681 28.2693C21.241 28.3973 21.1774 28.5556 21.1774 28.744C21.1774 28.9333 21.241 29.092 21.3681 29.22C21.4952 29.348 21.6538 29.4116 21.8441 29.4107ZM21.8441 33.1027H30.1507C30.3401 33.1027 30.4987 33.0387 30.6267 32.9107C30.7547 32.7827 30.8187 32.624 30.8187 32.4347C30.8187 32.2453 30.7547 32.0871 30.6267 31.96C30.4987 31.8329 30.3405 31.7693 30.1521 31.7693H21.8441C21.6547 31.7693 21.4961 31.8333 21.3681 31.9613C21.241 32.0893 21.1774 32.248 21.1774 32.4373C21.1774 32.6267 21.241 32.7849 21.3681 32.912C21.4952 33.0391 21.6538 33.1027 21.8441 33.1027ZM21.8441 36.796H26.1507C26.3401 36.796 26.4987 36.7316 26.6267 36.6027C26.7547 36.4738 26.8187 36.3156 26.8187 36.128C26.8187 35.9404 26.7547 35.7822 26.6267 35.6533C26.4987 35.5244 26.3405 35.4604 26.1521 35.4613H21.8441C21.6547 35.4613 21.4961 35.5253 21.3681 35.6533C21.241 35.7813 21.1774 35.94 21.1774 36.1293C21.1774 36.3187 21.241 36.4769 21.3681 36.604C21.4952 36.7311 21.6538 36.796 21.8441 36.796ZM18.8174 41C18.2041 41 17.6921 40.7947 17.2814 40.384C16.8707 39.9733 16.665 39.4609 16.6641 38.8467V19.1533C16.6641 18.54 16.8698 18.028 17.2814 17.6173C17.693 17.2067 18.2054 17.0009 18.8187 17H28.4361C28.7303 17 29.0112 17.0578 29.2787 17.1733C29.5463 17.2889 29.7765 17.444 29.9694 17.6387L34.6907 22.36C34.8836 22.5538 35.0383 22.784 35.1547 23.0507C35.2712 23.3173 35.3294 23.5982 35.3294 23.8933V38.8453C35.3294 39.4587 35.1236 39.9711 34.7121 40.3827C34.3005 40.7942 33.789 41 33.1774 41H18.8174ZM28.6641 22.6C28.6641 22.9022 28.7663 23.1556 28.9707 23.36C29.1752 23.5644 29.4285 23.6667 29.7307 23.6667H33.9974L28.6641 18.3333V22.6Z" fill="#7244ED"/>
<path d="M55.5594 42L56.4234 34.832H53.6074V32.368H56.7114L57.3194 27.472H54.3434V24.976H57.6394L58.4394 18.608H60.7114L59.9114 24.976H64.3594L65.1594 18.608H67.4314L66.6634 24.976H69.5434V27.472H66.3754L65.7354 32.368H68.8074V34.832H65.4474L64.5834 42H62.2794L63.1434 34.832H58.7274L57.8314 42H55.5594ZM58.9834 32.368H63.4314L64.0394 27.472H59.5914L58.9834 32.368ZM82.8974 42.448C81.4254 42.448 80.0494 42.1813 78.7694 41.648C77.5107 41.0933 76.4014 40.2933 75.4414 39.248C74.4814 38.2027 73.7347 36.9333 73.2014 35.44C72.668 33.9253 72.4014 32.1973 72.4014 30.256C72.4014 28.336 72.6787 26.6187 73.2334 25.104C73.788 23.5893 74.5454 22.3093 75.5054 21.264C76.4654 20.1973 77.596 19.3867 78.8974 18.832C80.1987 18.2773 81.596 18 83.0894 18C84.54 18 85.8307 18.2987 86.9614 18.896C88.092 19.4933 89.02 20.1867 89.7454 20.976L87.7614 23.344C87.1427 22.7253 86.4494 22.224 85.6814 21.84C84.9347 21.4347 84.092 21.232 83.1534 21.232C81.788 21.232 80.5827 21.5947 79.5374 22.32C78.5134 23.0453 77.7027 24.0693 77.1054 25.392C76.5294 26.7147 76.2414 28.304 76.2414 30.16C76.2414 32.016 76.5187 33.6267 77.0734 34.992C77.628 36.336 78.4174 37.3707 79.4414 38.096C80.4654 38.8213 81.6707 39.184 83.0574 39.184C84.124 39.184 85.0734 38.96 85.9054 38.512C86.7587 38.0427 87.5374 37.424 88.2414 36.656L90.2574 39.024C89.2974 40.1333 88.2094 40.9867 86.9934 41.584C85.7987 42.16 84.4334 42.448 82.8974 42.448ZM101.153 42.448C99.7022 42.448 98.3369 42.0853 97.0569 41.36C95.7982 40.6133 94.7742 39.5573 93.9849 38.192C93.2169 36.8053 92.8329 35.1413 92.8329 33.2C92.8329 31.2373 93.2169 29.5733 93.9849 28.208C94.7742 26.8213 95.7982 25.7653 97.0569 25.04C98.3369 24.3147 99.7022 23.952 101.153 23.952C102.22 23.952 103.254 24.1653 104.257 24.592C105.26 24.9973 106.145 25.5947 106.913 26.384C107.681 27.1733 108.289 28.144 108.737 29.296C109.185 30.4267 109.409 31.728 109.409 33.2C109.409 35.1413 109.014 36.8053 108.225 38.192C107.457 39.5573 106.444 40.6133 105.185 41.36C103.948 42.0853 102.604 42.448 101.153 42.448ZM101.153 39.376C102.07 39.376 102.86 39.12 103.521 38.608C104.204 38.096 104.726 37.3813 105.089 36.464C105.452 35.5253 105.633 34.4373 105.633 33.2C105.633 31.9627 105.452 30.8853 105.089 29.968C104.726 29.0293 104.204 28.304 103.521 27.792C102.86 27.2587 102.07 26.992 101.153 26.992C100.214 26.992 99.4035 27.2587 98.7209 27.792C98.0595 28.304 97.5475 29.0293 97.1849 29.968C96.8222 30.8853 96.6409 31.9627 96.6409 33.2C96.6409 34.4373 96.8222 35.5253 97.1849 36.464C97.5475 37.3813 98.0595 38.096 98.7209 38.608C99.4035 39.12 100.214 39.376 101.153 39.376ZM113.768 42V24.368H116.776L117.096 26.864H117.16C117.928 26.0533 118.75 25.3707 119.624 24.816C120.52 24.24 121.523 23.952 122.632 23.952C123.934 23.952 124.968 24.24 125.736 24.816C126.504 25.3707 127.08 26.16 127.464 27.184C128.339 26.2453 129.235 25.4773 130.152 24.88C131.091 24.2613 132.104 23.952 133.192 23.952C135.027 23.952 136.382 24.56 137.256 25.776C138.152 26.9707 138.6 28.688 138.6 30.928V42H134.888V31.376C134.888 29.8613 134.654 28.784 134.184 28.144C133.715 27.4827 132.979 27.152 131.976 27.152C131.379 27.152 130.75 27.344 130.088 27.728C129.448 28.112 128.755 28.7093 128.008 29.52V42H124.328V31.376C124.328 29.8613 124.094 28.784 123.624 28.144C123.155 27.4827 122.408 27.152 121.384 27.152C120.808 27.152 120.19 27.344 119.528 27.728C118.867 28.112 118.174 28.7093 117.448 29.52V42H113.768ZM143.956 42V24.368H146.964L147.284 26.864H147.348C148.116 26.0533 148.937 25.3707 149.812 24.816C150.708 24.24 151.711 23.952 152.82 23.952C154.121 23.952 155.156 24.24 155.924 24.816C156.692 25.3707 157.268 26.16 157.652 27.184C158.527 26.2453 159.423 25.4773 160.34 24.88C161.279 24.2613 162.292 23.952 163.38 23.952C165.215 23.952 166.569 24.56 167.444 25.776C168.34 26.9707 168.788 28.688 168.788 30.928V42H165.076V31.376C165.076 29.8613 164.841 28.784 164.372 28.144C163.903 27.4827 163.167 27.152 162.164 27.152C161.567 27.152 160.937 27.344 160.276 27.728C159.636 28.112 158.943 28.7093 158.196 29.52V42H154.516V31.376C154.516 29.8613 154.281 28.784 153.812 28.144C153.343 27.4827 152.596 27.152 151.572 27.152C150.996 27.152 150.377 27.344 149.716 27.728C149.055 28.112 148.361 28.7093 147.636 29.52V42H143.956ZM179.327 42.448C177.45 42.448 176.074 41.84 175.199 40.624C174.325 39.408 173.887 37.6907 173.887 35.472V24.368H177.599V35.024C177.599 36.5173 177.834 37.5947 178.303 38.256C178.773 38.9173 179.519 39.248 180.543 39.248C181.354 39.248 182.079 39.0453 182.719 38.64C183.359 38.2133 184.042 37.5413 184.767 36.624V24.368H188.479V42H185.439L185.151 39.344H185.055C184.245 40.2613 183.391 41.008 182.495 41.584C181.599 42.16 180.543 42.448 179.327 42.448ZM193.987 42V24.368H196.995L197.315 26.832H197.379C198.19 26.0427 199.064 25.3707 200.003 24.816C200.942 24.24 202.008 23.952 203.203 23.952C205.08 23.952 206.446 24.56 207.299 25.776C208.174 26.9707 208.611 28.688 208.611 30.928V42H204.931V31.376C204.931 29.8613 204.696 28.784 204.227 28.144C203.758 27.4827 203 27.152 201.955 27.152C201.144 27.152 200.419 27.3547 199.779 27.76C199.16 28.144 198.456 28.7307 197.667 29.52V42H193.987ZM213.956 42V24.368H217.636V42H213.956ZM215.812 21.104C215.108 21.104 214.543 20.9013 214.116 20.496C213.711 20.0907 213.508 19.5467 213.508 18.864C213.508 18.224 213.711 17.7013 214.116 17.296C214.543 16.8907 215.108 16.688 215.812 16.688C216.473 16.688 217.017 16.8907 217.444 17.296C217.871 17.7013 218.084 18.224 218.084 18.864C218.084 19.5467 217.871 20.0907 217.444 20.496C217.017 20.9013 216.473 21.104 215.812 21.104ZM230.343 42.448C228.743 42.448 227.313 42.0853 226.055 41.36C224.796 40.6133 223.793 39.5573 223.047 38.192C222.3 36.8053 221.927 35.1413 221.927 33.2C221.927 31.2373 222.332 29.5733 223.143 28.208C223.953 26.8213 225.02 25.7653 226.343 25.04C227.665 24.3147 229.095 23.952 230.631 23.952C231.761 23.952 232.743 24.144 233.575 24.528C234.407 24.912 235.143 25.392 235.783 25.968L233.959 28.368C233.489 27.9413 232.999 27.6107 232.487 27.376C231.975 27.12 231.42 26.992 230.823 26.992C229.841 26.992 228.967 27.2587 228.199 27.792C227.431 28.304 226.823 29.0293 226.375 29.968C225.948 30.8853 225.735 31.9627 225.735 33.2C225.735 34.4373 225.948 35.5253 226.375 36.464C226.801 37.3813 227.388 38.096 228.135 38.608C228.881 39.12 229.735 39.376 230.695 39.376C231.441 39.376 232.135 39.2267 232.775 38.928C233.415 38.608 234.001 38.224 234.535 37.776L236.071 40.24C235.26 40.9653 234.353 41.52 233.351 41.904C232.348 42.2667 231.345 42.448 230.343 42.448ZM243.366 42.448C242.363 42.448 241.467 42.2347 240.678 41.808C239.91 41.3813 239.302 40.784 238.854 40.016C238.406 39.248 238.182 38.352 238.182 37.328C238.182 35.4293 239.014 33.968 240.678 32.944C242.363 31.8987 245.041 31.1733 248.71 30.768C248.689 30.0853 248.582 29.456 248.39 28.88C248.198 28.304 247.857 27.8453 247.366 27.504C246.897 27.1413 246.225 26.96 245.35 26.96C244.433 26.96 243.547 27.1413 242.694 27.504C241.841 27.8667 241.03 28.2827 240.262 28.752L238.886 26.256C239.505 25.872 240.187 25.5093 240.934 25.168C241.681 24.8053 242.481 24.5173 243.334 24.304C244.187 24.0693 245.073 23.952 245.99 23.952C247.462 23.952 248.667 24.2507 249.606 24.848C250.545 25.424 251.238 26.2667 251.686 27.376C252.155 28.4853 252.39 29.8293 252.39 31.408V42H249.382L249.094 39.984H248.966C248.177 40.6667 247.313 41.2533 246.374 41.744C245.435 42.2133 244.433 42.448 243.366 42.448ZM244.486 39.504C245.254 39.504 245.969 39.3333 246.63 38.992C247.291 38.6293 247.985 38.1067 248.71 37.424V33.136C246.982 33.328 245.606 33.616 244.582 34C243.558 34.3627 242.822 34.8 242.374 35.312C241.947 35.8027 241.734 36.3787 241.734 37.04C241.734 37.9147 242.001 38.544 242.534 38.928C243.067 39.312 243.718 39.504 244.486 39.504ZM262.876 42.448C261.553 42.448 260.497 42.192 259.708 41.68C258.94 41.1467 258.385 40.4213 258.044 39.504C257.703 38.5653 257.532 37.4773 257.532 36.24V27.344H254.972V24.592L257.724 24.368L258.14 19.504H261.212V24.368H265.788V27.344H261.212V36.272C261.212 37.3173 261.415 38.1173 261.82 38.672C262.225 39.2053 262.887 39.472 263.804 39.472C264.103 39.472 264.423 39.4293 264.764 39.344C265.105 39.2587 265.404 39.1627 265.66 39.056L266.332 41.776C265.863 41.9253 265.329 42.0747 264.732 42.224C264.156 42.3733 263.537 42.448 262.876 42.448ZM269.643 42V24.368H273.323V42H269.643ZM271.499 21.104C270.795 21.104 270.23 20.9013 269.803 20.496C269.398 20.0907 269.195 19.5467 269.195 18.864C269.195 18.224 269.398 17.7013 269.803 17.296C270.23 16.8907 270.795 16.688 271.499 16.688C272.161 16.688 272.705 16.8907 273.131 17.296C273.558 17.7013 273.771 18.224 273.771 18.864C273.771 19.5467 273.558 20.0907 273.131 20.496C272.705 20.9013 272.161 21.104 271.499 21.104ZM285.934 42.448C284.483 42.448 283.118 42.0853 281.838 41.36C280.579 40.6133 279.555 39.5573 278.766 38.192C277.998 36.8053 277.614 35.1413 277.614 33.2C277.614 31.2373 277.998 29.5733 278.766 28.208C279.555 26.8213 280.579 25.7653 281.838 25.04C283.118 24.3147 284.483 23.952 285.934 23.952C287.001 23.952 288.035 24.1653 289.038 24.592C290.041 24.9973 290.926 25.5947 291.694 26.384C292.462 27.1733 293.07 28.144 293.518 29.296C293.966 30.4267 294.19 31.728 294.19 33.2C294.19 35.1413 293.795 36.8053 293.006 38.192C292.238 39.5573 291.225 40.6133 289.966 41.36C288.729 42.0853 287.385 42.448 285.934 42.448ZM285.934 39.376C286.851 39.376 287.641 39.12 288.302 38.608C288.985 38.096 289.507 37.3813 289.87 36.464C290.233 35.5253 290.414 34.4373 290.414 33.2C290.414 31.9627 290.233 30.8853 289.87 29.968C289.507 29.0293 288.985 28.304 288.302 27.792C287.641 27.2587 286.851 26.992 285.934 26.992C284.995 26.992 284.185 27.2587 283.502 27.792C282.841 28.304 282.329 29.0293 281.966 29.968C281.603 30.8853 281.422 31.9627 281.422 33.2C281.422 34.4373 281.603 35.5253 281.966 36.464C282.329 37.3813 282.841 38.096 283.502 38.608C284.185 39.12 284.995 39.376 285.934 39.376ZM298.55 42V24.368H301.558L301.878 26.832H301.942C302.752 26.0427 303.627 25.3707 304.566 24.816C305.504 24.24 306.571 23.952 307.766 23.952C309.643 23.952 311.008 24.56 311.862 25.776C312.736 26.9707 313.174 28.688 313.174 30.928V42H309.494V31.376C309.494 29.8613 309.259 28.784 308.79 28.144C308.32 27.4827 307.563 27.152 306.518 27.152C305.707 27.152 304.982 27.3547 304.342 27.76C303.723 28.144 303.019 28.7307 302.23 29.52V42H298.55ZM317.238 34.32V31.6H325.686V34.32H317.238ZM330.276 42V18.416H337.604C339.204 18.416 340.623 18.608 341.86 18.992C343.119 19.376 344.1 19.9947 344.804 20.848C345.529 21.68 345.892 22.8 345.892 24.208C345.892 24.976 345.753 25.7013 345.476 26.384C345.22 27.0667 344.847 27.6747 344.356 28.208C343.865 28.72 343.257 29.0933 342.532 29.328V29.488C343.876 29.7653 344.985 30.3733 345.86 31.312C346.735 32.2293 347.172 33.488 347.172 35.088C347.172 36.6453 346.777 37.936 345.988 38.96C345.22 39.984 344.153 40.752 342.788 41.264C341.444 41.7547 339.897 42 338.148 42H330.276ZM333.988 28.272H337.156C338.948 28.272 340.239 27.952 341.028 27.312C341.839 26.672 342.244 25.808 342.244 24.72C342.244 23.504 341.828 22.64 340.996 22.128C340.164 21.5947 338.916 21.328 337.252 21.328H333.988V28.272ZM333.988 39.088H337.732C339.567 39.088 340.985 38.7467 341.988 38.064C343.012 37.3813 343.524 36.3253 343.524 34.896C343.524 33.5733 343.023 32.6133 342.02 32.016C341.039 31.3973 339.609 31.088 337.732 31.088H333.988V39.088ZM355.46 42.448C354.457 42.448 353.561 42.2347 352.772 41.808C352.004 41.3813 351.396 40.784 350.948 40.016C350.5 39.248 350.276 38.352 350.276 37.328C350.276 35.4293 351.108 33.968 352.772 32.944C354.457 31.8987 357.134 31.1733 360.804 30.768C360.782 30.0853 360.676 29.456 360.484 28.88C360.292 28.304 359.95 27.8453 359.46 27.504C358.99 27.1413 358.318 26.96 357.444 26.96C356.526 26.96 355.641 27.1413 354.788 27.504C353.934 27.8667 353.124 28.2827 352.356 28.752L350.98 26.256C351.598 25.872 352.281 25.5093 353.028 25.168C353.774 24.8053 354.574 24.5173 355.428 24.304C356.281 24.0693 357.166 23.952 358.084 23.952C359.556 23.952 360.761 24.2507 361.7 24.848C362.638 25.424 363.332 26.2667 363.78 27.376C364.249 28.4853 364.484 29.8293 364.484 31.408V42H361.476L361.188 39.984H361.06C360.27 40.6667 359.406 41.2533 358.468 41.744C357.529 42.2133 356.526 42.448 355.46 42.448ZM356.58 39.504C357.348 39.504 358.062 39.3333 358.724 38.992C359.385 38.6293 360.078 38.1067 360.804 37.424V33.136C359.076 33.328 357.7 33.616 356.676 34C355.652 34.3627 354.916 34.8 354.468 35.312C354.041 35.8027 353.828 36.3787 353.828 37.04C353.828 37.9147 354.094 38.544 354.628 38.928C355.161 39.312 355.812 39.504 356.58 39.504ZM374.474 42.448C373.279 42.448 372.085 42.2133 370.89 41.744C369.717 41.2747 368.703 40.688 367.85 39.984L369.61 37.584C370.378 38.2027 371.157 38.704 371.946 39.088C372.757 39.4507 373.631 39.632 374.57 39.632C375.615 39.632 376.383 39.408 376.874 38.96C377.386 38.4907 377.642 37.9253 377.642 37.264C377.642 36.7307 377.45 36.2827 377.066 35.92C376.703 35.5573 376.223 35.248 375.626 34.992C375.029 34.7147 374.41 34.4587 373.77 34.224C372.981 33.9253 372.202 33.5733 371.434 33.168C370.687 32.7413 370.069 32.208 369.578 31.568C369.087 30.9067 368.842 30.0853 368.842 29.104C368.842 28.1013 369.087 27.216 369.578 26.448C370.09 25.68 370.815 25.072 371.754 24.624C372.693 24.176 373.813 23.952 375.114 23.952C376.287 23.952 377.354 24.1547 378.314 24.56C379.295 24.9653 380.127 25.456 380.81 26.032L379.114 28.304C378.495 27.856 377.866 27.4933 377.226 27.216C376.586 26.9173 375.914 26.768 375.21 26.768C374.229 26.768 373.503 26.9813 373.034 27.408C372.565 27.8133 372.33 28.3253 372.33 28.944C372.33 29.4347 372.501 29.84 372.842 30.16C373.183 30.48 373.631 30.7573 374.186 30.992C374.762 31.2267 375.37 31.472 376.01 31.728C376.629 31.9413 377.237 32.1973 377.834 32.496C378.453 32.7733 379.007 33.1147 379.498 33.52C379.989 33.904 380.383 34.384 380.682 34.96C381.002 35.5147 381.162 36.208 381.162 37.04C381.162 38.0213 380.906 38.928 380.394 39.76C379.882 40.592 379.135 41.2533 378.154 41.744C377.173 42.2133 375.946 42.448 374.474 42.448ZM392.441 42.448C390.841 42.448 389.39 42.0853 388.089 41.36C386.788 40.6133 385.753 39.5573 384.985 38.192C384.217 36.8053 383.833 35.1413 383.833 33.2C383.833 31.7707 384.057 30.4907 384.505 29.36C384.953 28.208 385.561 27.2373 386.329 26.448C387.097 25.6373 387.961 25.0187 388.921 24.592C389.881 24.1653 390.862 23.952 391.865 23.952C393.422 23.952 394.734 24.304 395.801 25.008C396.868 25.6907 397.678 26.6613 398.233 27.92C398.788 29.1573 399.065 30.608 399.065 32.272C399.065 32.6347 399.044 32.9867 399.001 33.328C398.98 33.648 398.937 33.9253 398.873 34.16H387.449C387.556 35.2693 387.844 36.2293 388.313 37.04C388.804 37.8293 389.433 38.448 390.201 38.896C390.99 39.3227 391.886 39.536 392.889 39.536C393.678 39.536 394.414 39.4187 395.097 39.184C395.78 38.9493 396.441 38.6293 397.081 38.224L398.361 40.56C397.55 41.0933 396.644 41.5413 395.641 41.904C394.66 42.2667 393.593 42.448 392.441 42.448ZM387.417 31.6H395.865C395.865 30.1067 395.524 28.944 394.841 28.112C394.18 27.28 393.209 26.864 391.929 26.864C391.204 26.864 390.521 27.0453 389.881 27.408C389.241 27.7707 388.697 28.304 388.249 29.008C387.822 29.712 387.545 30.576 387.417 31.6ZM409.254 42.448C407.803 42.448 406.534 42.0853 405.446 41.36C404.358 40.6347 403.515 39.5787 402.918 38.192C402.321 36.8053 402.022 35.1413 402.022 33.2C402.022 31.3013 402.374 29.6587 403.078 28.272C403.803 26.8853 404.731 25.8187 405.862 25.072C407.014 24.3253 408.241 23.952 409.542 23.952C410.566 23.952 411.43 24.1333 412.134 24.496C412.859 24.8373 413.574 25.3173 414.278 25.936L414.15 23.024V16.496H417.83V42H414.822L414.502 40.016H414.406C413.745 40.6987 412.977 41.2747 412.102 41.744C411.227 42.2133 410.278 42.448 409.254 42.448ZM410.15 39.344C410.897 39.344 411.59 39.1733 412.23 38.832C412.87 38.4907 413.51 37.9467 414.15 37.2V28.624C413.51 28.048 412.87 27.6427 412.23 27.408C411.59 27.152 410.939 27.024 410.278 27.024C409.467 27.024 408.721 27.28 408.038 27.792C407.377 28.2827 406.843 28.9867 406.438 29.904C406.033 30.8 405.83 31.888 405.83 33.168C405.83 34.4907 406.001 35.6213 406.342 36.56C406.683 37.4773 407.174 38.1707 407.814 38.64C408.475 39.1093 409.254 39.344 410.15 39.344ZM430.87 42V18.416H435.158L439.446 30.352C439.723 31.12 439.99 31.9093 440.246 32.72C440.502 33.5093 440.758 34.2987 441.014 35.088H441.174C441.451 34.2987 441.707 33.5093 441.942 32.72C442.198 31.9093 442.454 31.12 442.71 30.352L446.934 18.416H451.254V42H447.798V30.352C447.798 29.648 447.819 28.8693 447.862 28.016C447.926 27.1627 447.99 26.2987 448.054 25.424C448.139 24.5493 448.224 23.76 448.31 23.056H448.15L446.262 28.496L442.166 39.728H439.862L435.734 28.496L433.846 23.056H433.718C433.803 23.76 433.878 24.5493 433.942 25.424C434.027 26.2987 434.091 27.1627 434.134 28.016C434.198 28.8693 434.23 29.648 434.23 30.352V42H430.87ZM464.472 42.448C462.872 42.448 461.421 42.0853 460.12 41.36C458.819 40.6133 457.784 39.5573 457.016 38.192C456.248 36.8053 455.864 35.1413 455.864 33.2C455.864 31.7707 456.088 30.4907 456.536 29.36C456.984 28.208 457.592 27.2373 458.36 26.448C459.128 25.6373 459.992 25.0187 460.952 24.592C461.912 24.1653 462.893 23.952 463.896 23.952C465.453 23.952 466.765 24.304 467.832 25.008C468.899 25.6907 469.709 26.6613 470.264 27.92C470.819 29.1573 471.096 30.608 471.096 32.272C471.096 32.6347 471.075 32.9867 471.032 33.328C471.011 33.648 470.968 33.9253 470.904 34.16H459.48C459.587 35.2693 459.875 36.2293 460.344 37.04C460.835 37.8293 461.464 38.448 462.232 38.896C463.021 39.3227 463.917 39.536 464.92 39.536C465.709 39.536 466.445 39.4187 467.128 39.184C467.811 38.9493 468.472 38.6293 469.112 38.224L470.392 40.56C469.581 41.0933 468.675 41.5413 467.672 41.904C466.691 42.2667 465.624 42.448 464.472 42.448ZM459.448 31.6H467.896C467.896 30.1067 467.555 28.944 466.872 28.112C466.211 27.28 465.24 26.864 463.96 26.864C463.235 26.864 462.552 27.0453 461.912 27.408C461.272 27.7707 460.728 28.304 460.28 29.008C459.853 29.712 459.576 30.576 459.448 31.6ZM482.597 42.448C480.997 42.448 479.546 42.0853 478.245 41.36C476.944 40.6133 475.909 39.5573 475.141 38.192C474.373 36.8053 473.989 35.1413 473.989 33.2C473.989 31.7707 474.213 30.4907 474.661 29.36C475.109 28.208 475.717 27.2373 476.485 26.448C477.253 25.6373 478.117 25.0187 479.077 24.592C480.037 24.1653 481.018 23.952 482.021 23.952C483.578 23.952 484.89 24.304 485.957 25.008C487.024 25.6907 487.834 26.6613 488.389 27.92C488.944 29.1573 489.221 30.608 489.221 32.272C489.221 32.6347 489.2 32.9867 489.157 33.328C489.136 33.648 489.093 33.9253 489.029 34.16H477.605C477.712 35.2693 478 36.2293 478.469 37.04C478.96 37.8293 479.589 38.448 480.357 38.896C481.146 39.3227 482.042 39.536 483.045 39.536C483.834 39.536 484.57 39.4187 485.253 39.184C485.936 38.9493 486.597 38.6293 487.237 38.224L488.517 40.56C487.706 41.0933 486.8 41.5413 485.797 41.904C484.816 42.2667 483.749 42.448 482.597 42.448ZM477.573 31.6H486.021C486.021 30.1067 485.68 28.944 484.997 28.112C484.336 27.28 483.365 26.864 482.085 26.864C481.36 26.864 480.677 27.0453 480.037 27.408C479.397 27.7707 478.853 28.304 478.405 29.008C477.978 29.712 477.701 30.576 477.573 31.6ZM498.782 42.448C497.459 42.448 496.403 42.192 495.614 41.68C494.846 41.1467 494.291 40.4213 493.95 39.504C493.609 38.5653 493.438 37.4773 493.438 36.24V27.344H490.878V24.592L493.63 24.368L494.046 19.504H497.118V24.368H501.694V27.344H497.118V36.272C497.118 37.3173 497.321 38.1173 497.726 38.672C498.131 39.2053 498.793 39.472 499.71 39.472C500.009 39.472 500.329 39.4293 500.67 39.344C501.011 39.2587 501.31 39.1627 501.566 39.056L502.238 41.776C501.769 41.9253 501.235 42.0747 500.638 42.224C500.062 42.3733 499.443 42.448 498.782 42.448ZM505.55 42V24.368H509.23V42H505.55ZM507.406 21.104C506.702 21.104 506.136 20.9013 505.71 20.496C505.304 20.0907 505.102 19.5467 505.102 18.864C505.102 18.224 505.304 17.7013 505.71 17.296C506.136 16.8907 506.702 16.688 507.406 16.688C508.067 16.688 508.611 16.8907 509.038 17.296C509.464 17.7013 509.678 18.224 509.678 18.864C509.678 19.5467 509.464 20.0907 509.038 20.496C508.611 20.9013 508.067 21.104 507.406 21.104ZM514.768 42V24.368H517.776L518.096 26.832H518.16C518.971 26.0427 519.846 25.3707 520.784 24.816C521.723 24.24 522.79 23.952 523.984 23.952C525.862 23.952 527.227 24.56 528.08 25.776C528.955 26.9707 529.392 28.688 529.392 30.928V42H525.712V31.376C525.712 29.8613 525.478 28.784 525.008 28.144C524.539 27.4827 523.782 27.152 522.736 27.152C521.926 27.152 521.2 27.3547 520.56 27.76C519.942 28.144 519.238 28.7307 518.448 29.52V42H514.768ZM540.785 49.904C539.377 49.904 538.118 49.7227 537.009 49.36C535.9 49.0187 535.025 48.5067 534.385 47.824C533.766 47.1413 533.457 46.288 533.457 45.264C533.457 44.5173 533.681 43.8133 534.129 43.152C534.577 42.4907 535.206 41.9147 536.017 41.424V41.296C535.569 40.9973 535.185 40.6133 534.865 40.144C534.566 39.6533 534.417 39.056 534.417 38.352C534.417 37.648 534.62 37.0187 535.025 36.464C535.452 35.888 535.91 35.4293 536.401 35.088V34.96C535.782 34.4907 535.238 33.8507 534.769 33.04C534.3 32.2293 534.065 31.3013 534.065 30.256C534.065 28.9333 534.374 27.8027 534.993 26.864C535.633 25.904 536.465 25.1787 537.489 24.688C538.534 24.1973 539.665 23.952 540.881 23.952C541.393 23.952 541.862 23.9947 542.289 24.08C542.737 24.144 543.121 24.24 543.441 24.368H549.681V27.152H546.353C546.673 27.5147 546.94 27.9733 547.153 28.528C547.366 29.0827 547.473 29.6907 547.473 30.352C547.473 31.632 547.174 32.7307 546.577 33.648C546.001 34.544 545.212 35.2373 544.209 35.728C543.206 36.1973 542.097 36.432 540.881 36.432C540.497 36.432 540.081 36.3893 539.633 36.304C539.206 36.1973 538.801 36.0693 538.417 35.92C538.14 36.1547 537.905 36.4107 537.713 36.688C537.542 36.9653 537.457 37.3173 537.457 37.744C537.457 38.256 537.66 38.672 538.065 38.992C538.492 39.312 539.27 39.472 540.401 39.472H543.665C545.734 39.472 547.302 39.8133 548.369 40.496C549.436 41.1573 549.969 42.2347 549.969 43.728C549.969 44.8587 549.596 45.8933 548.849 46.832C548.102 47.7707 547.036 48.5173 545.649 49.072C544.284 49.6267 542.662 49.904 540.785 49.904ZM540.881 34.032C541.478 34.032 542.033 33.8827 542.545 33.584C543.057 33.2853 543.462 32.8587 543.761 32.304C544.06 31.728 544.209 31.0453 544.209 30.256C544.209 29.4667 544.06 28.8053 543.761 28.272C543.462 27.7173 543.057 27.2907 542.545 26.992C542.054 26.6933 541.5 26.544 540.881 26.544C540.262 26.544 539.697 26.6933 539.185 26.992C538.694 27.2907 538.3 27.7173 538.001 28.272C537.702 28.8053 537.553 29.4667 537.553 30.256C537.553 31.0453 537.702 31.728 538.001 32.304C538.321 32.8587 538.726 33.2853 539.217 33.584C539.729 33.8827 540.284 34.032 540.881 34.032ZM541.297 47.472C542.342 47.472 543.238 47.3227 543.985 47.024C544.732 46.7253 545.318 46.3307 545.745 45.84C546.172 45.3707 546.385 44.8693 546.385 44.336C546.385 43.5893 546.108 43.0773 545.553 42.8C544.998 42.544 544.188 42.416 543.121 42.416H540.465C540.038 42.416 539.633 42.3947 539.249 42.352C538.865 42.3093 538.481 42.2453 538.097 42.16C537.585 42.544 537.212 42.96 536.977 43.408C536.742 43.856 536.625 44.2933 536.625 44.72C536.625 45.5733 537.041 46.2453 537.873 46.736C538.705 47.2267 539.846 47.472 541.297 47.472ZM560.745 42V18.416H568.457C570.078 18.416 571.529 18.64 572.809 19.088C574.089 19.5147 575.102 20.2293 575.849 21.232C576.595 22.2133 576.969 23.5573 576.969 25.264C576.969 26.9067 576.595 28.2613 575.849 29.328C575.102 30.3947 574.089 31.1947 572.809 31.728C571.529 32.24 570.078 32.496 568.457 32.496H564.457V42H560.745ZM564.457 29.52H568.009C569.715 29.52 571.017 29.168 571.913 28.464C572.83 27.7387 573.289 26.672 573.289 25.264C573.289 23.8347 572.83 22.8427 571.913 22.288C571.017 21.712 569.715 21.424 568.009 21.424H564.457V29.52ZM573.609 42L567.753 31.504L570.505 29.36L577.801 42H573.609ZM588.285 42.448C586.685 42.448 585.234 42.0853 583.933 41.36C582.631 40.6133 581.597 39.5573 580.829 38.192C580.061 36.8053 579.677 35.1413 579.677 33.2C579.677 31.7707 579.901 30.4907 580.349 29.36C580.797 28.208 581.405 27.2373 582.173 26.448C582.941 25.6373 583.805 25.0187 584.765 24.592C585.725 24.1653 586.706 23.952 587.709 23.952C589.266 23.952 590.578 24.304 591.645 25.008C592.711 25.6907 593.522 26.6613 594.077 27.92C594.631 29.1573 594.909 30.608 594.909 32.272C594.909 32.6347 594.887 32.9867 594.845 33.328C594.823 33.648 594.781 33.9253 594.717 34.16H583.293C583.399 35.2693 583.687 36.2293 584.157 37.04C584.647 37.8293 585.277 38.448 586.045 38.896C586.834 39.3227 587.73 39.536 588.733 39.536C589.522 39.536 590.258 39.4187 590.941 39.184C591.623 38.9493 592.285 38.6293 592.925 38.224L594.205 40.56C593.394 41.0933 592.487 41.5413 591.485 41.904C590.503 42.2667 589.437 42.448 588.285 42.448ZM583.261 31.6H591.709C591.709 30.1067 591.367 28.944 590.685 28.112C590.023 27.28 589.053 26.864 587.773 26.864C587.047 26.864 586.365 27.0453 585.725 27.408C585.085 27.7707 584.541 28.304 584.093 29.008C583.666 29.712 583.389 30.576 583.261 31.6ZM606.218 42.448C604.618 42.448 603.188 42.0853 601.93 41.36C600.671 40.6133 599.668 39.5573 598.922 38.192C598.175 36.8053 597.802 35.1413 597.802 33.2C597.802 31.2373 598.207 29.5733 599.018 28.208C599.828 26.8213 600.895 25.7653 602.218 25.04C603.54 24.3147 604.97 23.952 606.506 23.952C607.636 23.952 608.618 24.144 609.45 24.528C610.282 24.912 611.018 25.392 611.658 25.968L609.834 28.368C609.364 27.9413 608.874 27.6107 608.362 27.376C607.85 27.12 607.295 26.992 606.698 26.992C605.716 26.992 604.842 27.2587 604.074 27.792C603.306 28.304 602.698 29.0293 602.25 29.968C601.823 30.8853 601.61 31.9627 601.61 33.2C601.61 34.4373 601.823 35.5253 602.25 36.464C602.676 37.3813 603.263 38.096 604.01 38.608C604.756 39.12 605.61 39.376 606.57 39.376C607.316 39.376 608.01 39.2267 608.65 38.928C609.29 38.608 609.876 38.224 610.41 37.776L611.946 40.24C611.135 40.9653 610.228 41.52 609.226 41.904C608.223 42.2667 607.22 42.448 606.218 42.448ZM621.684 42.448C620.233 42.448 618.868 42.0853 617.588 41.36C616.329 40.6133 615.305 39.5573 614.516 38.192C613.748 36.8053 613.364 35.1413 613.364 33.2C613.364 31.2373 613.748 29.5733 614.516 28.208C615.305 26.8213 616.329 25.7653 617.588 25.04C618.868 24.3147 620.233 23.952 621.684 23.952C622.751 23.952 623.785 24.1653 624.788 24.592C625.791 24.9973 626.676 25.5947 627.444 26.384C628.212 27.1733 628.82 28.144 629.268 29.296C629.716 30.4267 629.94 31.728 629.94 33.2C629.94 35.1413 629.545 36.8053 628.756 38.192C627.988 39.5573 626.975 40.6133 625.716 41.36C624.479 42.0853 623.135 42.448 621.684 42.448ZM621.684 39.376C622.601 39.376 623.391 39.12 624.052 38.608C624.735 38.096 625.257 37.3813 625.62 36.464C625.983 35.5253 626.164 34.4373 626.164 33.2C626.164 31.9627 625.983 30.8853 625.62 29.968C625.257 29.0293 624.735 28.304 624.052 27.792C623.391 27.2587 622.601 26.992 621.684 26.992C620.745 26.992 619.935 27.2587 619.252 27.792C618.591 28.304 618.079 29.0293 617.716 29.968C617.353 30.8853 617.172 31.9627 617.172 33.2C617.172 34.4373 617.353 35.5253 617.716 36.464C618.079 37.3813 618.591 38.096 619.252 38.608C619.935 39.12 620.745 39.376 621.684 39.376ZM634.3 42V24.368H637.308L637.628 27.536H637.692C638.332 26.4053 639.089 25.5307 639.964 24.912C640.838 24.272 641.756 23.952 642.716 23.952C643.142 23.952 643.505 23.984 643.804 24.048C644.102 24.112 644.39 24.1973 644.668 24.304L644.028 27.536C643.708 27.4293 643.42 27.3547 643.164 27.312C642.908 27.2693 642.598 27.248 642.236 27.248C641.532 27.248 640.785 27.536 639.996 28.112C639.206 28.6667 638.534 29.648 637.98 31.056V42H634.3ZM652.941 42.448C651.491 42.448 650.221 42.0853 649.133 41.36C648.045 40.6347 647.203 39.5787 646.605 38.192C646.008 36.8053 645.709 35.1413 645.709 33.2C645.709 31.3013 646.061 29.6587 646.765 28.272C647.491 26.8853 648.419 25.8187 649.549 25.072C650.701 24.3253 651.928 23.952 653.229 23.952C654.253 23.952 655.117 24.1333 655.821 24.496C656.547 24.8373 657.261 25.3173 657.965 25.936L657.837 23.024V16.496H661.517V42H658.509L658.189 40.016H658.093C657.432 40.6987 656.664 41.2747 655.789 41.744C654.915 42.2133 653.965 42.448 652.941 42.448ZM653.837 39.344C654.584 39.344 655.277 39.1733 655.917 38.832C656.557 38.4907 657.197 37.9467 657.837 37.2V28.624C657.197 28.048 656.557 27.6427 655.917 27.408C655.277 27.152 654.627 27.024 653.965 27.024C653.155 27.024 652.408 27.28 651.725 27.792C651.064 28.2827 650.531 28.9867 650.125 29.904C649.72 30.8 649.517 31.888 649.517 33.168C649.517 34.4907 649.688 35.6213 650.029 36.56C650.371 37.4773 650.861 38.1707 651.501 38.64C652.163 39.1093 652.941 39.344 653.837 39.344ZM671.818 42.448C670.623 42.448 669.428 42.2133 668.234 41.744C667.06 41.2747 666.047 40.688 665.194 39.984L666.954 37.584C667.722 38.2027 668.5 38.704 669.29 39.088C670.1 39.4507 670.975 39.632 671.914 39.632C672.959 39.632 673.727 39.408 674.218 38.96C674.73 38.4907 674.986 37.9253 674.986 37.264C674.986 36.7307 674.794 36.2827 674.41 35.92C674.047 35.5573 673.567 35.248 672.97 34.992C672.372 34.7147 671.754 34.4587 671.114 34.224C670.324 33.9253 669.546 33.5733 668.778 33.168C668.031 32.7413 667.412 32.208 666.922 31.568C666.431 30.9067 666.186 30.0853 666.186 29.104C666.186 28.1013 666.431 27.216 666.922 26.448C667.434 25.68 668.159 25.072 669.098 24.624C670.036 24.176 671.156 23.952 672.458 23.952C673.631 23.952 674.698 24.1547 675.658 24.56C676.639 24.9653 677.471 25.456 678.154 26.032L676.458 28.304C675.839 27.856 675.21 27.4933 674.57 27.216C673.93 26.9173 673.258 26.768 672.554 26.768C671.572 26.768 670.847 26.9813 670.378 27.408C669.908 27.8133 669.674 28.3253 669.674 28.944C669.674 29.4347 669.844 29.84 670.186 30.16C670.527 30.48 670.975 30.7573 671.53 30.992C672.106 31.2267 672.714 31.472 673.354 31.728C673.972 31.9413 674.58 32.1973 675.178 32.496C675.796 32.7733 676.351 33.1147 676.842 33.52C677.332 33.904 677.727 34.384 678.026 34.96C678.346 35.5147 678.506 36.208 678.506 37.04C678.506 38.0213 678.25 38.928 677.738 39.76C677.226 40.592 676.479 41.2533 675.498 41.744C674.516 42.2133 673.29 42.448 671.818 42.448Z" fill="white"/>
</svg>
